<?xml version="1.0" encoding="UTF-8"?>
<svg xmlns="http://www.w3.org/2000/svg" version="1.1" width="264" height="264" viewBox="0 0 264 264">
<rect width="100%" height="100%" fill="#ffffff"/>
<path d="M16,16h8v8h-8ZM24,16h8v8h-8ZM32,16h8v8h-8ZM40,16h8v8h-8ZM48,16h8v8h-8ZM56,16h8v8h-8ZM64,16h8v8h-8ZM80,16h8v8h-8ZM120,16h8v8h-8ZM128,16h8v8h-8ZM136,16h8v8h-8ZM152,16h8v8h-8ZM160,16h8v8h-8ZM168,16h8v8h-8ZM176,16h8v8h-8ZM192,16h8v8h-8ZM200,16h8v8h-8ZM208,16h8v8h-8ZM216,16h8v8h-8ZM224,16h8v8h-8ZM232,16h8v8h-8ZM240,16h8v8h-8ZM16,24h8v8h-8ZM64,24h8v8h-8ZM96,24h8v8h-8ZM112,24h8v8h-8ZM120,24h8v8h-8ZM128,24h8v8h-8ZM136,24h8v8h-8ZM144,24h8v8h-8ZM152,24h8v8h-8ZM176,24h8v8h-8ZM192,24h8v8h-8ZM240,24h8v8h-8ZM16,32h8v8h-8ZM32,32h8v8h-8ZM40,32h8v8h-8ZM48,32h8v8h-8ZM64,32h8v8h-8ZM80,32h8v8h-8ZM96,32h8v8h-8ZM104,32h8v8h-8ZM120,32h8v8h-8ZM136,32h8v8h-8ZM160,32h8v8h-8ZM168,32h8v8h-8ZM192,32h8v8h-8ZM208,32h8v8h-8ZM216,32h8v8h-8ZM224,32h8v8h-8ZM240,32h8v8h-8ZM16,40h8v8h-8ZM32,40h8v8h-8ZM40,40h8v8h-8ZM48,40h8v8h-8ZM64,40h8v8h-8ZM80,40h8v8h-8ZM88,40h8v8h-8ZM104,40h8v8h-8ZM128,40h8v8h-8ZM136,40h8v8h-8ZM152,40h8v8h-8ZM160,40h8v8h-8ZM192,40h8v8h-8ZM208,40h8v8h-8ZM216,40h8v8h-8ZM224,40h8v8h-8ZM240,40h8v8h-8ZM16,48h8v8h-8ZM32,48h8v8h-8ZM40,48h8v8h-8ZM48,48h8v8h-8ZM64,48h8v8h-8ZM80,48h8v8h-8ZM112,48h8v8h-8ZM136,48h8v8h-8ZM144,48h8v8h-8ZM152,48h8v8h-8ZM160,48h8v8h-8ZM168,48h8v8h-8ZM176,48h8v8h-8ZM192,48h8v8h-8ZM208,48h8v8h-8ZM216,48h8v8h-8ZM224,48h8v8h-8ZM240,48h8v8h-8ZM16,56h8v8h-8ZM64,56h8v8h-8ZM80,56h8v8h-8ZM104,56h8v8h-8ZM152,56h8v8h-8ZM176,56h8v8h-8ZM192,56h8v8h-8ZM240,56h8v8h-8ZM16,64h8v8h-8ZM24,64h8v8h-8ZM32,64h8v8h-8ZM40,64h8v8h-8ZM48,64h8v8h-8ZM56,64h8v8h-8ZM64,64h8v8h-8ZM80,64h8v8h-8ZM96,64h8v8h-8ZM112,64h8v8h-8ZM128,64h8v8h-8ZM144,64h8v8h-8ZM160,64h8v8h-8ZM176,64h8v8h-8ZM192,64h8v8h-8ZM200,64h8v8h-8ZM208,64h8v8h-8ZM216,64h8v8h-8ZM224,64h8v8h-8ZM232,64h8v8h-8ZM240,64h8v8h-8ZM96,72h8v8h-8ZM104,72h8v8h-8ZM128,72h8v8h-8ZM144,72h8v8h-8ZM32,80h8v8h-8ZM40,80h8v8h-8ZM48,80h8v8h-8ZM56,80h8v8h-8ZM64,80h8v8h-8ZM72,80h8v8h-8ZM96,80h8v8h-8ZM104,80h8v8h-8ZM144,80h8v8h-8ZM152,80h8v8h-8ZM168,80h8v8h-8ZM192,80h8v8h-8ZM200,80h8v8h-8ZM208,80h8v8h-8ZM216,80h8v8h-8ZM224,80h8v8h-8ZM32,88h8v8h-8ZM40,88h8v8h-8ZM48,88h8v8h-8ZM80,88h8v8h-8ZM112,88h8v8h-8ZM120,88h8v8h-8ZM128,88h8v8h-8ZM136,88h8v8h-8ZM168,88h8v8h-8ZM176,88h8v8h-8ZM192,88h8v8h-8ZM200,88h8v8h-8ZM208,88h8v8h-8ZM240,88h8v8h-8ZM32,96h8v8h-8ZM40,96h8v8h-8ZM48,96h8v8h-8ZM64,96h8v8h-8ZM80,96h8v8h-8ZM96,96h8v8h-8ZM104,96h8v8h-8ZM112,96h8v8h-8ZM120,96h8v8h-8ZM128,96h8v8h-8ZM136,96h8v8h-8ZM144,96h8v8h-8ZM160,96h8v8h-8ZM208,96h8v8h-8ZM16,104h8v8h-8ZM24,104h8v8h-8ZM32,104h8v8h-8ZM56,104h8v8h-8ZM72,104h8v8h-8ZM112,104h8v8h-8ZM120,104h8v8h-8ZM136,104h8v8h-8ZM168,104h8v8h-8ZM216,104h8v8h-8ZM232,104h8v8h-8ZM16,112h8v8h-8ZM24,112h8v8h-8ZM32,112h8v8h-8ZM56,112h8v8h-8ZM64,112h8v8h-8ZM88,112h8v8h-8ZM112,112h8v8h-8ZM128,112h8v8h-8ZM136,112h8v8h-8ZM152,112h8v8h-8ZM176,112h8v8h-8ZM216,112h8v8h-8ZM224,112h8v8h-8ZM16,120h8v8h-8ZM40,120h8v8h-8ZM48,120h8v8h-8ZM88,120h8v8h-8ZM112,120h8v8h-8ZM136,120h8v8h-8ZM144,120h8v8h-8ZM152,120h8v8h-8ZM160,120h8v8h-8ZM168,120h8v8h-8ZM176,120h8v8h-8ZM184,120h8v8h-8ZM192,120h8v8h-8ZM200,120h8v8h-8ZM208,120h8v8h-8ZM240,120h8v8h-8ZM32,128h8v8h-8ZM40,128h8v8h-8ZM48,128h8v8h-8ZM56,128h8v8h-8ZM64,128h8v8h-8ZM72,128h8v8h-8ZM80,128h8v8h-8ZM88,128h8v8h-8ZM104,128h8v8h-8ZM112,128h8v8h-8ZM160,128h8v8h-8ZM176,128h8v8h-8ZM184,128h8v8h-8ZM208,128h8v8h-8ZM216,128h8v8h-8ZM224,128h8v8h-8ZM56,136h8v8h-8ZM88,136h8v8h-8ZM96,136h8v8h-8ZM112,136h8v8h-8ZM128,136h8v8h-8ZM144,136h8v8h-8ZM168,136h8v8h-8ZM176,136h8v8h-8ZM184,136h8v8h-8ZM192,136h8v8h-8ZM200,136h8v8h-8ZM208,136h8v8h-8ZM232,136h8v8h-8ZM16,144h8v8h-8ZM24,144h8v8h-8ZM32,144h8v8h-8ZM48,144h8v8h-8ZM56,144h8v8h-8ZM64,144h8v8h-8ZM72,144h8v8h-8ZM80,144h8v8h-8ZM96,144h8v8h-8ZM104,144h8v8h-8ZM144,144h8v8h-8ZM152,144h8v8h-8ZM168,144h8v8h-8ZM184,144h8v8h-8ZM200,144h8v8h-8ZM216,144h8v8h-8ZM224,144h8v8h-8ZM16,152h8v8h-8ZM24,152h8v8h-8ZM40,152h8v8h-8ZM80,152h8v8h-8ZM88,152h8v8h-8ZM120,152h8v8h-8ZM128,152h8v8h-8ZM136,152h8v8h-8ZM168,152h8v8h-8ZM184,152h8v8h-8ZM192,152h8v8h-8ZM200,152h8v8h-8ZM208,152h8v8h-8ZM224,152h8v8h-8ZM240,152h8v8h-8ZM16,160h8v8h-8ZM32,160h8v8h-8ZM40,160h8v8h-8ZM56,160h8v8h-8ZM64,160h8v8h-8ZM96,160h8v8h-8ZM112,160h8v8h-8ZM120,160h8v8h-8ZM128,160h8v8h-8ZM136,160h8v8h-8ZM144,160h8v8h-8ZM152,160h8v8h-8ZM160,160h8v8h-8ZM176,160h8v8h-8ZM192,160h8v8h-8ZM200,160h8v8h-8ZM208,160h8v8h-8ZM224,160h8v8h-8ZM16,168h8v8h-8ZM40,168h8v8h-8ZM88,168h8v8h-8ZM96,168h8v8h-8ZM104,168h8v8h-8ZM120,168h8v8h-8ZM136,168h8v8h-8ZM160,168h8v8h-8ZM176,168h8v8h-8ZM184,168h8v8h-8ZM192,168h8v8h-8ZM232,168h8v8h-8ZM16,176h8v8h-8ZM40,176h8v8h-8ZM48,176h8v8h-8ZM64,176h8v8h-8ZM72,176h8v8h-8ZM88,176h8v8h-8ZM128,176h8v8h-8ZM136,176h8v8h-8ZM152,176h8v8h-8ZM168,176h8v8h-8ZM176,176h8v8h-8ZM184,176h8v8h-8ZM192,176h8v8h-8ZM200,176h8v8h-8ZM208,176h8v8h-8ZM224,176h8v8h-8ZM232,176h8v8h-8ZM240,176h8v8h-8ZM80,184h8v8h-8ZM96,184h8v8h-8ZM104,184h8v8h-8ZM112,184h8v8h-8ZM136,184h8v8h-8ZM144,184h8v8h-8ZM152,184h8v8h-8ZM160,184h8v8h-8ZM176,184h8v8h-8ZM208,184h8v8h-8ZM216,184h8v8h-8ZM224,184h8v8h-8ZM232,184h8v8h-8ZM240,184h8v8h-8ZM16,192h8v8h-8ZM24,192h8v8h-8ZM32,192h8v8h-8ZM40,192h8v8h-8ZM48,192h8v8h-8ZM56,192h8v8h-8ZM64,192h8v8h-8ZM88,192h8v8h-8ZM104,192h8v8h-8ZM112,192h8v8h-8ZM152,192h8v8h-8ZM168,192h8v8h-8ZM176,192h8v8h-8ZM192,192h8v8h-8ZM208,192h8v8h-8ZM216,192h8v8h-8ZM224,192h8v8h-8ZM16,200h8v8h-8ZM64,200h8v8h-8ZM80,200h8v8h-8ZM88,200h8v8h-8ZM96,200h8v8h-8ZM128,200h8v8h-8ZM144,200h8v8h-8ZM168,200h8v8h-8ZM176,200h8v8h-8ZM208,200h8v8h-8ZM232,200h8v8h-8ZM240,200h8v8h-8ZM16,208h8v8h-8ZM32,208h8v8h-8ZM40,208h8v8h-8ZM48,208h8v8h-8ZM64,208h8v8h-8ZM80,208h8v8h-8ZM112,208h8v8h-8ZM152,208h8v8h-8ZM176,208h8v8h-8ZM184,208h8v8h-8ZM192,208h8v8h-8ZM200,208h8v8h-8ZM208,208h8v8h-8ZM224,208h8v8h-8ZM240,208h8v8h-8ZM16,216h8v8h-8ZM32,216h8v8h-8ZM40,216h8v8h-8ZM48,216h8v8h-8ZM64,216h8v8h-8ZM80,216h8v8h-8ZM88,216h8v8h-8ZM96,216h8v8h-8ZM112,216h8v8h-8ZM120,216h8v8h-8ZM128,216h8v8h-8ZM136,216h8v8h-8ZM160,216h8v8h-8ZM168,216h8v8h-8ZM176,216h8v8h-8ZM216,216h8v8h-8ZM224,216h8v8h-8ZM16,224h8v8h-8ZM32,224h8v8h-8ZM40,224h8v8h-8ZM48,224h8v8h-8ZM64,224h8v8h-8ZM80,224h8v8h-8ZM96,224h8v8h-8ZM104,224h8v8h-8ZM112,224h8v8h-8ZM120,224h8v8h-8ZM128,224h8v8h-8ZM136,224h8v8h-8ZM168,224h8v8h-8ZM176,224h8v8h-8ZM184,224h8v8h-8ZM192,224h8v8h-8ZM200,224h8v8h-8ZM208,224h8v8h-8ZM216,224h8v8h-8ZM224,224h8v8h-8ZM232,224h8v8h-8ZM16,232h8v8h-8ZM64,232h8v8h-8ZM88,232h8v8h-8ZM112,232h8v8h-8ZM120,232h8v8h-8ZM136,232h8v8h-8ZM176,232h8v8h-8ZM184,232h8v8h-8ZM200,232h8v8h-8ZM216,232h8v8h-8ZM232,232h8v8h-8ZM16,240h8v8h-8ZM24,240h8v8h-8ZM32,240h8v8h-8ZM40,240h8v8h-8ZM48,240h8v8h-8ZM56,240h8v8h-8ZM64,240h8v8h-8ZM80,240h8v8h-8ZM112,240h8v8h-8ZM144,240h8v8h-8ZM152,240h8v8h-8ZM168,240h8v8h-8ZM192,240h8v8h-8ZM200,240h8v8h-8ZM208,240h8v8h-8ZM224,240h8v8h-8Z" fill="#000000"/>
</svg>
