<?xml version="1.0" encoding="UTF-8"?>
<svg xmlns="http://www.w3.org/2000/svg" version="1.1" width="246" height="246" viewBox="0 0 246 246">
<rect width="100%" height="100%" fill="#ffffff"/>
<path d="M12,12h6v6h-6ZM18,12h6v6h-6ZM24,12h6v6h-6ZM30,12h6v6h-6ZM36,12h6v6h-6ZM42,12h6v6h-6ZM48,12h6v6h-6ZM60,12h6v6h-6ZM66,12h6v6h-6ZM78,12h6v6h-6ZM84,12h6v6h-6ZM114,12h6v6h-6ZM126,12h6v6h-6ZM132,12h6v6h-6ZM138,12h6v6h-6ZM150,12h6v6h-6ZM162,12h6v6h-6ZM168,12h6v6h-6ZM174,12h6v6h-6ZM180,12h6v6h-6ZM192,12h6v6h-6ZM198,12h6v6h-6ZM204,12h6v6h-6ZM210,12h6v6h-6ZM216,12h6v6h-6ZM222,12h6v6h-6ZM228,12h6v6h-6ZM12,18h6v6h-6ZM48,18h6v6h-6ZM66,18h6v6h-6ZM96,18h6v6h-6ZM102,18h6v6h-6ZM126,18h6v6h-6ZM144,18h6v6h-6ZM156,18h6v6h-6ZM162,18h6v6h-6ZM168,18h6v6h-6ZM180,18h6v6h-6ZM192,18h6v6h-6ZM228,18h6v6h-6ZM12,24h6v6h-6ZM24,24h6v6h-6ZM30,24h6v6h-6ZM36,24h6v6h-6ZM48,24h6v6h-6ZM66,24h6v6h-6ZM72,24h6v6h-6ZM96,24h6v6h-6ZM102,24h6v6h-6ZM108,24h6v6h-6ZM114,24h6v6h-6ZM120,24h6v6h-6ZM138,24h6v6h-6ZM150,24h6v6h-6ZM156,24h6v6h-6ZM174,24h6v6h-6ZM180,24h6v6h-6ZM192,24h6v6h-6ZM204,24h6v6h-6ZM210,24h6v6h-6ZM216,24h6v6h-6ZM228,24h6v6h-6ZM12,30h6v6h-6ZM24,30h6v6h-6ZM30,30h6v6h-6ZM36,30h6v6h-6ZM48,30h6v6h-6ZM72,30h6v6h-6ZM90,30h6v6h-6ZM108,30h6v6h-6ZM120,30h6v6h-6ZM138,30h6v6h-6ZM150,30h6v6h-6ZM162,30h6v6h-6ZM174,30h6v6h-6ZM192,30h6v6h-6ZM204,30h6v6h-6ZM210,30h6v6h-6ZM216,30h6v6h-6ZM228,30h6v6h-6ZM12,36h6v6h-6ZM24,36h6v6h-6ZM30,36h6v6h-6ZM36,36h6v6h-6ZM48,36h6v6h-6ZM60,36h6v6h-6ZM90,36h6v6h-6ZM96,36h6v6h-6ZM114,36h6v6h-6ZM138,36h6v6h-6ZM144,36h6v6h-6ZM162,36h6v6h-6ZM180,36h6v6h-6ZM192,36h6v6h-6ZM204,36h6v6h-6ZM210,36h6v6h-6ZM216,36h6v6h-6ZM228,36h6v6h-6ZM12,42h6v6h-6ZM48,42h6v6h-6ZM72,42h6v6h-6ZM78,42h6v6h-6ZM84,42h6v6h-6ZM90,42h6v6h-6ZM96,42h6v6h-6ZM114,42h6v6h-6ZM126,42h6v6h-6ZM132,42h6v6h-6ZM156,42h6v6h-6ZM168,42h6v6h-6ZM180,42h6v6h-6ZM192,42h6v6h-6ZM228,42h6v6h-6ZM12,48h6v6h-6ZM18,48h6v6h-6ZM24,48h6v6h-6ZM30,48h6v6h-6ZM36,48h6v6h-6ZM42,48h6v6h-6ZM48,48h6v6h-6ZM60,48h6v6h-6ZM72,48h6v6h-6ZM84,48h6v6h-6ZM96,48h6v6h-6ZM108,48h6v6h-6ZM120,48h6v6h-6ZM132,48h6v6h-6ZM144,48h6v6h-6ZM156,48h6v6h-6ZM168,48h6v6h-6ZM180,48h6v6h-6ZM192,48h6v6h-6ZM198,48h6v6h-6ZM204,48h6v6h-6ZM210,48h6v6h-6ZM216,48h6v6h-6ZM222,48h6v6h-6ZM228,48h6v6h-6ZM60,54h6v6h-6ZM66,54h6v6h-6ZM78,54h6v6h-6ZM90,54h6v6h-6ZM102,54h6v6h-6ZM132,54h6v6h-6ZM138,54h6v6h-6ZM150,54h6v6h-6ZM156,54h6v6h-6ZM174,54h6v6h-6ZM12,60h6v6h-6ZM30,60h6v6h-6ZM36,60h6v6h-6ZM42,60h6v6h-6ZM48,60h6v6h-6ZM54,60h6v6h-6ZM60,60h6v6h-6ZM66,60h6v6h-6ZM78,60h6v6h-6ZM108,60h6v6h-6ZM132,60h6v6h-6ZM138,60h6v6h-6ZM144,60h6v6h-6ZM186,60h6v6h-6ZM192,60h6v6h-6ZM198,60h6v6h-6ZM204,60h6v6h-6ZM210,60h6v6h-6ZM228,60h6v6h-6ZM18,66h6v6h-6ZM30,66h6v6h-6ZM36,66h6v6h-6ZM42,66h6v6h-6ZM60,66h6v6h-6ZM66,66h6v6h-6ZM72,66h6v6h-6ZM96,66h6v6h-6ZM120,66h6v6h-6ZM126,66h6v6h-6ZM150,66h6v6h-6ZM162,66h6v6h-6ZM168,66h6v6h-6ZM174,66h6v6h-6ZM180,66h6v6h-6ZM198,66h6v6h-6ZM204,66h6v6h-6ZM210,66h6v6h-6ZM216,66h6v6h-6ZM222,66h6v6h-6ZM24,72h6v6h-6ZM30,72h6v6h-6ZM36,72h6v6h-6ZM42,72h6v6h-6ZM48,72h6v6h-6ZM54,72h6v6h-6ZM60,72h6v6h-6ZM66,72h6v6h-6ZM78,72h6v6h-6ZM102,72h6v6h-6ZM120,72h6v6h-6ZM126,72h6v6h-6ZM138,72h6v6h-6ZM144,72h6v6h-6ZM150,72h6v6h-6ZM156,72h6v6h-6ZM168,72h6v6h-6ZM174,72h6v6h-6ZM180,72h6v6h-6ZM186,72h6v6h-6ZM216,72h6v6h-6ZM12,78h6v6h-6ZM18,78h6v6h-6ZM24,78h6v6h-6ZM36,78h6v6h-6ZM42,78h6v6h-6ZM78,78h6v6h-6ZM90,78h6v6h-6ZM102,78h6v6h-6ZM108,78h6v6h-6ZM114,78h6v6h-6ZM126,78h6v6h-6ZM132,78h6v6h-6ZM138,78h6v6h-6ZM144,78h6v6h-6ZM150,78h6v6h-6ZM168,78h6v6h-6ZM174,78h6v6h-6ZM216,78h6v6h-6ZM18,84h6v6h-6ZM42,84h6v6h-6ZM48,84h6v6h-6ZM60,84h6v6h-6ZM66,84h6v6h-6ZM84,84h6v6h-6ZM90,84h6v6h-6ZM96,84h6v6h-6ZM114,84h6v6h-6ZM120,84h6v6h-6ZM132,84h6v6h-6ZM144,84h6v6h-6ZM156,84h6v6h-6ZM162,84h6v6h-6ZM174,84h6v6h-6ZM186,84h6v6h-6ZM192,84h6v6h-6ZM216,84h6v6h-6ZM12,90h6v6h-6ZM18,90h6v6h-6ZM42,90h6v6h-6ZM66,90h6v6h-6ZM78,90h6v6h-6ZM102,90h6v6h-6ZM108,90h6v6h-6ZM126,90h6v6h-6ZM138,90h6v6h-6ZM144,90h6v6h-6ZM162,90h6v6h-6ZM174,90h6v6h-6ZM180,90h6v6h-6ZM192,90h6v6h-6ZM198,90h6v6h-6ZM204,90h6v6h-6ZM210,90h6v6h-6ZM12,96h6v6h-6ZM18,96h6v6h-6ZM24,96h6v6h-6ZM30,96h6v6h-6ZM36,96h6v6h-6ZM42,96h6v6h-6ZM48,96h6v6h-6ZM96,96h6v6h-6ZM102,96h6v6h-6ZM108,96h6v6h-6ZM114,96h6v6h-6ZM132,96h6v6h-6ZM150,96h6v6h-6ZM168,96h6v6h-6ZM174,96h6v6h-6ZM192,96h6v6h-6ZM204,96h6v6h-6ZM210,96h6v6h-6ZM216,96h6v6h-6ZM12,102h6v6h-6ZM30,102h6v6h-6ZM36,102h6v6h-6ZM42,102h6v6h-6ZM54,102h6v6h-6ZM60,102h6v6h-6ZM66,102h6v6h-6ZM72,102h6v6h-6ZM90,102h6v6h-6ZM96,102h6v6h-6ZM114,102h6v6h-6ZM120,102h6v6h-6ZM126,102h6v6h-6ZM138,102h6v6h-6ZM168,102h6v6h-6ZM174,102h6v6h-6ZM180,102h6v6h-6ZM186,102h6v6h-6ZM192,102h6v6h-6ZM204,102h6v6h-6ZM216,102h6v6h-6ZM12,108h6v6h-6ZM24,108h6v6h-6ZM36,108h6v6h-6ZM48,108h6v6h-6ZM66,108h6v6h-6ZM84,108h6v6h-6ZM90,108h6v6h-6ZM102,108h6v6h-6ZM120,108h6v6h-6ZM126,108h6v6h-6ZM138,108h6v6h-6ZM144,108h6v6h-6ZM156,108h6v6h-6ZM192,108h6v6h-6ZM216,108h6v6h-6ZM228,108h6v6h-6ZM30,114h6v6h-6ZM36,114h6v6h-6ZM42,114h6v6h-6ZM60,114h6v6h-6ZM72,114h6v6h-6ZM78,114h6v6h-6ZM90,114h6v6h-6ZM96,114h6v6h-6ZM108,114h6v6h-6ZM126,114h6v6h-6ZM132,114h6v6h-6ZM150,114h6v6h-6ZM162,114h6v6h-6ZM168,114h6v6h-6ZM174,114h6v6h-6ZM180,114h6v6h-6ZM186,114h6v6h-6ZM198,114h6v6h-6ZM204,114h6v6h-6ZM210,114h6v6h-6ZM216,114h6v6h-6ZM12,120h6v6h-6ZM18,120h6v6h-6ZM30,120h6v6h-6ZM36,120h6v6h-6ZM48,120h6v6h-6ZM54,120h6v6h-6ZM72,120h6v6h-6ZM96,120h6v6h-6ZM108,120h6v6h-6ZM120,120h6v6h-6ZM132,120h6v6h-6ZM138,120h6v6h-6ZM150,120h6v6h-6ZM174,120h6v6h-6ZM180,120h6v6h-6ZM186,120h6v6h-6ZM198,120h6v6h-6ZM24,126h6v6h-6ZM30,126h6v6h-6ZM36,126h6v6h-6ZM78,126h6v6h-6ZM84,126h6v6h-6ZM90,126h6v6h-6ZM96,126h6v6h-6ZM114,126h6v6h-6ZM120,126h6v6h-6ZM138,126h6v6h-6ZM144,126h6v6h-6ZM156,126h6v6h-6ZM168,126h6v6h-6ZM198,126h6v6h-6ZM204,126h6v6h-6ZM216,126h6v6h-6ZM222,126h6v6h-6ZM228,126h6v6h-6ZM12,132h6v6h-6ZM18,132h6v6h-6ZM30,132h6v6h-6ZM42,132h6v6h-6ZM48,132h6v6h-6ZM54,132h6v6h-6ZM66,132h6v6h-6ZM72,132h6v6h-6ZM96,132h6v6h-6ZM102,132h6v6h-6ZM126,132h6v6h-6ZM138,132h6v6h-6ZM144,132h6v6h-6ZM150,132h6v6h-6ZM162,132h6v6h-6ZM180,132h6v6h-6ZM192,132h6v6h-6ZM210,132h6v6h-6ZM216,132h6v6h-6ZM228,132h6v6h-6ZM12,138h6v6h-6ZM24,138h6v6h-6ZM30,138h6v6h-6ZM72,138h6v6h-6ZM78,138h6v6h-6ZM84,138h6v6h-6ZM96,138h6v6h-6ZM108,138h6v6h-6ZM114,138h6v6h-6ZM120,138h6v6h-6ZM126,138h6v6h-6ZM138,138h6v6h-6ZM150,138h6v6h-6ZM156,138h6v6h-6ZM168,138h6v6h-6ZM174,138h6v6h-6ZM186,138h6v6h-6ZM198,138h6v6h-6ZM204,138h6v6h-6ZM18,144h6v6h-6ZM36,144h6v6h-6ZM42,144h6v6h-6ZM48,144h6v6h-6ZM78,144h6v6h-6ZM90,144h6v6h-6ZM102,144h6v6h-6ZM108,144h6v6h-6ZM120,144h6v6h-6ZM132,144h6v6h-6ZM150,144h6v6h-6ZM156,144h6v6h-6ZM168,144h6v6h-6ZM174,144h6v6h-6ZM180,144h6v6h-6ZM186,144h6v6h-6ZM204,144h6v6h-6ZM18,150h6v6h-6ZM24,150h6v6h-6ZM30,150h6v6h-6ZM78,150h6v6h-6ZM84,150h6v6h-6ZM132,150h6v6h-6ZM138,150h6v6h-6ZM144,150h6v6h-6ZM150,150h6v6h-6ZM174,150h6v6h-6ZM180,150h6v6h-6ZM186,150h6v6h-6ZM198,150h6v6h-6ZM204,150h6v6h-6ZM216,150h6v6h-6ZM228,150h6v6h-6ZM12,156h6v6h-6ZM18,156h6v6h-6ZM24,156h6v6h-6ZM30,156h6v6h-6ZM36,156h6v6h-6ZM42,156h6v6h-6ZM48,156h6v6h-6ZM78,156h6v6h-6ZM84,156h6v6h-6ZM96,156h6v6h-6ZM108,156h6v6h-6ZM126,156h6v6h-6ZM132,156h6v6h-6ZM150,156h6v6h-6ZM156,156h6v6h-6ZM168,156h6v6h-6ZM192,156h6v6h-6ZM216,156h6v6h-6ZM222,156h6v6h-6ZM12,162h6v6h-6ZM18,162h6v6h-6ZM24,162h6v6h-6ZM30,162h6v6h-6ZM42,162h6v6h-6ZM54,162h6v6h-6ZM66,162h6v6h-6ZM72,162h6v6h-6ZM84,162h6v6h-6ZM96,162h6v6h-6ZM120,162h6v6h-6ZM126,162h6v6h-6ZM150,162h6v6h-6ZM162,162h6v6h-6ZM174,162h6v6h-6ZM186,162h6v6h-6ZM198,162h6v6h-6ZM204,162h6v6h-6ZM210,162h6v6h-6ZM48,168h6v6h-6ZM78,168h6v6h-6ZM84,168h6v6h-6ZM90,168h6v6h-6ZM102,168h6v6h-6ZM114,168h6v6h-6ZM120,168h6v6h-6ZM126,168h6v6h-6ZM150,168h6v6h-6ZM156,168h6v6h-6ZM162,168h6v6h-6ZM168,168h6v6h-6ZM174,168h6v6h-6ZM186,168h6v6h-6ZM216,168h6v6h-6ZM24,174h6v6h-6ZM30,174h6v6h-6ZM42,174h6v6h-6ZM60,174h6v6h-6ZM66,174h6v6h-6ZM72,174h6v6h-6ZM84,174h6v6h-6ZM102,174h6v6h-6ZM108,174h6v6h-6ZM114,174h6v6h-6ZM126,174h6v6h-6ZM132,174h6v6h-6ZM138,174h6v6h-6ZM144,174h6v6h-6ZM156,174h6v6h-6ZM168,174h6v6h-6ZM174,174h6v6h-6ZM180,174h6v6h-6ZM198,174h6v6h-6ZM216,174h6v6h-6ZM222,174h6v6h-6ZM228,174h6v6h-6ZM12,180h6v6h-6ZM18,180h6v6h-6ZM24,180h6v6h-6ZM36,180h6v6h-6ZM48,180h6v6h-6ZM54,180h6v6h-6ZM60,180h6v6h-6ZM66,180h6v6h-6ZM72,180h6v6h-6ZM78,180h6v6h-6ZM90,180h6v6h-6ZM96,180h6v6h-6ZM114,180h6v6h-6ZM144,180h6v6h-6ZM150,180h6v6h-6ZM156,180h6v6h-6ZM180,180h6v6h-6ZM186,180h6v6h-6ZM192,180h6v6h-6ZM198,180h6v6h-6ZM204,180h6v6h-6ZM216,180h6v6h-6ZM222,180h6v6h-6ZM228,180h6v6h-6ZM60,186h6v6h-6ZM66,186h6v6h-6ZM78,186h6v6h-6ZM102,186h6v6h-6ZM108,186h6v6h-6ZM120,186h6v6h-6ZM132,186h6v6h-6ZM138,186h6v6h-6ZM144,186h6v6h-6ZM150,186h6v6h-6ZM168,186h6v6h-6ZM174,186h6v6h-6ZM180,186h6v6h-6ZM204,186h6v6h-6ZM210,186h6v6h-6ZM216,186h6v6h-6ZM222,186h6v6h-6ZM12,192h6v6h-6ZM18,192h6v6h-6ZM24,192h6v6h-6ZM30,192h6v6h-6ZM36,192h6v6h-6ZM42,192h6v6h-6ZM48,192h6v6h-6ZM60,192h6v6h-6ZM90,192h6v6h-6ZM102,192h6v6h-6ZM108,192h6v6h-6ZM114,192h6v6h-6ZM150,192h6v6h-6ZM168,192h6v6h-6ZM174,192h6v6h-6ZM180,192h6v6h-6ZM192,192h6v6h-6ZM204,192h6v6h-6ZM222,192h6v6h-6ZM12,198h6v6h-6ZM48,198h6v6h-6ZM72,198h6v6h-6ZM96,198h6v6h-6ZM114,198h6v6h-6ZM120,198h6v6h-6ZM132,198h6v6h-6ZM144,198h6v6h-6ZM156,198h6v6h-6ZM168,198h6v6h-6ZM180,198h6v6h-6ZM204,198h6v6h-6ZM216,198h6v6h-6ZM12,204h6v6h-6ZM24,204h6v6h-6ZM30,204h6v6h-6ZM36,204h6v6h-6ZM48,204h6v6h-6ZM60,204h6v6h-6ZM66,204h6v6h-6ZM78,204h6v6h-6ZM90,204h6v6h-6ZM96,204h6v6h-6ZM120,204h6v6h-6ZM144,204h6v6h-6ZM156,204h6v6h-6ZM162,204h6v6h-6ZM180,204h6v6h-6ZM186,204h6v6h-6ZM192,204h6v6h-6ZM198,204h6v6h-6ZM204,204h6v6h-6ZM216,204h6v6h-6ZM228,204h6v6h-6ZM12,210h6v6h-6ZM24,210h6v6h-6ZM30,210h6v6h-6ZM36,210h6v6h-6ZM48,210h6v6h-6ZM84,210h6v6h-6ZM90,210h6v6h-6ZM96,210h6v6h-6ZM108,210h6v6h-6ZM114,210h6v6h-6ZM126,210h6v6h-6ZM132,210h6v6h-6ZM150,210h6v6h-6ZM162,210h6v6h-6ZM168,210h6v6h-6ZM180,210h6v6h-6ZM186,210h6v6h-6ZM192,210h6v6h-6ZM198,210h6v6h-6ZM210,210h6v6h-6ZM216,210h6v6h-6ZM228,210h6v6h-6ZM12,216h6v6h-6ZM24,216h6v6h-6ZM30,216h6v6h-6ZM36,216h6v6h-6ZM48,216h6v6h-6ZM72,216h6v6h-6ZM78,216h6v6h-6ZM90,216h6v6h-6ZM108,216h6v6h-6ZM114,216h6v6h-6ZM132,216h6v6h-6ZM138,216h6v6h-6ZM150,216h6v6h-6ZM168,216h6v6h-6ZM174,216h6v6h-6ZM192,216h6v6h-6ZM198,216h6v6h-6ZM210,216h6v6h-6ZM12,222h6v6h-6ZM48,222h6v6h-6ZM78,222h6v6h-6ZM84,222h6v6h-6ZM90,222h6v6h-6ZM114,222h6v6h-6ZM120,222h6v6h-6ZM138,222h6v6h-6ZM144,222h6v6h-6ZM150,222h6v6h-6ZM156,222h6v6h-6ZM168,222h6v6h-6ZM186,222h6v6h-6ZM198,222h6v6h-6ZM216,222h6v6h-6ZM222,222h6v6h-6ZM12,228h6v6h-6ZM18,228h6v6h-6ZM24,228h6v6h-6ZM30,228h6v6h-6ZM36,228h6v6h-6ZM42,228h6v6h-6ZM48,228h6v6h-6ZM60,228h6v6h-6ZM66,228h6v6h-6ZM84,228h6v6h-6ZM90,228h6v6h-6ZM102,228h6v6h-6ZM108,228h6v6h-6ZM114,228h6v6h-6ZM126,228h6v6h-6ZM132,228h6v6h-6ZM144,228h6v6h-6ZM156,228h6v6h-6ZM192,228h6v6h-6ZM198,228h6v6h-6ZM210,228h6v6h-6ZM216,228h6v6h-6ZM222,228h6v6h-6ZM228,228h6v6h-6Z" fill="#F7931A"/>
</svg>
