<?xml version="1.0" encoding="UTF-8"?>
<svg xmlns="http://www.w3.org/2000/svg" version="1.1" width="232" height="232" viewBox="0 0 232 232">
<rect width="100%" height="100%" fill="#ffffff"/>
<circle cx="84.0" cy="20.0" r="3.4" fill=""#000000"/>
<circle cx="108.0" cy="20.0" r="3.4" fill=""#000000"/>
<circle cx="116.0" cy="20.0" r="3.4" fill=""#000000"/>
<circle cx="132.0" cy="20.0" r="3.4" fill=""#000000"/>
<circle cx="108.0" cy="28.0" r="3.4" fill=""#000000"/>
<circle cx="116.0" cy="28.0" r="3.4" fill=""#000000"/>
<circle cx="148.0" cy="28.0" r="3.4" fill=""#000000"/>
<circle cx="92.0" cy="36.0" r="3.4" fill=""#000000"/>
<circle cx="108.0" cy="36.0" r="3.4" fill=""#000000"/>
<circle cx="116.0" cy="36.0" r="3.4" fill=""#000000"/>
<circle cx="124.0" cy="36.0" r="3.4" fill=""#000000"/>
<circle cx="140.0" cy="36.0" r="3.4" fill=""#000000"/>
<circle cx="148.0" cy="36.0" r="3.4" fill=""#000000"/>
<circle cx="84.0" cy="44.0" r="3.4" fill=""#000000"/>
<circle cx="124.0" cy="44.0" r="3.4" fill=""#000000"/>
<circle cx="148.0" cy="44.0" r="3.4" fill=""#000000"/>
<circle cx="84.0" cy="52.0" r="3.4" fill=""#000000"/>
<circle cx="92.0" cy="52.0" r="3.4" fill=""#000000"/>
<circle cx="108.0" cy="52.0" r="3.4" fill=""#000000"/>
<circle cx="116.0" cy="52.0" r="3.4" fill=""#000000"/>
<circle cx="132.0" cy="52.0" r="3.4" fill=""#000000"/>
<circle cx="148.0" cy="52.0" r="3.4" fill=""#000000"/>
<circle cx="84.0" cy="60.0" r="3.4" fill=""#000000"/>
<circle cx="108.0" cy="60.0" r="3.4" fill=""#000000"/>
<circle cx="116.0" cy="60.0" r="3.4" fill=""#000000"/>
<circle cx="124.0" cy="60.0" r="3.4" fill=""#000000"/>
<circle cx="132.0" cy="60.0" r="3.4" fill=""#000000"/>
<circle cx="148.0" cy="60.0" r="3.4" fill=""#000000"/>
<circle cx="84.0" cy="68.0" r="3.4" fill=""#000000"/>
<circle cx="100.0" cy="68.0" r="3.4" fill=""#000000"/>
<circle cx="116.0" cy="68.0" r="3.4" fill=""#000000"/>
<circle cx="132.0" cy="68.0" r="3.4" fill=""#000000"/>
<circle cx="148.0" cy="68.0" r="3.4" fill=""#000000"/>
<circle cx="84.0" cy="76.0" r="3.4" fill=""#000000"/>
<circle cx="108.0" cy="76.0" r="3.4" fill=""#000000"/>
<circle cx="116.0" cy="76.0" r="3.4" fill=""#000000"/>
<circle cx="124.0" cy="76.0" r="3.4" fill=""#000000"/>
<circle cx="148.0" cy="76.0" r="3.4" fill=""#000000"/>
<circle cx="20.0" cy="84.0" r="3.4" fill=""#000000"/>
<circle cx="28.0" cy="84.0" r="3.4" fill=""#000000"/>
<circle cx="36.0" cy="84.0" r="3.4" fill=""#000000"/>
<circle cx="52.0" cy="84.0" r="3.4" fill=""#000000"/>
<circle cx="68.0" cy="84.0" r="3.4" fill=""#000000"/>
<circle cx="84.0" cy="84.0" r="3.4" fill=""#000000"/>
<circle cx="100.0" cy="84.0" r="3.4" fill=""#000000"/>
<circle cx="108.0" cy="84.0" r="3.4" fill=""#000000"/>
<circle cx="116.0" cy="84.0" r="3.4" fill=""#000000"/>
<circle cx="148.0" cy="84.0" r="3.4" fill=""#000000"/>
<circle cx="156.0" cy="84.0" r="3.4" fill=""#000000"/>
<circle cx="180.0" cy="84.0" r="3.4" fill=""#000000"/>
<circle cx="196.0" cy="84.0" r="3.4" fill=""#000000"/>
<circle cx="204.0" cy="84.0" r="3.4" fill=""#000000"/>
<circle cx="212.0" cy="84.0" r="3.4" fill=""#000000"/>
<circle cx="20.0" cy="92.0" r="3.4" fill=""#000000"/>
<circle cx="44.0" cy="92.0" r="3.4" fill=""#000000"/>
<circle cx="52.0" cy="92.0" r="3.4" fill=""#000000"/>
<circle cx="60.0" cy="92.0" r="3.4" fill=""#000000"/>
<circle cx="76.0" cy="92.0" r="3.4" fill=""#000000"/>
<circle cx="92.0" cy="92.0" r="3.4" fill=""#000000"/>
<circle cx="108.0" cy="92.0" r="3.4" fill=""#000000"/>
<circle cx="116.0" cy="92.0" r="3.4" fill=""#000000"/>
<circle cx="124.0" cy="92.0" r="3.4" fill=""#000000"/>
<circle cx="132.0" cy="92.0" r="3.4" fill=""#000000"/>
<circle cx="140.0" cy="92.0" r="3.4" fill=""#000000"/>
<circle cx="172.0" cy="92.0" r="3.4" fill=""#000000"/>
<circle cx="180.0" cy="92.0" r="3.4" fill=""#000000"/>
<circle cx="188.0" cy="92.0" r="3.4" fill=""#000000"/>
<circle cx="196.0" cy="92.0" r="3.4" fill=""#000000"/>
<circle cx="204.0" cy="92.0" r="3.4" fill=""#000000"/>
<circle cx="28.0" cy="100.0" r="3.4" fill=""#000000"/>
<circle cx="36.0" cy="100.0" r="3.4" fill=""#000000"/>
<circle cx="68.0" cy="100.0" r="3.4" fill=""#000000"/>
<circle cx="84.0" cy="100.0" r="3.4" fill=""#000000"/>
<circle cx="100.0" cy="100.0" r="3.4" fill=""#000000"/>
<circle cx="116.0" cy="100.0" r="3.4" fill=""#000000"/>
<circle cx="124.0" cy="100.0" r="3.4" fill=""#000000"/>
<circle cx="140.0" cy="100.0" r="3.4" fill=""#000000"/>
<circle cx="148.0" cy="100.0" r="3.4" fill=""#000000"/>
<circle cx="172.0" cy="100.0" r="3.4" fill=""#000000"/>
<circle cx="180.0" cy="100.0" r="3.4" fill=""#000000"/>
<circle cx="188.0" cy="100.0" r="3.4" fill=""#000000"/>
<circle cx="212.0" cy="100.0" r="3.4" fill=""#000000"/>
<circle cx="28.0" cy="108.0" r="3.4" fill=""#000000"/>
<circle cx="60.0" cy="108.0" r="3.4" fill=""#000000"/>
<circle cx="76.0" cy="108.0" r="3.4" fill=""#000000"/>
<circle cx="100.0" cy="108.0" r="3.4" fill=""#000000"/>
<circle cx="156.0" cy="108.0" r="3.4" fill=""#000000"/>
<circle cx="164.0" cy="108.0" r="3.4" fill=""#000000"/>
<circle cx="172.0" cy="108.0" r="3.4" fill=""#000000"/>
<circle cx="188.0" cy="108.0" r="3.4" fill=""#000000"/>
<circle cx="196.0" cy="108.0" r="3.4" fill=""#000000"/>
<circle cx="204.0" cy="108.0" r="3.4" fill=""#000000"/>
<circle cx="212.0" cy="108.0" r="3.4" fill=""#000000"/>
<circle cx="20.0" cy="116.0" r="3.4" fill=""#000000"/>
<circle cx="28.0" cy="116.0" r="3.4" fill=""#000000"/>
<circle cx="52.0" cy="116.0" r="3.4" fill=""#000000"/>
<circle cx="68.0" cy="116.0" r="3.4" fill=""#000000"/>
<circle cx="84.0" cy="116.0" r="3.4" fill=""#000000"/>
<circle cx="92.0" cy="116.0" r="3.4" fill=""#000000"/>
<circle cx="116.0" cy="116.0" r="3.4" fill=""#000000"/>
<circle cx="148.0" cy="116.0" r="3.4" fill=""#000000"/>
<circle cx="164.0" cy="116.0" r="3.4" fill=""#000000"/>
<circle cx="172.0" cy="116.0" r="3.4" fill=""#000000"/>
<circle cx="212.0" cy="116.0" r="3.4" fill=""#000000"/>
<circle cx="20.0" cy="124.0" r="3.4" fill=""#000000"/>
<circle cx="44.0" cy="124.0" r="3.4" fill=""#000000"/>
<circle cx="52.0" cy="124.0" r="3.4" fill=""#000000"/>
<circle cx="76.0" cy="124.0" r="3.4" fill=""#000000"/>
<circle cx="84.0" cy="124.0" r="3.4" fill=""#000000"/>
<circle cx="132.0" cy="124.0" r="3.4" fill=""#000000"/>
<circle cx="140.0" cy="124.0" r="3.4" fill=""#000000"/>
<circle cx="180.0" cy="124.0" r="3.4" fill=""#000000"/>
<circle cx="204.0" cy="124.0" r="3.4" fill=""#000000"/>
<circle cx="20.0" cy="132.0" r="3.4" fill=""#000000"/>
<circle cx="28.0" cy="132.0" r="3.4" fill=""#000000"/>
<circle cx="44.0" cy="132.0" r="3.4" fill=""#000000"/>
<circle cx="52.0" cy="132.0" r="3.4" fill=""#000000"/>
<circle cx="60.0" cy="132.0" r="3.4" fill=""#000000"/>
<circle cx="68.0" cy="132.0" r="3.4" fill=""#000000"/>
<circle cx="76.0" cy="132.0" r="3.4" fill=""#000000"/>
<circle cx="92.0" cy="132.0" r="3.4" fill=""#000000"/>
<circle cx="108.0" cy="132.0" r="3.4" fill=""#000000"/>
<circle cx="116.0" cy="132.0" r="3.4" fill=""#000000"/>
<circle cx="132.0" cy="132.0" r="3.4" fill=""#000000"/>
<circle cx="140.0" cy="132.0" r="3.4" fill=""#000000"/>
<circle cx="148.0" cy="132.0" r="3.4" fill=""#000000"/>
<circle cx="180.0" cy="132.0" r="3.4" fill=""#000000"/>
<circle cx="188.0" cy="132.0" r="3.4" fill=""#000000"/>
<circle cx="196.0" cy="132.0" r="3.4" fill=""#000000"/>
<circle cx="204.0" cy="132.0" r="3.4" fill=""#000000"/>
<circle cx="212.0" cy="132.0" r="3.4" fill=""#000000"/>
<circle cx="20.0" cy="140.0" r="3.4" fill=""#000000"/>
<circle cx="36.0" cy="140.0" r="3.4" fill=""#000000"/>
<circle cx="44.0" cy="140.0" r="3.4" fill=""#000000"/>
<circle cx="52.0" cy="140.0" r="3.4" fill=""#000000"/>
<circle cx="92.0" cy="140.0" r="3.4" fill=""#000000"/>
<circle cx="100.0" cy="140.0" r="3.4" fill=""#000000"/>
<circle cx="108.0" cy="140.0" r="3.4" fill=""#000000"/>
<circle cx="140.0" cy="140.0" r="3.4" fill=""#000000"/>
<circle cx="148.0" cy="140.0" r="3.4" fill=""#000000"/>
<circle cx="156.0" cy="140.0" r="3.4" fill=""#000000"/>
<circle cx="164.0" cy="140.0" r="3.4" fill=""#000000"/>
<circle cx="172.0" cy="140.0" r="3.4" fill=""#000000"/>
<circle cx="188.0" cy="140.0" r="3.4" fill=""#000000"/>
<circle cx="196.0" cy="140.0" r="3.4" fill=""#000000"/>
<circle cx="212.0" cy="140.0" r="3.4" fill=""#000000"/>
<circle cx="20.0" cy="148.0" r="3.4" fill=""#000000"/>
<circle cx="68.0" cy="148.0" r="3.4" fill=""#000000"/>
<circle cx="84.0" cy="148.0" r="3.4" fill=""#000000"/>
<circle cx="92.0" cy="148.0" r="3.4" fill=""#000000"/>
<circle cx="100.0" cy="148.0" r="3.4" fill=""#000000"/>
<circle cx="124.0" cy="148.0" r="3.4" fill=""#000000"/>
<circle cx="140.0" cy="148.0" r="3.4" fill=""#000000"/>
<circle cx="148.0" cy="148.0" r="3.4" fill=""#000000"/>
<circle cx="156.0" cy="148.0" r="3.4" fill=""#000000"/>
<circle cx="164.0" cy="148.0" r="3.4" fill=""#000000"/>
<circle cx="172.0" cy="148.0" r="3.4" fill=""#000000"/>
<circle cx="180.0" cy="148.0" r="3.4" fill=""#000000"/>
<circle cx="196.0" cy="148.0" r="3.4" fill=""#000000"/>
<circle cx="204.0" cy="148.0" r="3.4" fill=""#000000"/>
<circle cx="84.0" cy="156.0" r="3.4" fill=""#000000"/>
<circle cx="92.0" cy="156.0" r="3.4" fill=""#000000"/>
<circle cx="108.0" cy="156.0" r="3.4" fill=""#000000"/>
<circle cx="116.0" cy="156.0" r="3.4" fill=""#000000"/>
<circle cx="132.0" cy="156.0" r="3.4" fill=""#000000"/>
<circle cx="140.0" cy="156.0" r="3.4" fill=""#000000"/>
<circle cx="148.0" cy="156.0" r="3.4" fill=""#000000"/>
<circle cx="180.0" cy="156.0" r="3.4" fill=""#000000"/>
<circle cx="196.0" cy="156.0" r="3.4" fill=""#000000"/>
<circle cx="204.0" cy="156.0" r="3.4" fill=""#000000"/>
<circle cx="84.0" cy="164.0" r="3.4" fill=""#000000"/>
<circle cx="108.0" cy="164.0" r="3.4" fill=""#000000"/>
<circle cx="132.0" cy="164.0" r="3.4" fill=""#000000"/>
<circle cx="148.0" cy="164.0" r="3.4" fill=""#000000"/>
<circle cx="164.0" cy="164.0" r="3.4" fill=""#000000"/>
<circle cx="180.0" cy="164.0" r="3.4" fill=""#000000"/>
<circle cx="212.0" cy="164.0" r="3.4" fill=""#000000"/>
<circle cx="84.0" cy="172.0" r="3.4" fill=""#000000"/>
<circle cx="92.0" cy="172.0" r="3.4" fill=""#000000"/>
<circle cx="116.0" cy="172.0" r="3.4" fill=""#000000"/>
<circle cx="124.0" cy="172.0" r="3.4" fill=""#000000"/>
<circle cx="132.0" cy="172.0" r="3.4" fill=""#000000"/>
<circle cx="140.0" cy="172.0" r="3.4" fill=""#000000"/>
<circle cx="148.0" cy="172.0" r="3.4" fill=""#000000"/>
<circle cx="180.0" cy="172.0" r="3.4" fill=""#000000"/>
<circle cx="204.0" cy="172.0" r="3.4" fill=""#000000"/>
<circle cx="84.0" cy="180.0" r="3.4" fill=""#000000"/>
<circle cx="100.0" cy="180.0" r="3.4" fill=""#000000"/>
<circle cx="116.0" cy="180.0" r="3.4" fill=""#000000"/>
<circle cx="132.0" cy="180.0" r="3.4" fill=""#000000"/>
<circle cx="140.0" cy="180.0" r="3.4" fill=""#000000"/>
<circle cx="148.0" cy="180.0" r="3.4" fill=""#000000"/>
<circle cx="156.0" cy="180.0" r="3.4" fill=""#000000"/>
<circle cx="164.0" cy="180.0" r="3.4" fill=""#000000"/>
<circle cx="172.0" cy="180.0" r="3.4" fill=""#000000"/>
<circle cx="180.0" cy="180.0" r="3.4" fill=""#000000"/>
<circle cx="204.0" cy="180.0" r="3.4" fill=""#000000"/>
<circle cx="212.0" cy="180.0" r="3.4" fill=""#000000"/>
<circle cx="84.0" cy="188.0" r="3.4" fill=""#000000"/>
<circle cx="100.0" cy="188.0" r="3.4" fill=""#000000"/>
<circle cx="132.0" cy="188.0" r="3.4" fill=""#000000"/>
<circle cx="140.0" cy="188.0" r="3.4" fill=""#000000"/>
<circle cx="148.0" cy="188.0" r="3.4" fill=""#000000"/>
<circle cx="156.0" cy="188.0" r="3.4" fill=""#000000"/>
<circle cx="164.0" cy="188.0" r="3.4" fill=""#000000"/>
<circle cx="204.0" cy="188.0" r="3.4" fill=""#000000"/>
<circle cx="212.0" cy="188.0" r="3.4" fill=""#000000"/>
<circle cx="100.0" cy="196.0" r="3.4" fill=""#000000"/>
<circle cx="116.0" cy="196.0" r="3.4" fill=""#000000"/>
<circle cx="124.0" cy="196.0" r="3.4" fill=""#000000"/>
<circle cx="140.0" cy="196.0" r="3.4" fill=""#000000"/>
<circle cx="148.0" cy="196.0" r="3.4" fill=""#000000"/>
<circle cx="180.0" cy="196.0" r="3.4" fill=""#000000"/>
<circle cx="188.0" cy="196.0" r="3.4" fill=""#000000"/>
<circle cx="196.0" cy="196.0" r="3.4" fill=""#000000"/>
<circle cx="204.0" cy="196.0" r="3.4" fill=""#000000"/>
<circle cx="212.0" cy="196.0" r="3.4" fill=""#000000"/>
<circle cx="100.0" cy="204.0" r="3.4" fill=""#000000"/>
<circle cx="132.0" cy="204.0" r="3.4" fill=""#000000"/>
<circle cx="156.0" cy="204.0" r="3.4" fill=""#000000"/>
<circle cx="172.0" cy="204.0" r="3.4" fill=""#000000"/>
<circle cx="180.0" cy="204.0" r="3.4" fill=""#000000"/>
<circle cx="196.0" cy="204.0" r="3.4" fill=""#000000"/>
<circle cx="204.0" cy="204.0" r="3.4" fill=""#000000"/>
<circle cx="212.0" cy="204.0" r="3.4" fill=""#000000"/>
<circle cx="84.0" cy="212.0" r="3.4" fill=""#000000"/>
<circle cx="100.0" cy="212.0" r="3.4" fill=""#000000"/>
<circle cx="116.0" cy="212.0" r="3.4" fill=""#000000"/>
<circle cx="124.0" cy="212.0" r="3.4" fill=""#000000"/>
<circle cx="132.0" cy="212.0" r="3.4" fill=""#000000"/>
<circle cx="148.0" cy="212.0" r="3.4" fill=""#000000"/>
<circle cx="156.0" cy="212.0" r="3.4" fill=""#000000"/>
<circle cx="164.0" cy="212.0" r="3.4" fill=""#000000"/>
<circle cx="188.0" cy="212.0" r="3.4" fill=""#000000"/>
<circle cx="212.0" cy="212.0" r="3.4" fill=""#000000"/>
<rect x="16" y="16" width="8" height="8" fill=""#000000"/>
<rect x="24" y="16" width="8" height="8" fill=""#000000"/>
<rect x="32" y="16" width="8" height="8" fill=""#000000"/>
<rect x="40" y="16" width="8" height="8" fill=""#000000"/>
<rect x="48" y="16" width="8" height="8" fill=""#000000"/>
<rect x="56" y="16" width="8" height="8" fill=""#000000"/>
<rect x="64" y="16" width="8" height="8" fill=""#000000"/>
<rect x="160" y="16" width="8" height="8" fill=""#000000"/>
<rect x="168" y="16" width="8" height="8" fill=""#000000"/>
<rect x="176" y="16" width="8" height="8" fill=""#000000"/>
<rect x="184" y="16" width="8" height="8" fill=""#000000"/>
<rect x="192" y="16" width="8" height="8" fill=""#000000"/>
<rect x="200" y="16" width="8" height="8" fill=""#000000"/>
<rect x="208" y="16" width="8" height="8" fill=""#000000"/>
<rect x="16" y="24" width="8" height="8" fill=""#000000"/>
<rect x="64" y="24" width="8" height="8" fill=""#000000"/>
<rect x="160" y="24" width="8" height="8" fill=""#000000"/>
<rect x="208" y="24" width="8" height="8" fill=""#000000"/>
<rect x="16" y="32" width="8" height="8" fill=""#000000"/>
<rect x="32" y="32" width="8" height="8" fill=""#000000"/>
<rect x="40" y="32" width="8" height="8" fill=""#000000"/>
<rect x="48" y="32" width="8" height="8" fill=""#000000"/>
<rect x="64" y="32" width="8" height="8" fill=""#000000"/>
<rect x="160" y="32" width="8" height="8" fill=""#000000"/>
<rect x="176" y="32" width="8" height="8" fill=""#000000"/>
<rect x="184" y="32" width="8" height="8" fill=""#000000"/>
<rect x="192" y="32" width="8" height="8" fill=""#000000"/>
<rect x="208" y="32" width="8" height="8" fill=""#000000"/>
<rect x="16" y="40" width="8" height="8" fill=""#000000"/>
<rect x="32" y="40" width="8" height="8" fill=""#000000"/>
<rect x="40" y="40" width="8" height="8" fill=""#000000"/>
<rect x="48" y="40" width="8" height="8" fill=""#000000"/>
<rect x="64" y="40" width="8" height="8" fill=""#000000"/>
<rect x="160" y="40" width="8" height="8" fill=""#000000"/>
<rect x="176" y="40" width="8" height="8" fill=""#000000"/>
<rect x="184" y="40" width="8" height="8" fill=""#000000"/>
<rect x="192" y="40" width="8" height="8" fill=""#000000"/>
<rect x="208" y="40" width="8" height="8" fill=""#000000"/>
<rect x="16" y="48" width="8" height="8" fill=""#000000"/>
<rect x="32" y="48" width="8" height="8" fill=""#000000"/>
<rect x="40" y="48" width="8" height="8" fill=""#000000"/>
<rect x="48" y="48" width="8" height="8" fill=""#000000"/>
<rect x="64" y="48" width="8" height="8" fill=""#000000"/>
<rect x="160" y="48" width="8" height="8" fill=""#000000"/>
<rect x="176" y="48" width="8" height="8" fill=""#000000"/>
<rect x="184" y="48" width="8" height="8" fill=""#000000"/>
<rect x="192" y="48" width="8" height="8" fill=""#000000"/>
<rect x="208" y="48" width="8" height="8" fill=""#000000"/>
<rect x="16" y="56" width="8" height="8" fill=""#000000"/>
<rect x="64" y="56" width="8" height="8" fill=""#000000"/>
<rect x="160" y="56" width="8" height="8" fill=""#000000"/>
<rect x="208" y="56" width="8" height="8" fill=""#000000"/>
<rect x="16" y="64" width="8" height="8" fill=""#000000"/>
<rect x="24" y="64" width="8" height="8" fill=""#000000"/>
<rect x="32" y="64" width="8" height="8" fill=""#000000"/>
<rect x="40" y="64" width="8" height="8" fill=""#000000"/>
<rect x="48" y="64" width="8" height="8" fill=""#000000"/>
<rect x="56" y="64" width="8" height="8" fill=""#000000"/>
<rect x="64" y="64" width="8" height="8" fill=""#000000"/>
<rect x="160" y="64" width="8" height="8" fill=""#000000"/>
<rect x="168" y="64" width="8" height="8" fill=""#000000"/>
<rect x="176" y="64" width="8" height="8" fill=""#000000"/>
<rect x="184" y="64" width="8" height="8" fill=""#000000"/>
<rect x="192" y="64" width="8" height="8" fill=""#000000"/>
<rect x="200" y="64" width="8" height="8" fill=""#000000"/>
<rect x="208" y="64" width="8" height="8" fill=""#000000"/>
<rect x="16" y="160" width="8" height="8" fill=""#000000"/>
<rect x="24" y="160" width="8" height="8" fill=""#000000"/>
<rect x="32" y="160" width="8" height="8" fill=""#000000"/>
<rect x="40" y="160" width="8" height="8" fill=""#000000"/>
<rect x="48" y="160" width="8" height="8" fill=""#000000"/>
<rect x="56" y="160" width="8" height="8" fill=""#000000"/>
<rect x="64" y="160" width="8" height="8" fill=""#000000"/>
<rect x="16" y="168" width="8" height="8" fill=""#000000"/>
<rect x="64" y="168" width="8" height="8" fill=""#000000"/>
<rect x="16" y="176" width="8" height="8" fill=""#000000"/>
<rect x="32" y="176" width="8" height="8" fill=""#000000"/>
<rect x="40" y="176" width="8" height="8" fill=""#000000"/>
<rect x="48" y="176" width="8" height="8" fill=""#000000"/>
<rect x="64" y="176" width="8" height="8" fill=""#000000"/>
<rect x="16" y="184" width="8" height="8" fill=""#000000"/>
<rect x="32" y="184" width="8" height="8" fill=""#000000"/>
<rect x="40" y="184" width="8" height="8" fill=""#000000"/>
<rect x="48" y="184" width="8" height="8" fill=""#000000"/>
<rect x="64" y="184" width="8" height="8" fill=""#000000"/>
<rect x="16" y="192" width="8" height="8" fill=""#000000"/>
<rect x="32" y="192" width="8" height="8" fill=""#000000"/>
<rect x="40" y="192" width="8" height="8" fill=""#000000"/>
<rect x="48" y="192" width="8" height="8" fill=""#000000"/>
<rect x="64" y="192" width="8" height="8" fill=""#000000"/>
<rect x="16" y="200" width="8" height="8" fill=""#000000"/>
<rect x="64" y="200" width="8" height="8" fill=""#000000"/>
<rect x="16" y="208" width="8" height="8" fill=""#000000"/>
<rect x="24" y="208" width="8" height="8" fill=""#000000"/>
<rect x="32" y="208" width="8" height="8" fill=""#000000"/>
<rect x="40" y="208" width="8" height="8" fill=""#000000"/>
<rect x="48" y="208" width="8" height="8" fill=""#000000"/>
<rect x="56" y="208" width="8" height="8" fill=""#000000"/>
<rect x="64" y="208" width="8" height="8" fill=""#000000"/>
</svg>
