<?xml version="1.0" encoding="UTF-8"?>
<svg xmlns="http://www.w3.org/2000/svg" version="1.1" width="232" height="232" viewBox="0 0 232 232">
<rect width="100%" height="100%" fill="#ffffff"/>
<polygon points="84.0,16.0 88.0,20.0 84.0,24.0 80.0,20.0" fill=""#000000"/>
<polygon points="108.0,16.0 112.0,20.0 108.0,24.0 104.0,20.0" fill=""#000000"/>
<polygon points="116.0,16.0 120.0,20.0 116.0,24.0 112.0,20.0" fill=""#000000"/>
<polygon points="132.0,16.0 136.0,20.0 132.0,24.0 128.0,20.0" fill=""#000000"/>
<polygon points="108.0,24.0 112.0,28.0 108.0,32.0 104.0,28.0" fill=""#000000"/>
<polygon points="116.0,24.0 120.0,28.0 116.0,32.0 112.0,28.0" fill=""#000000"/>
<polygon points="148.0,24.0 152.0,28.0 148.0,32.0 144.0,28.0" fill=""#000000"/>
<polygon points="92.0,32.0 96.0,36.0 92.0,40.0 88.0,36.0" fill=""#000000"/>
<polygon points="108.0,32.0 112.0,36.0 108.0,40.0 104.0,36.0" fill=""#000000"/>
<polygon points="116.0,32.0 120.0,36.0 116.0,40.0 112.0,36.0" fill=""#000000"/>
<polygon points="124.0,32.0 128.0,36.0 124.0,40.0 120.0,36.0" fill=""#000000"/>
<polygon points="140.0,32.0 144.0,36.0 140.0,40.0 136.0,36.0" fill=""#000000"/>
<polygon points="148.0,32.0 152.0,36.0 148.0,40.0 144.0,36.0" fill=""#000000"/>
<polygon points="84.0,40.0 88.0,44.0 84.0,48.0 80.0,44.0" fill=""#000000"/>
<polygon points="124.0,40.0 128.0,44.0 124.0,48.0 120.0,44.0" fill=""#000000"/>
<polygon points="148.0,40.0 152.0,44.0 148.0,48.0 144.0,44.0" fill=""#000000"/>
<polygon points="84.0,48.0 88.0,52.0 84.0,56.0 80.0,52.0" fill=""#000000"/>
<polygon points="92.0,48.0 96.0,52.0 92.0,56.0 88.0,52.0" fill=""#000000"/>
<polygon points="108.0,48.0 112.0,52.0 108.0,56.0 104.0,52.0" fill=""#000000"/>
<polygon points="116.0,48.0 120.0,52.0 116.0,56.0 112.0,52.0" fill=""#000000"/>
<polygon points="132.0,48.0 136.0,52.0 132.0,56.0 128.0,52.0" fill=""#000000"/>
<polygon points="148.0,48.0 152.0,52.0 148.0,56.0 144.0,52.0" fill=""#000000"/>
<polygon points="84.0,56.0 88.0,60.0 84.0,64.0 80.0,60.0" fill=""#000000"/>
<polygon points="108.0,56.0 112.0,60.0 108.0,64.0 104.0,60.0" fill=""#000000"/>
<polygon points="116.0,56.0 120.0,60.0 116.0,64.0 112.0,60.0" fill=""#000000"/>
<polygon points="124.0,56.0 128.0,60.0 124.0,64.0 120.0,60.0" fill=""#000000"/>
<polygon points="132.0,56.0 136.0,60.0 132.0,64.0 128.0,60.0" fill=""#000000"/>
<polygon points="148.0,56.0 152.0,60.0 148.0,64.0 144.0,60.0" fill=""#000000"/>
<polygon points="84.0,64.0 88.0,68.0 84.0,72.0 80.0,68.0" fill=""#000000"/>
<polygon points="100.0,64.0 104.0,68.0 100.0,72.0 96.0,68.0" fill=""#000000"/>
<polygon points="116.0,64.0 120.0,68.0 116.0,72.0 112.0,68.0" fill=""#000000"/>
<polygon points="132.0,64.0 136.0,68.0 132.0,72.0 128.0,68.0" fill=""#000000"/>
<polygon points="148.0,64.0 152.0,68.0 148.0,72.0 144.0,68.0" fill=""#000000"/>
<polygon points="84.0,72.0 88.0,76.0 84.0,80.0 80.0,76.0" fill=""#000000"/>
<polygon points="108.0,72.0 112.0,76.0 108.0,80.0 104.0,76.0" fill=""#000000"/>
<polygon points="116.0,72.0 120.0,76.0 116.0,80.0 112.0,76.0" fill=""#000000"/>
<polygon points="124.0,72.0 128.0,76.0 124.0,80.0 120.0,76.0" fill=""#000000"/>
<polygon points="148.0,72.0 152.0,76.0 148.0,80.0 144.0,76.0" fill=""#000000"/>
<polygon points="20.0,80.0 24.0,84.0 20.0,88.0 16.0,84.0" fill=""#000000"/>
<polygon points="28.0,80.0 32.0,84.0 28.0,88.0 24.0,84.0" fill=""#000000"/>
<polygon points="36.0,80.0 40.0,84.0 36.0,88.0 32.0,84.0" fill=""#000000"/>
<polygon points="52.0,80.0 56.0,84.0 52.0,88.0 48.0,84.0" fill=""#000000"/>
<polygon points="68.0,80.0 72.0,84.0 68.0,88.0 64.0,84.0" fill=""#000000"/>
<polygon points="84.0,80.0 88.0,84.0 84.0,88.0 80.0,84.0" fill=""#000000"/>
<polygon points="100.0,80.0 104.0,84.0 100.0,88.0 96.0,84.0" fill=""#000000"/>
<polygon points="108.0,80.0 112.0,84.0 108.0,88.0 104.0,84.0" fill=""#000000"/>
<polygon points="116.0,80.0 120.0,84.0 116.0,88.0 112.0,84.0" fill=""#000000"/>
<polygon points="148.0,80.0 152.0,84.0 148.0,88.0 144.0,84.0" fill=""#000000"/>
<polygon points="156.0,80.0 160.0,84.0 156.0,88.0 152.0,84.0" fill=""#000000"/>
<polygon points="180.0,80.0 184.0,84.0 180.0,88.0 176.0,84.0" fill=""#000000"/>
<polygon points="196.0,80.0 200.0,84.0 196.0,88.0 192.0,84.0" fill=""#000000"/>
<polygon points="204.0,80.0 208.0,84.0 204.0,88.0 200.0,84.0" fill=""#000000"/>
<polygon points="212.0,80.0 216.0,84.0 212.0,88.0 208.0,84.0" fill=""#000000"/>
<polygon points="20.0,88.0 24.0,92.0 20.0,96.0 16.0,92.0" fill=""#000000"/>
<polygon points="44.0,88.0 48.0,92.0 44.0,96.0 40.0,92.0" fill=""#000000"/>
<polygon points="52.0,88.0 56.0,92.0 52.0,96.0 48.0,92.0" fill=""#000000"/>
<polygon points="60.0,88.0 64.0,92.0 60.0,96.0 56.0,92.0" fill=""#000000"/>
<polygon points="76.0,88.0 80.0,92.0 76.0,96.0 72.0,92.0" fill=""#000000"/>
<polygon points="92.0,88.0 96.0,92.0 92.0,96.0 88.0,92.0" fill=""#000000"/>
<polygon points="108.0,88.0 112.0,92.0 108.0,96.0 104.0,92.0" fill=""#000000"/>
<polygon points="116.0,88.0 120.0,92.0 116.0,96.0 112.0,92.0" fill=""#000000"/>
<polygon points="124.0,88.0 128.0,92.0 124.0,96.0 120.0,92.0" fill=""#000000"/>
<polygon points="132.0,88.0 136.0,92.0 132.0,96.0 128.0,92.0" fill=""#000000"/>
<polygon points="140.0,88.0 144.0,92.0 140.0,96.0 136.0,92.0" fill=""#000000"/>
<polygon points="172.0,88.0 176.0,92.0 172.0,96.0 168.0,92.0" fill=""#000000"/>
<polygon points="180.0,88.0 184.0,92.0 180.0,96.0 176.0,92.0" fill=""#000000"/>
<polygon points="188.0,88.0 192.0,92.0 188.0,96.0 184.0,92.0" fill=""#000000"/>
<polygon points="196.0,88.0 200.0,92.0 196.0,96.0 192.0,92.0" fill=""#000000"/>
<polygon points="204.0,88.0 208.0,92.0 204.0,96.0 200.0,92.0" fill=""#000000"/>
<polygon points="28.0,96.0 32.0,100.0 28.0,104.0 24.0,100.0" fill=""#000000"/>
<polygon points="36.0,96.0 40.0,100.0 36.0,104.0 32.0,100.0" fill=""#000000"/>
<polygon points="68.0,96.0 72.0,100.0 68.0,104.0 64.0,100.0" fill=""#000000"/>
<polygon points="84.0,96.0 88.0,100.0 84.0,104.0 80.0,100.0" fill=""#000000"/>
<polygon points="100.0,96.0 104.0,100.0 100.0,104.0 96.0,100.0" fill=""#000000"/>
<polygon points="116.0,96.0 120.0,100.0 116.0,104.0 112.0,100.0" fill=""#000000"/>
<polygon points="124.0,96.0 128.0,100.0 124.0,104.0 120.0,100.0" fill=""#000000"/>
<polygon points="140.0,96.0 144.0,100.0 140.0,104.0 136.0,100.0" fill=""#000000"/>
<polygon points="148.0,96.0 152.0,100.0 148.0,104.0 144.0,100.0" fill=""#000000"/>
<polygon points="172.0,96.0 176.0,100.0 172.0,104.0 168.0,100.0" fill=""#000000"/>
<polygon points="180.0,96.0 184.0,100.0 180.0,104.0 176.0,100.0" fill=""#000000"/>
<polygon points="188.0,96.0 192.0,100.0 188.0,104.0 184.0,100.0" fill=""#000000"/>
<polygon points="212.0,96.0 216.0,100.0 212.0,104.0 208.0,100.0" fill=""#000000"/>
<polygon points="28.0,104.0 32.0,108.0 28.0,112.0 24.0,108.0" fill=""#000000"/>
<polygon points="60.0,104.0 64.0,108.0 60.0,112.0 56.0,108.0" fill=""#000000"/>
<polygon points="76.0,104.0 80.0,108.0 76.0,112.0 72.0,108.0" fill=""#000000"/>
<polygon points="100.0,104.0 104.0,108.0 100.0,112.0 96.0,108.0" fill=""#000000"/>
<polygon points="156.0,104.0 160.0,108.0 156.0,112.0 152.0,108.0" fill=""#000000"/>
<polygon points="164.0,104.0 168.0,108.0 164.0,112.0 160.0,108.0" fill=""#000000"/>
<polygon points="172.0,104.0 176.0,108.0 172.0,112.0 168.0,108.0" fill=""#000000"/>
<polygon points="188.0,104.0 192.0,108.0 188.0,112.0 184.0,108.0" fill=""#000000"/>
<polygon points="196.0,104.0 200.0,108.0 196.0,112.0 192.0,108.0" fill=""#000000"/>
<polygon points="204.0,104.0 208.0,108.0 204.0,112.0 200.0,108.0" fill=""#000000"/>
<polygon points="212.0,104.0 216.0,108.0 212.0,112.0 208.0,108.0" fill=""#000000"/>
<polygon points="20.0,112.0 24.0,116.0 20.0,120.0 16.0,116.0" fill=""#000000"/>
<polygon points="28.0,112.0 32.0,116.0 28.0,120.0 24.0,116.0" fill=""#000000"/>
<polygon points="52.0,112.0 56.0,116.0 52.0,120.0 48.0,116.0" fill=""#000000"/>
<polygon points="68.0,112.0 72.0,116.0 68.0,120.0 64.0,116.0" fill=""#000000"/>
<polygon points="84.0,112.0 88.0,116.0 84.0,120.0 80.0,116.0" fill=""#000000"/>
<polygon points="92.0,112.0 96.0,116.0 92.0,120.0 88.0,116.0" fill=""#000000"/>
<polygon points="116.0,112.0 120.0,116.0 116.0,120.0 112.0,116.0" fill=""#000000"/>
<polygon points="148.0,112.0 152.0,116.0 148.0,120.0 144.0,116.0" fill=""#000000"/>
<polygon points="164.0,112.0 168.0,116.0 164.0,120.0 160.0,116.0" fill=""#000000"/>
<polygon points="172.0,112.0 176.0,116.0 172.0,120.0 168.0,116.0" fill=""#000000"/>
<polygon points="212.0,112.0 216.0,116.0 212.0,120.0 208.0,116.0" fill=""#000000"/>
<polygon points="20.0,120.0 24.0,124.0 20.0,128.0 16.0,124.0" fill=""#000000"/>
<polygon points="44.0,120.0 48.0,124.0 44.0,128.0 40.0,124.0" fill=""#000000"/>
<polygon points="52.0,120.0 56.0,124.0 52.0,128.0 48.0,124.0" fill=""#000000"/>
<polygon points="76.0,120.0 80.0,124.0 76.0,128.0 72.0,124.0" fill=""#000000"/>
<polygon points="84.0,120.0 88.0,124.0 84.0,128.0 80.0,124.0" fill=""#000000"/>
<polygon points="132.0,120.0 136.0,124.0 132.0,128.0 128.0,124.0" fill=""#000000"/>
<polygon points="140.0,120.0 144.0,124.0 140.0,128.0 136.0,124.0" fill=""#000000"/>
<polygon points="180.0,120.0 184.0,124.0 180.0,128.0 176.0,124.0" fill=""#000000"/>
<polygon points="204.0,120.0 208.0,124.0 204.0,128.0 200.0,124.0" fill=""#000000"/>
<polygon points="20.0,128.0 24.0,132.0 20.0,136.0 16.0,132.0" fill=""#000000"/>
<polygon points="28.0,128.0 32.0,132.0 28.0,136.0 24.0,132.0" fill=""#000000"/>
<polygon points="44.0,128.0 48.0,132.0 44.0,136.0 40.0,132.0" fill=""#000000"/>
<polygon points="52.0,128.0 56.0,132.0 52.0,136.0 48.0,132.0" fill=""#000000"/>
<polygon points="60.0,128.0 64.0,132.0 60.0,136.0 56.0,132.0" fill=""#000000"/>
<polygon points="68.0,128.0 72.0,132.0 68.0,136.0 64.0,132.0" fill=""#000000"/>
<polygon points="76.0,128.0 80.0,132.0 76.0,136.0 72.0,132.0" fill=""#000000"/>
<polygon points="92.0,128.0 96.0,132.0 92.0,136.0 88.0,132.0" fill=""#000000"/>
<polygon points="108.0,128.0 112.0,132.0 108.0,136.0 104.0,132.0" fill=""#000000"/>
<polygon points="116.0,128.0 120.0,132.0 116.0,136.0 112.0,132.0" fill=""#000000"/>
<polygon points="132.0,128.0 136.0,132.0 132.0,136.0 128.0,132.0" fill=""#000000"/>
<polygon points="140.0,128.0 144.0,132.0 140.0,136.0 136.0,132.0" fill=""#000000"/>
<polygon points="148.0,128.0 152.0,132.0 148.0,136.0 144.0,132.0" fill=""#000000"/>
<polygon points="180.0,128.0 184.0,132.0 180.0,136.0 176.0,132.0" fill=""#000000"/>
<polygon points="188.0,128.0 192.0,132.0 188.0,136.0 184.0,132.0" fill=""#000000"/>
<polygon points="196.0,128.0 200.0,132.0 196.0,136.0 192.0,132.0" fill=""#000000"/>
<polygon points="204.0,128.0 208.0,132.0 204.0,136.0 200.0,132.0" fill=""#000000"/>
<polygon points="212.0,128.0 216.0,132.0 212.0,136.0 208.0,132.0" fill=""#000000"/>
<polygon points="20.0,136.0 24.0,140.0 20.0,144.0 16.0,140.0" fill=""#000000"/>
<polygon points="36.0,136.0 40.0,140.0 36.0,144.0 32.0,140.0" fill=""#000000"/>
<polygon points="44.0,136.0 48.0,140.0 44.0,144.0 40.0,140.0" fill=""#000000"/>
<polygon points="52.0,136.0 56.0,140.0 52.0,144.0 48.0,140.0" fill=""#000000"/>
<polygon points="92.0,136.0 96.0,140.0 92.0,144.0 88.0,140.0" fill=""#000000"/>
<polygon points="100.0,136.0 104.0,140.0 100.0,144.0 96.0,140.0" fill=""#000000"/>
<polygon points="108.0,136.0 112.0,140.0 108.0,144.0 104.0,140.0" fill=""#000000"/>
<polygon points="140.0,136.0 144.0,140.0 140.0,144.0 136.0,140.0" fill=""#000000"/>
<polygon points="148.0,136.0 152.0,140.0 148.0,144.0 144.0,140.0" fill=""#000000"/>
<polygon points="156.0,136.0 160.0,140.0 156.0,144.0 152.0,140.0" fill=""#000000"/>
<polygon points="164.0,136.0 168.0,140.0 164.0,144.0 160.0,140.0" fill=""#000000"/>
<polygon points="172.0,136.0 176.0,140.0 172.0,144.0 168.0,140.0" fill=""#000000"/>
<polygon points="188.0,136.0 192.0,140.0 188.0,144.0 184.0,140.0" fill=""#000000"/>
<polygon points="196.0,136.0 200.0,140.0 196.0,144.0 192.0,140.0" fill=""#000000"/>
<polygon points="212.0,136.0 216.0,140.0 212.0,144.0 208.0,140.0" fill=""#000000"/>
<polygon points="20.0,144.0 24.0,148.0 20.0,152.0 16.0,148.0" fill=""#000000"/>
<polygon points="68.0,144.0 72.0,148.0 68.0,152.0 64.0,148.0" fill=""#000000"/>
<polygon points="84.0,144.0 88.0,148.0 84.0,152.0 80.0,148.0" fill=""#000000"/>
<polygon points="92.0,144.0 96.0,148.0 92.0,152.0 88.0,148.0" fill=""#000000"/>
<polygon points="100.0,144.0 104.0,148.0 100.0,152.0 96.0,148.0" fill=""#000000"/>
<polygon points="124.0,144.0 128.0,148.0 124.0,152.0 120.0,148.0" fill=""#000000"/>
<polygon points="140.0,144.0 144.0,148.0 140.0,152.0 136.0,148.0" fill=""#000000"/>
<polygon points="148.0,144.0 152.0,148.0 148.0,152.0 144.0,148.0" fill=""#000000"/>
<polygon points="156.0,144.0 160.0,148.0 156.0,152.0 152.0,148.0" fill=""#000000"/>
<polygon points="164.0,144.0 168.0,148.0 164.0,152.0 160.0,148.0" fill=""#000000"/>
<polygon points="172.0,144.0 176.0,148.0 172.0,152.0 168.0,148.0" fill=""#000000"/>
<polygon points="180.0,144.0 184.0,148.0 180.0,152.0 176.0,148.0" fill=""#000000"/>
<polygon points="196.0,144.0 200.0,148.0 196.0,152.0 192.0,148.0" fill=""#000000"/>
<polygon points="204.0,144.0 208.0,148.0 204.0,152.0 200.0,148.0" fill=""#000000"/>
<polygon points="84.0,152.0 88.0,156.0 84.0,160.0 80.0,156.0" fill=""#000000"/>
<polygon points="92.0,152.0 96.0,156.0 92.0,160.0 88.0,156.0" fill=""#000000"/>
<polygon points="108.0,152.0 112.0,156.0 108.0,160.0 104.0,156.0" fill=""#000000"/>
<polygon points="116.0,152.0 120.0,156.0 116.0,160.0 112.0,156.0" fill=""#000000"/>
<polygon points="132.0,152.0 136.0,156.0 132.0,160.0 128.0,156.0" fill=""#000000"/>
<polygon points="140.0,152.0 144.0,156.0 140.0,160.0 136.0,156.0" fill=""#000000"/>
<polygon points="148.0,152.0 152.0,156.0 148.0,160.0 144.0,156.0" fill=""#000000"/>
<polygon points="180.0,152.0 184.0,156.0 180.0,160.0 176.0,156.0" fill=""#000000"/>
<polygon points="196.0,152.0 200.0,156.0 196.0,160.0 192.0,156.0" fill=""#000000"/>
<polygon points="204.0,152.0 208.0,156.0 204.0,160.0 200.0,156.0" fill=""#000000"/>
<polygon points="84.0,160.0 88.0,164.0 84.0,168.0 80.0,164.0" fill=""#000000"/>
<polygon points="108.0,160.0 112.0,164.0 108.0,168.0 104.0,164.0" fill=""#000000"/>
<polygon points="132.0,160.0 136.0,164.0 132.0,168.0 128.0,164.0" fill=""#000000"/>
<polygon points="148.0,160.0 152.0,164.0 148.0,168.0 144.0,164.0" fill=""#000000"/>
<polygon points="164.0,160.0 168.0,164.0 164.0,168.0 160.0,164.0" fill=""#000000"/>
<polygon points="180.0,160.0 184.0,164.0 180.0,168.0 176.0,164.0" fill=""#000000"/>
<polygon points="212.0,160.0 216.0,164.0 212.0,168.0 208.0,164.0" fill=""#000000"/>
<polygon points="84.0,168.0 88.0,172.0 84.0,176.0 80.0,172.0" fill=""#000000"/>
<polygon points="92.0,168.0 96.0,172.0 92.0,176.0 88.0,172.0" fill=""#000000"/>
<polygon points="116.0,168.0 120.0,172.0 116.0,176.0 112.0,172.0" fill=""#000000"/>
<polygon points="124.0,168.0 128.0,172.0 124.0,176.0 120.0,172.0" fill=""#000000"/>
<polygon points="132.0,168.0 136.0,172.0 132.0,176.0 128.0,172.0" fill=""#000000"/>
<polygon points="140.0,168.0 144.0,172.0 140.0,176.0 136.0,172.0" fill=""#000000"/>
<polygon points="148.0,168.0 152.0,172.0 148.0,176.0 144.0,172.0" fill=""#000000"/>
<polygon points="180.0,168.0 184.0,172.0 180.0,176.0 176.0,172.0" fill=""#000000"/>
<polygon points="204.0,168.0 208.0,172.0 204.0,176.0 200.0,172.0" fill=""#000000"/>
<polygon points="84.0,176.0 88.0,180.0 84.0,184.0 80.0,180.0" fill=""#000000"/>
<polygon points="100.0,176.0 104.0,180.0 100.0,184.0 96.0,180.0" fill=""#000000"/>
<polygon points="116.0,176.0 120.0,180.0 116.0,184.0 112.0,180.0" fill=""#000000"/>
<polygon points="132.0,176.0 136.0,180.0 132.0,184.0 128.0,180.0" fill=""#000000"/>
<polygon points="140.0,176.0 144.0,180.0 140.0,184.0 136.0,180.0" fill=""#000000"/>
<polygon points="148.0,176.0 152.0,180.0 148.0,184.0 144.0,180.0" fill=""#000000"/>
<polygon points="156.0,176.0 160.0,180.0 156.0,184.0 152.0,180.0" fill=""#000000"/>
<polygon points="164.0,176.0 168.0,180.0 164.0,184.0 160.0,180.0" fill=""#000000"/>
<polygon points="172.0,176.0 176.0,180.0 172.0,184.0 168.0,180.0" fill=""#000000"/>
<polygon points="180.0,176.0 184.0,180.0 180.0,184.0 176.0,180.0" fill=""#000000"/>
<polygon points="204.0,176.0 208.0,180.0 204.0,184.0 200.0,180.0" fill=""#000000"/>
<polygon points="212.0,176.0 216.0,180.0 212.0,184.0 208.0,180.0" fill=""#000000"/>
<polygon points="84.0,184.0 88.0,188.0 84.0,192.0 80.0,188.0" fill=""#000000"/>
<polygon points="100.0,184.0 104.0,188.0 100.0,192.0 96.0,188.0" fill=""#000000"/>
<polygon points="132.0,184.0 136.0,188.0 132.0,192.0 128.0,188.0" fill=""#000000"/>
<polygon points="140.0,184.0 144.0,188.0 140.0,192.0 136.0,188.0" fill=""#000000"/>
<polygon points="148.0,184.0 152.0,188.0 148.0,192.0 144.0,188.0" fill=""#000000"/>
<polygon points="156.0,184.0 160.0,188.0 156.0,192.0 152.0,188.0" fill=""#000000"/>
<polygon points="164.0,184.0 168.0,188.0 164.0,192.0 160.0,188.0" fill=""#000000"/>
<polygon points="204.0,184.0 208.0,188.0 204.0,192.0 200.0,188.0" fill=""#000000"/>
<polygon points="212.0,184.0 216.0,188.0 212.0,192.0 208.0,188.0" fill=""#000000"/>
<polygon points="100.0,192.0 104.0,196.0 100.0,200.0 96.0,196.0" fill=""#000000"/>
<polygon points="116.0,192.0 120.0,196.0 116.0,200.0 112.0,196.0" fill=""#000000"/>
<polygon points="124.0,192.0 128.0,196.0 124.0,200.0 120.0,196.0" fill=""#000000"/>
<polygon points="140.0,192.0 144.0,196.0 140.0,200.0 136.0,196.0" fill=""#000000"/>
<polygon points="148.0,192.0 152.0,196.0 148.0,200.0 144.0,196.0" fill=""#000000"/>
<polygon points="180.0,192.0 184.0,196.0 180.0,200.0 176.0,196.0" fill=""#000000"/>
<polygon points="188.0,192.0 192.0,196.0 188.0,200.0 184.0,196.0" fill=""#000000"/>
<polygon points="196.0,192.0 200.0,196.0 196.0,200.0 192.0,196.0" fill=""#000000"/>
<polygon points="204.0,192.0 208.0,196.0 204.0,200.0 200.0,196.0" fill=""#000000"/>
<polygon points="212.0,192.0 216.0,196.0 212.0,200.0 208.0,196.0" fill=""#000000"/>
<polygon points="100.0,200.0 104.0,204.0 100.0,208.0 96.0,204.0" fill=""#000000"/>
<polygon points="132.0,200.0 136.0,204.0 132.0,208.0 128.0,204.0" fill=""#000000"/>
<polygon points="156.0,200.0 160.0,204.0 156.0,208.0 152.0,204.0" fill=""#000000"/>
<polygon points="172.0,200.0 176.0,204.0 172.0,208.0 168.0,204.0" fill=""#000000"/>
<polygon points="180.0,200.0 184.0,204.0 180.0,208.0 176.0,204.0" fill=""#000000"/>
<polygon points="196.0,200.0 200.0,204.0 196.0,208.0 192.0,204.0" fill=""#000000"/>
<polygon points="204.0,200.0 208.0,204.0 204.0,208.0 200.0,204.0" fill=""#000000"/>
<polygon points="212.0,200.0 216.0,204.0 212.0,208.0 208.0,204.0" fill=""#000000"/>
<polygon points="84.0,208.0 88.0,212.0 84.0,216.0 80.0,212.0" fill=""#000000"/>
<polygon points="100.0,208.0 104.0,212.0 100.0,216.0 96.0,212.0" fill=""#000000"/>
<polygon points="116.0,208.0 120.0,212.0 116.0,216.0 112.0,212.0" fill=""#000000"/>
<polygon points="124.0,208.0 128.0,212.0 124.0,216.0 120.0,212.0" fill=""#000000"/>
<polygon points="132.0,208.0 136.0,212.0 132.0,216.0 128.0,212.0" fill=""#000000"/>
<polygon points="148.0,208.0 152.0,212.0 148.0,216.0 144.0,212.0" fill=""#000000"/>
<polygon points="156.0,208.0 160.0,212.0 156.0,216.0 152.0,212.0" fill=""#000000"/>
<polygon points="164.0,208.0 168.0,212.0 164.0,216.0 160.0,212.0" fill=""#000000"/>
<polygon points="188.0,208.0 192.0,212.0 188.0,216.0 184.0,212.0" fill=""#000000"/>
<polygon points="212.0,208.0 216.0,212.0 212.0,216.0 208.0,212.0" fill=""#000000"/>
<rect x="16" y="16" width="8" height="8" fill=""#000000"/>
<rect x="24" y="16" width="8" height="8" fill=""#000000"/>
<rect x="32" y="16" width="8" height="8" fill=""#000000"/>
<rect x="40" y="16" width="8" height="8" fill=""#000000"/>
<rect x="48" y="16" width="8" height="8" fill=""#000000"/>
<rect x="56" y="16" width="8" height="8" fill=""#000000"/>
<rect x="64" y="16" width="8" height="8" fill=""#000000"/>
<rect x="160" y="16" width="8" height="8" fill=""#000000"/>
<rect x="168" y="16" width="8" height="8" fill=""#000000"/>
<rect x="176" y="16" width="8" height="8" fill=""#000000"/>
<rect x="184" y="16" width="8" height="8" fill=""#000000"/>
<rect x="192" y="16" width="8" height="8" fill=""#000000"/>
<rect x="200" y="16" width="8" height="8" fill=""#000000"/>
<rect x="208" y="16" width="8" height="8" fill=""#000000"/>
<rect x="16" y="24" width="8" height="8" fill=""#000000"/>
<rect x="64" y="24" width="8" height="8" fill=""#000000"/>
<rect x="160" y="24" width="8" height="8" fill=""#000000"/>
<rect x="208" y="24" width="8" height="8" fill=""#000000"/>
<rect x="16" y="32" width="8" height="8" fill=""#000000"/>
<rect x="32" y="32" width="8" height="8" fill=""#000000"/>
<rect x="40" y="32" width="8" height="8" fill=""#000000"/>
<rect x="48" y="32" width="8" height="8" fill=""#000000"/>
<rect x="64" y="32" width="8" height="8" fill=""#000000"/>
<rect x="160" y="32" width="8" height="8" fill=""#000000"/>
<rect x="176" y="32" width="8" height="8" fill=""#000000"/>
<rect x="184" y="32" width="8" height="8" fill=""#000000"/>
<rect x="192" y="32" width="8" height="8" fill=""#000000"/>
<rect x="208" y="32" width="8" height="8" fill=""#000000"/>
<rect x="16" y="40" width="8" height="8" fill=""#000000"/>
<rect x="32" y="40" width="8" height="8" fill=""#000000"/>
<rect x="40" y="40" width="8" height="8" fill=""#000000"/>
<rect x="48" y="40" width="8" height="8" fill=""#000000"/>
<rect x="64" y="40" width="8" height="8" fill=""#000000"/>
<rect x="160" y="40" width="8" height="8" fill=""#000000"/>
<rect x="176" y="40" width="8" height="8" fill=""#000000"/>
<rect x="184" y="40" width="8" height="8" fill=""#000000"/>
<rect x="192" y="40" width="8" height="8" fill=""#000000"/>
<rect x="208" y="40" width="8" height="8" fill=""#000000"/>
<rect x="16" y="48" width="8" height="8" fill=""#000000"/>
<rect x="32" y="48" width="8" height="8" fill=""#000000"/>
<rect x="40" y="48" width="8" height="8" fill=""#000000"/>
<rect x="48" y="48" width="8" height="8" fill=""#000000"/>
<rect x="64" y="48" width="8" height="8" fill=""#000000"/>
<rect x="160" y="48" width="8" height="8" fill=""#000000"/>
<rect x="176" y="48" width="8" height="8" fill=""#000000"/>
<rect x="184" y="48" width="8" height="8" fill=""#000000"/>
<rect x="192" y="48" width="8" height="8" fill=""#000000"/>
<rect x="208" y="48" width="8" height="8" fill=""#000000"/>
<rect x="16" y="56" width="8" height="8" fill=""#000000"/>
<rect x="64" y="56" width="8" height="8" fill=""#000000"/>
<rect x="160" y="56" width="8" height="8" fill=""#000000"/>
<rect x="208" y="56" width="8" height="8" fill=""#000000"/>
<rect x="16" y="64" width="8" height="8" fill=""#000000"/>
<rect x="24" y="64" width="8" height="8" fill=""#000000"/>
<rect x="32" y="64" width="8" height="8" fill=""#000000"/>
<rect x="40" y="64" width="8" height="8" fill=""#000000"/>
<rect x="48" y="64" width="8" height="8" fill=""#000000"/>
<rect x="56" y="64" width="8" height="8" fill=""#000000"/>
<rect x="64" y="64" width="8" height="8" fill=""#000000"/>
<rect x="160" y="64" width="8" height="8" fill=""#000000"/>
<rect x="168" y="64" width="8" height="8" fill=""#000000"/>
<rect x="176" y="64" width="8" height="8" fill=""#000000"/>
<rect x="184" y="64" width="8" height="8" fill=""#000000"/>
<rect x="192" y="64" width="8" height="8" fill=""#000000"/>
<rect x="200" y="64" width="8" height="8" fill=""#000000"/>
<rect x="208" y="64" width="8" height="8" fill=""#000000"/>
<rect x="16" y="160" width="8" height="8" fill=""#000000"/>
<rect x="24" y="160" width="8" height="8" fill=""#000000"/>
<rect x="32" y="160" width="8" height="8" fill=""#000000"/>
<rect x="40" y="160" width="8" height="8" fill=""#000000"/>
<rect x="48" y="160" width="8" height="8" fill=""#000000"/>
<rect x="56" y="160" width="8" height="8" fill=""#000000"/>
<rect x="64" y="160" width="8" height="8" fill=""#000000"/>
<rect x="16" y="168" width="8" height="8" fill=""#000000"/>
<rect x="64" y="168" width="8" height="8" fill=""#000000"/>
<rect x="16" y="176" width="8" height="8" fill=""#000000"/>
<rect x="32" y="176" width="8" height="8" fill=""#000000"/>
<rect x="40" y="176" width="8" height="8" fill=""#000000"/>
<rect x="48" y="176" width="8" height="8" fill=""#000000"/>
<rect x="64" y="176" width="8" height="8" fill=""#000000"/>
<rect x="16" y="184" width="8" height="8" fill=""#000000"/>
<rect x="32" y="184" width="8" height="8" fill=""#000000"/>
<rect x="40" y="184" width="8" height="8" fill=""#000000"/>
<rect x="48" y="184" width="8" height="8" fill=""#000000"/>
<rect x="64" y="184" width="8" height="8" fill=""#000000"/>
<rect x="16" y="192" width="8" height="8" fill=""#000000"/>
<rect x="32" y="192" width="8" height="8" fill=""#000000"/>
<rect x="40" y="192" width="8" height="8" fill=""#000000"/>
<rect x="48" y="192" width="8" height="8" fill=""#000000"/>
<rect x="64" y="192" width="8" height="8" fill=""#000000"/>
<rect x="16" y="200" width="8" height="8" fill=""#000000"/>
<rect x="64" y="200" width="8" height="8" fill=""#000000"/>
<rect x="16" y="208" width="8" height="8" fill=""#000000"/>
<rect x="24" y="208" width="8" height="8" fill=""#000000"/>
<rect x="32" y="208" width="8" height="8" fill=""#000000"/>
<rect x="40" y="208" width="8" height="8" fill=""#000000"/>
<rect x="48" y="208" width="8" height="8" fill=""#000000"/>
<rect x="56" y="208" width="8" height="8" fill=""#000000"/>
<rect x="64" y="208" width="8" height="8" fill=""#000000"/>
</svg>
