<?xml version="1.0" encoding="UTF-8"?>
<svg xmlns="http://www.w3.org/2000/svg" version="1.1" width="328" height="328" viewBox="0 0 328 328">
<rect width="100%" height="100%" fill="#ffffff"/>
<path d="M16,16h8v8h-8ZM24,16h8v8h-8ZM32,16h8v8h-8ZM40,16h8v8h-8ZM48,16h8v8h-8ZM56,16h8v8h-8ZM64,16h8v8h-8ZM80,16h8v8h-8ZM96,16h8v8h-8ZM112,16h8v8h-8ZM128,16h8v8h-8ZM144,16h8v8h-8ZM160,16h8v8h-8ZM168,16h8v8h-8ZM192,16h8v8h-8ZM200,16h8v8h-8ZM208,16h8v8h-8ZM216,16h8v8h-8ZM224,16h8v8h-8ZM256,16h8v8h-8ZM264,16h8v8h-8ZM272,16h8v8h-8ZM280,16h8v8h-8ZM288,16h8v8h-8ZM296,16h8v8h-8ZM304,16h8v8h-8ZM16,24h8v8h-8ZM64,24h8v8h-8ZM80,24h8v8h-8ZM88,24h8v8h-8ZM104,24h8v8h-8ZM120,24h8v8h-8ZM128,24h8v8h-8ZM136,24h8v8h-8ZM160,24h8v8h-8ZM176,24h8v8h-8ZM184,24h8v8h-8ZM192,24h8v8h-8ZM208,24h8v8h-8ZM216,24h8v8h-8ZM224,24h8v8h-8ZM240,24h8v8h-8ZM256,24h8v8h-8ZM304,24h8v8h-8ZM16,32h8v8h-8ZM32,32h8v8h-8ZM40,32h8v8h-8ZM48,32h8v8h-8ZM64,32h8v8h-8ZM80,32h8v8h-8ZM96,32h8v8h-8ZM104,32h8v8h-8ZM120,32h8v8h-8ZM144,32h8v8h-8ZM160,32h8v8h-8ZM176,32h8v8h-8ZM184,32h8v8h-8ZM200,32h8v8h-8ZM216,32h8v8h-8ZM224,32h8v8h-8ZM240,32h8v8h-8ZM256,32h8v8h-8ZM272,32h8v8h-8ZM280,32h8v8h-8ZM288,32h8v8h-8ZM304,32h8v8h-8ZM16,40h8v8h-8ZM32,40h8v8h-8ZM40,40h8v8h-8ZM48,40h8v8h-8ZM64,40h8v8h-8ZM96,40h8v8h-8ZM120,40h8v8h-8ZM136,40h8v8h-8ZM152,40h8v8h-8ZM168,40h8v8h-8ZM176,40h8v8h-8ZM184,40h8v8h-8ZM200,40h8v8h-8ZM216,40h8v8h-8ZM232,40h8v8h-8ZM240,40h8v8h-8ZM256,40h8v8h-8ZM272,40h8v8h-8ZM280,40h8v8h-8ZM288,40h8v8h-8ZM304,40h8v8h-8ZM16,48h8v8h-8ZM32,48h8v8h-8ZM40,48h8v8h-8ZM48,48h8v8h-8ZM64,48h8v8h-8ZM80,48h8v8h-8ZM136,48h8v8h-8ZM144,48h8v8h-8ZM152,48h8v8h-8ZM160,48h8v8h-8ZM192,48h8v8h-8ZM208,48h8v8h-8ZM216,48h8v8h-8ZM224,48h8v8h-8ZM240,48h8v8h-8ZM256,48h8v8h-8ZM272,48h8v8h-8ZM280,48h8v8h-8ZM288,48h8v8h-8ZM304,48h8v8h-8ZM16,56h8v8h-8ZM64,56h8v8h-8ZM104,56h8v8h-8ZM112,56h8v8h-8ZM120,56h8v8h-8ZM128,56h8v8h-8ZM144,56h8v8h-8ZM152,56h8v8h-8ZM160,56h8v8h-8ZM176,56h8v8h-8ZM184,56h8v8h-8ZM200,56h8v8h-8ZM224,56h8v8h-8ZM240,56h8v8h-8ZM256,56h8v8h-8ZM304,56h8v8h-8ZM16,64h8v8h-8ZM24,64h8v8h-8ZM32,64h8v8h-8ZM40,64h8v8h-8ZM48,64h8v8h-8ZM56,64h8v8h-8ZM64,64h8v8h-8ZM80,64h8v8h-8ZM96,64h8v8h-8ZM112,64h8v8h-8ZM128,64h8v8h-8ZM144,64h8v8h-8ZM160,64h8v8h-8ZM176,64h8v8h-8ZM192,64h8v8h-8ZM208,64h8v8h-8ZM224,64h8v8h-8ZM240,64h8v8h-8ZM256,64h8v8h-8ZM264,64h8v8h-8ZM272,64h8v8h-8ZM280,64h8v8h-8ZM288,64h8v8h-8ZM296,64h8v8h-8ZM304,64h8v8h-8ZM96,72h8v8h-8ZM104,72h8v8h-8ZM136,72h8v8h-8ZM144,72h8v8h-8ZM168,72h8v8h-8ZM184,72h8v8h-8ZM216,72h8v8h-8ZM16,80h8v8h-8ZM40,80h8v8h-8ZM48,80h8v8h-8ZM56,80h8v8h-8ZM64,80h8v8h-8ZM72,80h8v8h-8ZM80,80h8v8h-8ZM88,80h8v8h-8ZM112,80h8v8h-8ZM128,80h8v8h-8ZM144,80h8v8h-8ZM160,80h8v8h-8ZM176,80h8v8h-8ZM184,80h8v8h-8ZM200,80h8v8h-8ZM208,80h8v8h-8ZM224,80h8v8h-8ZM240,80h8v8h-8ZM248,80h8v8h-8ZM272,80h8v8h-8ZM288,80h8v8h-8ZM296,80h8v8h-8ZM304,80h8v8h-8ZM16,88h8v8h-8ZM24,88h8v8h-8ZM32,88h8v8h-8ZM40,88h8v8h-8ZM96,88h8v8h-8ZM128,88h8v8h-8ZM152,88h8v8h-8ZM176,88h8v8h-8ZM192,88h8v8h-8ZM200,88h8v8h-8ZM208,88h8v8h-8ZM216,88h8v8h-8ZM224,88h8v8h-8ZM232,88h8v8h-8ZM240,88h8v8h-8ZM264,88h8v8h-8ZM272,88h8v8h-8ZM280,88h8v8h-8ZM288,88h8v8h-8ZM24,96h8v8h-8ZM32,96h8v8h-8ZM40,96h8v8h-8ZM64,96h8v8h-8ZM72,96h8v8h-8ZM96,96h8v8h-8ZM104,96h8v8h-8ZM112,96h8v8h-8ZM120,96h8v8h-8ZM152,96h8v8h-8ZM160,96h8v8h-8ZM200,96h8v8h-8ZM232,96h8v8h-8ZM240,96h8v8h-8ZM256,96h8v8h-8ZM280,96h8v8h-8ZM288,96h8v8h-8ZM304,96h8v8h-8ZM72,104h8v8h-8ZM112,104h8v8h-8ZM128,104h8v8h-8ZM136,104h8v8h-8ZM152,104h8v8h-8ZM200,104h8v8h-8ZM224,104h8v8h-8ZM232,104h8v8h-8ZM256,104h8v8h-8ZM264,104h8v8h-8ZM272,104h8v8h-8ZM280,104h8v8h-8ZM288,104h8v8h-8ZM304,104h8v8h-8ZM24,112h8v8h-8ZM32,112h8v8h-8ZM48,112h8v8h-8ZM56,112h8v8h-8ZM64,112h8v8h-8ZM72,112h8v8h-8ZM112,112h8v8h-8ZM120,112h8v8h-8ZM144,112h8v8h-8ZM160,112h8v8h-8ZM168,112h8v8h-8ZM200,112h8v8h-8ZM208,112h8v8h-8ZM256,112h8v8h-8ZM264,112h8v8h-8ZM280,112h8v8h-8ZM296,112h8v8h-8ZM304,112h8v8h-8ZM16,120h8v8h-8ZM24,120h8v8h-8ZM32,120h8v8h-8ZM56,120h8v8h-8ZM72,120h8v8h-8ZM80,120h8v8h-8ZM88,120h8v8h-8ZM112,120h8v8h-8ZM128,120h8v8h-8ZM136,120h8v8h-8ZM152,120h8v8h-8ZM160,120h8v8h-8ZM176,120h8v8h-8ZM192,120h8v8h-8ZM200,120h8v8h-8ZM216,120h8v8h-8ZM232,120h8v8h-8ZM240,120h8v8h-8ZM272,120h8v8h-8ZM288,120h8v8h-8ZM16,128h8v8h-8ZM24,128h8v8h-8ZM64,128h8v8h-8ZM96,128h8v8h-8ZM112,128h8v8h-8ZM128,128h8v8h-8ZM136,128h8v8h-8ZM152,128h8v8h-8ZM168,128h8v8h-8ZM184,128h8v8h-8ZM192,128h8v8h-8ZM216,128h8v8h-8ZM224,128h8v8h-8ZM232,128h8v8h-8ZM264,128h8v8h-8ZM288,128h8v8h-8ZM304,128h8v8h-8ZM24,136h8v8h-8ZM32,136h8v8h-8ZM48,136h8v8h-8ZM104,136h8v8h-8ZM112,136h8v8h-8ZM120,136h8v8h-8ZM128,136h8v8h-8ZM152,136h8v8h-8ZM160,136h8v8h-8ZM200,136h8v8h-8ZM248,136h8v8h-8ZM256,136h8v8h-8ZM280,136h8v8h-8ZM288,136h8v8h-8ZM296,136h8v8h-8ZM304,136h8v8h-8ZM16,144h8v8h-8ZM24,144h8v8h-8ZM48,144h8v8h-8ZM64,144h8v8h-8ZM72,144h8v8h-8ZM80,144h8v8h-8ZM96,144h8v8h-8ZM120,144h8v8h-8ZM128,144h8v8h-8ZM136,144h8v8h-8ZM144,144h8v8h-8ZM152,144h8v8h-8ZM176,144h8v8h-8ZM184,144h8v8h-8ZM216,144h8v8h-8ZM232,144h8v8h-8ZM256,144h8v8h-8ZM272,144h8v8h-8ZM280,144h8v8h-8ZM288,144h8v8h-8ZM296,144h8v8h-8ZM304,144h8v8h-8ZM16,152h8v8h-8ZM48,152h8v8h-8ZM56,152h8v8h-8ZM72,152h8v8h-8ZM104,152h8v8h-8ZM112,152h8v8h-8ZM120,152h8v8h-8ZM144,152h8v8h-8ZM160,152h8v8h-8ZM176,152h8v8h-8ZM232,152h8v8h-8ZM248,152h8v8h-8ZM264,152h8v8h-8ZM288,152h8v8h-8ZM296,152h8v8h-8ZM16,160h8v8h-8ZM64,160h8v8h-8ZM112,160h8v8h-8ZM128,160h8v8h-8ZM136,160h8v8h-8ZM160,160h8v8h-8ZM176,160h8v8h-8ZM184,160h8v8h-8ZM200,160h8v8h-8ZM216,160h8v8h-8ZM224,160h8v8h-8ZM232,160h8v8h-8ZM240,160h8v8h-8ZM272,160h8v8h-8ZM280,160h8v8h-8ZM304,160h8v8h-8ZM16,168h8v8h-8ZM24,168h8v8h-8ZM32,168h8v8h-8ZM40,168h8v8h-8ZM56,168h8v8h-8ZM96,168h8v8h-8ZM104,168h8v8h-8ZM112,168h8v8h-8ZM128,168h8v8h-8ZM192,168h8v8h-8ZM200,168h8v8h-8ZM216,168h8v8h-8ZM224,168h8v8h-8ZM240,168h8v8h-8ZM256,168h8v8h-8ZM280,168h8v8h-8ZM296,168h8v8h-8ZM304,168h8v8h-8ZM48,176h8v8h-8ZM64,176h8v8h-8ZM72,176h8v8h-8ZM80,176h8v8h-8ZM104,176h8v8h-8ZM136,176h8v8h-8ZM144,176h8v8h-8ZM152,176h8v8h-8ZM176,176h8v8h-8ZM200,176h8v8h-8ZM208,176h8v8h-8ZM224,176h8v8h-8ZM232,176h8v8h-8ZM240,176h8v8h-8ZM248,176h8v8h-8ZM256,176h8v8h-8ZM264,176h8v8h-8ZM272,176h8v8h-8ZM280,176h8v8h-8ZM296,176h8v8h-8ZM16,184h8v8h-8ZM24,184h8v8h-8ZM40,184h8v8h-8ZM48,184h8v8h-8ZM72,184h8v8h-8ZM80,184h8v8h-8ZM104,184h8v8h-8ZM120,184h8v8h-8ZM136,184h8v8h-8ZM168,184h8v8h-8ZM184,184h8v8h-8ZM192,184h8v8h-8ZM200,184h8v8h-8ZM224,184h8v8h-8ZM232,184h8v8h-8ZM264,184h8v8h-8ZM272,184h8v8h-8ZM280,184h8v8h-8ZM296,184h8v8h-8ZM40,192h8v8h-8ZM48,192h8v8h-8ZM64,192h8v8h-8ZM80,192h8v8h-8ZM96,192h8v8h-8ZM104,192h8v8h-8ZM128,192h8v8h-8ZM136,192h8v8h-8ZM152,192h8v8h-8ZM160,192h8v8h-8ZM192,192h8v8h-8ZM200,192h8v8h-8ZM232,192h8v8h-8ZM248,192h8v8h-8ZM256,192h8v8h-8ZM280,192h8v8h-8ZM296,192h8v8h-8ZM304,192h8v8h-8ZM16,200h8v8h-8ZM32,200h8v8h-8ZM40,200h8v8h-8ZM56,200h8v8h-8ZM72,200h8v8h-8ZM88,200h8v8h-8ZM128,200h8v8h-8ZM136,200h8v8h-8ZM144,200h8v8h-8ZM152,200h8v8h-8ZM168,200h8v8h-8ZM184,200h8v8h-8ZM192,200h8v8h-8ZM208,200h8v8h-8ZM224,200h8v8h-8ZM240,200h8v8h-8ZM272,200h8v8h-8ZM280,200h8v8h-8ZM288,200h8v8h-8ZM296,200h8v8h-8ZM24,208h8v8h-8ZM40,208h8v8h-8ZM56,208h8v8h-8ZM64,208h8v8h-8ZM80,208h8v8h-8ZM96,208h8v8h-8ZM112,208h8v8h-8ZM120,208h8v8h-8ZM128,208h8v8h-8ZM136,208h8v8h-8ZM144,208h8v8h-8ZM152,208h8v8h-8ZM160,208h8v8h-8ZM168,208h8v8h-8ZM184,208h8v8h-8ZM200,208h8v8h-8ZM208,208h8v8h-8ZM232,208h8v8h-8ZM256,208h8v8h-8ZM296,208h8v8h-8ZM304,208h8v8h-8ZM16,216h8v8h-8ZM48,216h8v8h-8ZM72,216h8v8h-8ZM88,216h8v8h-8ZM96,216h8v8h-8ZM128,216h8v8h-8ZM144,216h8v8h-8ZM168,216h8v8h-8ZM176,216h8v8h-8ZM200,216h8v8h-8ZM232,216h8v8h-8ZM240,216h8v8h-8ZM264,216h8v8h-8ZM272,216h8v8h-8ZM280,216h8v8h-8ZM288,216h8v8h-8ZM16,224h8v8h-8ZM24,224h8v8h-8ZM48,224h8v8h-8ZM64,224h8v8h-8ZM80,224h8v8h-8ZM88,224h8v8h-8ZM96,224h8v8h-8ZM112,224h8v8h-8ZM144,224h8v8h-8ZM168,224h8v8h-8ZM176,224h8v8h-8ZM192,224h8v8h-8ZM216,224h8v8h-8ZM224,224h8v8h-8ZM232,224h8v8h-8ZM248,224h8v8h-8ZM296,224h8v8h-8ZM304,224h8v8h-8ZM16,232h8v8h-8ZM32,232h8v8h-8ZM72,232h8v8h-8ZM80,232h8v8h-8ZM88,232h8v8h-8ZM128,232h8v8h-8ZM136,232h8v8h-8ZM160,232h8v8h-8ZM176,232h8v8h-8ZM192,232h8v8h-8ZM208,232h8v8h-8ZM224,232h8v8h-8ZM232,232h8v8h-8ZM240,232h8v8h-8ZM256,232h8v8h-8ZM280,232h8v8h-8ZM288,232h8v8h-8ZM296,232h8v8h-8ZM16,240h8v8h-8ZM40,240h8v8h-8ZM64,240h8v8h-8ZM72,240h8v8h-8ZM80,240h8v8h-8ZM88,240h8v8h-8ZM104,240h8v8h-8ZM112,240h8v8h-8ZM120,240h8v8h-8ZM128,240h8v8h-8ZM144,240h8v8h-8ZM176,240h8v8h-8ZM192,240h8v8h-8ZM208,240h8v8h-8ZM216,240h8v8h-8ZM240,240h8v8h-8ZM248,240h8v8h-8ZM256,240h8v8h-8ZM264,240h8v8h-8ZM272,240h8v8h-8ZM280,240h8v8h-8ZM288,240h8v8h-8ZM296,240h8v8h-8ZM304,240h8v8h-8ZM80,248h8v8h-8ZM88,248h8v8h-8ZM96,248h8v8h-8ZM112,248h8v8h-8ZM128,248h8v8h-8ZM136,248h8v8h-8ZM160,248h8v8h-8ZM168,248h8v8h-8ZM176,248h8v8h-8ZM192,248h8v8h-8ZM240,248h8v8h-8ZM272,248h8v8h-8ZM280,248h8v8h-8ZM288,248h8v8h-8ZM16,256h8v8h-8ZM24,256h8v8h-8ZM32,256h8v8h-8ZM40,256h8v8h-8ZM48,256h8v8h-8ZM56,256h8v8h-8ZM64,256h8v8h-8ZM80,256h8v8h-8ZM104,256h8v8h-8ZM136,256h8v8h-8ZM168,256h8v8h-8ZM184,256h8v8h-8ZM192,256h8v8h-8ZM200,256h8v8h-8ZM208,256h8v8h-8ZM216,256h8v8h-8ZM232,256h8v8h-8ZM240,256h8v8h-8ZM256,256h8v8h-8ZM272,256h8v8h-8ZM280,256h8v8h-8ZM288,256h8v8h-8ZM296,256h8v8h-8ZM304,256h8v8h-8ZM16,264h8v8h-8ZM64,264h8v8h-8ZM80,264h8v8h-8ZM104,264h8v8h-8ZM112,264h8v8h-8ZM144,264h8v8h-8ZM152,264h8v8h-8ZM160,264h8v8h-8ZM168,264h8v8h-8ZM192,264h8v8h-8ZM200,264h8v8h-8ZM216,264h8v8h-8ZM224,264h8v8h-8ZM232,264h8v8h-8ZM240,264h8v8h-8ZM272,264h8v8h-8ZM280,264h8v8h-8ZM296,264h8v8h-8ZM304,264h8v8h-8ZM16,272h8v8h-8ZM32,272h8v8h-8ZM40,272h8v8h-8ZM48,272h8v8h-8ZM64,272h8v8h-8ZM80,272h8v8h-8ZM88,272h8v8h-8ZM128,272h8v8h-8ZM136,272h8v8h-8ZM168,272h8v8h-8ZM184,272h8v8h-8ZM192,272h8v8h-8ZM200,272h8v8h-8ZM232,272h8v8h-8ZM240,272h8v8h-8ZM248,272h8v8h-8ZM256,272h8v8h-8ZM264,272h8v8h-8ZM272,272h8v8h-8ZM280,272h8v8h-8ZM296,272h8v8h-8ZM304,272h8v8h-8ZM16,280h8v8h-8ZM32,280h8v8h-8ZM40,280h8v8h-8ZM48,280h8v8h-8ZM64,280h8v8h-8ZM80,280h8v8h-8ZM88,280h8v8h-8ZM112,280h8v8h-8ZM120,280h8v8h-8ZM128,280h8v8h-8ZM144,280h8v8h-8ZM152,280h8v8h-8ZM160,280h8v8h-8ZM184,280h8v8h-8ZM200,280h8v8h-8ZM224,280h8v8h-8ZM232,280h8v8h-8ZM248,280h8v8h-8ZM256,280h8v8h-8ZM264,280h8v8h-8ZM280,280h8v8h-8ZM288,280h8v8h-8ZM304,280h8v8h-8ZM16,288h8v8h-8ZM32,288h8v8h-8ZM40,288h8v8h-8ZM48,288h8v8h-8ZM64,288h8v8h-8ZM104,288h8v8h-8ZM128,288h8v8h-8ZM136,288h8v8h-8ZM144,288h8v8h-8ZM152,288h8v8h-8ZM160,288h8v8h-8ZM168,288h8v8h-8ZM176,288h8v8h-8ZM200,288h8v8h-8ZM240,288h8v8h-8ZM248,288h8v8h-8ZM272,288h8v8h-8ZM280,288h8v8h-8ZM304,288h8v8h-8ZM16,296h8v8h-8ZM64,296h8v8h-8ZM88,296h8v8h-8ZM112,296h8v8h-8ZM120,296h8v8h-8ZM144,296h8v8h-8ZM152,296h8v8h-8ZM160,296h8v8h-8ZM168,296h8v8h-8ZM176,296h8v8h-8ZM192,296h8v8h-8ZM208,296h8v8h-8ZM224,296h8v8h-8ZM256,296h8v8h-8ZM264,296h8v8h-8ZM272,296h8v8h-8ZM280,296h8v8h-8ZM288,296h8v8h-8ZM296,296h8v8h-8ZM304,296h8v8h-8ZM16,304h8v8h-8ZM24,304h8v8h-8ZM32,304h8v8h-8ZM40,304h8v8h-8ZM48,304h8v8h-8ZM56,304h8v8h-8ZM64,304h8v8h-8ZM80,304h8v8h-8ZM88,304h8v8h-8ZM104,304h8v8h-8ZM112,304h8v8h-8ZM120,304h8v8h-8ZM128,304h8v8h-8ZM136,304h8v8h-8ZM144,304h8v8h-8ZM176,304h8v8h-8ZM208,304h8v8h-8ZM224,304h8v8h-8ZM232,304h8v8h-8ZM240,304h8v8h-8ZM256,304h8v8h-8ZM304,304h8v8h-8Z" fill="#E74C3C"/>
</svg>
