<?xml version="1.0" encoding="UTF-8"?>
<svg xmlns="http://www.w3.org/2000/svg" version="1.1" width="328" height="328" viewBox="0 0 328 328">
<rect width="100%" height="100%" fill="#ffffff"/>
<path d="M16,16h8v8h-8ZM24,16h8v8h-8ZM32,16h8v8h-8ZM40,16h8v8h-8ZM48,16h8v8h-8ZM56,16h8v8h-8ZM64,16h8v8h-8ZM80,16h8v8h-8ZM88,16h8v8h-8ZM104,16h8v8h-8ZM112,16h8v8h-8ZM128,16h8v8h-8ZM136,16h8v8h-8ZM152,16h8v8h-8ZM160,16h8v8h-8ZM168,16h8v8h-8ZM184,16h8v8h-8ZM208,16h8v8h-8ZM216,16h8v8h-8ZM224,16h8v8h-8ZM232,16h8v8h-8ZM240,16h8v8h-8ZM256,16h8v8h-8ZM264,16h8v8h-8ZM272,16h8v8h-8ZM280,16h8v8h-8ZM288,16h8v8h-8ZM296,16h8v8h-8ZM304,16h8v8h-8ZM16,24h8v8h-8ZM64,24h8v8h-8ZM88,24h8v8h-8ZM104,24h8v8h-8ZM120,24h8v8h-8ZM128,24h8v8h-8ZM136,24h8v8h-8ZM160,24h8v8h-8ZM176,24h8v8h-8ZM184,24h8v8h-8ZM192,24h8v8h-8ZM208,24h8v8h-8ZM216,24h8v8h-8ZM224,24h8v8h-8ZM240,24h8v8h-8ZM256,24h8v8h-8ZM304,24h8v8h-8ZM16,32h8v8h-8ZM32,32h8v8h-8ZM40,32h8v8h-8ZM48,32h8v8h-8ZM64,32h8v8h-8ZM96,32h8v8h-8ZM112,32h8v8h-8ZM144,32h8v8h-8ZM152,32h8v8h-8ZM168,32h8v8h-8ZM176,32h8v8h-8ZM184,32h8v8h-8ZM208,32h8v8h-8ZM224,32h8v8h-8ZM240,32h8v8h-8ZM256,32h8v8h-8ZM272,32h8v8h-8ZM280,32h8v8h-8ZM288,32h8v8h-8ZM304,32h8v8h-8ZM16,40h8v8h-8ZM32,40h8v8h-8ZM40,40h8v8h-8ZM48,40h8v8h-8ZM64,40h8v8h-8ZM88,40h8v8h-8ZM96,40h8v8h-8ZM104,40h8v8h-8ZM112,40h8v8h-8ZM120,40h8v8h-8ZM128,40h8v8h-8ZM160,40h8v8h-8ZM168,40h8v8h-8ZM208,40h8v8h-8ZM216,40h8v8h-8ZM224,40h8v8h-8ZM240,40h8v8h-8ZM256,40h8v8h-8ZM272,40h8v8h-8ZM280,40h8v8h-8ZM288,40h8v8h-8ZM304,40h8v8h-8ZM16,48h8v8h-8ZM32,48h8v8h-8ZM40,48h8v8h-8ZM48,48h8v8h-8ZM64,48h8v8h-8ZM80,48h8v8h-8ZM88,48h8v8h-8ZM104,48h8v8h-8ZM120,48h8v8h-8ZM144,48h8v8h-8ZM160,48h8v8h-8ZM168,48h8v8h-8ZM184,48h8v8h-8ZM192,48h8v8h-8ZM200,48h8v8h-8ZM208,48h8v8h-8ZM224,48h8v8h-8ZM232,48h8v8h-8ZM240,48h8v8h-8ZM256,48h8v8h-8ZM272,48h8v8h-8ZM280,48h8v8h-8ZM288,48h8v8h-8ZM304,48h8v8h-8ZM16,56h8v8h-8ZM64,56h8v8h-8ZM96,56h8v8h-8ZM112,56h8v8h-8ZM160,56h8v8h-8ZM168,56h8v8h-8ZM184,56h8v8h-8ZM192,56h8v8h-8ZM216,56h8v8h-8ZM256,56h8v8h-8ZM304,56h8v8h-8ZM16,64h8v8h-8ZM24,64h8v8h-8ZM32,64h8v8h-8ZM40,64h8v8h-8ZM48,64h8v8h-8ZM56,64h8v8h-8ZM64,64h8v8h-8ZM80,64h8v8h-8ZM96,64h8v8h-8ZM112,64h8v8h-8ZM128,64h8v8h-8ZM144,64h8v8h-8ZM160,64h8v8h-8ZM176,64h8v8h-8ZM192,64h8v8h-8ZM208,64h8v8h-8ZM224,64h8v8h-8ZM240,64h8v8h-8ZM256,64h8v8h-8ZM264,64h8v8h-8ZM272,64h8v8h-8ZM280,64h8v8h-8ZM288,64h8v8h-8ZM296,64h8v8h-8ZM304,64h8v8h-8ZM80,72h8v8h-8ZM88,72h8v8h-8ZM112,72h8v8h-8ZM120,72h8v8h-8ZM128,72h8v8h-8ZM152,72h8v8h-8ZM160,72h8v8h-8ZM176,72h8v8h-8ZM192,72h8v8h-8ZM200,72h8v8h-8ZM208,72h8v8h-8ZM224,72h8v8h-8ZM232,72h8v8h-8ZM240,72h8v8h-8ZM16,80h8v8h-8ZM40,80h8v8h-8ZM48,80h8v8h-8ZM56,80h8v8h-8ZM64,80h8v8h-8ZM72,80h8v8h-8ZM80,80h8v8h-8ZM96,80h8v8h-8ZM112,80h8v8h-8ZM136,80h8v8h-8ZM160,80h8v8h-8ZM192,80h8v8h-8ZM200,80h8v8h-8ZM208,80h8v8h-8ZM232,80h8v8h-8ZM248,80h8v8h-8ZM256,80h8v8h-8ZM264,80h8v8h-8ZM272,80h8v8h-8ZM280,80h8v8h-8ZM304,80h8v8h-8ZM16,88h8v8h-8ZM32,88h8v8h-8ZM40,88h8v8h-8ZM48,88h8v8h-8ZM72,88h8v8h-8ZM120,88h8v8h-8ZM128,88h8v8h-8ZM144,88h8v8h-8ZM152,88h8v8h-8ZM168,88h8v8h-8ZM176,88h8v8h-8ZM200,88h8v8h-8ZM208,88h8v8h-8ZM224,88h8v8h-8ZM232,88h8v8h-8ZM272,88h8v8h-8ZM280,88h8v8h-8ZM16,96h8v8h-8ZM24,96h8v8h-8ZM40,96h8v8h-8ZM48,96h8v8h-8ZM64,96h8v8h-8ZM72,96h8v8h-8ZM80,96h8v8h-8ZM104,96h8v8h-8ZM120,96h8v8h-8ZM128,96h8v8h-8ZM144,96h8v8h-8ZM152,96h8v8h-8ZM176,96h8v8h-8ZM192,96h8v8h-8ZM200,96h8v8h-8ZM208,96h8v8h-8ZM224,96h8v8h-8ZM232,96h8v8h-8ZM272,96h8v8h-8ZM280,96h8v8h-8ZM16,104h8v8h-8ZM40,104h8v8h-8ZM72,104h8v8h-8ZM88,104h8v8h-8ZM128,104h8v8h-8ZM152,104h8v8h-8ZM160,104h8v8h-8ZM184,104h8v8h-8ZM200,104h8v8h-8ZM208,104h8v8h-8ZM224,104h8v8h-8ZM264,104h8v8h-8ZM272,104h8v8h-8ZM288,104h8v8h-8ZM24,112h8v8h-8ZM32,112h8v8h-8ZM40,112h8v8h-8ZM64,112h8v8h-8ZM72,112h8v8h-8ZM88,112h8v8h-8ZM96,112h8v8h-8ZM104,112h8v8h-8ZM112,112h8v8h-8ZM120,112h8v8h-8ZM136,112h8v8h-8ZM152,112h8v8h-8ZM160,112h8v8h-8ZM168,112h8v8h-8ZM184,112h8v8h-8ZM192,112h8v8h-8ZM208,112h8v8h-8ZM232,112h8v8h-8ZM240,112h8v8h-8ZM248,112h8v8h-8ZM256,112h8v8h-8ZM264,112h8v8h-8ZM288,112h8v8h-8ZM304,112h8v8h-8ZM16,120h8v8h-8ZM24,120h8v8h-8ZM32,120h8v8h-8ZM56,120h8v8h-8ZM72,120h8v8h-8ZM80,120h8v8h-8ZM88,120h8v8h-8ZM112,120h8v8h-8ZM128,120h8v8h-8ZM136,120h8v8h-8ZM152,120h8v8h-8ZM160,120h8v8h-8ZM176,120h8v8h-8ZM192,120h8v8h-8ZM200,120h8v8h-8ZM216,120h8v8h-8ZM232,120h8v8h-8ZM240,120h8v8h-8ZM272,120h8v8h-8ZM288,120h8v8h-8ZM56,128h8v8h-8ZM64,128h8v8h-8ZM72,128h8v8h-8ZM96,128h8v8h-8ZM104,128h8v8h-8ZM120,128h8v8h-8ZM128,128h8v8h-8ZM136,128h8v8h-8ZM160,128h8v8h-8ZM184,128h8v8h-8ZM192,128h8v8h-8ZM200,128h8v8h-8ZM208,128h8v8h-8ZM224,128h8v8h-8ZM232,128h8v8h-8ZM248,128h8v8h-8ZM256,128h8v8h-8ZM288,128h8v8h-8ZM296,128h8v8h-8ZM16,136h8v8h-8ZM24,136h8v8h-8ZM40,136h8v8h-8ZM48,136h8v8h-8ZM56,136h8v8h-8ZM80,136h8v8h-8ZM88,136h8v8h-8ZM120,136h8v8h-8ZM136,136h8v8h-8ZM176,136h8v8h-8ZM184,136h8v8h-8ZM208,136h8v8h-8ZM224,136h8v8h-8ZM232,136h8v8h-8ZM272,136h8v8h-8ZM288,136h8v8h-8ZM16,144h8v8h-8ZM40,144h8v8h-8ZM48,144h8v8h-8ZM56,144h8v8h-8ZM64,144h8v8h-8ZM80,144h8v8h-8ZM88,144h8v8h-8ZM96,144h8v8h-8ZM104,144h8v8h-8ZM128,144h8v8h-8ZM144,144h8v8h-8ZM168,144h8v8h-8ZM176,144h8v8h-8ZM200,144h8v8h-8ZM248,144h8v8h-8ZM256,144h8v8h-8ZM264,144h8v8h-8ZM272,144h8v8h-8ZM288,144h8v8h-8ZM304,144h8v8h-8ZM16,152h8v8h-8ZM24,152h8v8h-8ZM32,152h8v8h-8ZM80,152h8v8h-8ZM96,152h8v8h-8ZM112,152h8v8h-8ZM128,152h8v8h-8ZM152,152h8v8h-8ZM160,152h8v8h-8ZM168,152h8v8h-8ZM192,152h8v8h-8ZM200,152h8v8h-8ZM216,152h8v8h-8ZM224,152h8v8h-8ZM232,152h8v8h-8ZM240,152h8v8h-8ZM272,152h8v8h-8ZM24,160h8v8h-8ZM32,160h8v8h-8ZM64,160h8v8h-8ZM72,160h8v8h-8ZM80,160h8v8h-8ZM120,160h8v8h-8ZM136,160h8v8h-8ZM168,160h8v8h-8ZM184,160h8v8h-8ZM200,160h8v8h-8ZM208,160h8v8h-8ZM232,160h8v8h-8ZM240,160h8v8h-8ZM256,160h8v8h-8ZM264,160h8v8h-8ZM280,160h8v8h-8ZM48,168h8v8h-8ZM72,168h8v8h-8ZM80,168h8v8h-8ZM88,168h8v8h-8ZM120,168h8v8h-8ZM136,168h8v8h-8ZM144,168h8v8h-8ZM152,168h8v8h-8ZM160,168h8v8h-8ZM168,168h8v8h-8ZM176,168h8v8h-8ZM184,168h8v8h-8ZM208,168h8v8h-8ZM232,168h8v8h-8ZM248,168h8v8h-8ZM264,168h8v8h-8ZM272,168h8v8h-8ZM288,168h8v8h-8ZM32,176h8v8h-8ZM40,176h8v8h-8ZM64,176h8v8h-8ZM72,176h8v8h-8ZM88,176h8v8h-8ZM96,176h8v8h-8ZM104,176h8v8h-8ZM128,176h8v8h-8ZM152,176h8v8h-8ZM184,176h8v8h-8ZM192,176h8v8h-8ZM200,176h8v8h-8ZM208,176h8v8h-8ZM248,176h8v8h-8ZM256,176h8v8h-8ZM264,176h8v8h-8ZM288,176h8v8h-8ZM296,176h8v8h-8ZM16,184h8v8h-8ZM40,184h8v8h-8ZM80,184h8v8h-8ZM96,184h8v8h-8ZM104,184h8v8h-8ZM136,184h8v8h-8ZM144,184h8v8h-8ZM184,184h8v8h-8ZM200,184h8v8h-8ZM216,184h8v8h-8ZM224,184h8v8h-8ZM232,184h8v8h-8ZM240,184h8v8h-8ZM272,184h8v8h-8ZM280,184h8v8h-8ZM288,184h8v8h-8ZM296,184h8v8h-8ZM16,192h8v8h-8ZM32,192h8v8h-8ZM40,192h8v8h-8ZM64,192h8v8h-8ZM104,192h8v8h-8ZM112,192h8v8h-8ZM136,192h8v8h-8ZM144,192h8v8h-8ZM152,192h8v8h-8ZM176,192h8v8h-8ZM200,192h8v8h-8ZM208,192h8v8h-8ZM224,192h8v8h-8ZM232,192h8v8h-8ZM240,192h8v8h-8ZM248,192h8v8h-8ZM272,192h8v8h-8ZM280,192h8v8h-8ZM288,192h8v8h-8ZM296,192h8v8h-8ZM32,200h8v8h-8ZM56,200h8v8h-8ZM72,200h8v8h-8ZM112,200h8v8h-8ZM128,200h8v8h-8ZM144,200h8v8h-8ZM152,200h8v8h-8ZM160,200h8v8h-8ZM168,200h8v8h-8ZM192,200h8v8h-8ZM224,200h8v8h-8ZM232,200h8v8h-8ZM240,200h8v8h-8ZM256,200h8v8h-8ZM272,200h8v8h-8ZM288,200h8v8h-8ZM296,200h8v8h-8ZM304,200h8v8h-8ZM24,208h8v8h-8ZM48,208h8v8h-8ZM64,208h8v8h-8ZM80,208h8v8h-8ZM88,208h8v8h-8ZM104,208h8v8h-8ZM112,208h8v8h-8ZM120,208h8v8h-8ZM128,208h8v8h-8ZM160,208h8v8h-8ZM168,208h8v8h-8ZM192,208h8v8h-8ZM208,208h8v8h-8ZM240,208h8v8h-8ZM248,208h8v8h-8ZM256,208h8v8h-8ZM280,208h8v8h-8ZM288,208h8v8h-8ZM304,208h8v8h-8ZM16,216h8v8h-8ZM48,216h8v8h-8ZM72,216h8v8h-8ZM88,216h8v8h-8ZM96,216h8v8h-8ZM128,216h8v8h-8ZM144,216h8v8h-8ZM168,216h8v8h-8ZM176,216h8v8h-8ZM200,216h8v8h-8ZM232,216h8v8h-8ZM240,216h8v8h-8ZM264,216h8v8h-8ZM272,216h8v8h-8ZM280,216h8v8h-8ZM288,216h8v8h-8ZM48,224h8v8h-8ZM56,224h8v8h-8ZM64,224h8v8h-8ZM72,224h8v8h-8ZM80,224h8v8h-8ZM88,224h8v8h-8ZM96,224h8v8h-8ZM104,224h8v8h-8ZM120,224h8v8h-8ZM144,224h8v8h-8ZM152,224h8v8h-8ZM160,224h8v8h-8ZM176,224h8v8h-8ZM192,224h8v8h-8ZM200,224h8v8h-8ZM208,224h8v8h-8ZM224,224h8v8h-8ZM232,224h8v8h-8ZM256,224h8v8h-8ZM264,224h8v8h-8ZM40,232h8v8h-8ZM56,232h8v8h-8ZM72,232h8v8h-8ZM104,232h8v8h-8ZM112,232h8v8h-8ZM152,232h8v8h-8ZM184,232h8v8h-8ZM192,232h8v8h-8ZM200,232h8v8h-8ZM240,232h8v8h-8ZM248,232h8v8h-8ZM272,232h8v8h-8ZM288,232h8v8h-8ZM304,232h8v8h-8ZM16,240h8v8h-8ZM24,240h8v8h-8ZM56,240h8v8h-8ZM64,240h8v8h-8ZM80,240h8v8h-8ZM112,240h8v8h-8ZM128,240h8v8h-8ZM136,240h8v8h-8ZM144,240h8v8h-8ZM152,240h8v8h-8ZM168,240h8v8h-8ZM176,240h8v8h-8ZM184,240h8v8h-8ZM192,240h8v8h-8ZM200,240h8v8h-8ZM208,240h8v8h-8ZM232,240h8v8h-8ZM240,240h8v8h-8ZM248,240h8v8h-8ZM256,240h8v8h-8ZM264,240h8v8h-8ZM272,240h8v8h-8ZM288,240h8v8h-8ZM304,240h8v8h-8ZM80,248h8v8h-8ZM88,248h8v8h-8ZM104,248h8v8h-8ZM112,248h8v8h-8ZM120,248h8v8h-8ZM136,248h8v8h-8ZM144,248h8v8h-8ZM152,248h8v8h-8ZM160,248h8v8h-8ZM200,248h8v8h-8ZM216,248h8v8h-8ZM224,248h8v8h-8ZM240,248h8v8h-8ZM272,248h8v8h-8ZM280,248h8v8h-8ZM296,248h8v8h-8ZM16,256h8v8h-8ZM24,256h8v8h-8ZM32,256h8v8h-8ZM40,256h8v8h-8ZM48,256h8v8h-8ZM56,256h8v8h-8ZM64,256h8v8h-8ZM80,256h8v8h-8ZM104,256h8v8h-8ZM112,256h8v8h-8ZM120,256h8v8h-8ZM128,256h8v8h-8ZM136,256h8v8h-8ZM160,256h8v8h-8ZM176,256h8v8h-8ZM184,256h8v8h-8ZM192,256h8v8h-8ZM200,256h8v8h-8ZM224,256h8v8h-8ZM232,256h8v8h-8ZM240,256h8v8h-8ZM256,256h8v8h-8ZM272,256h8v8h-8ZM280,256h8v8h-8ZM288,256h8v8h-8ZM296,256h8v8h-8ZM16,264h8v8h-8ZM64,264h8v8h-8ZM88,264h8v8h-8ZM96,264h8v8h-8ZM120,264h8v8h-8ZM128,264h8v8h-8ZM136,264h8v8h-8ZM176,264h8v8h-8ZM184,264h8v8h-8ZM208,264h8v8h-8ZM240,264h8v8h-8ZM272,264h8v8h-8ZM288,264h8v8h-8ZM16,272h8v8h-8ZM32,272h8v8h-8ZM40,272h8v8h-8ZM48,272h8v8h-8ZM64,272h8v8h-8ZM80,272h8v8h-8ZM96,272h8v8h-8ZM144,272h8v8h-8ZM168,272h8v8h-8ZM176,272h8v8h-8ZM200,272h8v8h-8ZM224,272h8v8h-8ZM240,272h8v8h-8ZM248,272h8v8h-8ZM256,272h8v8h-8ZM264,272h8v8h-8ZM272,272h8v8h-8ZM288,272h8v8h-8ZM296,272h8v8h-8ZM304,272h8v8h-8ZM16,280h8v8h-8ZM32,280h8v8h-8ZM40,280h8v8h-8ZM48,280h8v8h-8ZM64,280h8v8h-8ZM88,280h8v8h-8ZM96,280h8v8h-8ZM112,280h8v8h-8ZM128,280h8v8h-8ZM152,280h8v8h-8ZM160,280h8v8h-8ZM168,280h8v8h-8ZM184,280h8v8h-8ZM192,280h8v8h-8ZM200,280h8v8h-8ZM216,280h8v8h-8ZM224,280h8v8h-8ZM232,280h8v8h-8ZM240,280h8v8h-8ZM248,280h8v8h-8ZM256,280h8v8h-8ZM280,280h8v8h-8ZM304,280h8v8h-8ZM16,288h8v8h-8ZM32,288h8v8h-8ZM40,288h8v8h-8ZM48,288h8v8h-8ZM64,288h8v8h-8ZM96,288h8v8h-8ZM104,288h8v8h-8ZM112,288h8v8h-8ZM136,288h8v8h-8ZM152,288h8v8h-8ZM168,288h8v8h-8ZM192,288h8v8h-8ZM200,288h8v8h-8ZM208,288h8v8h-8ZM224,288h8v8h-8ZM248,288h8v8h-8ZM256,288h8v8h-8ZM280,288h8v8h-8ZM288,288h8v8h-8ZM16,296h8v8h-8ZM64,296h8v8h-8ZM120,296h8v8h-8ZM136,296h8v8h-8ZM144,296h8v8h-8ZM152,296h8v8h-8ZM168,296h8v8h-8ZM176,296h8v8h-8ZM184,296h8v8h-8ZM192,296h8v8h-8ZM224,296h8v8h-8ZM232,296h8v8h-8ZM264,296h8v8h-8ZM272,296h8v8h-8ZM288,296h8v8h-8ZM296,296h8v8h-8ZM16,304h8v8h-8ZM24,304h8v8h-8ZM32,304h8v8h-8ZM40,304h8v8h-8ZM48,304h8v8h-8ZM56,304h8v8h-8ZM64,304h8v8h-8ZM80,304h8v8h-8ZM96,304h8v8h-8ZM112,304h8v8h-8ZM120,304h8v8h-8ZM128,304h8v8h-8ZM152,304h8v8h-8ZM176,304h8v8h-8ZM184,304h8v8h-8ZM192,304h8v8h-8ZM200,304h8v8h-8ZM208,304h8v8h-8ZM224,304h8v8h-8ZM248,304h8v8h-8ZM256,304h8v8h-8ZM280,304h8v8h-8ZM288,304h8v8h-8ZM296,304h8v8h-8ZM304,304h8v8h-8Z" fill="#E74C3C"/>
</svg>
