<?xml version="1.0" encoding="UTF-8"?>
<svg xmlns="http://www.w3.org/2000/svg" version="1.1" width="232" height="232" viewBox="0 0 232 232">
<rect width="100%" height="100%" fill="#ffffff"/>
<path d="M 80.0 16.0 L 84.8 16.0 A 3.2 3.2 0 0 1 88.0 19.2 L 88.0 24.0 L 83.2 24.0 A 3.2 3.2 0 0 1 80.0 20.8 Z" fill="#000000"/>
<path d="M 104.0 16.0 L 108.8 16.0 A 3.2 3.2 0 0 1 112.0 19.2 L 112.0 24.0 L 107.2 24.0 A 3.2 3.2 0 0 1 104.0 20.8 Z" fill="#000000"/>
<path d="M 112.0 16.0 L 116.8 16.0 A 3.2 3.2 0 0 1 120.0 19.2 L 120.0 24.0 L 115.2 24.0 A 3.2 3.2 0 0 1 112.0 20.8 Z" fill="#000000"/>
<path d="M 128.0 16.0 L 132.8 16.0 A 3.2 3.2 0 0 1 136.0 19.2 L 136.0 24.0 L 131.2 24.0 A 3.2 3.2 0 0 1 128.0 20.8 Z" fill="#000000"/>
<path d="M 104.0 24.0 L 108.8 24.0 A 3.2 3.2 0 0 1 112.0 27.2 L 112.0 32.0 L 107.2 32.0 A 3.2 3.2 0 0 1 104.0 28.8 Z" fill="#000000"/>
<path d="M 112.0 24.0 L 116.8 24.0 A 3.2 3.2 0 0 1 120.0 27.2 L 120.0 32.0 L 115.2 32.0 A 3.2 3.2 0 0 1 112.0 28.8 Z" fill="#000000"/>
<path d="M 144.0 24.0 L 148.8 24.0 A 3.2 3.2 0 0 1 152.0 27.2 L 152.0 32.0 L 147.2 32.0 A 3.2 3.2 0 0 1 144.0 28.8 Z" fill="#000000"/>
<path d="M 88.0 32.0 L 92.8 32.0 A 3.2 3.2 0 0 1 96.0 35.2 L 96.0 40.0 L 91.2 40.0 A 3.2 3.2 0 0 1 88.0 36.8 Z" fill="#000000"/>
<path d="M 104.0 32.0 L 108.8 32.0 A 3.2 3.2 0 0 1 112.0 35.2 L 112.0 40.0 L 107.2 40.0 A 3.2 3.2 0 0 1 104.0 36.8 Z" fill="#000000"/>
<path d="M 112.0 32.0 L 116.8 32.0 A 3.2 3.2 0 0 1 120.0 35.2 L 120.0 40.0 L 115.2 40.0 A 3.2 3.2 0 0 1 112.0 36.8 Z" fill="#000000"/>
<path d="M 120.0 32.0 L 124.8 32.0 A 3.2 3.2 0 0 1 128.0 35.2 L 128.0 40.0 L 123.2 40.0 A 3.2 3.2 0 0 1 120.0 36.8 Z" fill="#000000"/>
<path d="M 136.0 32.0 L 140.8 32.0 A 3.2 3.2 0 0 1 144.0 35.2 L 144.0 40.0 L 139.2 40.0 A 3.2 3.2 0 0 1 136.0 36.8 Z" fill="#000000"/>
<path d="M 144.0 32.0 L 148.8 32.0 A 3.2 3.2 0 0 1 152.0 35.2 L 152.0 40.0 L 147.2 40.0 A 3.2 3.2 0 0 1 144.0 36.8 Z" fill="#000000"/>
<path d="M 80.0 40.0 L 84.8 40.0 A 3.2 3.2 0 0 1 88.0 43.2 L 88.0 48.0 L 83.2 48.0 A 3.2 3.2 0 0 1 80.0 44.8 Z" fill="#000000"/>
<path d="M 120.0 40.0 L 124.8 40.0 A 3.2 3.2 0 0 1 128.0 43.2 L 128.0 48.0 L 123.2 48.0 A 3.2 3.2 0 0 1 120.0 44.8 Z" fill="#000000"/>
<path d="M 144.0 40.0 L 148.8 40.0 A 3.2 3.2 0 0 1 152.0 43.2 L 152.0 48.0 L 147.2 48.0 A 3.2 3.2 0 0 1 144.0 44.8 Z" fill="#000000"/>
<path d="M 80.0 48.0 L 84.8 48.0 A 3.2 3.2 0 0 1 88.0 51.2 L 88.0 56.0 L 83.2 56.0 A 3.2 3.2 0 0 1 80.0 52.8 Z" fill="#000000"/>
<path d="M 88.0 48.0 L 92.8 48.0 A 3.2 3.2 0 0 1 96.0 51.2 L 96.0 56.0 L 91.2 56.0 A 3.2 3.2 0 0 1 88.0 52.8 Z" fill="#000000"/>
<path d="M 104.0 48.0 L 108.8 48.0 A 3.2 3.2 0 0 1 112.0 51.2 L 112.0 56.0 L 107.2 56.0 A 3.2 3.2 0 0 1 104.0 52.8 Z" fill="#000000"/>
<path d="M 112.0 48.0 L 116.8 48.0 A 3.2 3.2 0 0 1 120.0 51.2 L 120.0 56.0 L 115.2 56.0 A 3.2 3.2 0 0 1 112.0 52.8 Z" fill="#000000"/>
<path d="M 128.0 48.0 L 132.8 48.0 A 3.2 3.2 0 0 1 136.0 51.2 L 136.0 56.0 L 131.2 56.0 A 3.2 3.2 0 0 1 128.0 52.8 Z" fill="#000000"/>
<path d="M 144.0 48.0 L 148.8 48.0 A 3.2 3.2 0 0 1 152.0 51.2 L 152.0 56.0 L 147.2 56.0 A 3.2 3.2 0 0 1 144.0 52.8 Z" fill="#000000"/>
<path d="M 80.0 56.0 L 84.8 56.0 A 3.2 3.2 0 0 1 88.0 59.2 L 88.0 64.0 L 83.2 64.0 A 3.2 3.2 0 0 1 80.0 60.8 Z" fill="#000000"/>
<path d="M 104.0 56.0 L 108.8 56.0 A 3.2 3.2 0 0 1 112.0 59.2 L 112.0 64.0 L 107.2 64.0 A 3.2 3.2 0 0 1 104.0 60.8 Z" fill="#000000"/>
<path d="M 112.0 56.0 L 116.8 56.0 A 3.2 3.2 0 0 1 120.0 59.2 L 120.0 64.0 L 115.2 64.0 A 3.2 3.2 0 0 1 112.0 60.8 Z" fill="#000000"/>
<path d="M 120.0 56.0 L 124.8 56.0 A 3.2 3.2 0 0 1 128.0 59.2 L 128.0 64.0 L 123.2 64.0 A 3.2 3.2 0 0 1 120.0 60.8 Z" fill="#000000"/>
<path d="M 128.0 56.0 L 132.8 56.0 A 3.2 3.2 0 0 1 136.0 59.2 L 136.0 64.0 L 131.2 64.0 A 3.2 3.2 0 0 1 128.0 60.8 Z" fill="#000000"/>
<path d="M 144.0 56.0 L 148.8 56.0 A 3.2 3.2 0 0 1 152.0 59.2 L 152.0 64.0 L 147.2 64.0 A 3.2 3.2 0 0 1 144.0 60.8 Z" fill="#000000"/>
<path d="M 80.0 64.0 L 84.8 64.0 A 3.2 3.2 0 0 1 88.0 67.2 L 88.0 72.0 L 83.2 72.0 A 3.2 3.2 0 0 1 80.0 68.8 Z" fill="#000000"/>
<path d="M 96.0 64.0 L 100.8 64.0 A 3.2 3.2 0 0 1 104.0 67.2 L 104.0 72.0 L 99.2 72.0 A 3.2 3.2 0 0 1 96.0 68.8 Z" fill="#000000"/>
<path d="M 112.0 64.0 L 116.8 64.0 A 3.2 3.2 0 0 1 120.0 67.2 L 120.0 72.0 L 115.2 72.0 A 3.2 3.2 0 0 1 112.0 68.8 Z" fill="#000000"/>
<path d="M 128.0 64.0 L 132.8 64.0 A 3.2 3.2 0 0 1 136.0 67.2 L 136.0 72.0 L 131.2 72.0 A 3.2 3.2 0 0 1 128.0 68.8 Z" fill="#000000"/>
<path d="M 144.0 64.0 L 148.8 64.0 A 3.2 3.2 0 0 1 152.0 67.2 L 152.0 72.0 L 147.2 72.0 A 3.2 3.2 0 0 1 144.0 68.8 Z" fill="#000000"/>
<path d="M 80.0 72.0 L 84.8 72.0 A 3.2 3.2 0 0 1 88.0 75.2 L 88.0 80.0 L 83.2 80.0 A 3.2 3.2 0 0 1 80.0 76.8 Z" fill="#000000"/>
<path d="M 104.0 72.0 L 108.8 72.0 A 3.2 3.2 0 0 1 112.0 75.2 L 112.0 80.0 L 107.2 80.0 A 3.2 3.2 0 0 1 104.0 76.8 Z" fill="#000000"/>
<path d="M 112.0 72.0 L 116.8 72.0 A 3.2 3.2 0 0 1 120.0 75.2 L 120.0 80.0 L 115.2 80.0 A 3.2 3.2 0 0 1 112.0 76.8 Z" fill="#000000"/>
<path d="M 120.0 72.0 L 124.8 72.0 A 3.2 3.2 0 0 1 128.0 75.2 L 128.0 80.0 L 123.2 80.0 A 3.2 3.2 0 0 1 120.0 76.8 Z" fill="#000000"/>
<path d="M 144.0 72.0 L 148.8 72.0 A 3.2 3.2 0 0 1 152.0 75.2 L 152.0 80.0 L 147.2 80.0 A 3.2 3.2 0 0 1 144.0 76.8 Z" fill="#000000"/>
<path d="M 16.0 80.0 L 20.8 80.0 A 3.2 3.2 0 0 1 24.0 83.2 L 24.0 88.0 L 19.2 88.0 A 3.2 3.2 0 0 1 16.0 84.8 Z" fill="#000000"/>
<path d="M 24.0 80.0 L 28.8 80.0 A 3.2 3.2 0 0 1 32.0 83.2 L 32.0 88.0 L 27.2 88.0 A 3.2 3.2 0 0 1 24.0 84.8 Z" fill="#000000"/>
<path d="M 32.0 80.0 L 36.8 80.0 A 3.2 3.2 0 0 1 40.0 83.2 L 40.0 88.0 L 35.2 88.0 A 3.2 3.2 0 0 1 32.0 84.8 Z" fill="#000000"/>
<path d="M 48.0 80.0 L 52.8 80.0 A 3.2 3.2 0 0 1 56.0 83.2 L 56.0 88.0 L 51.2 88.0 A 3.2 3.2 0 0 1 48.0 84.8 Z" fill="#000000"/>
<path d="M 64.0 80.0 L 68.8 80.0 A 3.2 3.2 0 0 1 72.0 83.2 L 72.0 88.0 L 67.2 88.0 A 3.2 3.2 0 0 1 64.0 84.8 Z" fill="#000000"/>
<path d="M 80.0 80.0 L 84.8 80.0 A 3.2 3.2 0 0 1 88.0 83.2 L 88.0 88.0 L 83.2 88.0 A 3.2 3.2 0 0 1 80.0 84.8 Z" fill="#000000"/>
<path d="M 96.0 80.0 L 100.8 80.0 A 3.2 3.2 0 0 1 104.0 83.2 L 104.0 88.0 L 99.2 88.0 A 3.2 3.2 0 0 1 96.0 84.8 Z" fill="#000000"/>
<path d="M 104.0 80.0 L 108.8 80.0 A 3.2 3.2 0 0 1 112.0 83.2 L 112.0 88.0 L 107.2 88.0 A 3.2 3.2 0 0 1 104.0 84.8 Z" fill="#000000"/>
<path d="M 112.0 80.0 L 116.8 80.0 A 3.2 3.2 0 0 1 120.0 83.2 L 120.0 88.0 L 115.2 88.0 A 3.2 3.2 0 0 1 112.0 84.8 Z" fill="#000000"/>
<path d="M 144.0 80.0 L 148.8 80.0 A 3.2 3.2 0 0 1 152.0 83.2 L 152.0 88.0 L 147.2 88.0 A 3.2 3.2 0 0 1 144.0 84.8 Z" fill="#000000"/>
<path d="M 152.0 80.0 L 156.8 80.0 A 3.2 3.2 0 0 1 160.0 83.2 L 160.0 88.0 L 155.2 88.0 A 3.2 3.2 0 0 1 152.0 84.8 Z" fill="#000000"/>
<path d="M 176.0 80.0 L 180.8 80.0 A 3.2 3.2 0 0 1 184.0 83.2 L 184.0 88.0 L 179.2 88.0 A 3.2 3.2 0 0 1 176.0 84.8 Z" fill="#000000"/>
<path d="M 192.0 80.0 L 196.8 80.0 A 3.2 3.2 0 0 1 200.0 83.2 L 200.0 88.0 L 195.2 88.0 A 3.2 3.2 0 0 1 192.0 84.8 Z" fill="#000000"/>
<path d="M 200.0 80.0 L 204.8 80.0 A 3.2 3.2 0 0 1 208.0 83.2 L 208.0 88.0 L 203.2 88.0 A 3.2 3.2 0 0 1 200.0 84.8 Z" fill="#000000"/>
<path d="M 208.0 80.0 L 212.8 80.0 A 3.2 3.2 0 0 1 216.0 83.2 L 216.0 88.0 L 211.2 88.0 A 3.2 3.2 0 0 1 208.0 84.8 Z" fill="#000000"/>
<path d="M 16.0 88.0 L 20.8 88.0 A 3.2 3.2 0 0 1 24.0 91.2 L 24.0 96.0 L 19.2 96.0 A 3.2 3.2 0 0 1 16.0 92.8 Z" fill="#000000"/>
<path d="M 40.0 88.0 L 44.8 88.0 A 3.2 3.2 0 0 1 48.0 91.2 L 48.0 96.0 L 43.2 96.0 A 3.2 3.2 0 0 1 40.0 92.8 Z" fill="#000000"/>
<path d="M 48.0 88.0 L 52.8 88.0 A 3.2 3.2 0 0 1 56.0 91.2 L 56.0 96.0 L 51.2 96.0 A 3.2 3.2 0 0 1 48.0 92.8 Z" fill="#000000"/>
<path d="M 56.0 88.0 L 60.8 88.0 A 3.2 3.2 0 0 1 64.0 91.2 L 64.0 96.0 L 59.2 96.0 A 3.2 3.2 0 0 1 56.0 92.8 Z" fill="#000000"/>
<path d="M 72.0 88.0 L 76.8 88.0 A 3.2 3.2 0 0 1 80.0 91.2 L 80.0 96.0 L 75.2 96.0 A 3.2 3.2 0 0 1 72.0 92.8 Z" fill="#000000"/>
<path d="M 88.0 88.0 L 92.8 88.0 A 3.2 3.2 0 0 1 96.0 91.2 L 96.0 96.0 L 91.2 96.0 A 3.2 3.2 0 0 1 88.0 92.8 Z" fill="#000000"/>
<path d="M 104.0 88.0 L 108.8 88.0 A 3.2 3.2 0 0 1 112.0 91.2 L 112.0 96.0 L 107.2 96.0 A 3.2 3.2 0 0 1 104.0 92.8 Z" fill="#000000"/>
<path d="M 112.0 88.0 L 116.8 88.0 A 3.2 3.2 0 0 1 120.0 91.2 L 120.0 96.0 L 115.2 96.0 A 3.2 3.2 0 0 1 112.0 92.8 Z" fill="#000000"/>
<path d="M 120.0 88.0 L 124.8 88.0 A 3.2 3.2 0 0 1 128.0 91.2 L 128.0 96.0 L 123.2 96.0 A 3.2 3.2 0 0 1 120.0 92.8 Z" fill="#000000"/>
<path d="M 128.0 88.0 L 132.8 88.0 A 3.2 3.2 0 0 1 136.0 91.2 L 136.0 96.0 L 131.2 96.0 A 3.2 3.2 0 0 1 128.0 92.8 Z" fill="#000000"/>
<path d="M 136.0 88.0 L 140.8 88.0 A 3.2 3.2 0 0 1 144.0 91.2 L 144.0 96.0 L 139.2 96.0 A 3.2 3.2 0 0 1 136.0 92.8 Z" fill="#000000"/>
<path d="M 168.0 88.0 L 172.8 88.0 A 3.2 3.2 0 0 1 176.0 91.2 L 176.0 96.0 L 171.2 96.0 A 3.2 3.2 0 0 1 168.0 92.8 Z" fill="#000000"/>
<path d="M 176.0 88.0 L 180.8 88.0 A 3.2 3.2 0 0 1 184.0 91.2 L 184.0 96.0 L 179.2 96.0 A 3.2 3.2 0 0 1 176.0 92.8 Z" fill="#000000"/>
<path d="M 184.0 88.0 L 188.8 88.0 A 3.2 3.2 0 0 1 192.0 91.2 L 192.0 96.0 L 187.2 96.0 A 3.2 3.2 0 0 1 184.0 92.8 Z" fill="#000000"/>
<path d="M 192.0 88.0 L 196.8 88.0 A 3.2 3.2 0 0 1 200.0 91.2 L 200.0 96.0 L 195.2 96.0 A 3.2 3.2 0 0 1 192.0 92.8 Z" fill="#000000"/>
<path d="M 200.0 88.0 L 204.8 88.0 A 3.2 3.2 0 0 1 208.0 91.2 L 208.0 96.0 L 203.2 96.0 A 3.2 3.2 0 0 1 200.0 92.8 Z" fill="#000000"/>
<path d="M 24.0 96.0 L 28.8 96.0 A 3.2 3.2 0 0 1 32.0 99.2 L 32.0 104.0 L 27.2 104.0 A 3.2 3.2 0 0 1 24.0 100.8 Z" fill="#000000"/>
<path d="M 32.0 96.0 L 36.8 96.0 A 3.2 3.2 0 0 1 40.0 99.2 L 40.0 104.0 L 35.2 104.0 A 3.2 3.2 0 0 1 32.0 100.8 Z" fill="#000000"/>
<path d="M 64.0 96.0 L 68.8 96.0 A 3.2 3.2 0 0 1 72.0 99.2 L 72.0 104.0 L 67.2 104.0 A 3.2 3.2 0 0 1 64.0 100.8 Z" fill="#000000"/>
<path d="M 80.0 96.0 L 84.8 96.0 A 3.2 3.2 0 0 1 88.0 99.2 L 88.0 104.0 L 83.2 104.0 A 3.2 3.2 0 0 1 80.0 100.8 Z" fill="#000000"/>
<path d="M 96.0 96.0 L 100.8 96.0 A 3.2 3.2 0 0 1 104.0 99.2 L 104.0 104.0 L 99.2 104.0 A 3.2 3.2 0 0 1 96.0 100.8 Z" fill="#000000"/>
<path d="M 112.0 96.0 L 116.8 96.0 A 3.2 3.2 0 0 1 120.0 99.2 L 120.0 104.0 L 115.2 104.0 A 3.2 3.2 0 0 1 112.0 100.8 Z" fill="#000000"/>
<path d="M 120.0 96.0 L 124.8 96.0 A 3.2 3.2 0 0 1 128.0 99.2 L 128.0 104.0 L 123.2 104.0 A 3.2 3.2 0 0 1 120.0 100.8 Z" fill="#000000"/>
<path d="M 136.0 96.0 L 140.8 96.0 A 3.2 3.2 0 0 1 144.0 99.2 L 144.0 104.0 L 139.2 104.0 A 3.2 3.2 0 0 1 136.0 100.8 Z" fill="#000000"/>
<path d="M 144.0 96.0 L 148.8 96.0 A 3.2 3.2 0 0 1 152.0 99.2 L 152.0 104.0 L 147.2 104.0 A 3.2 3.2 0 0 1 144.0 100.8 Z" fill="#000000"/>
<path d="M 168.0 96.0 L 172.8 96.0 A 3.2 3.2 0 0 1 176.0 99.2 L 176.0 104.0 L 171.2 104.0 A 3.2 3.2 0 0 1 168.0 100.8 Z" fill="#000000"/>
<path d="M 176.0 96.0 L 180.8 96.0 A 3.2 3.2 0 0 1 184.0 99.2 L 184.0 104.0 L 179.2 104.0 A 3.2 3.2 0 0 1 176.0 100.8 Z" fill="#000000"/>
<path d="M 184.0 96.0 L 188.8 96.0 A 3.2 3.2 0 0 1 192.0 99.2 L 192.0 104.0 L 187.2 104.0 A 3.2 3.2 0 0 1 184.0 100.8 Z" fill="#000000"/>
<path d="M 208.0 96.0 L 212.8 96.0 A 3.2 3.2 0 0 1 216.0 99.2 L 216.0 104.0 L 211.2 104.0 A 3.2 3.2 0 0 1 208.0 100.8 Z" fill="#000000"/>
<path d="M 24.0 104.0 L 28.8 104.0 A 3.2 3.2 0 0 1 32.0 107.2 L 32.0 112.0 L 27.2 112.0 A 3.2 3.2 0 0 1 24.0 108.8 Z" fill="#000000"/>
<path d="M 56.0 104.0 L 60.8 104.0 A 3.2 3.2 0 0 1 64.0 107.2 L 64.0 112.0 L 59.2 112.0 A 3.2 3.2 0 0 1 56.0 108.8 Z" fill="#000000"/>
<path d="M 72.0 104.0 L 76.8 104.0 A 3.2 3.2 0 0 1 80.0 107.2 L 80.0 112.0 L 75.2 112.0 A 3.2 3.2 0 0 1 72.0 108.8 Z" fill="#000000"/>
<path d="M 96.0 104.0 L 100.8 104.0 A 3.2 3.2 0 0 1 104.0 107.2 L 104.0 112.0 L 99.2 112.0 A 3.2 3.2 0 0 1 96.0 108.8 Z" fill="#000000"/>
<path d="M 152.0 104.0 L 156.8 104.0 A 3.2 3.2 0 0 1 160.0 107.2 L 160.0 112.0 L 155.2 112.0 A 3.2 3.2 0 0 1 152.0 108.8 Z" fill="#000000"/>
<path d="M 160.0 104.0 L 164.8 104.0 A 3.2 3.2 0 0 1 168.0 107.2 L 168.0 112.0 L 163.2 112.0 A 3.2 3.2 0 0 1 160.0 108.8 Z" fill="#000000"/>
<path d="M 168.0 104.0 L 172.8 104.0 A 3.2 3.2 0 0 1 176.0 107.2 L 176.0 112.0 L 171.2 112.0 A 3.2 3.2 0 0 1 168.0 108.8 Z" fill="#000000"/>
<path d="M 184.0 104.0 L 188.8 104.0 A 3.2 3.2 0 0 1 192.0 107.2 L 192.0 112.0 L 187.2 112.0 A 3.2 3.2 0 0 1 184.0 108.8 Z" fill="#000000"/>
<path d="M 192.0 104.0 L 196.8 104.0 A 3.2 3.2 0 0 1 200.0 107.2 L 200.0 112.0 L 195.2 112.0 A 3.2 3.2 0 0 1 192.0 108.8 Z" fill="#000000"/>
<path d="M 200.0 104.0 L 204.8 104.0 A 3.2 3.2 0 0 1 208.0 107.2 L 208.0 112.0 L 203.2 112.0 A 3.2 3.2 0 0 1 200.0 108.8 Z" fill="#000000"/>
<path d="M 208.0 104.0 L 212.8 104.0 A 3.2 3.2 0 0 1 216.0 107.2 L 216.0 112.0 L 211.2 112.0 A 3.2 3.2 0 0 1 208.0 108.8 Z" fill="#000000"/>
<path d="M 16.0 112.0 L 20.8 112.0 A 3.2 3.2 0 0 1 24.0 115.2 L 24.0 120.0 L 19.2 120.0 A 3.2 3.2 0 0 1 16.0 116.8 Z" fill="#000000"/>
<path d="M 24.0 112.0 L 28.8 112.0 A 3.2 3.2 0 0 1 32.0 115.2 L 32.0 120.0 L 27.2 120.0 A 3.2 3.2 0 0 1 24.0 116.8 Z" fill="#000000"/>
<path d="M 48.0 112.0 L 52.8 112.0 A 3.2 3.2 0 0 1 56.0 115.2 L 56.0 120.0 L 51.2 120.0 A 3.2 3.2 0 0 1 48.0 116.8 Z" fill="#000000"/>
<path d="M 64.0 112.0 L 68.8 112.0 A 3.2 3.2 0 0 1 72.0 115.2 L 72.0 120.0 L 67.2 120.0 A 3.2 3.2 0 0 1 64.0 116.8 Z" fill="#000000"/>
<path d="M 80.0 112.0 L 84.8 112.0 A 3.2 3.2 0 0 1 88.0 115.2 L 88.0 120.0 L 83.2 120.0 A 3.2 3.2 0 0 1 80.0 116.8 Z" fill="#000000"/>
<path d="M 88.0 112.0 L 92.8 112.0 A 3.2 3.2 0 0 1 96.0 115.2 L 96.0 120.0 L 91.2 120.0 A 3.2 3.2 0 0 1 88.0 116.8 Z" fill="#000000"/>
<path d="M 112.0 112.0 L 116.8 112.0 A 3.2 3.2 0 0 1 120.0 115.2 L 120.0 120.0 L 115.2 120.0 A 3.2 3.2 0 0 1 112.0 116.8 Z" fill="#000000"/>
<path d="M 144.0 112.0 L 148.8 112.0 A 3.2 3.2 0 0 1 152.0 115.2 L 152.0 120.0 L 147.2 120.0 A 3.2 3.2 0 0 1 144.0 116.8 Z" fill="#000000"/>
<path d="M 160.0 112.0 L 164.8 112.0 A 3.2 3.2 0 0 1 168.0 115.2 L 168.0 120.0 L 163.2 120.0 A 3.2 3.2 0 0 1 160.0 116.8 Z" fill="#000000"/>
<path d="M 168.0 112.0 L 172.8 112.0 A 3.2 3.2 0 0 1 176.0 115.2 L 176.0 120.0 L 171.2 120.0 A 3.2 3.2 0 0 1 168.0 116.8 Z" fill="#000000"/>
<path d="M 208.0 112.0 L 212.8 112.0 A 3.2 3.2 0 0 1 216.0 115.2 L 216.0 120.0 L 211.2 120.0 A 3.2 3.2 0 0 1 208.0 116.8 Z" fill="#000000"/>
<path d="M 16.0 120.0 L 20.8 120.0 A 3.2 3.2 0 0 1 24.0 123.2 L 24.0 128.0 L 19.2 128.0 A 3.2 3.2 0 0 1 16.0 124.8 Z" fill="#000000"/>
<path d="M 40.0 120.0 L 44.8 120.0 A 3.2 3.2 0 0 1 48.0 123.2 L 48.0 128.0 L 43.2 128.0 A 3.2 3.2 0 0 1 40.0 124.8 Z" fill="#000000"/>
<path d="M 48.0 120.0 L 52.8 120.0 A 3.2 3.2 0 0 1 56.0 123.2 L 56.0 128.0 L 51.2 128.0 A 3.2 3.2 0 0 1 48.0 124.8 Z" fill="#000000"/>
<path d="M 72.0 120.0 L 76.8 120.0 A 3.2 3.2 0 0 1 80.0 123.2 L 80.0 128.0 L 75.2 128.0 A 3.2 3.2 0 0 1 72.0 124.8 Z" fill="#000000"/>
<path d="M 80.0 120.0 L 84.8 120.0 A 3.2 3.2 0 0 1 88.0 123.2 L 88.0 128.0 L 83.2 128.0 A 3.2 3.2 0 0 1 80.0 124.8 Z" fill="#000000"/>
<path d="M 128.0 120.0 L 132.8 120.0 A 3.2 3.2 0 0 1 136.0 123.2 L 136.0 128.0 L 131.2 128.0 A 3.2 3.2 0 0 1 128.0 124.8 Z" fill="#000000"/>
<path d="M 136.0 120.0 L 140.8 120.0 A 3.2 3.2 0 0 1 144.0 123.2 L 144.0 128.0 L 139.2 128.0 A 3.2 3.2 0 0 1 136.0 124.8 Z" fill="#000000"/>
<path d="M 176.0 120.0 L 180.8 120.0 A 3.2 3.2 0 0 1 184.0 123.2 L 184.0 128.0 L 179.2 128.0 A 3.2 3.2 0 0 1 176.0 124.8 Z" fill="#000000"/>
<path d="M 200.0 120.0 L 204.8 120.0 A 3.2 3.2 0 0 1 208.0 123.2 L 208.0 128.0 L 203.2 128.0 A 3.2 3.2 0 0 1 200.0 124.8 Z" fill="#000000"/>
<path d="M 16.0 128.0 L 20.8 128.0 A 3.2 3.2 0 0 1 24.0 131.2 L 24.0 136.0 L 19.2 136.0 A 3.2 3.2 0 0 1 16.0 132.8 Z" fill="#000000"/>
<path d="M 24.0 128.0 L 28.8 128.0 A 3.2 3.2 0 0 1 32.0 131.2 L 32.0 136.0 L 27.2 136.0 A 3.2 3.2 0 0 1 24.0 132.8 Z" fill="#000000"/>
<path d="M 40.0 128.0 L 44.8 128.0 A 3.2 3.2 0 0 1 48.0 131.2 L 48.0 136.0 L 43.2 136.0 A 3.2 3.2 0 0 1 40.0 132.8 Z" fill="#000000"/>
<path d="M 48.0 128.0 L 52.8 128.0 A 3.2 3.2 0 0 1 56.0 131.2 L 56.0 136.0 L 51.2 136.0 A 3.2 3.2 0 0 1 48.0 132.8 Z" fill="#000000"/>
<path d="M 56.0 128.0 L 60.8 128.0 A 3.2 3.2 0 0 1 64.0 131.2 L 64.0 136.0 L 59.2 136.0 A 3.2 3.2 0 0 1 56.0 132.8 Z" fill="#000000"/>
<path d="M 64.0 128.0 L 68.8 128.0 A 3.2 3.2 0 0 1 72.0 131.2 L 72.0 136.0 L 67.2 136.0 A 3.2 3.2 0 0 1 64.0 132.8 Z" fill="#000000"/>
<path d="M 72.0 128.0 L 76.8 128.0 A 3.2 3.2 0 0 1 80.0 131.2 L 80.0 136.0 L 75.2 136.0 A 3.2 3.2 0 0 1 72.0 132.8 Z" fill="#000000"/>
<path d="M 88.0 128.0 L 92.8 128.0 A 3.2 3.2 0 0 1 96.0 131.2 L 96.0 136.0 L 91.2 136.0 A 3.2 3.2 0 0 1 88.0 132.8 Z" fill="#000000"/>
<path d="M 104.0 128.0 L 108.8 128.0 A 3.2 3.2 0 0 1 112.0 131.2 L 112.0 136.0 L 107.2 136.0 A 3.2 3.2 0 0 1 104.0 132.8 Z" fill="#000000"/>
<path d="M 112.0 128.0 L 116.8 128.0 A 3.2 3.2 0 0 1 120.0 131.2 L 120.0 136.0 L 115.2 136.0 A 3.2 3.2 0 0 1 112.0 132.8 Z" fill="#000000"/>
<path d="M 128.0 128.0 L 132.8 128.0 A 3.2 3.2 0 0 1 136.0 131.2 L 136.0 136.0 L 131.2 136.0 A 3.2 3.2 0 0 1 128.0 132.8 Z" fill="#000000"/>
<path d="M 136.0 128.0 L 140.8 128.0 A 3.2 3.2 0 0 1 144.0 131.2 L 144.0 136.0 L 139.2 136.0 A 3.2 3.2 0 0 1 136.0 132.8 Z" fill="#000000"/>
<path d="M 144.0 128.0 L 148.8 128.0 A 3.2 3.2 0 0 1 152.0 131.2 L 152.0 136.0 L 147.2 136.0 A 3.2 3.2 0 0 1 144.0 132.8 Z" fill="#000000"/>
<path d="M 176.0 128.0 L 180.8 128.0 A 3.2 3.2 0 0 1 184.0 131.2 L 184.0 136.0 L 179.2 136.0 A 3.2 3.2 0 0 1 176.0 132.8 Z" fill="#000000"/>
<path d="M 184.0 128.0 L 188.8 128.0 A 3.2 3.2 0 0 1 192.0 131.2 L 192.0 136.0 L 187.2 136.0 A 3.2 3.2 0 0 1 184.0 132.8 Z" fill="#000000"/>
<path d="M 192.0 128.0 L 196.8 128.0 A 3.2 3.2 0 0 1 200.0 131.2 L 200.0 136.0 L 195.2 136.0 A 3.2 3.2 0 0 1 192.0 132.8 Z" fill="#000000"/>
<path d="M 200.0 128.0 L 204.8 128.0 A 3.2 3.2 0 0 1 208.0 131.2 L 208.0 136.0 L 203.2 136.0 A 3.2 3.2 0 0 1 200.0 132.8 Z" fill="#000000"/>
<path d="M 208.0 128.0 L 212.8 128.0 A 3.2 3.2 0 0 1 216.0 131.2 L 216.0 136.0 L 211.2 136.0 A 3.2 3.2 0 0 1 208.0 132.8 Z" fill="#000000"/>
<path d="M 16.0 136.0 L 20.8 136.0 A 3.2 3.2 0 0 1 24.0 139.2 L 24.0 144.0 L 19.2 144.0 A 3.2 3.2 0 0 1 16.0 140.8 Z" fill="#000000"/>
<path d="M 32.0 136.0 L 36.8 136.0 A 3.2 3.2 0 0 1 40.0 139.2 L 40.0 144.0 L 35.2 144.0 A 3.2 3.2 0 0 1 32.0 140.8 Z" fill="#000000"/>
<path d="M 40.0 136.0 L 44.8 136.0 A 3.2 3.2 0 0 1 48.0 139.2 L 48.0 144.0 L 43.2 144.0 A 3.2 3.2 0 0 1 40.0 140.8 Z" fill="#000000"/>
<path d="M 48.0 136.0 L 52.8 136.0 A 3.2 3.2 0 0 1 56.0 139.2 L 56.0 144.0 L 51.2 144.0 A 3.2 3.2 0 0 1 48.0 140.8 Z" fill="#000000"/>
<path d="M 88.0 136.0 L 92.8 136.0 A 3.2 3.2 0 0 1 96.0 139.2 L 96.0 144.0 L 91.2 144.0 A 3.2 3.2 0 0 1 88.0 140.8 Z" fill="#000000"/>
<path d="M 96.0 136.0 L 100.8 136.0 A 3.2 3.2 0 0 1 104.0 139.2 L 104.0 144.0 L 99.2 144.0 A 3.2 3.2 0 0 1 96.0 140.8 Z" fill="#000000"/>
<path d="M 104.0 136.0 L 108.8 136.0 A 3.2 3.2 0 0 1 112.0 139.2 L 112.0 144.0 L 107.2 144.0 A 3.2 3.2 0 0 1 104.0 140.8 Z" fill="#000000"/>
<path d="M 136.0 136.0 L 140.8 136.0 A 3.2 3.2 0 0 1 144.0 139.2 L 144.0 144.0 L 139.2 144.0 A 3.2 3.2 0 0 1 136.0 140.8 Z" fill="#000000"/>
<path d="M 144.0 136.0 L 148.8 136.0 A 3.2 3.2 0 0 1 152.0 139.2 L 152.0 144.0 L 147.2 144.0 A 3.2 3.2 0 0 1 144.0 140.8 Z" fill="#000000"/>
<path d="M 152.0 136.0 L 156.8 136.0 A 3.2 3.2 0 0 1 160.0 139.2 L 160.0 144.0 L 155.2 144.0 A 3.2 3.2 0 0 1 152.0 140.8 Z" fill="#000000"/>
<path d="M 160.0 136.0 L 164.8 136.0 A 3.2 3.2 0 0 1 168.0 139.2 L 168.0 144.0 L 163.2 144.0 A 3.2 3.2 0 0 1 160.0 140.8 Z" fill="#000000"/>
<path d="M 168.0 136.0 L 172.8 136.0 A 3.2 3.2 0 0 1 176.0 139.2 L 176.0 144.0 L 171.2 144.0 A 3.2 3.2 0 0 1 168.0 140.8 Z" fill="#000000"/>
<path d="M 184.0 136.0 L 188.8 136.0 A 3.2 3.2 0 0 1 192.0 139.2 L 192.0 144.0 L 187.2 144.0 A 3.2 3.2 0 0 1 184.0 140.8 Z" fill="#000000"/>
<path d="M 192.0 136.0 L 196.8 136.0 A 3.2 3.2 0 0 1 200.0 139.2 L 200.0 144.0 L 195.2 144.0 A 3.2 3.2 0 0 1 192.0 140.8 Z" fill="#000000"/>
<path d="M 208.0 136.0 L 212.8 136.0 A 3.2 3.2 0 0 1 216.0 139.2 L 216.0 144.0 L 211.2 144.0 A 3.2 3.2 0 0 1 208.0 140.8 Z" fill="#000000"/>
<path d="M 16.0 144.0 L 20.8 144.0 A 3.2 3.2 0 0 1 24.0 147.2 L 24.0 152.0 L 19.2 152.0 A 3.2 3.2 0 0 1 16.0 148.8 Z" fill="#000000"/>
<path d="M 64.0 144.0 L 68.8 144.0 A 3.2 3.2 0 0 1 72.0 147.2 L 72.0 152.0 L 67.2 152.0 A 3.2 3.2 0 0 1 64.0 148.8 Z" fill="#000000"/>
<path d="M 80.0 144.0 L 84.8 144.0 A 3.2 3.2 0 0 1 88.0 147.2 L 88.0 152.0 L 83.2 152.0 A 3.2 3.2 0 0 1 80.0 148.8 Z" fill="#000000"/>
<path d="M 88.0 144.0 L 92.8 144.0 A 3.2 3.2 0 0 1 96.0 147.2 L 96.0 152.0 L 91.2 152.0 A 3.2 3.2 0 0 1 88.0 148.8 Z" fill="#000000"/>
<path d="M 96.0 144.0 L 100.8 144.0 A 3.2 3.2 0 0 1 104.0 147.2 L 104.0 152.0 L 99.2 152.0 A 3.2 3.2 0 0 1 96.0 148.8 Z" fill="#000000"/>
<path d="M 120.0 144.0 L 124.8 144.0 A 3.2 3.2 0 0 1 128.0 147.2 L 128.0 152.0 L 123.2 152.0 A 3.2 3.2 0 0 1 120.0 148.8 Z" fill="#000000"/>
<path d="M 136.0 144.0 L 140.8 144.0 A 3.2 3.2 0 0 1 144.0 147.2 L 144.0 152.0 L 139.2 152.0 A 3.2 3.2 0 0 1 136.0 148.8 Z" fill="#000000"/>
<path d="M 144.0 144.0 L 148.8 144.0 A 3.2 3.2 0 0 1 152.0 147.2 L 152.0 152.0 L 147.2 152.0 A 3.2 3.2 0 0 1 144.0 148.8 Z" fill="#000000"/>
<path d="M 152.0 144.0 L 156.8 144.0 A 3.2 3.2 0 0 1 160.0 147.2 L 160.0 152.0 L 155.2 152.0 A 3.2 3.2 0 0 1 152.0 148.8 Z" fill="#000000"/>
<path d="M 160.0 144.0 L 164.8 144.0 A 3.2 3.2 0 0 1 168.0 147.2 L 168.0 152.0 L 163.2 152.0 A 3.2 3.2 0 0 1 160.0 148.8 Z" fill="#000000"/>
<path d="M 168.0 144.0 L 172.8 144.0 A 3.2 3.2 0 0 1 176.0 147.2 L 176.0 152.0 L 171.2 152.0 A 3.2 3.2 0 0 1 168.0 148.8 Z" fill="#000000"/>
<path d="M 176.0 144.0 L 180.8 144.0 A 3.2 3.2 0 0 1 184.0 147.2 L 184.0 152.0 L 179.2 152.0 A 3.2 3.2 0 0 1 176.0 148.8 Z" fill="#000000"/>
<path d="M 192.0 144.0 L 196.8 144.0 A 3.2 3.2 0 0 1 200.0 147.2 L 200.0 152.0 L 195.2 152.0 A 3.2 3.2 0 0 1 192.0 148.8 Z" fill="#000000"/>
<path d="M 200.0 144.0 L 204.8 144.0 A 3.2 3.2 0 0 1 208.0 147.2 L 208.0 152.0 L 203.2 152.0 A 3.2 3.2 0 0 1 200.0 148.8 Z" fill="#000000"/>
<path d="M 80.0 152.0 L 84.8 152.0 A 3.2 3.2 0 0 1 88.0 155.2 L 88.0 160.0 L 83.2 160.0 A 3.2 3.2 0 0 1 80.0 156.8 Z" fill="#000000"/>
<path d="M 88.0 152.0 L 92.8 152.0 A 3.2 3.2 0 0 1 96.0 155.2 L 96.0 160.0 L 91.2 160.0 A 3.2 3.2 0 0 1 88.0 156.8 Z" fill="#000000"/>
<path d="M 104.0 152.0 L 108.8 152.0 A 3.2 3.2 0 0 1 112.0 155.2 L 112.0 160.0 L 107.2 160.0 A 3.2 3.2 0 0 1 104.0 156.8 Z" fill="#000000"/>
<path d="M 112.0 152.0 L 116.8 152.0 A 3.2 3.2 0 0 1 120.0 155.2 L 120.0 160.0 L 115.2 160.0 A 3.2 3.2 0 0 1 112.0 156.8 Z" fill="#000000"/>
<path d="M 128.0 152.0 L 132.8 152.0 A 3.2 3.2 0 0 1 136.0 155.2 L 136.0 160.0 L 131.2 160.0 A 3.2 3.2 0 0 1 128.0 156.8 Z" fill="#000000"/>
<path d="M 136.0 152.0 L 140.8 152.0 A 3.2 3.2 0 0 1 144.0 155.2 L 144.0 160.0 L 139.2 160.0 A 3.2 3.2 0 0 1 136.0 156.8 Z" fill="#000000"/>
<path d="M 144.0 152.0 L 148.8 152.0 A 3.2 3.2 0 0 1 152.0 155.2 L 152.0 160.0 L 147.2 160.0 A 3.2 3.2 0 0 1 144.0 156.8 Z" fill="#000000"/>
<path d="M 176.0 152.0 L 180.8 152.0 A 3.2 3.2 0 0 1 184.0 155.2 L 184.0 160.0 L 179.2 160.0 A 3.2 3.2 0 0 1 176.0 156.8 Z" fill="#000000"/>
<path d="M 192.0 152.0 L 196.8 152.0 A 3.2 3.2 0 0 1 200.0 155.2 L 200.0 160.0 L 195.2 160.0 A 3.2 3.2 0 0 1 192.0 156.8 Z" fill="#000000"/>
<path d="M 200.0 152.0 L 204.8 152.0 A 3.2 3.2 0 0 1 208.0 155.2 L 208.0 160.0 L 203.2 160.0 A 3.2 3.2 0 0 1 200.0 156.8 Z" fill="#000000"/>
<path d="M 80.0 160.0 L 84.8 160.0 A 3.2 3.2 0 0 1 88.0 163.2 L 88.0 168.0 L 83.2 168.0 A 3.2 3.2 0 0 1 80.0 164.8 Z" fill="#000000"/>
<path d="M 104.0 160.0 L 108.8 160.0 A 3.2 3.2 0 0 1 112.0 163.2 L 112.0 168.0 L 107.2 168.0 A 3.2 3.2 0 0 1 104.0 164.8 Z" fill="#000000"/>
<path d="M 128.0 160.0 L 132.8 160.0 A 3.2 3.2 0 0 1 136.0 163.2 L 136.0 168.0 L 131.2 168.0 A 3.2 3.2 0 0 1 128.0 164.8 Z" fill="#000000"/>
<path d="M 144.0 160.0 L 148.8 160.0 A 3.2 3.2 0 0 1 152.0 163.2 L 152.0 168.0 L 147.2 168.0 A 3.2 3.2 0 0 1 144.0 164.8 Z" fill="#000000"/>
<path d="M 160.0 160.0 L 164.8 160.0 A 3.2 3.2 0 0 1 168.0 163.2 L 168.0 168.0 L 163.2 168.0 A 3.2 3.2 0 0 1 160.0 164.8 Z" fill="#000000"/>
<path d="M 176.0 160.0 L 180.8 160.0 A 3.2 3.2 0 0 1 184.0 163.2 L 184.0 168.0 L 179.2 168.0 A 3.2 3.2 0 0 1 176.0 164.8 Z" fill="#000000"/>
<path d="M 208.0 160.0 L 212.8 160.0 A 3.2 3.2 0 0 1 216.0 163.2 L 216.0 168.0 L 211.2 168.0 A 3.2 3.2 0 0 1 208.0 164.8 Z" fill="#000000"/>
<path d="M 80.0 168.0 L 84.8 168.0 A 3.2 3.2 0 0 1 88.0 171.2 L 88.0 176.0 L 83.2 176.0 A 3.2 3.2 0 0 1 80.0 172.8 Z" fill="#000000"/>
<path d="M 88.0 168.0 L 92.8 168.0 A 3.2 3.2 0 0 1 96.0 171.2 L 96.0 176.0 L 91.2 176.0 A 3.2 3.2 0 0 1 88.0 172.8 Z" fill="#000000"/>
<path d="M 112.0 168.0 L 116.8 168.0 A 3.2 3.2 0 0 1 120.0 171.2 L 120.0 176.0 L 115.2 176.0 A 3.2 3.2 0 0 1 112.0 172.8 Z" fill="#000000"/>
<path d="M 120.0 168.0 L 124.8 168.0 A 3.2 3.2 0 0 1 128.0 171.2 L 128.0 176.0 L 123.2 176.0 A 3.2 3.2 0 0 1 120.0 172.8 Z" fill="#000000"/>
<path d="M 128.0 168.0 L 132.8 168.0 A 3.2 3.2 0 0 1 136.0 171.2 L 136.0 176.0 L 131.2 176.0 A 3.2 3.2 0 0 1 128.0 172.8 Z" fill="#000000"/>
<path d="M 136.0 168.0 L 140.8 168.0 A 3.2 3.2 0 0 1 144.0 171.2 L 144.0 176.0 L 139.2 176.0 A 3.2 3.2 0 0 1 136.0 172.8 Z" fill="#000000"/>
<path d="M 144.0 168.0 L 148.8 168.0 A 3.2 3.2 0 0 1 152.0 171.2 L 152.0 176.0 L 147.2 176.0 A 3.2 3.2 0 0 1 144.0 172.8 Z" fill="#000000"/>
<path d="M 176.0 168.0 L 180.8 168.0 A 3.2 3.2 0 0 1 184.0 171.2 L 184.0 176.0 L 179.2 176.0 A 3.2 3.2 0 0 1 176.0 172.8 Z" fill="#000000"/>
<path d="M 200.0 168.0 L 204.8 168.0 A 3.2 3.2 0 0 1 208.0 171.2 L 208.0 176.0 L 203.2 176.0 A 3.2 3.2 0 0 1 200.0 172.8 Z" fill="#000000"/>
<path d="M 80.0 176.0 L 84.8 176.0 A 3.2 3.2 0 0 1 88.0 179.2 L 88.0 184.0 L 83.2 184.0 A 3.2 3.2 0 0 1 80.0 180.8 Z" fill="#000000"/>
<path d="M 96.0 176.0 L 100.8 176.0 A 3.2 3.2 0 0 1 104.0 179.2 L 104.0 184.0 L 99.2 184.0 A 3.2 3.2 0 0 1 96.0 180.8 Z" fill="#000000"/>
<path d="M 112.0 176.0 L 116.8 176.0 A 3.2 3.2 0 0 1 120.0 179.2 L 120.0 184.0 L 115.2 184.0 A 3.2 3.2 0 0 1 112.0 180.8 Z" fill="#000000"/>
<path d="M 128.0 176.0 L 132.8 176.0 A 3.2 3.2 0 0 1 136.0 179.2 L 136.0 184.0 L 131.2 184.0 A 3.2 3.2 0 0 1 128.0 180.8 Z" fill="#000000"/>
<path d="M 136.0 176.0 L 140.8 176.0 A 3.2 3.2 0 0 1 144.0 179.2 L 144.0 184.0 L 139.2 184.0 A 3.2 3.2 0 0 1 136.0 180.8 Z" fill="#000000"/>
<path d="M 144.0 176.0 L 148.8 176.0 A 3.2 3.2 0 0 1 152.0 179.2 L 152.0 184.0 L 147.2 184.0 A 3.2 3.2 0 0 1 144.0 180.8 Z" fill="#000000"/>
<path d="M 152.0 176.0 L 156.8 176.0 A 3.2 3.2 0 0 1 160.0 179.2 L 160.0 184.0 L 155.2 184.0 A 3.2 3.2 0 0 1 152.0 180.8 Z" fill="#000000"/>
<path d="M 160.0 176.0 L 164.8 176.0 A 3.2 3.2 0 0 1 168.0 179.2 L 168.0 184.0 L 163.2 184.0 A 3.2 3.2 0 0 1 160.0 180.8 Z" fill="#000000"/>
<path d="M 168.0 176.0 L 172.8 176.0 A 3.2 3.2 0 0 1 176.0 179.2 L 176.0 184.0 L 171.2 184.0 A 3.2 3.2 0 0 1 168.0 180.8 Z" fill="#000000"/>
<path d="M 176.0 176.0 L 180.8 176.0 A 3.2 3.2 0 0 1 184.0 179.2 L 184.0 184.0 L 179.2 184.0 A 3.2 3.2 0 0 1 176.0 180.8 Z" fill="#000000"/>
<path d="M 200.0 176.0 L 204.8 176.0 A 3.2 3.2 0 0 1 208.0 179.2 L 208.0 184.0 L 203.2 184.0 A 3.2 3.2 0 0 1 200.0 180.8 Z" fill="#000000"/>
<path d="M 208.0 176.0 L 212.8 176.0 A 3.2 3.2 0 0 1 216.0 179.2 L 216.0 184.0 L 211.2 184.0 A 3.2 3.2 0 0 1 208.0 180.8 Z" fill="#000000"/>
<path d="M 80.0 184.0 L 84.8 184.0 A 3.2 3.2 0 0 1 88.0 187.2 L 88.0 192.0 L 83.2 192.0 A 3.2 3.2 0 0 1 80.0 188.8 Z" fill="#000000"/>
<path d="M 96.0 184.0 L 100.8 184.0 A 3.2 3.2 0 0 1 104.0 187.2 L 104.0 192.0 L 99.2 192.0 A 3.2 3.2 0 0 1 96.0 188.8 Z" fill="#000000"/>
<path d="M 128.0 184.0 L 132.8 184.0 A 3.2 3.2 0 0 1 136.0 187.2 L 136.0 192.0 L 131.2 192.0 A 3.2 3.2 0 0 1 128.0 188.8 Z" fill="#000000"/>
<path d="M 136.0 184.0 L 140.8 184.0 A 3.2 3.2 0 0 1 144.0 187.2 L 144.0 192.0 L 139.2 192.0 A 3.2 3.2 0 0 1 136.0 188.8 Z" fill="#000000"/>
<path d="M 144.0 184.0 L 148.8 184.0 A 3.2 3.2 0 0 1 152.0 187.2 L 152.0 192.0 L 147.2 192.0 A 3.2 3.2 0 0 1 144.0 188.8 Z" fill="#000000"/>
<path d="M 152.0 184.0 L 156.8 184.0 A 3.2 3.2 0 0 1 160.0 187.2 L 160.0 192.0 L 155.2 192.0 A 3.2 3.2 0 0 1 152.0 188.8 Z" fill="#000000"/>
<path d="M 160.0 184.0 L 164.8 184.0 A 3.2 3.2 0 0 1 168.0 187.2 L 168.0 192.0 L 163.2 192.0 A 3.2 3.2 0 0 1 160.0 188.8 Z" fill="#000000"/>
<path d="M 200.0 184.0 L 204.8 184.0 A 3.2 3.2 0 0 1 208.0 187.2 L 208.0 192.0 L 203.2 192.0 A 3.2 3.2 0 0 1 200.0 188.8 Z" fill="#000000"/>
<path d="M 208.0 184.0 L 212.8 184.0 A 3.2 3.2 0 0 1 216.0 187.2 L 216.0 192.0 L 211.2 192.0 A 3.2 3.2 0 0 1 208.0 188.8 Z" fill="#000000"/>
<path d="M 96.0 192.0 L 100.8 192.0 A 3.2 3.2 0 0 1 104.0 195.2 L 104.0 200.0 L 99.2 200.0 A 3.2 3.2 0 0 1 96.0 196.8 Z" fill="#000000"/>
<path d="M 112.0 192.0 L 116.8 192.0 A 3.2 3.2 0 0 1 120.0 195.2 L 120.0 200.0 L 115.2 200.0 A 3.2 3.2 0 0 1 112.0 196.8 Z" fill="#000000"/>
<path d="M 120.0 192.0 L 124.8 192.0 A 3.2 3.2 0 0 1 128.0 195.2 L 128.0 200.0 L 123.2 200.0 A 3.2 3.2 0 0 1 120.0 196.8 Z" fill="#000000"/>
<path d="M 136.0 192.0 L 140.8 192.0 A 3.2 3.2 0 0 1 144.0 195.2 L 144.0 200.0 L 139.2 200.0 A 3.2 3.2 0 0 1 136.0 196.8 Z" fill="#000000"/>
<path d="M 144.0 192.0 L 148.8 192.0 A 3.2 3.2 0 0 1 152.0 195.2 L 152.0 200.0 L 147.2 200.0 A 3.2 3.2 0 0 1 144.0 196.8 Z" fill="#000000"/>
<path d="M 176.0 192.0 L 180.8 192.0 A 3.2 3.2 0 0 1 184.0 195.2 L 184.0 200.0 L 179.2 200.0 A 3.2 3.2 0 0 1 176.0 196.8 Z" fill="#000000"/>
<path d="M 184.0 192.0 L 188.8 192.0 A 3.2 3.2 0 0 1 192.0 195.2 L 192.0 200.0 L 187.2 200.0 A 3.2 3.2 0 0 1 184.0 196.8 Z" fill="#000000"/>
<path d="M 192.0 192.0 L 196.8 192.0 A 3.2 3.2 0 0 1 200.0 195.2 L 200.0 200.0 L 195.2 200.0 A 3.2 3.2 0 0 1 192.0 196.8 Z" fill="#000000"/>
<path d="M 200.0 192.0 L 204.8 192.0 A 3.2 3.2 0 0 1 208.0 195.2 L 208.0 200.0 L 203.2 200.0 A 3.2 3.2 0 0 1 200.0 196.8 Z" fill="#000000"/>
<path d="M 208.0 192.0 L 212.8 192.0 A 3.2 3.2 0 0 1 216.0 195.2 L 216.0 200.0 L 211.2 200.0 A 3.2 3.2 0 0 1 208.0 196.8 Z" fill="#000000"/>
<path d="M 96.0 200.0 L 100.8 200.0 A 3.2 3.2 0 0 1 104.0 203.2 L 104.0 208.0 L 99.2 208.0 A 3.2 3.2 0 0 1 96.0 204.8 Z" fill="#000000"/>
<path d="M 128.0 200.0 L 132.8 200.0 A 3.2 3.2 0 0 1 136.0 203.2 L 136.0 208.0 L 131.2 208.0 A 3.2 3.2 0 0 1 128.0 204.8 Z" fill="#000000"/>
<path d="M 152.0 200.0 L 156.8 200.0 A 3.2 3.2 0 0 1 160.0 203.2 L 160.0 208.0 L 155.2 208.0 A 3.2 3.2 0 0 1 152.0 204.8 Z" fill="#000000"/>
<path d="M 168.0 200.0 L 172.8 200.0 A 3.2 3.2 0 0 1 176.0 203.2 L 176.0 208.0 L 171.2 208.0 A 3.2 3.2 0 0 1 168.0 204.8 Z" fill="#000000"/>
<path d="M 176.0 200.0 L 180.8 200.0 A 3.2 3.2 0 0 1 184.0 203.2 L 184.0 208.0 L 179.2 208.0 A 3.2 3.2 0 0 1 176.0 204.8 Z" fill="#000000"/>
<path d="M 192.0 200.0 L 196.8 200.0 A 3.2 3.2 0 0 1 200.0 203.2 L 200.0 208.0 L 195.2 208.0 A 3.2 3.2 0 0 1 192.0 204.8 Z" fill="#000000"/>
<path d="M 200.0 200.0 L 204.8 200.0 A 3.2 3.2 0 0 1 208.0 203.2 L 208.0 208.0 L 203.2 208.0 A 3.2 3.2 0 0 1 200.0 204.8 Z" fill="#000000"/>
<path d="M 208.0 200.0 L 212.8 200.0 A 3.2 3.2 0 0 1 216.0 203.2 L 216.0 208.0 L 211.2 208.0 A 3.2 3.2 0 0 1 208.0 204.8 Z" fill="#000000"/>
<path d="M 80.0 208.0 L 84.8 208.0 A 3.2 3.2 0 0 1 88.0 211.2 L 88.0 216.0 L 83.2 216.0 A 3.2 3.2 0 0 1 80.0 212.8 Z" fill="#000000"/>
<path d="M 96.0 208.0 L 100.8 208.0 A 3.2 3.2 0 0 1 104.0 211.2 L 104.0 216.0 L 99.2 216.0 A 3.2 3.2 0 0 1 96.0 212.8 Z" fill="#000000"/>
<path d="M 112.0 208.0 L 116.8 208.0 A 3.2 3.2 0 0 1 120.0 211.2 L 120.0 216.0 L 115.2 216.0 A 3.2 3.2 0 0 1 112.0 212.8 Z" fill="#000000"/>
<path d="M 120.0 208.0 L 124.8 208.0 A 3.2 3.2 0 0 1 128.0 211.2 L 128.0 216.0 L 123.2 216.0 A 3.2 3.2 0 0 1 120.0 212.8 Z" fill="#000000"/>
<path d="M 128.0 208.0 L 132.8 208.0 A 3.2 3.2 0 0 1 136.0 211.2 L 136.0 216.0 L 131.2 216.0 A 3.2 3.2 0 0 1 128.0 212.8 Z" fill="#000000"/>
<path d="M 144.0 208.0 L 148.8 208.0 A 3.2 3.2 0 0 1 152.0 211.2 L 152.0 216.0 L 147.2 216.0 A 3.2 3.2 0 0 1 144.0 212.8 Z" fill="#000000"/>
<path d="M 152.0 208.0 L 156.8 208.0 A 3.2 3.2 0 0 1 160.0 211.2 L 160.0 216.0 L 155.2 216.0 A 3.2 3.2 0 0 1 152.0 212.8 Z" fill="#000000"/>
<path d="M 160.0 208.0 L 164.8 208.0 A 3.2 3.2 0 0 1 168.0 211.2 L 168.0 216.0 L 163.2 216.0 A 3.2 3.2 0 0 1 160.0 212.8 Z" fill="#000000"/>
<path d="M 184.0 208.0 L 188.8 208.0 A 3.2 3.2 0 0 1 192.0 211.2 L 192.0 216.0 L 187.2 216.0 A 3.2 3.2 0 0 1 184.0 212.8 Z" fill="#000000"/>
<path d="M 208.0 208.0 L 212.8 208.0 A 3.2 3.2 0 0 1 216.0 211.2 L 216.0 216.0 L 211.2 216.0 A 3.2 3.2 0 0 1 208.0 212.8 Z" fill="#000000"/>
<path d="M 16.0 16.0 L 49.599999999999994 16.0 A 22.400000000000002 22.400000000000002 0 0 1 72.0 38.400000000000006 L 72.0 72.0 L 38.400000000000006 72.0 A 22.400000000000002 22.400000000000002 0 0 1 16.0 49.599999999999994 Z" fill="#2D3436"/>
<path d="M 24.0 24.0 L 48.0 24.0 A 16.0 16.0 0 0 1 64.0 40.0 L 64.0 64.0 L 40.0 64.0 A 16.0 16.0 0 0 1 24.0 48.0 Z" fill="#FFFFFF"/>
<path d="M 32.0 32.0 L 46.4 32.0 A 9.600000000000001 9.600000000000001 0 0 1 56.0 41.6 L 56.0 56.0 L 41.6 56.0 A 9.600000000000001 9.600000000000001 0 0 1 32.0 46.4 Z" fill="#E17055"/>
<path d="M 160.0 16.0 L 193.6 16.0 A 22.400000000000002 22.400000000000002 0 0 1 216.0 38.400000000000006 L 216.0 72.0 L 182.4 72.0 A 22.400000000000002 22.400000000000002 0 0 1 160.0 49.599999999999994 Z" fill="#2D3436"/>
<path d="M 168.0 24.0 L 192.0 24.0 A 16.0 16.0 0 0 1 208.0 40.0 L 208.0 64.0 L 184.0 64.0 A 16.0 16.0 0 0 1 168.0 48.0 Z" fill="#FFFFFF"/>
<path d="M 176.0 32.0 L 190.4 32.0 A 9.600000000000001 9.600000000000001 0 0 1 200.0 41.6 L 200.0 56.0 L 185.6 56.0 A 9.600000000000001 9.600000000000001 0 0 1 176.0 46.4 Z" fill="#E17055"/>
<path d="M 16.0 160.0 L 49.599999999999994 160.0 A 22.400000000000002 22.400000000000002 0 0 1 72.0 182.4 L 72.0 216.0 L 38.400000000000006 216.0 A 22.400000000000002 22.400000000000002 0 0 1 16.0 193.6 Z" fill="#2D3436"/>
<path d="M 24.0 168.0 L 48.0 168.0 A 16.0 16.0 0 0 1 64.0 184.0 L 64.0 208.0 L 40.0 208.0 A 16.0 16.0 0 0 1 24.0 192.0 Z" fill="#FFFFFF"/>
<path d="M 32.0 176.0 L 46.4 176.0 A 9.600000000000001 9.600000000000001 0 0 1 56.0 185.6 L 56.0 200.0 L 41.6 200.0 A 9.600000000000001 9.600000000000001 0 0 1 32.0 190.4 Z" fill="#E17055"/>
</svg>
