<?xml version="1.0" encoding="UTF-8"?>
<svg xmlns="http://www.w3.org/2000/svg" version="1.1" width="232" height="232" viewBox="0 0 232 232">
<rect width="100%" height="100%" fill="#ffffff"/>
<circle cx="84.0" cy="20.0" r="3.4" fill="#000000"/>
<circle cx="108.0" cy="20.0" r="3.4" fill="#000000"/>
<circle cx="116.0" cy="20.0" r="3.4" fill="#000000"/>
<circle cx="132.0" cy="20.0" r="3.4" fill="#000000"/>
<circle cx="108.0" cy="28.0" r="3.4" fill="#000000"/>
<circle cx="116.0" cy="28.0" r="3.4" fill="#000000"/>
<circle cx="148.0" cy="28.0" r="3.4" fill="#000000"/>
<circle cx="92.0" cy="36.0" r="3.4" fill="#000000"/>
<circle cx="108.0" cy="36.0" r="3.4" fill="#000000"/>
<circle cx="116.0" cy="36.0" r="3.4" fill="#000000"/>
<circle cx="124.0" cy="36.0" r="3.4" fill="#000000"/>
<circle cx="140.0" cy="36.0" r="3.4" fill="#000000"/>
<circle cx="148.0" cy="36.0" r="3.4" fill="#000000"/>
<circle cx="84.0" cy="44.0" r="3.4" fill="#000000"/>
<circle cx="124.0" cy="44.0" r="3.4" fill="#000000"/>
<circle cx="148.0" cy="44.0" r="3.4" fill="#000000"/>
<circle cx="84.0" cy="52.0" r="3.4" fill="#000000"/>
<circle cx="92.0" cy="52.0" r="3.4" fill="#000000"/>
<circle cx="108.0" cy="52.0" r="3.4" fill="#000000"/>
<circle cx="116.0" cy="52.0" r="3.4" fill="#000000"/>
<circle cx="132.0" cy="52.0" r="3.4" fill="#000000"/>
<circle cx="148.0" cy="52.0" r="3.4" fill="#000000"/>
<circle cx="84.0" cy="60.0" r="3.4" fill="#000000"/>
<circle cx="108.0" cy="60.0" r="3.4" fill="#000000"/>
<circle cx="116.0" cy="60.0" r="3.4" fill="#000000"/>
<circle cx="124.0" cy="60.0" r="3.4" fill="#000000"/>
<circle cx="132.0" cy="60.0" r="3.4" fill="#000000"/>
<circle cx="148.0" cy="60.0" r="3.4" fill="#000000"/>
<circle cx="84.0" cy="68.0" r="3.4" fill="#000000"/>
<circle cx="100.0" cy="68.0" r="3.4" fill="#000000"/>
<circle cx="116.0" cy="68.0" r="3.4" fill="#000000"/>
<circle cx="132.0" cy="68.0" r="3.4" fill="#000000"/>
<circle cx="148.0" cy="68.0" r="3.4" fill="#000000"/>
<circle cx="84.0" cy="76.0" r="3.4" fill="#000000"/>
<circle cx="108.0" cy="76.0" r="3.4" fill="#000000"/>
<circle cx="116.0" cy="76.0" r="3.4" fill="#000000"/>
<circle cx="124.0" cy="76.0" r="3.4" fill="#000000"/>
<circle cx="148.0" cy="76.0" r="3.4" fill="#000000"/>
<circle cx="20.0" cy="84.0" r="3.4" fill="#000000"/>
<circle cx="28.0" cy="84.0" r="3.4" fill="#000000"/>
<circle cx="36.0" cy="84.0" r="3.4" fill="#000000"/>
<circle cx="52.0" cy="84.0" r="3.4" fill="#000000"/>
<circle cx="68.0" cy="84.0" r="3.4" fill="#000000"/>
<circle cx="84.0" cy="84.0" r="3.4" fill="#000000"/>
<circle cx="100.0" cy="84.0" r="3.4" fill="#000000"/>
<circle cx="108.0" cy="84.0" r="3.4" fill="#000000"/>
<circle cx="116.0" cy="84.0" r="3.4" fill="#000000"/>
<circle cx="148.0" cy="84.0" r="3.4" fill="#000000"/>
<circle cx="156.0" cy="84.0" r="3.4" fill="#000000"/>
<circle cx="180.0" cy="84.0" r="3.4" fill="#000000"/>
<circle cx="196.0" cy="84.0" r="3.4" fill="#000000"/>
<circle cx="204.0" cy="84.0" r="3.4" fill="#000000"/>
<circle cx="212.0" cy="84.0" r="3.4" fill="#000000"/>
<circle cx="20.0" cy="92.0" r="3.4" fill="#000000"/>
<circle cx="44.0" cy="92.0" r="3.4" fill="#000000"/>
<circle cx="52.0" cy="92.0" r="3.4" fill="#000000"/>
<circle cx="60.0" cy="92.0" r="3.4" fill="#000000"/>
<circle cx="76.0" cy="92.0" r="3.4" fill="#000000"/>
<circle cx="92.0" cy="92.0" r="3.4" fill="#000000"/>
<circle cx="108.0" cy="92.0" r="3.4" fill="#000000"/>
<circle cx="116.0" cy="92.0" r="3.4" fill="#000000"/>
<circle cx="124.0" cy="92.0" r="3.4" fill="#000000"/>
<circle cx="132.0" cy="92.0" r="3.4" fill="#000000"/>
<circle cx="140.0" cy="92.0" r="3.4" fill="#000000"/>
<circle cx="172.0" cy="92.0" r="3.4" fill="#000000"/>
<circle cx="180.0" cy="92.0" r="3.4" fill="#000000"/>
<circle cx="188.0" cy="92.0" r="3.4" fill="#000000"/>
<circle cx="196.0" cy="92.0" r="3.4" fill="#000000"/>
<circle cx="204.0" cy="92.0" r="3.4" fill="#000000"/>
<circle cx="28.0" cy="100.0" r="3.4" fill="#000000"/>
<circle cx="36.0" cy="100.0" r="3.4" fill="#000000"/>
<circle cx="68.0" cy="100.0" r="3.4" fill="#000000"/>
<circle cx="84.0" cy="100.0" r="3.4" fill="#000000"/>
<circle cx="100.0" cy="100.0" r="3.4" fill="#000000"/>
<circle cx="116.0" cy="100.0" r="3.4" fill="#000000"/>
<circle cx="124.0" cy="100.0" r="3.4" fill="#000000"/>
<circle cx="140.0" cy="100.0" r="3.4" fill="#000000"/>
<circle cx="148.0" cy="100.0" r="3.4" fill="#000000"/>
<circle cx="172.0" cy="100.0" r="3.4" fill="#000000"/>
<circle cx="180.0" cy="100.0" r="3.4" fill="#000000"/>
<circle cx="188.0" cy="100.0" r="3.4" fill="#000000"/>
<circle cx="212.0" cy="100.0" r="3.4" fill="#000000"/>
<circle cx="28.0" cy="108.0" r="3.4" fill="#000000"/>
<circle cx="60.0" cy="108.0" r="3.4" fill="#000000"/>
<circle cx="76.0" cy="108.0" r="3.4" fill="#000000"/>
<circle cx="100.0" cy="108.0" r="3.4" fill="#000000"/>
<circle cx="156.0" cy="108.0" r="3.4" fill="#000000"/>
<circle cx="164.0" cy="108.0" r="3.4" fill="#000000"/>
<circle cx="172.0" cy="108.0" r="3.4" fill="#000000"/>
<circle cx="188.0" cy="108.0" r="3.4" fill="#000000"/>
<circle cx="196.0" cy="108.0" r="3.4" fill="#000000"/>
<circle cx="204.0" cy="108.0" r="3.4" fill="#000000"/>
<circle cx="212.0" cy="108.0" r="3.4" fill="#000000"/>
<circle cx="20.0" cy="116.0" r="3.4" fill="#000000"/>
<circle cx="28.0" cy="116.0" r="3.4" fill="#000000"/>
<circle cx="52.0" cy="116.0" r="3.4" fill="#000000"/>
<circle cx="68.0" cy="116.0" r="3.4" fill="#000000"/>
<circle cx="84.0" cy="116.0" r="3.4" fill="#000000"/>
<circle cx="92.0" cy="116.0" r="3.4" fill="#000000"/>
<circle cx="116.0" cy="116.0" r="3.4" fill="#000000"/>
<circle cx="148.0" cy="116.0" r="3.4" fill="#000000"/>
<circle cx="164.0" cy="116.0" r="3.4" fill="#000000"/>
<circle cx="172.0" cy="116.0" r="3.4" fill="#000000"/>
<circle cx="212.0" cy="116.0" r="3.4" fill="#000000"/>
<circle cx="20.0" cy="124.0" r="3.4" fill="#000000"/>
<circle cx="44.0" cy="124.0" r="3.4" fill="#000000"/>
<circle cx="52.0" cy="124.0" r="3.4" fill="#000000"/>
<circle cx="76.0" cy="124.0" r="3.4" fill="#000000"/>
<circle cx="84.0" cy="124.0" r="3.4" fill="#000000"/>
<circle cx="132.0" cy="124.0" r="3.4" fill="#000000"/>
<circle cx="140.0" cy="124.0" r="3.4" fill="#000000"/>
<circle cx="180.0" cy="124.0" r="3.4" fill="#000000"/>
<circle cx="204.0" cy="124.0" r="3.4" fill="#000000"/>
<circle cx="20.0" cy="132.0" r="3.4" fill="#000000"/>
<circle cx="28.0" cy="132.0" r="3.4" fill="#000000"/>
<circle cx="44.0" cy="132.0" r="3.4" fill="#000000"/>
<circle cx="52.0" cy="132.0" r="3.4" fill="#000000"/>
<circle cx="60.0" cy="132.0" r="3.4" fill="#000000"/>
<circle cx="68.0" cy="132.0" r="3.4" fill="#000000"/>
<circle cx="76.0" cy="132.0" r="3.4" fill="#000000"/>
<circle cx="92.0" cy="132.0" r="3.4" fill="#000000"/>
<circle cx="108.0" cy="132.0" r="3.4" fill="#000000"/>
<circle cx="116.0" cy="132.0" r="3.4" fill="#000000"/>
<circle cx="132.0" cy="132.0" r="3.4" fill="#000000"/>
<circle cx="140.0" cy="132.0" r="3.4" fill="#000000"/>
<circle cx="148.0" cy="132.0" r="3.4" fill="#000000"/>
<circle cx="180.0" cy="132.0" r="3.4" fill="#000000"/>
<circle cx="188.0" cy="132.0" r="3.4" fill="#000000"/>
<circle cx="196.0" cy="132.0" r="3.4" fill="#000000"/>
<circle cx="204.0" cy="132.0" r="3.4" fill="#000000"/>
<circle cx="212.0" cy="132.0" r="3.4" fill="#000000"/>
<circle cx="20.0" cy="140.0" r="3.4" fill="#000000"/>
<circle cx="36.0" cy="140.0" r="3.4" fill="#000000"/>
<circle cx="44.0" cy="140.0" r="3.4" fill="#000000"/>
<circle cx="52.0" cy="140.0" r="3.4" fill="#000000"/>
<circle cx="92.0" cy="140.0" r="3.4" fill="#000000"/>
<circle cx="100.0" cy="140.0" r="3.4" fill="#000000"/>
<circle cx="108.0" cy="140.0" r="3.4" fill="#000000"/>
<circle cx="140.0" cy="140.0" r="3.4" fill="#000000"/>
<circle cx="148.0" cy="140.0" r="3.4" fill="#000000"/>
<circle cx="156.0" cy="140.0" r="3.4" fill="#000000"/>
<circle cx="164.0" cy="140.0" r="3.4" fill="#000000"/>
<circle cx="172.0" cy="140.0" r="3.4" fill="#000000"/>
<circle cx="188.0" cy="140.0" r="3.4" fill="#000000"/>
<circle cx="196.0" cy="140.0" r="3.4" fill="#000000"/>
<circle cx="212.0" cy="140.0" r="3.4" fill="#000000"/>
<circle cx="20.0" cy="148.0" r="3.4" fill="#000000"/>
<circle cx="68.0" cy="148.0" r="3.4" fill="#000000"/>
<circle cx="84.0" cy="148.0" r="3.4" fill="#000000"/>
<circle cx="92.0" cy="148.0" r="3.4" fill="#000000"/>
<circle cx="100.0" cy="148.0" r="3.4" fill="#000000"/>
<circle cx="124.0" cy="148.0" r="3.4" fill="#000000"/>
<circle cx="140.0" cy="148.0" r="3.4" fill="#000000"/>
<circle cx="148.0" cy="148.0" r="3.4" fill="#000000"/>
<circle cx="156.0" cy="148.0" r="3.4" fill="#000000"/>
<circle cx="164.0" cy="148.0" r="3.4" fill="#000000"/>
<circle cx="172.0" cy="148.0" r="3.4" fill="#000000"/>
<circle cx="180.0" cy="148.0" r="3.4" fill="#000000"/>
<circle cx="196.0" cy="148.0" r="3.4" fill="#000000"/>
<circle cx="204.0" cy="148.0" r="3.4" fill="#000000"/>
<circle cx="84.0" cy="156.0" r="3.4" fill="#000000"/>
<circle cx="92.0" cy="156.0" r="3.4" fill="#000000"/>
<circle cx="108.0" cy="156.0" r="3.4" fill="#000000"/>
<circle cx="116.0" cy="156.0" r="3.4" fill="#000000"/>
<circle cx="132.0" cy="156.0" r="3.4" fill="#000000"/>
<circle cx="140.0" cy="156.0" r="3.4" fill="#000000"/>
<circle cx="148.0" cy="156.0" r="3.4" fill="#000000"/>
<circle cx="180.0" cy="156.0" r="3.4" fill="#000000"/>
<circle cx="196.0" cy="156.0" r="3.4" fill="#000000"/>
<circle cx="204.0" cy="156.0" r="3.4" fill="#000000"/>
<circle cx="84.0" cy="164.0" r="3.4" fill="#000000"/>
<circle cx="108.0" cy="164.0" r="3.4" fill="#000000"/>
<circle cx="132.0" cy="164.0" r="3.4" fill="#000000"/>
<circle cx="148.0" cy="164.0" r="3.4" fill="#000000"/>
<circle cx="164.0" cy="164.0" r="3.4" fill="#000000"/>
<circle cx="180.0" cy="164.0" r="3.4" fill="#000000"/>
<circle cx="212.0" cy="164.0" r="3.4" fill="#000000"/>
<circle cx="84.0" cy="172.0" r="3.4" fill="#000000"/>
<circle cx="92.0" cy="172.0" r="3.4" fill="#000000"/>
<circle cx="116.0" cy="172.0" r="3.4" fill="#000000"/>
<circle cx="124.0" cy="172.0" r="3.4" fill="#000000"/>
<circle cx="132.0" cy="172.0" r="3.4" fill="#000000"/>
<circle cx="140.0" cy="172.0" r="3.4" fill="#000000"/>
<circle cx="148.0" cy="172.0" r="3.4" fill="#000000"/>
<circle cx="180.0" cy="172.0" r="3.4" fill="#000000"/>
<circle cx="204.0" cy="172.0" r="3.4" fill="#000000"/>
<circle cx="84.0" cy="180.0" r="3.4" fill="#000000"/>
<circle cx="100.0" cy="180.0" r="3.4" fill="#000000"/>
<circle cx="116.0" cy="180.0" r="3.4" fill="#000000"/>
<circle cx="132.0" cy="180.0" r="3.4" fill="#000000"/>
<circle cx="140.0" cy="180.0" r="3.4" fill="#000000"/>
<circle cx="148.0" cy="180.0" r="3.4" fill="#000000"/>
<circle cx="156.0" cy="180.0" r="3.4" fill="#000000"/>
<circle cx="164.0" cy="180.0" r="3.4" fill="#000000"/>
<circle cx="172.0" cy="180.0" r="3.4" fill="#000000"/>
<circle cx="180.0" cy="180.0" r="3.4" fill="#000000"/>
<circle cx="204.0" cy="180.0" r="3.4" fill="#000000"/>
<circle cx="212.0" cy="180.0" r="3.4" fill="#000000"/>
<circle cx="84.0" cy="188.0" r="3.4" fill="#000000"/>
<circle cx="100.0" cy="188.0" r="3.4" fill="#000000"/>
<circle cx="132.0" cy="188.0" r="3.4" fill="#000000"/>
<circle cx="140.0" cy="188.0" r="3.4" fill="#000000"/>
<circle cx="148.0" cy="188.0" r="3.4" fill="#000000"/>
<circle cx="156.0" cy="188.0" r="3.4" fill="#000000"/>
<circle cx="164.0" cy="188.0" r="3.4" fill="#000000"/>
<circle cx="204.0" cy="188.0" r="3.4" fill="#000000"/>
<circle cx="212.0" cy="188.0" r="3.4" fill="#000000"/>
<circle cx="100.0" cy="196.0" r="3.4" fill="#000000"/>
<circle cx="116.0" cy="196.0" r="3.4" fill="#000000"/>
<circle cx="124.0" cy="196.0" r="3.4" fill="#000000"/>
<circle cx="140.0" cy="196.0" r="3.4" fill="#000000"/>
<circle cx="148.0" cy="196.0" r="3.4" fill="#000000"/>
<circle cx="180.0" cy="196.0" r="3.4" fill="#000000"/>
<circle cx="188.0" cy="196.0" r="3.4" fill="#000000"/>
<circle cx="196.0" cy="196.0" r="3.4" fill="#000000"/>
<circle cx="204.0" cy="196.0" r="3.4" fill="#000000"/>
<circle cx="212.0" cy="196.0" r="3.4" fill="#000000"/>
<circle cx="100.0" cy="204.0" r="3.4" fill="#000000"/>
<circle cx="132.0" cy="204.0" r="3.4" fill="#000000"/>
<circle cx="156.0" cy="204.0" r="3.4" fill="#000000"/>
<circle cx="172.0" cy="204.0" r="3.4" fill="#000000"/>
<circle cx="180.0" cy="204.0" r="3.4" fill="#000000"/>
<circle cx="196.0" cy="204.0" r="3.4" fill="#000000"/>
<circle cx="204.0" cy="204.0" r="3.4" fill="#000000"/>
<circle cx="212.0" cy="204.0" r="3.4" fill="#000000"/>
<circle cx="84.0" cy="212.0" r="3.4" fill="#000000"/>
<circle cx="100.0" cy="212.0" r="3.4" fill="#000000"/>
<circle cx="116.0" cy="212.0" r="3.4" fill="#000000"/>
<circle cx="124.0" cy="212.0" r="3.4" fill="#000000"/>
<circle cx="132.0" cy="212.0" r="3.4" fill="#000000"/>
<circle cx="148.0" cy="212.0" r="3.4" fill="#000000"/>
<circle cx="156.0" cy="212.0" r="3.4" fill="#000000"/>
<circle cx="164.0" cy="212.0" r="3.4" fill="#000000"/>
<circle cx="188.0" cy="212.0" r="3.4" fill="#000000"/>
<circle cx="212.0" cy="212.0" r="3.4" fill="#000000"/>
<circle cx="44.0" cy="44.0" r="28.0" fill="#000000"/>
<circle cx="44.0" cy="44.0" r="20.0" fill="#ffffff"/>
<circle cx="44.0" cy="44.0" r="12.0" fill="#000000"/>
<circle cx="188.0" cy="44.0" r="28.0" fill="#000000"/>
<circle cx="188.0" cy="44.0" r="20.0" fill="#ffffff"/>
<circle cx="188.0" cy="44.0" r="12.0" fill="#000000"/>
<circle cx="44.0" cy="188.0" r="28.0" fill="#000000"/>
<circle cx="44.0" cy="188.0" r="20.0" fill="#ffffff"/>
<circle cx="44.0" cy="188.0" r="12.0" fill="#000000"/>
</svg>
