<?xml version="1.0" encoding="UTF-8"?>
<svg xmlns="http://www.w3.org/2000/svg" version="1.1" width="232" height="232" viewBox="0 0 232 232">
<rect width="100%" height="100%" fill="#ffffff"/>
<rect x="88" y="16" width="8" height="8" rx="2.4" ry="2.4" fill="#000000"/>
<rect x="120" y="16" width="8" height="8" rx="2.4" ry="2.4" fill="#000000"/>
<rect x="128" y="16" width="8" height="8" rx="2.4" ry="2.4" fill="#000000"/>
<rect x="136" y="16" width="8" height="8" rx="2.4" ry="2.4" fill="#000000"/>
<rect x="88" y="24" width="8" height="8" rx="2.4" ry="2.4" fill="#000000"/>
<rect x="120" y="24" width="8" height="8" rx="2.4" ry="2.4" fill="#000000"/>
<rect x="128" y="24" width="8" height="8" rx="2.4" ry="2.4" fill="#000000"/>
<rect x="136" y="24" width="8" height="8" rx="2.4" ry="2.4" fill="#000000"/>
<rect x="144" y="24" width="8" height="8" rx="2.4" ry="2.4" fill="#000000"/>
<rect x="80" y="32" width="8" height="8" rx="2.4" ry="2.4" fill="#000000"/>
<rect x="88" y="32" width="8" height="8" rx="2.4" ry="2.4" fill="#000000"/>
<rect x="96" y="32" width="8" height="8" rx="2.4" ry="2.4" fill="#000000"/>
<rect x="112" y="32" width="8" height="8" rx="2.4" ry="2.4" fill="#000000"/>
<rect x="120" y="32" width="8" height="8" rx="2.4" ry="2.4" fill="#000000"/>
<rect x="136" y="32" width="8" height="8" rx="2.4" ry="2.4" fill="#000000"/>
<rect x="80" y="40" width="8" height="8" rx="2.4" ry="2.4" fill="#000000"/>
<rect x="88" y="40" width="8" height="8" rx="2.4" ry="2.4" fill="#000000"/>
<rect x="104" y="40" width="8" height="8" rx="2.4" ry="2.4" fill="#000000"/>
<rect x="128" y="40" width="8" height="8" rx="2.4" ry="2.4" fill="#000000"/>
<rect x="136" y="40" width="8" height="8" rx="2.4" ry="2.4" fill="#000000"/>
<rect x="80" y="48" width="8" height="8" rx="2.4" ry="2.4" fill="#000000"/>
<rect x="96" y="48" width="8" height="8" rx="2.4" ry="2.4" fill="#000000"/>
<rect x="104" y="48" width="8" height="8" rx="2.4" ry="2.4" fill="#000000"/>
<rect x="136" y="48" width="8" height="8" rx="2.4" ry="2.4" fill="#000000"/>
<rect x="144" y="48" width="8" height="8" rx="2.4" ry="2.4" fill="#000000"/>
<rect x="80" y="56" width="8" height="8" rx="2.4" ry="2.4" fill="#000000"/>
<rect x="96" y="56" width="8" height="8" rx="2.4" ry="2.4" fill="#000000"/>
<rect x="104" y="56" width="8" height="8" rx="2.4" ry="2.4" fill="#000000"/>
<rect x="112" y="56" width="8" height="8" rx="2.4" ry="2.4" fill="#000000"/>
<rect x="80" y="64" width="8" height="8" rx="2.4" ry="2.4" fill="#000000"/>
<rect x="96" y="64" width="8" height="8" rx="2.4" ry="2.4" fill="#000000"/>
<rect x="112" y="64" width="8" height="8" rx="2.4" ry="2.4" fill="#000000"/>
<rect x="128" y="64" width="8" height="8" rx="2.4" ry="2.4" fill="#000000"/>
<rect x="144" y="64" width="8" height="8" rx="2.4" ry="2.4" fill="#000000"/>
<rect x="80" y="72" width="8" height="8" rx="2.4" ry="2.4" fill="#000000"/>
<rect x="104" y="72" width="8" height="8" rx="2.4" ry="2.4" fill="#000000"/>
<rect x="112" y="72" width="8" height="8" rx="2.4" ry="2.4" fill="#000000"/>
<rect x="128" y="72" width="8" height="8" rx="2.4" ry="2.4" fill="#000000"/>
<rect x="144" y="72" width="8" height="8" rx="2.4" ry="2.4" fill="#000000"/>
<rect x="16" y="80" width="8" height="8" rx="2.4" ry="2.4" fill="#000000"/>
<rect x="32" y="80" width="8" height="8" rx="2.4" ry="2.4" fill="#000000"/>
<rect x="40" y="80" width="8" height="8" rx="2.4" ry="2.4" fill="#000000"/>
<rect x="48" y="80" width="8" height="8" rx="2.4" ry="2.4" fill="#000000"/>
<rect x="56" y="80" width="8" height="8" rx="2.4" ry="2.4" fill="#000000"/>
<rect x="64" y="80" width="8" height="8" rx="2.4" ry="2.4" fill="#000000"/>
<rect x="96" y="80" width="8" height="8" rx="2.4" ry="2.4" fill="#000000"/>
<rect x="104" y="80" width="8" height="8" rx="2.4" ry="2.4" fill="#000000"/>
<rect x="160" y="80" width="8" height="8" rx="2.4" ry="2.4" fill="#000000"/>
<rect x="168" y="80" width="8" height="8" rx="2.4" ry="2.4" fill="#000000"/>
<rect x="176" y="80" width="8" height="8" rx="2.4" ry="2.4" fill="#000000"/>
<rect x="184" y="80" width="8" height="8" rx="2.4" ry="2.4" fill="#000000"/>
<rect x="192" y="80" width="8" height="8" rx="2.4" ry="2.4" fill="#000000"/>
<rect x="16" y="88" width="8" height="8" rx="2.4" ry="2.4" fill="#000000"/>
<rect x="24" y="88" width="8" height="8" rx="2.4" ry="2.4" fill="#000000"/>
<rect x="32" y="88" width="8" height="8" rx="2.4" ry="2.4" fill="#000000"/>
<rect x="56" y="88" width="8" height="8" rx="2.4" ry="2.4" fill="#000000"/>
<rect x="80" y="88" width="8" height="8" rx="2.4" ry="2.4" fill="#000000"/>
<rect x="88" y="88" width="8" height="8" rx="2.4" ry="2.4" fill="#000000"/>
<rect x="104" y="88" width="8" height="8" rx="2.4" ry="2.4" fill="#000000"/>
<rect x="112" y="88" width="8" height="8" rx="2.4" ry="2.4" fill="#000000"/>
<rect x="120" y="88" width="8" height="8" rx="2.4" ry="2.4" fill="#000000"/>
<rect x="128" y="88" width="8" height="8" rx="2.4" ry="2.4" fill="#000000"/>
<rect x="136" y="88" width="8" height="8" rx="2.4" ry="2.4" fill="#000000"/>
<rect x="168" y="88" width="8" height="8" rx="2.4" ry="2.4" fill="#000000"/>
<rect x="200" y="88" width="8" height="8" rx="2.4" ry="2.4" fill="#000000"/>
<rect x="16" y="96" width="8" height="8" rx="2.4" ry="2.4" fill="#000000"/>
<rect x="24" y="96" width="8" height="8" rx="2.4" ry="2.4" fill="#000000"/>
<rect x="32" y="96" width="8" height="8" rx="2.4" ry="2.4" fill="#000000"/>
<rect x="40" y="96" width="8" height="8" rx="2.4" ry="2.4" fill="#000000"/>
<rect x="56" y="96" width="8" height="8" rx="2.4" ry="2.4" fill="#000000"/>
<rect x="64" y="96" width="8" height="8" rx="2.4" ry="2.4" fill="#000000"/>
<rect x="72" y="96" width="8" height="8" rx="2.4" ry="2.4" fill="#000000"/>
<rect x="120" y="96" width="8" height="8" rx="2.4" ry="2.4" fill="#000000"/>
<rect x="128" y="96" width="8" height="8" rx="2.4" ry="2.4" fill="#000000"/>
<rect x="136" y="96" width="8" height="8" rx="2.4" ry="2.4" fill="#000000"/>
<rect x="144" y="96" width="8" height="8" rx="2.4" ry="2.4" fill="#000000"/>
<rect x="168" y="96" width="8" height="8" rx="2.4" ry="2.4" fill="#000000"/>
<rect x="184" y="96" width="8" height="8" rx="2.4" ry="2.4" fill="#000000"/>
<rect x="200" y="96" width="8" height="8" rx="2.4" ry="2.4" fill="#000000"/>
<rect x="208" y="96" width="8" height="8" rx="2.4" ry="2.4" fill="#000000"/>
<rect x="24" y="104" width="8" height="8" rx="2.4" ry="2.4" fill="#000000"/>
<rect x="32" y="104" width="8" height="8" rx="2.4" ry="2.4" fill="#000000"/>
<rect x="48" y="104" width="8" height="8" rx="2.4" ry="2.4" fill="#000000"/>
<rect x="56" y="104" width="8" height="8" rx="2.4" ry="2.4" fill="#000000"/>
<rect x="96" y="104" width="8" height="8" rx="2.4" ry="2.4" fill="#000000"/>
<rect x="104" y="104" width="8" height="8" rx="2.4" ry="2.4" fill="#000000"/>
<rect x="120" y="104" width="8" height="8" rx="2.4" ry="2.4" fill="#000000"/>
<rect x="144" y="104" width="8" height="8" rx="2.4" ry="2.4" fill="#000000"/>
<rect x="152" y="104" width="8" height="8" rx="2.4" ry="2.4" fill="#000000"/>
<rect x="160" y="104" width="8" height="8" rx="2.4" ry="2.4" fill="#000000"/>
<rect x="208" y="104" width="8" height="8" rx="2.4" ry="2.4" fill="#000000"/>
<rect x="16" y="112" width="8" height="8" rx="2.4" ry="2.4" fill="#000000"/>
<rect x="24" y="112" width="8" height="8" rx="2.4" ry="2.4" fill="#000000"/>
<rect x="40" y="112" width="8" height="8" rx="2.4" ry="2.4" fill="#000000"/>
<rect x="48" y="112" width="8" height="8" rx="2.4" ry="2.4" fill="#000000"/>
<rect x="64" y="112" width="8" height="8" rx="2.4" ry="2.4" fill="#000000"/>
<rect x="88" y="112" width="8" height="8" rx="2.4" ry="2.4" fill="#000000"/>
<rect x="96" y="112" width="8" height="8" rx="2.4" ry="2.4" fill="#000000"/>
<rect x="104" y="112" width="8" height="8" rx="2.4" ry="2.4" fill="#000000"/>
<rect x="112" y="112" width="8" height="8" rx="2.4" ry="2.4" fill="#000000"/>
<rect x="128" y="112" width="8" height="8" rx="2.4" ry="2.4" fill="#000000"/>
<rect x="136" y="112" width="8" height="8" rx="2.4" ry="2.4" fill="#000000"/>
<rect x="152" y="112" width="8" height="8" rx="2.4" ry="2.4" fill="#000000"/>
<rect x="160" y="112" width="8" height="8" rx="2.4" ry="2.4" fill="#000000"/>
<rect x="168" y="112" width="8" height="8" rx="2.4" ry="2.4" fill="#000000"/>
<rect x="176" y="112" width="8" height="8" rx="2.4" ry="2.4" fill="#000000"/>
<rect x="192" y="112" width="8" height="8" rx="2.4" ry="2.4" fill="#000000"/>
<rect x="200" y="112" width="8" height="8" rx="2.4" ry="2.4" fill="#000000"/>
<rect x="208" y="112" width="8" height="8" rx="2.4" ry="2.4" fill="#000000"/>
<rect x="16" y="120" width="8" height="8" rx="2.4" ry="2.4" fill="#000000"/>
<rect x="32" y="120" width="8" height="8" rx="2.4" ry="2.4" fill="#000000"/>
<rect x="72" y="120" width="8" height="8" rx="2.4" ry="2.4" fill="#000000"/>
<rect x="144" y="120" width="8" height="8" rx="2.4" ry="2.4" fill="#000000"/>
<rect x="152" y="120" width="8" height="8" rx="2.4" ry="2.4" fill="#000000"/>
<rect x="168" y="120" width="8" height="8" rx="2.4" ry="2.4" fill="#000000"/>
<rect x="184" y="120" width="8" height="8" rx="2.4" ry="2.4" fill="#000000"/>
<rect x="200" y="120" width="8" height="8" rx="2.4" ry="2.4" fill="#000000"/>
<rect x="16" y="128" width="8" height="8" rx="2.4" ry="2.4" fill="#000000"/>
<rect x="32" y="128" width="8" height="8" rx="2.4" ry="2.4" fill="#000000"/>
<rect x="40" y="128" width="8" height="8" rx="2.4" ry="2.4" fill="#000000"/>
<rect x="48" y="128" width="8" height="8" rx="2.4" ry="2.4" fill="#000000"/>
<rect x="56" y="128" width="8" height="8" rx="2.4" ry="2.4" fill="#000000"/>
<rect x="64" y="128" width="8" height="8" rx="2.4" ry="2.4" fill="#000000"/>
<rect x="96" y="128" width="8" height="8" rx="2.4" ry="2.4" fill="#000000"/>
<rect x="104" y="128" width="8" height="8" rx="2.4" ry="2.4" fill="#000000"/>
<rect x="112" y="128" width="8" height="8" rx="2.4" ry="2.4" fill="#000000"/>
<rect x="136" y="128" width="8" height="8" rx="2.4" ry="2.4" fill="#000000"/>
<rect x="144" y="128" width="8" height="8" rx="2.4" ry="2.4" fill="#000000"/>
<rect x="160" y="128" width="8" height="8" rx="2.4" ry="2.4" fill="#000000"/>
<rect x="168" y="128" width="8" height="8" rx="2.4" ry="2.4" fill="#000000"/>
<rect x="176" y="128" width="8" height="8" rx="2.4" ry="2.4" fill="#000000"/>
<rect x="184" y="128" width="8" height="8" rx="2.4" ry="2.4" fill="#000000"/>
<rect x="200" y="128" width="8" height="8" rx="2.4" ry="2.4" fill="#000000"/>
<rect x="208" y="128" width="8" height="8" rx="2.4" ry="2.4" fill="#000000"/>
<rect x="16" y="136" width="8" height="8" rx="2.4" ry="2.4" fill="#000000"/>
<rect x="40" y="136" width="8" height="8" rx="2.4" ry="2.4" fill="#000000"/>
<rect x="56" y="136" width="8" height="8" rx="2.4" ry="2.4" fill="#000000"/>
<rect x="72" y="136" width="8" height="8" rx="2.4" ry="2.4" fill="#000000"/>
<rect x="88" y="136" width="8" height="8" rx="2.4" ry="2.4" fill="#000000"/>
<rect x="104" y="136" width="8" height="8" rx="2.4" ry="2.4" fill="#000000"/>
<rect x="128" y="136" width="8" height="8" rx="2.4" ry="2.4" fill="#000000"/>
<rect x="144" y="136" width="8" height="8" rx="2.4" ry="2.4" fill="#000000"/>
<rect x="168" y="136" width="8" height="8" rx="2.4" ry="2.4" fill="#000000"/>
<rect x="176" y="136" width="8" height="8" rx="2.4" ry="2.4" fill="#000000"/>
<rect x="208" y="136" width="8" height="8" rx="2.4" ry="2.4" fill="#000000"/>
<rect x="16" y="144" width="8" height="8" rx="2.4" ry="2.4" fill="#000000"/>
<rect x="32" y="144" width="8" height="8" rx="2.4" ry="2.4" fill="#000000"/>
<rect x="48" y="144" width="8" height="8" rx="2.4" ry="2.4" fill="#000000"/>
<rect x="56" y="144" width="8" height="8" rx="2.4" ry="2.4" fill="#000000"/>
<rect x="64" y="144" width="8" height="8" rx="2.4" ry="2.4" fill="#000000"/>
<rect x="72" y="144" width="8" height="8" rx="2.4" ry="2.4" fill="#000000"/>
<rect x="88" y="144" width="8" height="8" rx="2.4" ry="2.4" fill="#000000"/>
<rect x="104" y="144" width="8" height="8" rx="2.4" ry="2.4" fill="#000000"/>
<rect x="136" y="144" width="8" height="8" rx="2.4" ry="2.4" fill="#000000"/>
<rect x="144" y="144" width="8" height="8" rx="2.4" ry="2.4" fill="#000000"/>
<rect x="152" y="144" width="8" height="8" rx="2.4" ry="2.4" fill="#000000"/>
<rect x="160" y="144" width="8" height="8" rx="2.4" ry="2.4" fill="#000000"/>
<rect x="168" y="144" width="8" height="8" rx="2.4" ry="2.4" fill="#000000"/>
<rect x="176" y="144" width="8" height="8" rx="2.4" ry="2.4" fill="#000000"/>
<rect x="192" y="144" width="8" height="8" rx="2.4" ry="2.4" fill="#000000"/>
<rect x="80" y="152" width="8" height="8" rx="2.4" ry="2.4" fill="#000000"/>
<rect x="88" y="152" width="8" height="8" rx="2.4" ry="2.4" fill="#000000"/>
<rect x="112" y="152" width="8" height="8" rx="2.4" ry="2.4" fill="#000000"/>
<rect x="120" y="152" width="8" height="8" rx="2.4" ry="2.4" fill="#000000"/>
<rect x="128" y="152" width="8" height="8" rx="2.4" ry="2.4" fill="#000000"/>
<rect x="136" y="152" width="8" height="8" rx="2.4" ry="2.4" fill="#000000"/>
<rect x="144" y="152" width="8" height="8" rx="2.4" ry="2.4" fill="#000000"/>
<rect x="176" y="152" width="8" height="8" rx="2.4" ry="2.4" fill="#000000"/>
<rect x="184" y="152" width="8" height="8" rx="2.4" ry="2.4" fill="#000000"/>
<rect x="120" y="160" width="8" height="8" rx="2.4" ry="2.4" fill="#000000"/>
<rect x="128" y="160" width="8" height="8" rx="2.4" ry="2.4" fill="#000000"/>
<rect x="144" y="160" width="8" height="8" rx="2.4" ry="2.4" fill="#000000"/>
<rect x="160" y="160" width="8" height="8" rx="2.4" ry="2.4" fill="#000000"/>
<rect x="176" y="160" width="8" height="8" rx="2.4" ry="2.4" fill="#000000"/>
<rect x="192" y="160" width="8" height="8" rx="2.4" ry="2.4" fill="#000000"/>
<rect x="200" y="160" width="8" height="8" rx="2.4" ry="2.4" fill="#000000"/>
<rect x="208" y="160" width="8" height="8" rx="2.4" ry="2.4" fill="#000000"/>
<rect x="80" y="168" width="8" height="8" rx="2.4" ry="2.4" fill="#000000"/>
<rect x="112" y="168" width="8" height="8" rx="2.4" ry="2.4" fill="#000000"/>
<rect x="120" y="168" width="8" height="8" rx="2.4" ry="2.4" fill="#000000"/>
<rect x="144" y="168" width="8" height="8" rx="2.4" ry="2.4" fill="#000000"/>
<rect x="176" y="168" width="8" height="8" rx="2.4" ry="2.4" fill="#000000"/>
<rect x="184" y="168" width="8" height="8" rx="2.4" ry="2.4" fill="#000000"/>
<rect x="200" y="168" width="8" height="8" rx="2.4" ry="2.4" fill="#000000"/>
<rect x="80" y="176" width="8" height="8" rx="2.4" ry="2.4" fill="#000000"/>
<rect x="88" y="176" width="8" height="8" rx="2.4" ry="2.4" fill="#000000"/>
<rect x="96" y="176" width="8" height="8" rx="2.4" ry="2.4" fill="#000000"/>
<rect x="112" y="176" width="8" height="8" rx="2.4" ry="2.4" fill="#000000"/>
<rect x="128" y="176" width="8" height="8" rx="2.4" ry="2.4" fill="#000000"/>
<rect x="136" y="176" width="8" height="8" rx="2.4" ry="2.4" fill="#000000"/>
<rect x="144" y="176" width="8" height="8" rx="2.4" ry="2.4" fill="#000000"/>
<rect x="152" y="176" width="8" height="8" rx="2.4" ry="2.4" fill="#000000"/>
<rect x="160" y="176" width="8" height="8" rx="2.4" ry="2.4" fill="#000000"/>
<rect x="168" y="176" width="8" height="8" rx="2.4" ry="2.4" fill="#000000"/>
<rect x="176" y="176" width="8" height="8" rx="2.4" ry="2.4" fill="#000000"/>
<rect x="192" y="176" width="8" height="8" rx="2.4" ry="2.4" fill="#000000"/>
<rect x="200" y="176" width="8" height="8" rx="2.4" ry="2.4" fill="#000000"/>
<rect x="80" y="184" width="8" height="8" rx="2.4" ry="2.4" fill="#000000"/>
<rect x="136" y="184" width="8" height="8" rx="2.4" ry="2.4" fill="#000000"/>
<rect x="144" y="184" width="8" height="8" rx="2.4" ry="2.4" fill="#000000"/>
<rect x="152" y="184" width="8" height="8" rx="2.4" ry="2.4" fill="#000000"/>
<rect x="160" y="184" width="8" height="8" rx="2.4" ry="2.4" fill="#000000"/>
<rect x="176" y="184" width="8" height="8" rx="2.4" ry="2.4" fill="#000000"/>
<rect x="184" y="184" width="8" height="8" rx="2.4" ry="2.4" fill="#000000"/>
<rect x="192" y="184" width="8" height="8" rx="2.4" ry="2.4" fill="#000000"/>
<rect x="208" y="184" width="8" height="8" rx="2.4" ry="2.4" fill="#000000"/>
<rect x="80" y="192" width="8" height="8" rx="2.4" ry="2.4" fill="#000000"/>
<rect x="96" y="192" width="8" height="8" rx="2.4" ry="2.4" fill="#000000"/>
<rect x="104" y="192" width="8" height="8" rx="2.4" ry="2.4" fill="#000000"/>
<rect x="112" y="192" width="8" height="8" rx="2.4" ry="2.4" fill="#000000"/>
<rect x="144" y="192" width="8" height="8" rx="2.4" ry="2.4" fill="#000000"/>
<rect x="184" y="192" width="8" height="8" rx="2.4" ry="2.4" fill="#000000"/>
<rect x="192" y="192" width="8" height="8" rx="2.4" ry="2.4" fill="#000000"/>
<rect x="208" y="192" width="8" height="8" rx="2.4" ry="2.4" fill="#000000"/>
<rect x="96" y="200" width="8" height="8" rx="2.4" ry="2.4" fill="#000000"/>
<rect x="104" y="200" width="8" height="8" rx="2.4" ry="2.4" fill="#000000"/>
<rect x="128" y="200" width="8" height="8" rx="2.4" ry="2.4" fill="#000000"/>
<rect x="136" y="200" width="8" height="8" rx="2.4" ry="2.4" fill="#000000"/>
<rect x="144" y="200" width="8" height="8" rx="2.4" ry="2.4" fill="#000000"/>
<rect x="152" y="200" width="8" height="8" rx="2.4" ry="2.4" fill="#000000"/>
<rect x="168" y="200" width="8" height="8" rx="2.4" ry="2.4" fill="#000000"/>
<rect x="176" y="200" width="8" height="8" rx="2.4" ry="2.4" fill="#000000"/>
<rect x="184" y="200" width="8" height="8" rx="2.4" ry="2.4" fill="#000000"/>
<rect x="208" y="200" width="8" height="8" rx="2.4" ry="2.4" fill="#000000"/>
<rect x="80" y="208" width="8" height="8" rx="2.4" ry="2.4" fill="#000000"/>
<rect x="96" y="208" width="8" height="8" rx="2.4" ry="2.4" fill="#000000"/>
<rect x="104" y="208" width="8" height="8" rx="2.4" ry="2.4" fill="#000000"/>
<rect x="136" y="208" width="8" height="8" rx="2.4" ry="2.4" fill="#000000"/>
<rect x="152" y="208" width="8" height="8" rx="2.4" ry="2.4" fill="#000000"/>
<rect x="168" y="208" width="8" height="8" rx="2.4" ry="2.4" fill="#000000"/>
<rect x="176" y="208" width="8" height="8" rx="2.4" ry="2.4" fill="#000000"/>
<rect x="184" y="208" width="8" height="8" rx="2.4" ry="2.4" fill="#000000"/>
<rect x="192" y="208" width="8" height="8" rx="2.4" ry="2.4" fill="#000000"/>
<rect x="200" y="208" width="8" height="8" rx="2.4" ry="2.4" fill="#000000"/>
<rect x="208" y="208" width="8" height="8" rx="2.4" ry="2.4" fill="#000000"/>
<rect x="16" y="16" width="56" height="56" rx="11.200000000000001" ry="11.200000000000001" fill="#000000"/>
<rect x="24" y="24" width="40" height="40" rx="8.0" ry="8.0" fill="#ffffff"/>
<rect x="32" y="32" width="24" height="24" rx="4.800000000000001" ry="4.800000000000001" fill="#000000"/>
<rect x="160" y="16" width="56" height="56" rx="11.200000000000001" ry="11.200000000000001" fill="#000000"/>
<rect x="168" y="24" width="40" height="40" rx="8.0" ry="8.0" fill="#ffffff"/>
<rect x="176" y="32" width="24" height="24" rx="4.800000000000001" ry="4.800000000000001" fill="#000000"/>
<rect x="16" y="160" width="56" height="56" rx="11.200000000000001" ry="11.200000000000001" fill="#000000"/>
<rect x="24" y="168" width="40" height="40" rx="8.0" ry="8.0" fill="#ffffff"/>
<rect x="32" y="176" width="24" height="24" rx="4.800000000000001" ry="4.800000000000001" fill="#000000"/>
</svg>
