<?xml version="1.0" encoding="UTF-8"?>
<svg xmlns="http://www.w3.org/2000/svg" version="1.1" width="264" height="264" viewBox="0 0 264 264">
<rect width="100%" height="100%" fill="#ffffff"/>
<path d="M16,16h8v8h-8ZM24,16h8v8h-8ZM32,16h8v8h-8ZM40,16h8v8h-8ZM48,16h8v8h-8ZM56,16h8v8h-8ZM64,16h8v8h-8ZM80,16h8v8h-8ZM96,16h8v8h-8ZM112,16h8v8h-8ZM128,16h8v8h-8ZM144,16h8v8h-8ZM152,16h8v8h-8ZM168,16h8v8h-8ZM192,16h8v8h-8ZM200,16h8v8h-8ZM208,16h8v8h-8ZM216,16h8v8h-8ZM224,16h8v8h-8ZM232,16h8v8h-8ZM240,16h8v8h-8ZM16,24h8v8h-8ZM64,24h8v8h-8ZM80,24h8v8h-8ZM88,24h8v8h-8ZM120,24h8v8h-8ZM144,24h8v8h-8ZM160,24h8v8h-8ZM176,24h8v8h-8ZM192,24h8v8h-8ZM240,24h8v8h-8ZM16,32h8v8h-8ZM32,32h8v8h-8ZM40,32h8v8h-8ZM48,32h8v8h-8ZM64,32h8v8h-8ZM96,32h8v8h-8ZM104,32h8v8h-8ZM112,32h8v8h-8ZM120,32h8v8h-8ZM128,32h8v8h-8ZM136,32h8v8h-8ZM160,32h8v8h-8ZM168,32h8v8h-8ZM192,32h8v8h-8ZM208,32h8v8h-8ZM216,32h8v8h-8ZM224,32h8v8h-8ZM240,32h8v8h-8ZM16,40h8v8h-8ZM32,40h8v8h-8ZM40,40h8v8h-8ZM48,40h8v8h-8ZM64,40h8v8h-8ZM80,40h8v8h-8ZM120,40h8v8h-8ZM128,40h8v8h-8ZM152,40h8v8h-8ZM176,40h8v8h-8ZM192,40h8v8h-8ZM208,40h8v8h-8ZM216,40h8v8h-8ZM224,40h8v8h-8ZM240,40h8v8h-8ZM16,48h8v8h-8ZM32,48h8v8h-8ZM40,48h8v8h-8ZM48,48h8v8h-8ZM64,48h8v8h-8ZM88,48h8v8h-8ZM96,48h8v8h-8ZM104,48h8v8h-8ZM112,48h8v8h-8ZM128,48h8v8h-8ZM136,48h8v8h-8ZM144,48h8v8h-8ZM152,48h8v8h-8ZM160,48h8v8h-8ZM168,48h8v8h-8ZM176,48h8v8h-8ZM192,48h8v8h-8ZM208,48h8v8h-8ZM216,48h8v8h-8ZM224,48h8v8h-8ZM240,48h8v8h-8ZM16,56h8v8h-8ZM64,56h8v8h-8ZM88,56h8v8h-8ZM120,56h8v8h-8ZM128,56h8v8h-8ZM144,56h8v8h-8ZM168,56h8v8h-8ZM192,56h8v8h-8ZM240,56h8v8h-8ZM16,64h8v8h-8ZM24,64h8v8h-8ZM32,64h8v8h-8ZM40,64h8v8h-8ZM48,64h8v8h-8ZM56,64h8v8h-8ZM64,64h8v8h-8ZM80,64h8v8h-8ZM96,64h8v8h-8ZM112,64h8v8h-8ZM128,64h8v8h-8ZM144,64h8v8h-8ZM160,64h8v8h-8ZM176,64h8v8h-8ZM192,64h8v8h-8ZM200,64h8v8h-8ZM208,64h8v8h-8ZM216,64h8v8h-8ZM224,64h8v8h-8ZM232,64h8v8h-8ZM240,64h8v8h-8ZM80,72h8v8h-8ZM88,72h8v8h-8ZM96,72h8v8h-8ZM144,72h8v8h-8ZM152,72h8v8h-8ZM160,72h8v8h-8ZM176,72h8v8h-8ZM16,80h8v8h-8ZM32,80h8v8h-8ZM40,80h8v8h-8ZM56,80h8v8h-8ZM64,80h8v8h-8ZM72,80h8v8h-8ZM88,80h8v8h-8ZM96,80h8v8h-8ZM104,80h8v8h-8ZM112,80h8v8h-8ZM128,80h8v8h-8ZM152,80h8v8h-8ZM168,80h8v8h-8ZM176,80h8v8h-8ZM192,80h8v8h-8ZM216,80h8v8h-8ZM232,80h8v8h-8ZM240,80h8v8h-8ZM16,88h8v8h-8ZM48,88h8v8h-8ZM56,88h8v8h-8ZM80,88h8v8h-8ZM88,88h8v8h-8ZM96,88h8v8h-8ZM104,88h8v8h-8ZM128,88h8v8h-8ZM136,88h8v8h-8ZM144,88h8v8h-8ZM152,88h8v8h-8ZM168,88h8v8h-8ZM192,88h8v8h-8ZM208,88h8v8h-8ZM224,88h8v8h-8ZM240,88h8v8h-8ZM24,96h8v8h-8ZM64,96h8v8h-8ZM72,96h8v8h-8ZM80,96h8v8h-8ZM120,96h8v8h-8ZM128,96h8v8h-8ZM152,96h8v8h-8ZM160,96h8v8h-8ZM176,96h8v8h-8ZM200,96h8v8h-8ZM40,104h8v8h-8ZM80,104h8v8h-8ZM104,104h8v8h-8ZM120,104h8v8h-8ZM144,104h8v8h-8ZM160,104h8v8h-8ZM192,104h8v8h-8ZM216,104h8v8h-8ZM232,104h8v8h-8ZM16,112h8v8h-8ZM24,112h8v8h-8ZM48,112h8v8h-8ZM64,112h8v8h-8ZM80,112h8v8h-8ZM112,112h8v8h-8ZM136,112h8v8h-8ZM144,112h8v8h-8ZM176,112h8v8h-8ZM184,112h8v8h-8ZM200,112h8v8h-8ZM216,112h8v8h-8ZM224,112h8v8h-8ZM240,112h8v8h-8ZM16,120h8v8h-8ZM40,120h8v8h-8ZM104,120h8v8h-8ZM120,120h8v8h-8ZM128,120h8v8h-8ZM136,120h8v8h-8ZM152,120h8v8h-8ZM168,120h8v8h-8ZM176,120h8v8h-8ZM192,120h8v8h-8ZM200,120h8v8h-8ZM216,120h8v8h-8ZM224,120h8v8h-8ZM240,120h8v8h-8ZM16,128h8v8h-8ZM48,128h8v8h-8ZM56,128h8v8h-8ZM64,128h8v8h-8ZM72,128h8v8h-8ZM80,128h8v8h-8ZM88,128h8v8h-8ZM96,128h8v8h-8ZM104,128h8v8h-8ZM128,128h8v8h-8ZM144,128h8v8h-8ZM160,128h8v8h-8ZM168,128h8v8h-8ZM184,128h8v8h-8ZM208,128h8v8h-8ZM216,128h8v8h-8ZM232,128h8v8h-8ZM240,128h8v8h-8ZM24,136h8v8h-8ZM32,136h8v8h-8ZM40,136h8v8h-8ZM56,136h8v8h-8ZM80,136h8v8h-8ZM88,136h8v8h-8ZM112,136h8v8h-8ZM120,136h8v8h-8ZM168,136h8v8h-8ZM184,136h8v8h-8ZM200,136h8v8h-8ZM208,136h8v8h-8ZM16,144h8v8h-8ZM32,144h8v8h-8ZM40,144h8v8h-8ZM64,144h8v8h-8ZM72,144h8v8h-8ZM80,144h8v8h-8ZM88,144h8v8h-8ZM144,144h8v8h-8ZM160,144h8v8h-8ZM208,144h8v8h-8ZM216,144h8v8h-8ZM232,144h8v8h-8ZM24,152h8v8h-8ZM40,152h8v8h-8ZM48,152h8v8h-8ZM72,152h8v8h-8ZM96,152h8v8h-8ZM104,152h8v8h-8ZM120,152h8v8h-8ZM136,152h8v8h-8ZM144,152h8v8h-8ZM152,152h8v8h-8ZM184,152h8v8h-8ZM216,152h8v8h-8ZM224,152h8v8h-8ZM16,160h8v8h-8ZM40,160h8v8h-8ZM48,160h8v8h-8ZM64,160h8v8h-8ZM72,160h8v8h-8ZM80,160h8v8h-8ZM88,160h8v8h-8ZM112,160h8v8h-8ZM136,160h8v8h-8ZM144,160h8v8h-8ZM160,160h8v8h-8ZM176,160h8v8h-8ZM184,160h8v8h-8ZM72,168h8v8h-8ZM80,168h8v8h-8ZM88,168h8v8h-8ZM144,168h8v8h-8ZM152,168h8v8h-8ZM160,168h8v8h-8ZM192,168h8v8h-8ZM224,168h8v8h-8ZM232,168h8v8h-8ZM240,168h8v8h-8ZM24,176h8v8h-8ZM64,176h8v8h-8ZM72,176h8v8h-8ZM88,176h8v8h-8ZM104,176h8v8h-8ZM112,176h8v8h-8ZM120,176h8v8h-8ZM144,176h8v8h-8ZM152,176h8v8h-8ZM160,176h8v8h-8ZM168,176h8v8h-8ZM176,176h8v8h-8ZM184,176h8v8h-8ZM192,176h8v8h-8ZM200,176h8v8h-8ZM208,176h8v8h-8ZM216,176h8v8h-8ZM224,176h8v8h-8ZM232,176h8v8h-8ZM240,176h8v8h-8ZM80,184h8v8h-8ZM120,184h8v8h-8ZM128,184h8v8h-8ZM160,184h8v8h-8ZM168,184h8v8h-8ZM176,184h8v8h-8ZM208,184h8v8h-8ZM216,184h8v8h-8ZM224,184h8v8h-8ZM232,184h8v8h-8ZM240,184h8v8h-8ZM16,192h8v8h-8ZM24,192h8v8h-8ZM32,192h8v8h-8ZM40,192h8v8h-8ZM48,192h8v8h-8ZM56,192h8v8h-8ZM64,192h8v8h-8ZM80,192h8v8h-8ZM88,192h8v8h-8ZM104,192h8v8h-8ZM112,192h8v8h-8ZM120,192h8v8h-8ZM160,192h8v8h-8ZM168,192h8v8h-8ZM176,192h8v8h-8ZM192,192h8v8h-8ZM208,192h8v8h-8ZM232,192h8v8h-8ZM16,200h8v8h-8ZM64,200h8v8h-8ZM80,200h8v8h-8ZM88,200h8v8h-8ZM104,200h8v8h-8ZM168,200h8v8h-8ZM176,200h8v8h-8ZM208,200h8v8h-8ZM216,200h8v8h-8ZM232,200h8v8h-8ZM16,208h8v8h-8ZM32,208h8v8h-8ZM40,208h8v8h-8ZM48,208h8v8h-8ZM64,208h8v8h-8ZM104,208h8v8h-8ZM112,208h8v8h-8ZM128,208h8v8h-8ZM152,208h8v8h-8ZM176,208h8v8h-8ZM184,208h8v8h-8ZM192,208h8v8h-8ZM200,208h8v8h-8ZM208,208h8v8h-8ZM216,208h8v8h-8ZM224,208h8v8h-8ZM16,216h8v8h-8ZM32,216h8v8h-8ZM40,216h8v8h-8ZM48,216h8v8h-8ZM64,216h8v8h-8ZM80,216h8v8h-8ZM104,216h8v8h-8ZM120,216h8v8h-8ZM128,216h8v8h-8ZM136,216h8v8h-8ZM144,216h8v8h-8ZM152,216h8v8h-8ZM168,216h8v8h-8ZM208,216h8v8h-8ZM240,216h8v8h-8ZM16,224h8v8h-8ZM32,224h8v8h-8ZM40,224h8v8h-8ZM48,224h8v8h-8ZM64,224h8v8h-8ZM80,224h8v8h-8ZM104,224h8v8h-8ZM120,224h8v8h-8ZM152,224h8v8h-8ZM160,224h8v8h-8ZM168,224h8v8h-8ZM216,224h8v8h-8ZM240,224h8v8h-8ZM16,232h8v8h-8ZM64,232h8v8h-8ZM96,232h8v8h-8ZM120,232h8v8h-8ZM128,232h8v8h-8ZM136,232h8v8h-8ZM144,232h8v8h-8ZM160,232h8v8h-8ZM168,232h8v8h-8ZM176,232h8v8h-8ZM192,232h8v8h-8ZM200,232h8v8h-8ZM208,232h8v8h-8ZM232,232h8v8h-8ZM16,240h8v8h-8ZM24,240h8v8h-8ZM32,240h8v8h-8ZM40,240h8v8h-8ZM48,240h8v8h-8ZM56,240h8v8h-8ZM64,240h8v8h-8ZM80,240h8v8h-8ZM88,240h8v8h-8ZM120,240h8v8h-8ZM128,240h8v8h-8ZM160,240h8v8h-8ZM176,240h8v8h-8ZM192,240h8v8h-8ZM216,240h8v8h-8ZM232,240h8v8h-8Z" fill="#16A085"/>
</svg>
