<?xml version="1.0" encoding="UTF-8"?>
<svg xmlns="http://www.w3.org/2000/svg" version="1.1" width="225" height="225" viewBox="0 0 225 225">
<defs>
<linearGradient id="qr-gradient" x1="0.1464" y1="0.8536" x2="0.8536" y2="0.1464">
<stop offset="0%" stop-color="#0F172A"/>
<stop offset="100%" stop-color="#22D3EE"/>
</linearGradient>
</defs>
<rect width="100%" height="100%" fill="#ffffff"/>
<circle cx="94.5" cy="22.5" r="3.8249999999999997" fill="url(#qr-gradient)"/>
<circle cx="103.5" cy="31.5" r="3.8249999999999997" fill="url(#qr-gradient)"/>
<circle cx="112.5" cy="31.5" r="3.8249999999999997" fill="url(#qr-gradient)"/>
<circle cx="94.5" cy="40.5" r="3.8249999999999997" fill="url(#qr-gradient)"/>
<circle cx="112.5" cy="40.5" r="3.8249999999999997" fill="url(#qr-gradient)"/>
<circle cx="121.5" cy="40.5" r="3.8249999999999997" fill="url(#qr-gradient)"/>
<circle cx="103.5" cy="49.5" r="3.8249999999999997" fill="url(#qr-gradient)"/>
<circle cx="112.5" cy="49.5" r="3.8249999999999997" fill="url(#qr-gradient)"/>
<circle cx="94.5" cy="58.5" r="3.8249999999999997" fill="url(#qr-gradient)"/>
<circle cx="130.5" cy="58.5" r="3.8249999999999997" fill="url(#qr-gradient)"/>
<circle cx="103.5" cy="67.5" r="3.8249999999999997" fill="url(#qr-gradient)"/>
<circle cx="130.5" cy="67.5" r="3.8249999999999997" fill="url(#qr-gradient)"/>
<circle cx="94.5" cy="76.5" r="3.8249999999999997" fill="url(#qr-gradient)"/>
<circle cx="112.5" cy="76.5" r="3.8249999999999997" fill="url(#qr-gradient)"/>
<circle cx="130.5" cy="76.5" r="3.8249999999999997" fill="url(#qr-gradient)"/>
<circle cx="103.5" cy="85.5" r="3.8249999999999997" fill="url(#qr-gradient)"/>
<circle cx="112.5" cy="85.5" r="3.8249999999999997" fill="url(#qr-gradient)"/>
<circle cx="121.5" cy="85.5" r="3.8249999999999997" fill="url(#qr-gradient)"/>
<circle cx="130.5" cy="85.5" r="3.8249999999999997" fill="url(#qr-gradient)"/>
<circle cx="31.5" cy="94.5" r="3.8249999999999997" fill="url(#qr-gradient)"/>
<circle cx="58.5" cy="94.5" r="3.8249999999999997" fill="url(#qr-gradient)"/>
<circle cx="76.5" cy="94.5" r="3.8249999999999997" fill="url(#qr-gradient)"/>
<circle cx="112.5" cy="94.5" r="3.8249999999999997" fill="url(#qr-gradient)"/>
<circle cx="121.5" cy="94.5" r="3.8249999999999997" fill="url(#qr-gradient)"/>
<circle cx="166.5" cy="94.5" r="3.8249999999999997" fill="url(#qr-gradient)"/>
<circle cx="193.5" cy="94.5" r="3.8249999999999997" fill="url(#qr-gradient)"/>
<circle cx="22.5" cy="103.5" r="3.8249999999999997" fill="url(#qr-gradient)"/>
<circle cx="31.5" cy="103.5" r="3.8249999999999997" fill="url(#qr-gradient)"/>
<circle cx="58.5" cy="103.5" r="3.8249999999999997" fill="url(#qr-gradient)"/>
<circle cx="94.5" cy="103.5" r="3.8249999999999997" fill="url(#qr-gradient)"/>
<circle cx="148.5" cy="103.5" r="3.8249999999999997" fill="url(#qr-gradient)"/>
<circle cx="175.5" cy="103.5" r="3.8249999999999997" fill="url(#qr-gradient)"/>
<circle cx="184.5" cy="103.5" r="3.8249999999999997" fill="url(#qr-gradient)"/>
<circle cx="193.5" cy="103.5" r="3.8249999999999997" fill="url(#qr-gradient)"/>
<circle cx="22.5" cy="112.5" r="3.8249999999999997" fill="url(#qr-gradient)"/>
<circle cx="40.5" cy="112.5" r="3.8249999999999997" fill="url(#qr-gradient)"/>
<circle cx="49.5" cy="112.5" r="3.8249999999999997" fill="url(#qr-gradient)"/>
<circle cx="58.5" cy="112.5" r="3.8249999999999997" fill="url(#qr-gradient)"/>
<circle cx="76.5" cy="112.5" r="3.8249999999999997" fill="url(#qr-gradient)"/>
<circle cx="94.5" cy="112.5" r="3.8249999999999997" fill="url(#qr-gradient)"/>
<circle cx="112.5" cy="112.5" r="3.8249999999999997" fill="url(#qr-gradient)"/>
<circle cx="130.5" cy="112.5" r="3.8249999999999997" fill="url(#qr-gradient)"/>
<circle cx="166.5" cy="112.5" r="3.8249999999999997" fill="url(#qr-gradient)"/>
<circle cx="175.5" cy="112.5" r="3.8249999999999997" fill="url(#qr-gradient)"/>
<circle cx="184.5" cy="112.5" r="3.8249999999999997" fill="url(#qr-gradient)"/>
<circle cx="193.5" cy="112.5" r="3.8249999999999997" fill="url(#qr-gradient)"/>
<circle cx="202.5" cy="112.5" r="3.8249999999999997" fill="url(#qr-gradient)"/>
<circle cx="22.5" cy="121.5" r="3.8249999999999997" fill="url(#qr-gradient)"/>
<circle cx="94.5" cy="121.5" r="3.8249999999999997" fill="url(#qr-gradient)"/>
<circle cx="148.5" cy="121.5" r="3.8249999999999997" fill="url(#qr-gradient)"/>
<circle cx="175.5" cy="121.5" r="3.8249999999999997" fill="url(#qr-gradient)"/>
<circle cx="184.5" cy="121.5" r="3.8249999999999997" fill="url(#qr-gradient)"/>
<circle cx="193.5" cy="121.5" r="3.8249999999999997" fill="url(#qr-gradient)"/>
<circle cx="202.5" cy="121.5" r="3.8249999999999997" fill="url(#qr-gradient)"/>
<circle cx="31.5" cy="130.5" r="3.8249999999999997" fill="url(#qr-gradient)"/>
<circle cx="40.5" cy="130.5" r="3.8249999999999997" fill="url(#qr-gradient)"/>
<circle cx="58.5" cy="130.5" r="3.8249999999999997" fill="url(#qr-gradient)"/>
<circle cx="76.5" cy="130.5" r="3.8249999999999997" fill="url(#qr-gradient)"/>
<circle cx="94.5" cy="130.5" r="3.8249999999999997" fill="url(#qr-gradient)"/>
<circle cx="130.5" cy="130.5" r="3.8249999999999997" fill="url(#qr-gradient)"/>
<circle cx="148.5" cy="130.5" r="3.8249999999999997" fill="url(#qr-gradient)"/>
<circle cx="166.5" cy="130.5" r="3.8249999999999997" fill="url(#qr-gradient)"/>
<circle cx="94.5" cy="139.5" r="3.8249999999999997" fill="url(#qr-gradient)"/>
<circle cx="121.5" cy="139.5" r="3.8249999999999997" fill="url(#qr-gradient)"/>
<circle cx="139.5" cy="139.5" r="3.8249999999999997" fill="url(#qr-gradient)"/>
<circle cx="157.5" cy="139.5" r="3.8249999999999997" fill="url(#qr-gradient)"/>
<circle cx="184.5" cy="139.5" r="3.8249999999999997" fill="url(#qr-gradient)"/>
<circle cx="193.5" cy="139.5" r="3.8249999999999997" fill="url(#qr-gradient)"/>
<circle cx="112.5" cy="148.5" r="3.8249999999999997" fill="url(#qr-gradient)"/>
<circle cx="121.5" cy="148.5" r="3.8249999999999997" fill="url(#qr-gradient)"/>
<circle cx="139.5" cy="148.5" r="3.8249999999999997" fill="url(#qr-gradient)"/>
<circle cx="148.5" cy="148.5" r="3.8249999999999997" fill="url(#qr-gradient)"/>
<circle cx="157.5" cy="148.5" r="3.8249999999999997" fill="url(#qr-gradient)"/>
<circle cx="193.5" cy="148.5" r="3.8249999999999997" fill="url(#qr-gradient)"/>
<circle cx="202.5" cy="148.5" r="3.8249999999999997" fill="url(#qr-gradient)"/>
<circle cx="121.5" cy="157.5" r="3.8249999999999997" fill="url(#qr-gradient)"/>
<circle cx="130.5" cy="157.5" r="3.8249999999999997" fill="url(#qr-gradient)"/>
<circle cx="139.5" cy="157.5" r="3.8249999999999997" fill="url(#qr-gradient)"/>
<circle cx="157.5" cy="157.5" r="3.8249999999999997" fill="url(#qr-gradient)"/>
<circle cx="166.5" cy="157.5" r="3.8249999999999997" fill="url(#qr-gradient)"/>
<circle cx="175.5" cy="157.5" r="3.8249999999999997" fill="url(#qr-gradient)"/>
<circle cx="184.5" cy="157.5" r="3.8249999999999997" fill="url(#qr-gradient)"/>
<circle cx="202.5" cy="157.5" r="3.8249999999999997" fill="url(#qr-gradient)"/>
<circle cx="94.5" cy="166.5" r="3.8249999999999997" fill="url(#qr-gradient)"/>
<circle cx="121.5" cy="166.5" r="3.8249999999999997" fill="url(#qr-gradient)"/>
<circle cx="139.5" cy="166.5" r="3.8249999999999997" fill="url(#qr-gradient)"/>
<circle cx="148.5" cy="166.5" r="3.8249999999999997" fill="url(#qr-gradient)"/>
<circle cx="157.5" cy="166.5" r="3.8249999999999997" fill="url(#qr-gradient)"/>
<circle cx="202.5" cy="166.5" r="3.8249999999999997" fill="url(#qr-gradient)"/>
<circle cx="103.5" cy="175.5" r="3.8249999999999997" fill="url(#qr-gradient)"/>
<circle cx="112.5" cy="175.5" r="3.8249999999999997" fill="url(#qr-gradient)"/>
<circle cx="148.5" cy="175.5" r="3.8249999999999997" fill="url(#qr-gradient)"/>
<circle cx="157.5" cy="175.5" r="3.8249999999999997" fill="url(#qr-gradient)"/>
<circle cx="193.5" cy="175.5" r="3.8249999999999997" fill="url(#qr-gradient)"/>
<circle cx="94.5" cy="184.5" r="3.8249999999999997" fill="url(#qr-gradient)"/>
<circle cx="103.5" cy="184.5" r="3.8249999999999997" fill="url(#qr-gradient)"/>
<circle cx="130.5" cy="184.5" r="3.8249999999999997" fill="url(#qr-gradient)"/>
<circle cx="166.5" cy="184.5" r="3.8249999999999997" fill="url(#qr-gradient)"/>
<circle cx="175.5" cy="184.5" r="3.8249999999999997" fill="url(#qr-gradient)"/>
<circle cx="184.5" cy="184.5" r="3.8249999999999997" fill="url(#qr-gradient)"/>
<circle cx="202.5" cy="184.5" r="3.8249999999999997" fill="url(#qr-gradient)"/>
<circle cx="103.5" cy="193.5" r="3.8249999999999997" fill="url(#qr-gradient)"/>
<circle cx="148.5" cy="193.5" r="3.8249999999999997" fill="url(#qr-gradient)"/>
<circle cx="157.5" cy="193.5" r="3.8249999999999997" fill="url(#qr-gradient)"/>
<circle cx="184.5" cy="193.5" r="3.8249999999999997" fill="url(#qr-gradient)"/>
<circle cx="193.5" cy="193.5" r="3.8249999999999997" fill="url(#qr-gradient)"/>
<circle cx="202.5" cy="193.5" r="3.8249999999999997" fill="url(#qr-gradient)"/>
<circle cx="94.5" cy="202.5" r="3.8249999999999997" fill="url(#qr-gradient)"/>
<circle cx="130.5" cy="202.5" r="3.8249999999999997" fill="url(#qr-gradient)"/>
<circle cx="148.5" cy="202.5" r="3.8249999999999997" fill="url(#qr-gradient)"/>
<circle cx="166.5" cy="202.5" r="3.8249999999999997" fill="url(#qr-gradient)"/>
<circle cx="184.5" cy="202.5" r="3.8249999999999997" fill="url(#qr-gradient)"/>
<circle cx="202.5" cy="202.5" r="3.8249999999999997" fill="url(#qr-gradient)"/>
<rect x="18" y="18" width="9" height="9" fill="url(#qr-gradient)"/>
<rect x="27" y="18" width="9" height="9" fill="url(#qr-gradient)"/>
<rect x="36" y="18" width="9" height="9" fill="url(#qr-gradient)"/>
<rect x="45" y="18" width="9" height="9" fill="url(#qr-gradient)"/>
<rect x="54" y="18" width="9" height="9" fill="url(#qr-gradient)"/>
<rect x="63" y="18" width="9" height="9" fill="url(#qr-gradient)"/>
<rect x="72" y="18" width="9" height="9" fill="url(#qr-gradient)"/>
<rect x="144" y="18" width="9" height="9" fill="url(#qr-gradient)"/>
<rect x="153" y="18" width="9" height="9" fill="url(#qr-gradient)"/>
<rect x="162" y="18" width="9" height="9" fill="url(#qr-gradient)"/>
<rect x="171" y="18" width="9" height="9" fill="url(#qr-gradient)"/>
<rect x="180" y="18" width="9" height="9" fill="url(#qr-gradient)"/>
<rect x="189" y="18" width="9" height="9" fill="url(#qr-gradient)"/>
<rect x="198" y="18" width="9" height="9" fill="url(#qr-gradient)"/>
<rect x="18" y="27" width="9" height="9" fill="url(#qr-gradient)"/>
<rect x="72" y="27" width="9" height="9" fill="url(#qr-gradient)"/>
<rect x="144" y="27" width="9" height="9" fill="url(#qr-gradient)"/>
<rect x="198" y="27" width="9" height="9" fill="url(#qr-gradient)"/>
<rect x="18" y="36" width="9" height="9" fill="url(#qr-gradient)"/>
<rect x="36" y="36" width="9" height="9" fill="url(#qr-gradient)"/>
<rect x="45" y="36" width="9" height="9" fill="url(#qr-gradient)"/>
<rect x="54" y="36" width="9" height="9" fill="url(#qr-gradient)"/>
<rect x="72" y="36" width="9" height="9" fill="url(#qr-gradient)"/>
<rect x="144" y="36" width="9" height="9" fill="url(#qr-gradient)"/>
<rect x="162" y="36" width="9" height="9" fill="url(#qr-gradient)"/>
<rect x="171" y="36" width="9" height="9" fill="url(#qr-gradient)"/>
<rect x="180" y="36" width="9" height="9" fill="url(#qr-gradient)"/>
<rect x="198" y="36" width="9" height="9" fill="url(#qr-gradient)"/>
<rect x="18" y="45" width="9" height="9" fill="url(#qr-gradient)"/>
<rect x="36" y="45" width="9" height="9" fill="url(#qr-gradient)"/>
<rect x="45" y="45" width="9" height="9" fill="url(#qr-gradient)"/>
<rect x="54" y="45" width="9" height="9" fill="url(#qr-gradient)"/>
<rect x="72" y="45" width="9" height="9" fill="url(#qr-gradient)"/>
<rect x="144" y="45" width="9" height="9" fill="url(#qr-gradient)"/>
<rect x="162" y="45" width="9" height="9" fill="url(#qr-gradient)"/>
<rect x="171" y="45" width="9" height="9" fill="url(#qr-gradient)"/>
<rect x="180" y="45" width="9" height="9" fill="url(#qr-gradient)"/>
<rect x="198" y="45" width="9" height="9" fill="url(#qr-gradient)"/>
<rect x="18" y="54" width="9" height="9" fill="url(#qr-gradient)"/>
<rect x="36" y="54" width="9" height="9" fill="url(#qr-gradient)"/>
<rect x="45" y="54" width="9" height="9" fill="url(#qr-gradient)"/>
<rect x="54" y="54" width="9" height="9" fill="url(#qr-gradient)"/>
<rect x="72" y="54" width="9" height="9" fill="url(#qr-gradient)"/>
<rect x="144" y="54" width="9" height="9" fill="url(#qr-gradient)"/>
<rect x="162" y="54" width="9" height="9" fill="url(#qr-gradient)"/>
<rect x="171" y="54" width="9" height="9" fill="url(#qr-gradient)"/>
<rect x="180" y="54" width="9" height="9" fill="url(#qr-gradient)"/>
<rect x="198" y="54" width="9" height="9" fill="url(#qr-gradient)"/>
<rect x="18" y="63" width="9" height="9" fill="url(#qr-gradient)"/>
<rect x="72" y="63" width="9" height="9" fill="url(#qr-gradient)"/>
<rect x="144" y="63" width="9" height="9" fill="url(#qr-gradient)"/>
<rect x="198" y="63" width="9" height="9" fill="url(#qr-gradient)"/>
<rect x="18" y="72" width="9" height="9" fill="url(#qr-gradient)"/>
<rect x="27" y="72" width="9" height="9" fill="url(#qr-gradient)"/>
<rect x="36" y="72" width="9" height="9" fill="url(#qr-gradient)"/>
<rect x="45" y="72" width="9" height="9" fill="url(#qr-gradient)"/>
<rect x="54" y="72" width="9" height="9" fill="url(#qr-gradient)"/>
<rect x="63" y="72" width="9" height="9" fill="url(#qr-gradient)"/>
<rect x="72" y="72" width="9" height="9" fill="url(#qr-gradient)"/>
<rect x="144" y="72" width="9" height="9" fill="url(#qr-gradient)"/>
<rect x="153" y="72" width="9" height="9" fill="url(#qr-gradient)"/>
<rect x="162" y="72" width="9" height="9" fill="url(#qr-gradient)"/>
<rect x="171" y="72" width="9" height="9" fill="url(#qr-gradient)"/>
<rect x="180" y="72" width="9" height="9" fill="url(#qr-gradient)"/>
<rect x="189" y="72" width="9" height="9" fill="url(#qr-gradient)"/>
<rect x="198" y="72" width="9" height="9" fill="url(#qr-gradient)"/>
<rect x="18" y="144" width="9" height="9" fill="url(#qr-gradient)"/>
<rect x="27" y="144" width="9" height="9" fill="url(#qr-gradient)"/>
<rect x="36" y="144" width="9" height="9" fill="url(#qr-gradient)"/>
<rect x="45" y="144" width="9" height="9" fill="url(#qr-gradient)"/>
<rect x="54" y="144" width="9" height="9" fill="url(#qr-gradient)"/>
<rect x="63" y="144" width="9" height="9" fill="url(#qr-gradient)"/>
<rect x="72" y="144" width="9" height="9" fill="url(#qr-gradient)"/>
<rect x="18" y="153" width="9" height="9" fill="url(#qr-gradient)"/>
<rect x="72" y="153" width="9" height="9" fill="url(#qr-gradient)"/>
<rect x="18" y="162" width="9" height="9" fill="url(#qr-gradient)"/>
<rect x="36" y="162" width="9" height="9" fill="url(#qr-gradient)"/>
<rect x="45" y="162" width="9" height="9" fill="url(#qr-gradient)"/>
<rect x="54" y="162" width="9" height="9" fill="url(#qr-gradient)"/>
<rect x="72" y="162" width="9" height="9" fill="url(#qr-gradient)"/>
<rect x="18" y="171" width="9" height="9" fill="url(#qr-gradient)"/>
<rect x="36" y="171" width="9" height="9" fill="url(#qr-gradient)"/>
<rect x="45" y="171" width="9" height="9" fill="url(#qr-gradient)"/>
<rect x="54" y="171" width="9" height="9" fill="url(#qr-gradient)"/>
<rect x="72" y="171" width="9" height="9" fill="url(#qr-gradient)"/>
<rect x="18" y="180" width="9" height="9" fill="url(#qr-gradient)"/>
<rect x="36" y="180" width="9" height="9" fill="url(#qr-gradient)"/>
<rect x="45" y="180" width="9" height="9" fill="url(#qr-gradient)"/>
<rect x="54" y="180" width="9" height="9" fill="url(#qr-gradient)"/>
<rect x="72" y="180" width="9" height="9" fill="url(#qr-gradient)"/>
<rect x="18" y="189" width="9" height="9" fill="url(#qr-gradient)"/>
<rect x="72" y="189" width="9" height="9" fill="url(#qr-gradient)"/>
<rect x="18" y="198" width="9" height="9" fill="url(#qr-gradient)"/>
<rect x="27" y="198" width="9" height="9" fill="url(#qr-gradient)"/>
<rect x="36" y="198" width="9" height="9" fill="url(#qr-gradient)"/>
<rect x="45" y="198" width="9" height="9" fill="url(#qr-gradient)"/>
<rect x="54" y="198" width="9" height="9" fill="url(#qr-gradient)"/>
<rect x="63" y="198" width="9" height="9" fill="url(#qr-gradient)"/>
<rect x="72" y="198" width="9" height="9" fill="url(#qr-gradient)"/>
</svg>
