<?xml version="1.0" encoding="UTF-8"?>
<svg xmlns="http://www.w3.org/2000/svg" version="1.1" width="264" height="264" viewBox="0 0 264 264">
<rect width="100%" height="100%" fill="#ffffff"/>
<rect x="88" y="16" width="8" height="8" rx="2.4" ry="2.4" fill="#000000"/>
<rect x="104" y="16" width="8" height="8" rx="2.4" ry="2.4" fill="#000000"/>
<rect x="112" y="16" width="8" height="8" rx="2.4" ry="2.4" fill="#000000"/>
<rect x="120" y="16" width="8" height="8" rx="2.4" ry="2.4" fill="#000000"/>
<rect x="144" y="16" width="8" height="8" rx="2.4" ry="2.4" fill="#000000"/>
<rect x="160" y="16" width="8" height="8" rx="2.4" ry="2.4" fill="#000000"/>
<rect x="168" y="16" width="8" height="8" rx="2.4" ry="2.4" fill="#000000"/>
<rect x="176" y="16" width="8" height="8" rx="2.4" ry="2.4" fill="#000000"/>
<rect x="88" y="24" width="8" height="8" rx="2.4" ry="2.4" fill="#000000"/>
<rect x="96" y="24" width="8" height="8" rx="2.4" ry="2.4" fill="#000000"/>
<rect x="120" y="24" width="8" height="8" rx="2.4" ry="2.4" fill="#000000"/>
<rect x="128" y="24" width="8" height="8" rx="2.4" ry="2.4" fill="#000000"/>
<rect x="144" y="24" width="8" height="8" rx="2.4" ry="2.4" fill="#000000"/>
<rect x="160" y="24" width="8" height="8" rx="2.4" ry="2.4" fill="#000000"/>
<rect x="168" y="24" width="8" height="8" rx="2.4" ry="2.4" fill="#000000"/>
<rect x="96" y="32" width="8" height="8" rx="2.4" ry="2.4" fill="#000000"/>
<rect x="104" y="32" width="8" height="8" rx="2.4" ry="2.4" fill="#000000"/>
<rect x="112" y="32" width="8" height="8" rx="2.4" ry="2.4" fill="#000000"/>
<rect x="128" y="32" width="8" height="8" rx="2.4" ry="2.4" fill="#000000"/>
<rect x="176" y="32" width="8" height="8" rx="2.4" ry="2.4" fill="#000000"/>
<rect x="80" y="40" width="8" height="8" rx="2.4" ry="2.4" fill="#000000"/>
<rect x="112" y="40" width="8" height="8" rx="2.4" ry="2.4" fill="#000000"/>
<rect x="120" y="40" width="8" height="8" rx="2.4" ry="2.4" fill="#000000"/>
<rect x="128" y="40" width="8" height="8" rx="2.4" ry="2.4" fill="#000000"/>
<rect x="136" y="40" width="8" height="8" rx="2.4" ry="2.4" fill="#000000"/>
<rect x="144" y="40" width="8" height="8" rx="2.4" ry="2.4" fill="#000000"/>
<rect x="152" y="40" width="8" height="8" rx="2.4" ry="2.4" fill="#000000"/>
<rect x="176" y="40" width="8" height="8" rx="2.4" ry="2.4" fill="#000000"/>
<rect x="80" y="48" width="8" height="8" rx="2.4" ry="2.4" fill="#000000"/>
<rect x="88" y="48" width="8" height="8" rx="2.4" ry="2.4" fill="#000000"/>
<rect x="96" y="48" width="8" height="8" rx="2.4" ry="2.4" fill="#000000"/>
<rect x="104" y="48" width="8" height="8" rx="2.4" ry="2.4" fill="#000000"/>
<rect x="112" y="48" width="8" height="8" rx="2.4" ry="2.4" fill="#000000"/>
<rect x="128" y="48" width="8" height="8" rx="2.4" ry="2.4" fill="#000000"/>
<rect x="144" y="48" width="8" height="8" rx="2.4" ry="2.4" fill="#000000"/>
<rect x="168" y="48" width="8" height="8" rx="2.4" ry="2.4" fill="#000000"/>
<rect x="88" y="56" width="8" height="8" rx="2.4" ry="2.4" fill="#000000"/>
<rect x="80" y="64" width="8" height="8" rx="2.4" ry="2.4" fill="#000000"/>
<rect x="96" y="64" width="8" height="8" rx="2.4" ry="2.4" fill="#000000"/>
<rect x="112" y="64" width="8" height="8" rx="2.4" ry="2.4" fill="#000000"/>
<rect x="128" y="64" width="8" height="8" rx="2.4" ry="2.4" fill="#000000"/>
<rect x="144" y="64" width="8" height="8" rx="2.4" ry="2.4" fill="#000000"/>
<rect x="160" y="64" width="8" height="8" rx="2.4" ry="2.4" fill="#000000"/>
<rect x="176" y="64" width="8" height="8" rx="2.4" ry="2.4" fill="#000000"/>
<rect x="80" y="72" width="8" height="8" rx="2.4" ry="2.4" fill="#000000"/>
<rect x="88" y="72" width="8" height="8" rx="2.4" ry="2.4" fill="#000000"/>
<rect x="96" y="72" width="8" height="8" rx="2.4" ry="2.4" fill="#000000"/>
<rect x="112" y="72" width="8" height="8" rx="2.4" ry="2.4" fill="#000000"/>
<rect x="120" y="72" width="8" height="8" rx="2.4" ry="2.4" fill="#000000"/>
<rect x="144" y="72" width="8" height="8" rx="2.4" ry="2.4" fill="#000000"/>
<rect x="152" y="72" width="8" height="8" rx="2.4" ry="2.4" fill="#000000"/>
<rect x="160" y="72" width="8" height="8" rx="2.4" ry="2.4" fill="#000000"/>
<rect x="168" y="72" width="8" height="8" rx="2.4" ry="2.4" fill="#000000"/>
<rect x="32" y="80" width="8" height="8" rx="2.4" ry="2.4" fill="#000000"/>
<rect x="40" y="80" width="8" height="8" rx="2.4" ry="2.4" fill="#000000"/>
<rect x="64" y="80" width="8" height="8" rx="2.4" ry="2.4" fill="#000000"/>
<rect x="104" y="80" width="8" height="8" rx="2.4" ry="2.4" fill="#000000"/>
<rect x="128" y="80" width="8" height="8" rx="2.4" ry="2.4" fill="#000000"/>
<rect x="136" y="80" width="8" height="8" rx="2.4" ry="2.4" fill="#000000"/>
<rect x="216" y="80" width="8" height="8" rx="2.4" ry="2.4" fill="#000000"/>
<rect x="224" y="80" width="8" height="8" rx="2.4" ry="2.4" fill="#000000"/>
<rect x="16" y="88" width="8" height="8" rx="2.4" ry="2.4" fill="#000000"/>
<rect x="32" y="88" width="8" height="8" rx="2.4" ry="2.4" fill="#000000"/>
<rect x="40" y="88" width="8" height="8" rx="2.4" ry="2.4" fill="#000000"/>
<rect x="48" y="88" width="8" height="8" rx="2.4" ry="2.4" fill="#000000"/>
<rect x="200" y="88" width="8" height="8" rx="2.4" ry="2.4" fill="#000000"/>
<rect x="208" y="88" width="8" height="8" rx="2.4" ry="2.4" fill="#000000"/>
<rect x="224" y="88" width="8" height="8" rx="2.4" ry="2.4" fill="#000000"/>
<rect x="232" y="88" width="8" height="8" rx="2.4" ry="2.4" fill="#000000"/>
<rect x="48" y="96" width="8" height="8" rx="2.4" ry="2.4" fill="#000000"/>
<rect x="64" y="96" width="8" height="8" rx="2.4" ry="2.4" fill="#000000"/>
<rect x="72" y="96" width="8" height="8" rx="2.4" ry="2.4" fill="#000000"/>
<rect x="80" y="96" width="8" height="8" rx="2.4" ry="2.4" fill="#000000"/>
<rect x="176" y="96" width="8" height="8" rx="2.4" ry="2.4" fill="#000000"/>
<rect x="184" y="96" width="8" height="8" rx="2.4" ry="2.4" fill="#000000"/>
<rect x="192" y="96" width="8" height="8" rx="2.4" ry="2.4" fill="#000000"/>
<rect x="200" y="96" width="8" height="8" rx="2.4" ry="2.4" fill="#000000"/>
<rect x="24" y="104" width="8" height="8" rx="2.4" ry="2.4" fill="#000000"/>
<rect x="32" y="104" width="8" height="8" rx="2.4" ry="2.4" fill="#000000"/>
<rect x="40" y="104" width="8" height="8" rx="2.4" ry="2.4" fill="#000000"/>
<rect x="56" y="104" width="8" height="8" rx="2.4" ry="2.4" fill="#000000"/>
<rect x="240" y="104" width="8" height="8" rx="2.4" ry="2.4" fill="#000000"/>
<rect x="16" y="112" width="8" height="8" rx="2.4" ry="2.4" fill="#000000"/>
<rect x="24" y="112" width="8" height="8" rx="2.4" ry="2.4" fill="#000000"/>
<rect x="32" y="112" width="8" height="8" rx="2.4" ry="2.4" fill="#000000"/>
<rect x="40" y="112" width="8" height="8" rx="2.4" ry="2.4" fill="#000000"/>
<rect x="48" y="112" width="8" height="8" rx="2.4" ry="2.4" fill="#000000"/>
<rect x="64" y="112" width="8" height="8" rx="2.4" ry="2.4" fill="#000000"/>
<rect x="72" y="112" width="8" height="8" rx="2.4" ry="2.4" fill="#000000"/>
<rect x="80" y="112" width="8" height="8" rx="2.4" ry="2.4" fill="#000000"/>
<rect x="176" y="112" width="8" height="8" rx="2.4" ry="2.4" fill="#000000"/>
<rect x="184" y="112" width="8" height="8" rx="2.4" ry="2.4" fill="#000000"/>
<rect x="192" y="112" width="8" height="8" rx="2.4" ry="2.4" fill="#000000"/>
<rect x="216" y="112" width="8" height="8" rx="2.4" ry="2.4" fill="#000000"/>
<rect x="232" y="112" width="8" height="8" rx="2.4" ry="2.4" fill="#000000"/>
<rect x="16" y="120" width="8" height="8" rx="2.4" ry="2.4" fill="#000000"/>
<rect x="56" y="120" width="8" height="8" rx="2.4" ry="2.4" fill="#000000"/>
<rect x="72" y="120" width="8" height="8" rx="2.4" ry="2.4" fill="#000000"/>
<rect x="192" y="120" width="8" height="8" rx="2.4" ry="2.4" fill="#000000"/>
<rect x="208" y="120" width="8" height="8" rx="2.4" ry="2.4" fill="#000000"/>
<rect x="224" y="120" width="8" height="8" rx="2.4" ry="2.4" fill="#000000"/>
<rect x="232" y="120" width="8" height="8" rx="2.4" ry="2.4" fill="#000000"/>
<rect x="240" y="120" width="8" height="8" rx="2.4" ry="2.4" fill="#000000"/>
<rect x="24" y="128" width="8" height="8" rx="2.4" ry="2.4" fill="#000000"/>
<rect x="32" y="128" width="8" height="8" rx="2.4" ry="2.4" fill="#000000"/>
<rect x="48" y="128" width="8" height="8" rx="2.4" ry="2.4" fill="#000000"/>
<rect x="64" y="128" width="8" height="8" rx="2.4" ry="2.4" fill="#000000"/>
<rect x="80" y="128" width="8" height="8" rx="2.4" ry="2.4" fill="#000000"/>
<rect x="176" y="128" width="8" height="8" rx="2.4" ry="2.4" fill="#000000"/>
<rect x="192" y="128" width="8" height="8" rx="2.4" ry="2.4" fill="#000000"/>
<rect x="200" y="128" width="8" height="8" rx="2.4" ry="2.4" fill="#000000"/>
<rect x="216" y="128" width="8" height="8" rx="2.4" ry="2.4" fill="#000000"/>
<rect x="240" y="128" width="8" height="8" rx="2.4" ry="2.4" fill="#000000"/>
<rect x="16" y="136" width="8" height="8" rx="2.4" ry="2.4" fill="#000000"/>
<rect x="48" y="136" width="8" height="8" rx="2.4" ry="2.4" fill="#000000"/>
<rect x="56" y="136" width="8" height="8" rx="2.4" ry="2.4" fill="#000000"/>
<rect x="80" y="136" width="8" height="8" rx="2.4" ry="2.4" fill="#000000"/>
<rect x="184" y="136" width="8" height="8" rx="2.4" ry="2.4" fill="#000000"/>
<rect x="208" y="136" width="8" height="8" rx="2.4" ry="2.4" fill="#000000"/>
<rect x="216" y="136" width="8" height="8" rx="2.4" ry="2.4" fill="#000000"/>
<rect x="224" y="136" width="8" height="8" rx="2.4" ry="2.4" fill="#000000"/>
<rect x="232" y="136" width="8" height="8" rx="2.4" ry="2.4" fill="#000000"/>
<rect x="240" y="136" width="8" height="8" rx="2.4" ry="2.4" fill="#000000"/>
<rect x="16" y="144" width="8" height="8" rx="2.4" ry="2.4" fill="#000000"/>
<rect x="24" y="144" width="8" height="8" rx="2.4" ry="2.4" fill="#000000"/>
<rect x="48" y="144" width="8" height="8" rx="2.4" ry="2.4" fill="#000000"/>
<rect x="56" y="144" width="8" height="8" rx="2.4" ry="2.4" fill="#000000"/>
<rect x="64" y="144" width="8" height="8" rx="2.4" ry="2.4" fill="#000000"/>
<rect x="184" y="144" width="8" height="8" rx="2.4" ry="2.4" fill="#000000"/>
<rect x="200" y="144" width="8" height="8" rx="2.4" ry="2.4" fill="#000000"/>
<rect x="216" y="144" width="8" height="8" rx="2.4" ry="2.4" fill="#000000"/>
<rect x="232" y="144" width="8" height="8" rx="2.4" ry="2.4" fill="#000000"/>
<rect x="240" y="144" width="8" height="8" rx="2.4" ry="2.4" fill="#000000"/>
<rect x="16" y="152" width="8" height="8" rx="2.4" ry="2.4" fill="#000000"/>
<rect x="32" y="152" width="8" height="8" rx="2.4" ry="2.4" fill="#000000"/>
<rect x="40" y="152" width="8" height="8" rx="2.4" ry="2.4" fill="#000000"/>
<rect x="48" y="152" width="8" height="8" rx="2.4" ry="2.4" fill="#000000"/>
<rect x="176" y="152" width="8" height="8" rx="2.4" ry="2.4" fill="#000000"/>
<rect x="208" y="152" width="8" height="8" rx="2.4" ry="2.4" fill="#000000"/>
<rect x="216" y="152" width="8" height="8" rx="2.4" ry="2.4" fill="#000000"/>
<rect x="224" y="152" width="8" height="8" rx="2.4" ry="2.4" fill="#000000"/>
<rect x="16" y="160" width="8" height="8" rx="2.4" ry="2.4" fill="#000000"/>
<rect x="24" y="160" width="8" height="8" rx="2.4" ry="2.4" fill="#000000"/>
<rect x="40" y="160" width="8" height="8" rx="2.4" ry="2.4" fill="#000000"/>
<rect x="48" y="160" width="8" height="8" rx="2.4" ry="2.4" fill="#000000"/>
<rect x="64" y="160" width="8" height="8" rx="2.4" ry="2.4" fill="#000000"/>
<rect x="72" y="160" width="8" height="8" rx="2.4" ry="2.4" fill="#000000"/>
<rect x="208" y="160" width="8" height="8" rx="2.4" ry="2.4" fill="#000000"/>
<rect x="224" y="160" width="8" height="8" rx="2.4" ry="2.4" fill="#000000"/>
<rect x="240" y="160" width="8" height="8" rx="2.4" ry="2.4" fill="#000000"/>
<rect x="16" y="168" width="8" height="8" rx="2.4" ry="2.4" fill="#000000"/>
<rect x="24" y="168" width="8" height="8" rx="2.4" ry="2.4" fill="#000000"/>
<rect x="40" y="168" width="8" height="8" rx="2.4" ry="2.4" fill="#000000"/>
<rect x="56" y="168" width="8" height="8" rx="2.4" ry="2.4" fill="#000000"/>
<rect x="80" y="168" width="8" height="8" rx="2.4" ry="2.4" fill="#000000"/>
<rect x="184" y="168" width="8" height="8" rx="2.4" ry="2.4" fill="#000000"/>
<rect x="192" y="168" width="8" height="8" rx="2.4" ry="2.4" fill="#000000"/>
<rect x="208" y="168" width="8" height="8" rx="2.4" ry="2.4" fill="#000000"/>
<rect x="224" y="168" width="8" height="8" rx="2.4" ry="2.4" fill="#000000"/>
<rect x="232" y="168" width="8" height="8" rx="2.4" ry="2.4" fill="#000000"/>
<rect x="240" y="168" width="8" height="8" rx="2.4" ry="2.4" fill="#000000"/>
<rect x="16" y="176" width="8" height="8" rx="2.4" ry="2.4" fill="#000000"/>
<rect x="24" y="176" width="8" height="8" rx="2.4" ry="2.4" fill="#000000"/>
<rect x="32" y="176" width="8" height="8" rx="2.4" ry="2.4" fill="#000000"/>
<rect x="40" y="176" width="8" height="8" rx="2.4" ry="2.4" fill="#000000"/>
<rect x="56" y="176" width="8" height="8" rx="2.4" ry="2.4" fill="#000000"/>
<rect x="64" y="176" width="8" height="8" rx="2.4" ry="2.4" fill="#000000"/>
<rect x="88" y="176" width="8" height="8" rx="2.4" ry="2.4" fill="#000000"/>
<rect x="96" y="176" width="8" height="8" rx="2.4" ry="2.4" fill="#000000"/>
<rect x="112" y="176" width="8" height="8" rx="2.4" ry="2.4" fill="#000000"/>
<rect x="120" y="176" width="8" height="8" rx="2.4" ry="2.4" fill="#000000"/>
<rect x="128" y="176" width="8" height="8" rx="2.4" ry="2.4" fill="#000000"/>
<rect x="136" y="176" width="8" height="8" rx="2.4" ry="2.4" fill="#000000"/>
<rect x="176" y="176" width="8" height="8" rx="2.4" ry="2.4" fill="#000000"/>
<rect x="184" y="176" width="8" height="8" rx="2.4" ry="2.4" fill="#000000"/>
<rect x="192" y="176" width="8" height="8" rx="2.4" ry="2.4" fill="#000000"/>
<rect x="200" y="176" width="8" height="8" rx="2.4" ry="2.4" fill="#000000"/>
<rect x="208" y="176" width="8" height="8" rx="2.4" ry="2.4" fill="#000000"/>
<rect x="216" y="176" width="8" height="8" rx="2.4" ry="2.4" fill="#000000"/>
<rect x="224" y="176" width="8" height="8" rx="2.4" ry="2.4" fill="#000000"/>
<rect x="240" y="176" width="8" height="8" rx="2.4" ry="2.4" fill="#000000"/>
<rect x="80" y="184" width="8" height="8" rx="2.4" ry="2.4" fill="#000000"/>
<rect x="88" y="184" width="8" height="8" rx="2.4" ry="2.4" fill="#000000"/>
<rect x="112" y="184" width="8" height="8" rx="2.4" ry="2.4" fill="#000000"/>
<rect x="136" y="184" width="8" height="8" rx="2.4" ry="2.4" fill="#000000"/>
<rect x="144" y="184" width="8" height="8" rx="2.4" ry="2.4" fill="#000000"/>
<rect x="160" y="184" width="8" height="8" rx="2.4" ry="2.4" fill="#000000"/>
<rect x="176" y="184" width="8" height="8" rx="2.4" ry="2.4" fill="#000000"/>
<rect x="208" y="184" width="8" height="8" rx="2.4" ry="2.4" fill="#000000"/>
<rect x="216" y="184" width="8" height="8" rx="2.4" ry="2.4" fill="#000000"/>
<rect x="224" y="184" width="8" height="8" rx="2.4" ry="2.4" fill="#000000"/>
<rect x="80" y="192" width="8" height="8" rx="2.4" ry="2.4" fill="#000000"/>
<rect x="104" y="192" width="8" height="8" rx="2.4" ry="2.4" fill="#000000"/>
<rect x="112" y="192" width="8" height="8" rx="2.4" ry="2.4" fill="#000000"/>
<rect x="120" y="192" width="8" height="8" rx="2.4" ry="2.4" fill="#000000"/>
<rect x="136" y="192" width="8" height="8" rx="2.4" ry="2.4" fill="#000000"/>
<rect x="144" y="192" width="8" height="8" rx="2.4" ry="2.4" fill="#000000"/>
<rect x="160" y="192" width="8" height="8" rx="2.4" ry="2.4" fill="#000000"/>
<rect x="168" y="192" width="8" height="8" rx="2.4" ry="2.4" fill="#000000"/>
<rect x="176" y="192" width="8" height="8" rx="2.4" ry="2.4" fill="#000000"/>
<rect x="192" y="192" width="8" height="8" rx="2.4" ry="2.4" fill="#000000"/>
<rect x="208" y="192" width="8" height="8" rx="2.4" ry="2.4" fill="#000000"/>
<rect x="224" y="192" width="8" height="8" rx="2.4" ry="2.4" fill="#000000"/>
<rect x="88" y="200" width="8" height="8" rx="2.4" ry="2.4" fill="#000000"/>
<rect x="96" y="200" width="8" height="8" rx="2.4" ry="2.4" fill="#000000"/>
<rect x="104" y="200" width="8" height="8" rx="2.4" ry="2.4" fill="#000000"/>
<rect x="120" y="200" width="8" height="8" rx="2.4" ry="2.4" fill="#000000"/>
<rect x="128" y="200" width="8" height="8" rx="2.4" ry="2.4" fill="#000000"/>
<rect x="168" y="200" width="8" height="8" rx="2.4" ry="2.4" fill="#000000"/>
<rect x="176" y="200" width="8" height="8" rx="2.4" ry="2.4" fill="#000000"/>
<rect x="208" y="200" width="8" height="8" rx="2.4" ry="2.4" fill="#000000"/>
<rect x="216" y="200" width="8" height="8" rx="2.4" ry="2.4" fill="#000000"/>
<rect x="240" y="200" width="8" height="8" rx="2.4" ry="2.4" fill="#000000"/>
<rect x="80" y="208" width="8" height="8" rx="2.4" ry="2.4" fill="#000000"/>
<rect x="96" y="208" width="8" height="8" rx="2.4" ry="2.4" fill="#000000"/>
<rect x="104" y="208" width="8" height="8" rx="2.4" ry="2.4" fill="#000000"/>
<rect x="120" y="208" width="8" height="8" rx="2.4" ry="2.4" fill="#000000"/>
<rect x="136" y="208" width="8" height="8" rx="2.4" ry="2.4" fill="#000000"/>
<rect x="144" y="208" width="8" height="8" rx="2.4" ry="2.4" fill="#000000"/>
<rect x="160" y="208" width="8" height="8" rx="2.4" ry="2.4" fill="#000000"/>
<rect x="168" y="208" width="8" height="8" rx="2.4" ry="2.4" fill="#000000"/>
<rect x="176" y="208" width="8" height="8" rx="2.4" ry="2.4" fill="#000000"/>
<rect x="184" y="208" width="8" height="8" rx="2.4" ry="2.4" fill="#000000"/>
<rect x="192" y="208" width="8" height="8" rx="2.4" ry="2.4" fill="#000000"/>
<rect x="200" y="208" width="8" height="8" rx="2.4" ry="2.4" fill="#000000"/>
<rect x="208" y="208" width="8" height="8" rx="2.4" ry="2.4" fill="#000000"/>
<rect x="232" y="208" width="8" height="8" rx="2.4" ry="2.4" fill="#000000"/>
<rect x="80" y="216" width="8" height="8" rx="2.4" ry="2.4" fill="#000000"/>
<rect x="88" y="216" width="8" height="8" rx="2.4" ry="2.4" fill="#000000"/>
<rect x="104" y="216" width="8" height="8" rx="2.4" ry="2.4" fill="#000000"/>
<rect x="120" y="216" width="8" height="8" rx="2.4" ry="2.4" fill="#000000"/>
<rect x="136" y="216" width="8" height="8" rx="2.4" ry="2.4" fill="#000000"/>
<rect x="152" y="216" width="8" height="8" rx="2.4" ry="2.4" fill="#000000"/>
<rect x="160" y="216" width="8" height="8" rx="2.4" ry="2.4" fill="#000000"/>
<rect x="200" y="216" width="8" height="8" rx="2.4" ry="2.4" fill="#000000"/>
<rect x="232" y="216" width="8" height="8" rx="2.4" ry="2.4" fill="#000000"/>
<rect x="96" y="224" width="8" height="8" rx="2.4" ry="2.4" fill="#000000"/>
<rect x="104" y="224" width="8" height="8" rx="2.4" ry="2.4" fill="#000000"/>
<rect x="128" y="224" width="8" height="8" rx="2.4" ry="2.4" fill="#000000"/>
<rect x="144" y="224" width="8" height="8" rx="2.4" ry="2.4" fill="#000000"/>
<rect x="176" y="224" width="8" height="8" rx="2.4" ry="2.4" fill="#000000"/>
<rect x="184" y="224" width="8" height="8" rx="2.4" ry="2.4" fill="#000000"/>
<rect x="200" y="224" width="8" height="8" rx="2.4" ry="2.4" fill="#000000"/>
<rect x="208" y="224" width="8" height="8" rx="2.4" ry="2.4" fill="#000000"/>
<rect x="216" y="224" width="8" height="8" rx="2.4" ry="2.4" fill="#000000"/>
<rect x="232" y="224" width="8" height="8" rx="2.4" ry="2.4" fill="#000000"/>
<rect x="240" y="224" width="8" height="8" rx="2.4" ry="2.4" fill="#000000"/>
<rect x="88" y="232" width="8" height="8" rx="2.4" ry="2.4" fill="#000000"/>
<rect x="96" y="232" width="8" height="8" rx="2.4" ry="2.4" fill="#000000"/>
<rect x="104" y="232" width="8" height="8" rx="2.4" ry="2.4" fill="#000000"/>
<rect x="144" y="232" width="8" height="8" rx="2.4" ry="2.4" fill="#000000"/>
<rect x="184" y="232" width="8" height="8" rx="2.4" ry="2.4" fill="#000000"/>
<rect x="208" y="232" width="8" height="8" rx="2.4" ry="2.4" fill="#000000"/>
<rect x="216" y="232" width="8" height="8" rx="2.4" ry="2.4" fill="#000000"/>
<rect x="224" y="232" width="8" height="8" rx="2.4" ry="2.4" fill="#000000"/>
<rect x="240" y="232" width="8" height="8" rx="2.4" ry="2.4" fill="#000000"/>
<rect x="104" y="240" width="8" height="8" rx="2.4" ry="2.4" fill="#000000"/>
<rect x="120" y="240" width="8" height="8" rx="2.4" ry="2.4" fill="#000000"/>
<rect x="144" y="240" width="8" height="8" rx="2.4" ry="2.4" fill="#000000"/>
<rect x="160" y="240" width="8" height="8" rx="2.4" ry="2.4" fill="#000000"/>
<rect x="168" y="240" width="8" height="8" rx="2.4" ry="2.4" fill="#000000"/>
<rect x="176" y="240" width="8" height="8" rx="2.4" ry="2.4" fill="#000000"/>
<rect x="184" y="240" width="8" height="8" rx="2.4" ry="2.4" fill="#000000"/>
<rect x="192" y="240" width="8" height="8" rx="2.4" ry="2.4" fill="#000000"/>
<rect x="200" y="240" width="8" height="8" rx="2.4" ry="2.4" fill="#000000"/>
<rect x="208" y="240" width="8" height="8" rx="2.4" ry="2.4" fill="#000000"/>
<rect x="16" y="16" width="8" height="8" fill="#4B275F"/>
<rect x="24" y="16" width="8" height="8" fill="#4B275F"/>
<rect x="32" y="16" width="8" height="8" fill="#4B275F"/>
<rect x="40" y="16" width="8" height="8" fill="#4B275F"/>
<rect x="48" y="16" width="8" height="8" fill="#4B275F"/>
<rect x="56" y="16" width="8" height="8" fill="#4B275F"/>
<rect x="64" y="16" width="8" height="8" fill="#4B275F"/>
<rect x="192" y="16" width="8" height="8" fill="#4B275F"/>
<rect x="200" y="16" width="8" height="8" fill="#4B275F"/>
<rect x="208" y="16" width="8" height="8" fill="#4B275F"/>
<rect x="216" y="16" width="8" height="8" fill="#4B275F"/>
<rect x="224" y="16" width="8" height="8" fill="#4B275F"/>
<rect x="232" y="16" width="8" height="8" fill="#4B275F"/>
<rect x="240" y="16" width="8" height="8" fill="#4B275F"/>
<rect x="16" y="24" width="8" height="8" fill="#4B275F"/>
<rect x="24" y="24" width="8" height="8" fill="#FFFFFF"/>
<rect x="32" y="24" width="8" height="8" fill="#FFFFFF"/>
<rect x="40" y="24" width="8" height="8" fill="#FFFFFF"/>
<rect x="48" y="24" width="8" height="8" fill="#FFFFFF"/>
<rect x="56" y="24" width="8" height="8" fill="#FFFFFF"/>
<rect x="64" y="24" width="8" height="8" fill="#4B275F"/>
<rect x="192" y="24" width="8" height="8" fill="#4B275F"/>
<rect x="200" y="24" width="8" height="8" fill="#FFFFFF"/>
<rect x="208" y="24" width="8" height="8" fill="#FFFFFF"/>
<rect x="216" y="24" width="8" height="8" fill="#FFFFFF"/>
<rect x="224" y="24" width="8" height="8" fill="#FFFFFF"/>
<rect x="232" y="24" width="8" height="8" fill="#FFFFFF"/>
<rect x="240" y="24" width="8" height="8" fill="#4B275F"/>
<rect x="16" y="32" width="8" height="8" fill="#4B275F"/>
<rect x="24" y="32" width="8" height="8" fill="#FFFFFF"/>
<rect x="32" y="32" width="8" height="8" fill="#9B59B6"/>
<rect x="40" y="32" width="8" height="8" fill="#9B59B6"/>
<rect x="48" y="32" width="8" height="8" fill="#9B59B6"/>
<rect x="56" y="32" width="8" height="8" fill="#FFFFFF"/>
<rect x="64" y="32" width="8" height="8" fill="#4B275F"/>
<rect x="192" y="32" width="8" height="8" fill="#4B275F"/>
<rect x="200" y="32" width="8" height="8" fill="#FFFFFF"/>
<rect x="208" y="32" width="8" height="8" fill="#9B59B6"/>
<rect x="216" y="32" width="8" height="8" fill="#9B59B6"/>
<rect x="224" y="32" width="8" height="8" fill="#9B59B6"/>
<rect x="232" y="32" width="8" height="8" fill="#FFFFFF"/>
<rect x="240" y="32" width="8" height="8" fill="#4B275F"/>
<rect x="16" y="40" width="8" height="8" fill="#4B275F"/>
<rect x="24" y="40" width="8" height="8" fill="#FFFFFF"/>
<rect x="32" y="40" width="8" height="8" fill="#9B59B6"/>
<rect x="40" y="40" width="8" height="8" fill="#9B59B6"/>
<rect x="48" y="40" width="8" height="8" fill="#9B59B6"/>
<rect x="56" y="40" width="8" height="8" fill="#FFFFFF"/>
<rect x="64" y="40" width="8" height="8" fill="#4B275F"/>
<rect x="192" y="40" width="8" height="8" fill="#4B275F"/>
<rect x="200" y="40" width="8" height="8" fill="#FFFFFF"/>
<rect x="208" y="40" width="8" height="8" fill="#9B59B6"/>
<rect x="216" y="40" width="8" height="8" fill="#9B59B6"/>
<rect x="224" y="40" width="8" height="8" fill="#9B59B6"/>
<rect x="232" y="40" width="8" height="8" fill="#FFFFFF"/>
<rect x="240" y="40" width="8" height="8" fill="#4B275F"/>
<rect x="16" y="48" width="8" height="8" fill="#4B275F"/>
<rect x="24" y="48" width="8" height="8" fill="#FFFFFF"/>
<rect x="32" y="48" width="8" height="8" fill="#9B59B6"/>
<rect x="40" y="48" width="8" height="8" fill="#9B59B6"/>
<rect x="48" y="48" width="8" height="8" fill="#9B59B6"/>
<rect x="56" y="48" width="8" height="8" fill="#FFFFFF"/>
<rect x="64" y="48" width="8" height="8" fill="#4B275F"/>
<rect x="192" y="48" width="8" height="8" fill="#4B275F"/>
<rect x="200" y="48" width="8" height="8" fill="#FFFFFF"/>
<rect x="208" y="48" width="8" height="8" fill="#9B59B6"/>
<rect x="216" y="48" width="8" height="8" fill="#9B59B6"/>
<rect x="224" y="48" width="8" height="8" fill="#9B59B6"/>
<rect x="232" y="48" width="8" height="8" fill="#FFFFFF"/>
<rect x="240" y="48" width="8" height="8" fill="#4B275F"/>
<rect x="16" y="56" width="8" height="8" fill="#4B275F"/>
<rect x="24" y="56" width="8" height="8" fill="#FFFFFF"/>
<rect x="32" y="56" width="8" height="8" fill="#FFFFFF"/>
<rect x="40" y="56" width="8" height="8" fill="#FFFFFF"/>
<rect x="48" y="56" width="8" height="8" fill="#FFFFFF"/>
<rect x="56" y="56" width="8" height="8" fill="#FFFFFF"/>
<rect x="64" y="56" width="8" height="8" fill="#4B275F"/>
<rect x="192" y="56" width="8" height="8" fill="#4B275F"/>
<rect x="200" y="56" width="8" height="8" fill="#FFFFFF"/>
<rect x="208" y="56" width="8" height="8" fill="#FFFFFF"/>
<rect x="216" y="56" width="8" height="8" fill="#FFFFFF"/>
<rect x="224" y="56" width="8" height="8" fill="#FFFFFF"/>
<rect x="232" y="56" width="8" height="8" fill="#FFFFFF"/>
<rect x="240" y="56" width="8" height="8" fill="#4B275F"/>
<rect x="16" y="64" width="8" height="8" fill="#4B275F"/>
<rect x="24" y="64" width="8" height="8" fill="#4B275F"/>
<rect x="32" y="64" width="8" height="8" fill="#4B275F"/>
<rect x="40" y="64" width="8" height="8" fill="#4B275F"/>
<rect x="48" y="64" width="8" height="8" fill="#4B275F"/>
<rect x="56" y="64" width="8" height="8" fill="#4B275F"/>
<rect x="64" y="64" width="8" height="8" fill="#4B275F"/>
<rect x="192" y="64" width="8" height="8" fill="#4B275F"/>
<rect x="200" y="64" width="8" height="8" fill="#4B275F"/>
<rect x="208" y="64" width="8" height="8" fill="#4B275F"/>
<rect x="216" y="64" width="8" height="8" fill="#4B275F"/>
<rect x="224" y="64" width="8" height="8" fill="#4B275F"/>
<rect x="232" y="64" width="8" height="8" fill="#4B275F"/>
<rect x="240" y="64" width="8" height="8" fill="#4B275F"/>
<rect x="16" y="192" width="8" height="8" fill="#4B275F"/>
<rect x="24" y="192" width="8" height="8" fill="#4B275F"/>
<rect x="32" y="192" width="8" height="8" fill="#4B275F"/>
<rect x="40" y="192" width="8" height="8" fill="#4B275F"/>
<rect x="48" y="192" width="8" height="8" fill="#4B275F"/>
<rect x="56" y="192" width="8" height="8" fill="#4B275F"/>
<rect x="64" y="192" width="8" height="8" fill="#4B275F"/>
<rect x="16" y="200" width="8" height="8" fill="#4B275F"/>
<rect x="24" y="200" width="8" height="8" fill="#FFFFFF"/>
<rect x="32" y="200" width="8" height="8" fill="#FFFFFF"/>
<rect x="40" y="200" width="8" height="8" fill="#FFFFFF"/>
<rect x="48" y="200" width="8" height="8" fill="#FFFFFF"/>
<rect x="56" y="200" width="8" height="8" fill="#FFFFFF"/>
<rect x="64" y="200" width="8" height="8" fill="#4B275F"/>
<rect x="16" y="208" width="8" height="8" fill="#4B275F"/>
<rect x="24" y="208" width="8" height="8" fill="#FFFFFF"/>
<rect x="32" y="208" width="8" height="8" fill="#9B59B6"/>
<rect x="40" y="208" width="8" height="8" fill="#9B59B6"/>
<rect x="48" y="208" width="8" height="8" fill="#9B59B6"/>
<rect x="56" y="208" width="8" height="8" fill="#FFFFFF"/>
<rect x="64" y="208" width="8" height="8" fill="#4B275F"/>
<rect x="16" y="216" width="8" height="8" fill="#4B275F"/>
<rect x="24" y="216" width="8" height="8" fill="#FFFFFF"/>
<rect x="32" y="216" width="8" height="8" fill="#9B59B6"/>
<rect x="40" y="216" width="8" height="8" fill="#9B59B6"/>
<rect x="48" y="216" width="8" height="8" fill="#9B59B6"/>
<rect x="56" y="216" width="8" height="8" fill="#FFFFFF"/>
<rect x="64" y="216" width="8" height="8" fill="#4B275F"/>
<rect x="16" y="224" width="8" height="8" fill="#4B275F"/>
<rect x="24" y="224" width="8" height="8" fill="#FFFFFF"/>
<rect x="32" y="224" width="8" height="8" fill="#9B59B6"/>
<rect x="40" y="224" width="8" height="8" fill="#9B59B6"/>
<rect x="48" y="224" width="8" height="8" fill="#9B59B6"/>
<rect x="56" y="224" width="8" height="8" fill="#FFFFFF"/>
<rect x="64" y="224" width="8" height="8" fill="#4B275F"/>
<rect x="16" y="232" width="8" height="8" fill="#4B275F"/>
<rect x="24" y="232" width="8" height="8" fill="#FFFFFF"/>
<rect x="32" y="232" width="8" height="8" fill="#FFFFFF"/>
<rect x="40" y="232" width="8" height="8" fill="#FFFFFF"/>
<rect x="48" y="232" width="8" height="8" fill="#FFFFFF"/>
<rect x="56" y="232" width="8" height="8" fill="#FFFFFF"/>
<rect x="64" y="232" width="8" height="8" fill="#4B275F"/>
<rect x="16" y="240" width="8" height="8" fill="#4B275F"/>
<rect x="24" y="240" width="8" height="8" fill="#4B275F"/>
<rect x="32" y="240" width="8" height="8" fill="#4B275F"/>
<rect x="40" y="240" width="8" height="8" fill="#4B275F"/>
<rect x="48" y="240" width="8" height="8" fill="#4B275F"/>
<rect x="56" y="240" width="8" height="8" fill="#4B275F"/>
<rect x="64" y="240" width="8" height="8" fill="#4B275F"/>
<circle cx="132" cy="132" r="37" fill="#ffffff"/>
<svg x="103" y="103" width="58" height="58">
<svg viewBox="0 0 100 100" xmlns="http://www.w3.org/2000/svg">
  <defs>
    <linearGradient id="eg" x1="0%" y1="0%" x2="100%" y2="100%">
      <stop offset="0%" stop-color="#9B59B6"/>
      <stop offset="100%" stop-color="#4B275F"/>
    </linearGradient>
  </defs>
  <circle cx="50" cy="50" r="45" fill="url(#eg)"/>
  <text x="50" y="62" text-anchor="middle" font-size="36" font-weight="bold" fill="white" font-family="sans-serif">Ex</text>
</svg>

</svg>
</svg>
