<?xml version="1.0" encoding="UTF-8"?>
<svg xmlns="http://www.w3.org/2000/svg" version="1.1" width="296" height="296" viewBox="0 0 296 296">
<rect width="100%" height="100%" fill="#ffffff"/>
<path d="M16,16h8v8h-8ZM24,16h8v8h-8ZM32,16h8v8h-8ZM40,16h8v8h-8ZM48,16h8v8h-8ZM56,16h8v8h-8ZM64,16h8v8h-8ZM80,16h8v8h-8ZM88,16h8v8h-8ZM160,16h8v8h-8ZM176,16h8v8h-8ZM184,16h8v8h-8ZM200,16h8v8h-8ZM208,16h8v8h-8ZM224,16h8v8h-8ZM232,16h8v8h-8ZM240,16h8v8h-8ZM248,16h8v8h-8ZM256,16h8v8h-8ZM264,16h8v8h-8ZM272,16h8v8h-8ZM16,24h8v8h-8ZM64,24h8v8h-8ZM104,24h8v8h-8ZM112,24h8v8h-8ZM136,24h8v8h-8ZM144,24h8v8h-8ZM176,24h8v8h-8ZM184,24h8v8h-8ZM192,24h8v8h-8ZM208,24h8v8h-8ZM224,24h8v8h-8ZM272,24h8v8h-8ZM16,32h8v8h-8ZM32,32h8v8h-8ZM40,32h8v8h-8ZM48,32h8v8h-8ZM64,32h8v8h-8ZM80,32h8v8h-8ZM88,32h8v8h-8ZM96,32h8v8h-8ZM104,32h8v8h-8ZM112,32h8v8h-8ZM128,32h8v8h-8ZM136,32h8v8h-8ZM144,32h8v8h-8ZM176,32h8v8h-8ZM184,32h8v8h-8ZM192,32h8v8h-8ZM224,32h8v8h-8ZM240,32h8v8h-8ZM248,32h8v8h-8ZM256,32h8v8h-8ZM272,32h8v8h-8ZM16,40h8v8h-8ZM32,40h8v8h-8ZM40,40h8v8h-8ZM48,40h8v8h-8ZM64,40h8v8h-8ZM80,40h8v8h-8ZM96,40h8v8h-8ZM136,40h8v8h-8ZM152,40h8v8h-8ZM160,40h8v8h-8ZM184,40h8v8h-8ZM192,40h8v8h-8ZM200,40h8v8h-8ZM208,40h8v8h-8ZM224,40h8v8h-8ZM240,40h8v8h-8ZM248,40h8v8h-8ZM256,40h8v8h-8ZM272,40h8v8h-8ZM16,48h8v8h-8ZM32,48h8v8h-8ZM40,48h8v8h-8ZM48,48h8v8h-8ZM64,48h8v8h-8ZM80,48h8v8h-8ZM88,48h8v8h-8ZM120,48h8v8h-8ZM128,48h8v8h-8ZM136,48h8v8h-8ZM144,48h8v8h-8ZM152,48h8v8h-8ZM160,48h8v8h-8ZM168,48h8v8h-8ZM176,48h8v8h-8ZM200,48h8v8h-8ZM224,48h8v8h-8ZM240,48h8v8h-8ZM248,48h8v8h-8ZM256,48h8v8h-8ZM272,48h8v8h-8ZM16,56h8v8h-8ZM64,56h8v8h-8ZM80,56h8v8h-8ZM88,56h8v8h-8ZM104,56h8v8h-8ZM112,56h8v8h-8ZM128,56h8v8h-8ZM184,56h8v8h-8ZM192,56h8v8h-8ZM208,56h8v8h-8ZM224,56h8v8h-8ZM272,56h8v8h-8ZM16,64h8v8h-8ZM24,64h8v8h-8ZM32,64h8v8h-8ZM40,64h8v8h-8ZM48,64h8v8h-8ZM56,64h8v8h-8ZM64,64h8v8h-8ZM80,64h8v8h-8ZM96,64h8v8h-8ZM112,64h8v8h-8ZM128,64h8v8h-8ZM144,64h8v8h-8ZM160,64h8v8h-8ZM176,64h8v8h-8ZM192,64h8v8h-8ZM208,64h8v8h-8ZM224,64h8v8h-8ZM232,64h8v8h-8ZM240,64h8v8h-8ZM248,64h8v8h-8ZM256,64h8v8h-8ZM264,64h8v8h-8ZM272,64h8v8h-8ZM112,72h8v8h-8ZM128,72h8v8h-8ZM144,72h8v8h-8ZM160,72h8v8h-8ZM176,72h8v8h-8ZM184,72h8v8h-8ZM200,72h8v8h-8ZM32,80h8v8h-8ZM40,80h8v8h-8ZM48,80h8v8h-8ZM56,80h8v8h-8ZM64,80h8v8h-8ZM72,80h8v8h-8ZM88,80h8v8h-8ZM104,80h8v8h-8ZM112,80h8v8h-8ZM120,80h8v8h-8ZM144,80h8v8h-8ZM152,80h8v8h-8ZM160,80h8v8h-8ZM168,80h8v8h-8ZM184,80h8v8h-8ZM192,80h8v8h-8ZM200,80h8v8h-8ZM224,80h8v8h-8ZM232,80h8v8h-8ZM240,80h8v8h-8ZM248,80h8v8h-8ZM256,80h8v8h-8ZM16,88h8v8h-8ZM24,88h8v8h-8ZM32,88h8v8h-8ZM56,88h8v8h-8ZM80,88h8v8h-8ZM96,88h8v8h-8ZM104,88h8v8h-8ZM112,88h8v8h-8ZM120,88h8v8h-8ZM128,88h8v8h-8ZM152,88h8v8h-8ZM176,88h8v8h-8ZM184,88h8v8h-8ZM248,88h8v8h-8ZM256,88h8v8h-8ZM264,88h8v8h-8ZM272,88h8v8h-8ZM16,96h8v8h-8ZM40,96h8v8h-8ZM48,96h8v8h-8ZM56,96h8v8h-8ZM64,96h8v8h-8ZM72,96h8v8h-8ZM96,96h8v8h-8ZM104,96h8v8h-8ZM120,96h8v8h-8ZM128,96h8v8h-8ZM136,96h8v8h-8ZM144,96h8v8h-8ZM152,96h8v8h-8ZM184,96h8v8h-8ZM224,96h8v8h-8ZM232,96h8v8h-8ZM240,96h8v8h-8ZM248,96h8v8h-8ZM256,96h8v8h-8ZM16,104h8v8h-8ZM32,104h8v8h-8ZM56,104h8v8h-8ZM72,104h8v8h-8ZM120,104h8v8h-8ZM136,104h8v8h-8ZM144,104h8v8h-8ZM160,104h8v8h-8ZM176,104h8v8h-8ZM184,104h8v8h-8ZM216,104h8v8h-8ZM232,104h8v8h-8ZM240,104h8v8h-8ZM248,104h8v8h-8ZM256,104h8v8h-8ZM264,104h8v8h-8ZM16,112h8v8h-8ZM40,112h8v8h-8ZM56,112h8v8h-8ZM64,112h8v8h-8ZM72,112h8v8h-8ZM80,112h8v8h-8ZM96,112h8v8h-8ZM104,112h8v8h-8ZM112,112h8v8h-8ZM128,112h8v8h-8ZM136,112h8v8h-8ZM152,112h8v8h-8ZM192,112h8v8h-8ZM208,112h8v8h-8ZM216,112h8v8h-8ZM232,112h8v8h-8ZM256,112h8v8h-8ZM272,112h8v8h-8ZM16,120h8v8h-8ZM48,120h8v8h-8ZM96,120h8v8h-8ZM104,120h8v8h-8ZM112,120h8v8h-8ZM120,120h8v8h-8ZM136,120h8v8h-8ZM152,120h8v8h-8ZM160,120h8v8h-8ZM168,120h8v8h-8ZM176,120h8v8h-8ZM200,120h8v8h-8ZM32,128h8v8h-8ZM56,128h8v8h-8ZM64,128h8v8h-8ZM72,128h8v8h-8ZM80,128h8v8h-8ZM88,128h8v8h-8ZM96,128h8v8h-8ZM104,128h8v8h-8ZM120,128h8v8h-8ZM136,128h8v8h-8ZM144,128h8v8h-8ZM152,128h8v8h-8ZM160,128h8v8h-8ZM216,128h8v8h-8ZM224,128h8v8h-8ZM248,128h8v8h-8ZM256,128h8v8h-8ZM264,128h8v8h-8ZM24,136h8v8h-8ZM32,136h8v8h-8ZM40,136h8v8h-8ZM112,136h8v8h-8ZM160,136h8v8h-8ZM184,136h8v8h-8ZM208,136h8v8h-8ZM224,136h8v8h-8ZM232,136h8v8h-8ZM256,136h8v8h-8ZM264,136h8v8h-8ZM16,144h8v8h-8ZM40,144h8v8h-8ZM48,144h8v8h-8ZM64,144h8v8h-8ZM72,144h8v8h-8ZM96,144h8v8h-8ZM112,144h8v8h-8ZM144,144h8v8h-8ZM152,144h8v8h-8ZM160,144h8v8h-8ZM176,144h8v8h-8ZM192,144h8v8h-8ZM208,144h8v8h-8ZM240,144h8v8h-8ZM248,144h8v8h-8ZM264,144h8v8h-8ZM272,144h8v8h-8ZM48,152h8v8h-8ZM72,152h8v8h-8ZM80,152h8v8h-8ZM88,152h8v8h-8ZM96,152h8v8h-8ZM112,152h8v8h-8ZM160,152h8v8h-8ZM176,152h8v8h-8ZM184,152h8v8h-8ZM200,152h8v8h-8ZM216,152h8v8h-8ZM224,152h8v8h-8ZM232,152h8v8h-8ZM256,152h8v8h-8ZM264,152h8v8h-8ZM272,152h8v8h-8ZM24,160h8v8h-8ZM32,160h8v8h-8ZM40,160h8v8h-8ZM48,160h8v8h-8ZM64,160h8v8h-8ZM88,160h8v8h-8ZM96,160h8v8h-8ZM120,160h8v8h-8ZM136,160h8v8h-8ZM144,160h8v8h-8ZM152,160h8v8h-8ZM160,160h8v8h-8ZM176,160h8v8h-8ZM184,160h8v8h-8ZM192,160h8v8h-8ZM216,160h8v8h-8ZM224,160h8v8h-8ZM232,160h8v8h-8ZM248,160h8v8h-8ZM72,168h8v8h-8ZM88,168h8v8h-8ZM96,168h8v8h-8ZM104,168h8v8h-8ZM112,168h8v8h-8ZM120,168h8v8h-8ZM136,168h8v8h-8ZM144,168h8v8h-8ZM168,168h8v8h-8ZM184,168h8v8h-8ZM192,168h8v8h-8ZM200,168h8v8h-8ZM248,168h8v8h-8ZM256,168h8v8h-8ZM264,168h8v8h-8ZM24,176h8v8h-8ZM64,176h8v8h-8ZM80,176h8v8h-8ZM96,176h8v8h-8ZM112,176h8v8h-8ZM136,176h8v8h-8ZM144,176h8v8h-8ZM152,176h8v8h-8ZM168,176h8v8h-8ZM176,176h8v8h-8ZM192,176h8v8h-8ZM200,176h8v8h-8ZM208,176h8v8h-8ZM232,176h8v8h-8ZM256,176h8v8h-8ZM16,184h8v8h-8ZM24,184h8v8h-8ZM32,184h8v8h-8ZM40,184h8v8h-8ZM56,184h8v8h-8ZM72,184h8v8h-8ZM96,184h8v8h-8ZM112,184h8v8h-8ZM120,184h8v8h-8ZM152,184h8v8h-8ZM160,184h8v8h-8ZM168,184h8v8h-8ZM176,184h8v8h-8ZM184,184h8v8h-8ZM192,184h8v8h-8ZM200,184h8v8h-8ZM216,184h8v8h-8ZM224,184h8v8h-8ZM16,192h8v8h-8ZM32,192h8v8h-8ZM48,192h8v8h-8ZM64,192h8v8h-8ZM80,192h8v8h-8ZM88,192h8v8h-8ZM96,192h8v8h-8ZM104,192h8v8h-8ZM136,192h8v8h-8ZM144,192h8v8h-8ZM152,192h8v8h-8ZM160,192h8v8h-8ZM176,192h8v8h-8ZM184,192h8v8h-8ZM208,192h8v8h-8ZM224,192h8v8h-8ZM248,192h8v8h-8ZM264,192h8v8h-8ZM16,200h8v8h-8ZM48,200h8v8h-8ZM56,200h8v8h-8ZM72,200h8v8h-8ZM104,200h8v8h-8ZM120,200h8v8h-8ZM128,200h8v8h-8ZM176,200h8v8h-8ZM184,200h8v8h-8ZM192,200h8v8h-8ZM200,200h8v8h-8ZM208,200h8v8h-8ZM224,200h8v8h-8ZM240,200h8v8h-8ZM248,200h8v8h-8ZM256,200h8v8h-8ZM264,200h8v8h-8ZM272,200h8v8h-8ZM16,208h8v8h-8ZM40,208h8v8h-8ZM56,208h8v8h-8ZM64,208h8v8h-8ZM72,208h8v8h-8ZM88,208h8v8h-8ZM104,208h8v8h-8ZM120,208h8v8h-8ZM144,208h8v8h-8ZM152,208h8v8h-8ZM160,208h8v8h-8ZM168,208h8v8h-8ZM176,208h8v8h-8ZM192,208h8v8h-8ZM200,208h8v8h-8ZM208,208h8v8h-8ZM216,208h8v8h-8ZM224,208h8v8h-8ZM232,208h8v8h-8ZM240,208h8v8h-8ZM256,208h8v8h-8ZM272,208h8v8h-8ZM80,216h8v8h-8ZM88,216h8v8h-8ZM96,216h8v8h-8ZM152,216h8v8h-8ZM168,216h8v8h-8ZM208,216h8v8h-8ZM240,216h8v8h-8ZM256,216h8v8h-8ZM264,216h8v8h-8ZM272,216h8v8h-8ZM16,224h8v8h-8ZM24,224h8v8h-8ZM32,224h8v8h-8ZM40,224h8v8h-8ZM48,224h8v8h-8ZM56,224h8v8h-8ZM64,224h8v8h-8ZM88,224h8v8h-8ZM96,224h8v8h-8ZM104,224h8v8h-8ZM128,224h8v8h-8ZM136,224h8v8h-8ZM144,224h8v8h-8ZM152,224h8v8h-8ZM176,224h8v8h-8ZM184,224h8v8h-8ZM200,224h8v8h-8ZM208,224h8v8h-8ZM224,224h8v8h-8ZM240,224h8v8h-8ZM248,224h8v8h-8ZM256,224h8v8h-8ZM16,232h8v8h-8ZM64,232h8v8h-8ZM80,232h8v8h-8ZM88,232h8v8h-8ZM104,232h8v8h-8ZM120,232h8v8h-8ZM136,232h8v8h-8ZM144,232h8v8h-8ZM176,232h8v8h-8ZM184,232h8v8h-8ZM200,232h8v8h-8ZM208,232h8v8h-8ZM240,232h8v8h-8ZM248,232h8v8h-8ZM256,232h8v8h-8ZM16,240h8v8h-8ZM32,240h8v8h-8ZM40,240h8v8h-8ZM48,240h8v8h-8ZM64,240h8v8h-8ZM80,240h8v8h-8ZM88,240h8v8h-8ZM112,240h8v8h-8ZM144,240h8v8h-8ZM152,240h8v8h-8ZM192,240h8v8h-8ZM208,240h8v8h-8ZM216,240h8v8h-8ZM224,240h8v8h-8ZM232,240h8v8h-8ZM240,240h8v8h-8ZM248,240h8v8h-8ZM256,240h8v8h-8ZM16,248h8v8h-8ZM32,248h8v8h-8ZM40,248h8v8h-8ZM48,248h8v8h-8ZM64,248h8v8h-8ZM80,248h8v8h-8ZM96,248h8v8h-8ZM104,248h8v8h-8ZM128,248h8v8h-8ZM160,248h8v8h-8ZM168,248h8v8h-8ZM176,248h8v8h-8ZM208,248h8v8h-8ZM216,248h8v8h-8ZM232,248h8v8h-8ZM248,248h8v8h-8ZM256,248h8v8h-8ZM264,248h8v8h-8ZM272,248h8v8h-8ZM16,256h8v8h-8ZM32,256h8v8h-8ZM40,256h8v8h-8ZM48,256h8v8h-8ZM64,256h8v8h-8ZM80,256h8v8h-8ZM96,256h8v8h-8ZM136,256h8v8h-8ZM144,256h8v8h-8ZM160,256h8v8h-8ZM176,256h8v8h-8ZM192,256h8v8h-8ZM200,256h8v8h-8ZM208,256h8v8h-8ZM248,256h8v8h-8ZM256,256h8v8h-8ZM16,264h8v8h-8ZM64,264h8v8h-8ZM88,264h8v8h-8ZM96,264h8v8h-8ZM112,264h8v8h-8ZM120,264h8v8h-8ZM128,264h8v8h-8ZM136,264h8v8h-8ZM144,264h8v8h-8ZM184,264h8v8h-8ZM224,264h8v8h-8ZM232,264h8v8h-8ZM240,264h8v8h-8ZM248,264h8v8h-8ZM256,264h8v8h-8ZM16,272h8v8h-8ZM24,272h8v8h-8ZM32,272h8v8h-8ZM40,272h8v8h-8ZM48,272h8v8h-8ZM56,272h8v8h-8ZM64,272h8v8h-8ZM80,272h8v8h-8ZM96,272h8v8h-8ZM128,272h8v8h-8ZM152,272h8v8h-8ZM160,272h8v8h-8ZM192,272h8v8h-8ZM200,272h8v8h-8ZM208,272h8v8h-8ZM224,272h8v8h-8ZM232,272h8v8h-8ZM256,272h8v8h-8ZM264,272h8v8h-8Z" fill="#8E44AD"/>
</svg>
