<?xml version="1.0" encoding="UTF-8"?>
<svg xmlns="http://www.w3.org/2000/svg" version="1.1" width="232" height="232" viewBox="0 0 232 232">
<defs>
<radialGradient id="qr-gradient" cx="50%" cy="50%" r="50%">
<stop offset="0%" stop-color="#F093FB"/>
<stop offset="100%" stop-color="#F5576C"/>
</radialGradient>
</defs>
<rect width="100%" height="100%" fill="#ffffff"/>
<rect x="80" y="16" width="8" height="8" rx=""2.4"" ry=""2.4"" fill=""url(#qr-gradient)"/>
<rect x="104" y="16" width="8" height="8" rx=""2.4"" ry=""2.4"" fill=""url(#qr-gradient)"/>
<rect x="112" y="16" width="8" height="8" rx=""2.4"" ry=""2.4"" fill=""url(#qr-gradient)"/>
<rect x="128" y="16" width="8" height="8" rx=""2.4"" ry=""2.4"" fill=""url(#qr-gradient)"/>
<rect x="104" y="24" width="8" height="8" rx=""2.4"" ry=""2.4"" fill=""url(#qr-gradient)"/>
<rect x="112" y="24" width="8" height="8" rx=""2.4"" ry=""2.4"" fill=""url(#qr-gradient)"/>
<rect x="144" y="24" width="8" height="8" rx=""2.4"" ry=""2.4"" fill=""url(#qr-gradient)"/>
<rect x="88" y="32" width="8" height="8" rx=""2.4"" ry=""2.4"" fill=""url(#qr-gradient)"/>
<rect x="104" y="32" width="8" height="8" rx=""2.4"" ry=""2.4"" fill=""url(#qr-gradient)"/>
<rect x="112" y="32" width="8" height="8" rx=""2.4"" ry=""2.4"" fill=""url(#qr-gradient)"/>
<rect x="120" y="32" width="8" height="8" rx=""2.4"" ry=""2.4"" fill=""url(#qr-gradient)"/>
<rect x="136" y="32" width="8" height="8" rx=""2.4"" ry=""2.4"" fill=""url(#qr-gradient)"/>
<rect x="144" y="32" width="8" height="8" rx=""2.4"" ry=""2.4"" fill=""url(#qr-gradient)"/>
<rect x="80" y="40" width="8" height="8" rx=""2.4"" ry=""2.4"" fill=""url(#qr-gradient)"/>
<rect x="120" y="40" width="8" height="8" rx=""2.4"" ry=""2.4"" fill=""url(#qr-gradient)"/>
<rect x="144" y="40" width="8" height="8" rx=""2.4"" ry=""2.4"" fill=""url(#qr-gradient)"/>
<rect x="80" y="48" width="8" height="8" rx=""2.4"" ry=""2.4"" fill=""url(#qr-gradient)"/>
<rect x="88" y="48" width="8" height="8" rx=""2.4"" ry=""2.4"" fill=""url(#qr-gradient)"/>
<rect x="104" y="48" width="8" height="8" rx=""2.4"" ry=""2.4"" fill=""url(#qr-gradient)"/>
<rect x="112" y="48" width="8" height="8" rx=""2.4"" ry=""2.4"" fill=""url(#qr-gradient)"/>
<rect x="128" y="48" width="8" height="8" rx=""2.4"" ry=""2.4"" fill=""url(#qr-gradient)"/>
<rect x="144" y="48" width="8" height="8" rx=""2.4"" ry=""2.4"" fill=""url(#qr-gradient)"/>
<rect x="80" y="56" width="8" height="8" rx=""2.4"" ry=""2.4"" fill=""url(#qr-gradient)"/>
<rect x="104" y="56" width="8" height="8" rx=""2.4"" ry=""2.4"" fill=""url(#qr-gradient)"/>
<rect x="112" y="56" width="8" height="8" rx=""2.4"" ry=""2.4"" fill=""url(#qr-gradient)"/>
<rect x="120" y="56" width="8" height="8" rx=""2.4"" ry=""2.4"" fill=""url(#qr-gradient)"/>
<rect x="128" y="56" width="8" height="8" rx=""2.4"" ry=""2.4"" fill=""url(#qr-gradient)"/>
<rect x="144" y="56" width="8" height="8" rx=""2.4"" ry=""2.4"" fill=""url(#qr-gradient)"/>
<rect x="80" y="64" width="8" height="8" rx=""2.4"" ry=""2.4"" fill=""url(#qr-gradient)"/>
<rect x="96" y="64" width="8" height="8" rx=""2.4"" ry=""2.4"" fill=""url(#qr-gradient)"/>
<rect x="112" y="64" width="8" height="8" rx=""2.4"" ry=""2.4"" fill=""url(#qr-gradient)"/>
<rect x="128" y="64" width="8" height="8" rx=""2.4"" ry=""2.4"" fill=""url(#qr-gradient)"/>
<rect x="144" y="64" width="8" height="8" rx=""2.4"" ry=""2.4"" fill=""url(#qr-gradient)"/>
<rect x="80" y="72" width="8" height="8" rx=""2.4"" ry=""2.4"" fill=""url(#qr-gradient)"/>
<rect x="104" y="72" width="8" height="8" rx=""2.4"" ry=""2.4"" fill=""url(#qr-gradient)"/>
<rect x="112" y="72" width="8" height="8" rx=""2.4"" ry=""2.4"" fill=""url(#qr-gradient)"/>
<rect x="120" y="72" width="8" height="8" rx=""2.4"" ry=""2.4"" fill=""url(#qr-gradient)"/>
<rect x="144" y="72" width="8" height="8" rx=""2.4"" ry=""2.4"" fill=""url(#qr-gradient)"/>
<rect x="16" y="80" width="8" height="8" rx=""2.4"" ry=""2.4"" fill=""url(#qr-gradient)"/>
<rect x="24" y="80" width="8" height="8" rx=""2.4"" ry=""2.4"" fill=""url(#qr-gradient)"/>
<rect x="32" y="80" width="8" height="8" rx=""2.4"" ry=""2.4"" fill=""url(#qr-gradient)"/>
<rect x="48" y="80" width="8" height="8" rx=""2.4"" ry=""2.4"" fill=""url(#qr-gradient)"/>
<rect x="64" y="80" width="8" height="8" rx=""2.4"" ry=""2.4"" fill=""url(#qr-gradient)"/>
<rect x="80" y="80" width="8" height="8" rx=""2.4"" ry=""2.4"" fill=""url(#qr-gradient)"/>
<rect x="96" y="80" width="8" height="8" rx=""2.4"" ry=""2.4"" fill=""url(#qr-gradient)"/>
<rect x="104" y="80" width="8" height="8" rx=""2.4"" ry=""2.4"" fill=""url(#qr-gradient)"/>
<rect x="112" y="80" width="8" height="8" rx=""2.4"" ry=""2.4"" fill=""url(#qr-gradient)"/>
<rect x="144" y="80" width="8" height="8" rx=""2.4"" ry=""2.4"" fill=""url(#qr-gradient)"/>
<rect x="152" y="80" width="8" height="8" rx=""2.4"" ry=""2.4"" fill=""url(#qr-gradient)"/>
<rect x="176" y="80" width="8" height="8" rx=""2.4"" ry=""2.4"" fill=""url(#qr-gradient)"/>
<rect x="192" y="80" width="8" height="8" rx=""2.4"" ry=""2.4"" fill=""url(#qr-gradient)"/>
<rect x="200" y="80" width="8" height="8" rx=""2.4"" ry=""2.4"" fill=""url(#qr-gradient)"/>
<rect x="208" y="80" width="8" height="8" rx=""2.4"" ry=""2.4"" fill=""url(#qr-gradient)"/>
<rect x="16" y="88" width="8" height="8" rx=""2.4"" ry=""2.4"" fill=""url(#qr-gradient)"/>
<rect x="40" y="88" width="8" height="8" rx=""2.4"" ry=""2.4"" fill=""url(#qr-gradient)"/>
<rect x="48" y="88" width="8" height="8" rx=""2.4"" ry=""2.4"" fill=""url(#qr-gradient)"/>
<rect x="56" y="88" width="8" height="8" rx=""2.4"" ry=""2.4"" fill=""url(#qr-gradient)"/>
<rect x="72" y="88" width="8" height="8" rx=""2.4"" ry=""2.4"" fill=""url(#qr-gradient)"/>
<rect x="88" y="88" width="8" height="8" rx=""2.4"" ry=""2.4"" fill=""url(#qr-gradient)"/>
<rect x="104" y="88" width="8" height="8" rx=""2.4"" ry=""2.4"" fill=""url(#qr-gradient)"/>
<rect x="112" y="88" width="8" height="8" rx=""2.4"" ry=""2.4"" fill=""url(#qr-gradient)"/>
<rect x="120" y="88" width="8" height="8" rx=""2.4"" ry=""2.4"" fill=""url(#qr-gradient)"/>
<rect x="128" y="88" width="8" height="8" rx=""2.4"" ry=""2.4"" fill=""url(#qr-gradient)"/>
<rect x="136" y="88" width="8" height="8" rx=""2.4"" ry=""2.4"" fill=""url(#qr-gradient)"/>
<rect x="168" y="88" width="8" height="8" rx=""2.4"" ry=""2.4"" fill=""url(#qr-gradient)"/>
<rect x="176" y="88" width="8" height="8" rx=""2.4"" ry=""2.4"" fill=""url(#qr-gradient)"/>
<rect x="184" y="88" width="8" height="8" rx=""2.4"" ry=""2.4"" fill=""url(#qr-gradient)"/>
<rect x="192" y="88" width="8" height="8" rx=""2.4"" ry=""2.4"" fill=""url(#qr-gradient)"/>
<rect x="200" y="88" width="8" height="8" rx=""2.4"" ry=""2.4"" fill=""url(#qr-gradient)"/>
<rect x="24" y="96" width="8" height="8" rx=""2.4"" ry=""2.4"" fill=""url(#qr-gradient)"/>
<rect x="32" y="96" width="8" height="8" rx=""2.4"" ry=""2.4"" fill=""url(#qr-gradient)"/>
<rect x="64" y="96" width="8" height="8" rx=""2.4"" ry=""2.4"" fill=""url(#qr-gradient)"/>
<rect x="80" y="96" width="8" height="8" rx=""2.4"" ry=""2.4"" fill=""url(#qr-gradient)"/>
<rect x="96" y="96" width="8" height="8" rx=""2.4"" ry=""2.4"" fill=""url(#qr-gradient)"/>
<rect x="112" y="96" width="8" height="8" rx=""2.4"" ry=""2.4"" fill=""url(#qr-gradient)"/>
<rect x="120" y="96" width="8" height="8" rx=""2.4"" ry=""2.4"" fill=""url(#qr-gradient)"/>
<rect x="136" y="96" width="8" height="8" rx=""2.4"" ry=""2.4"" fill=""url(#qr-gradient)"/>
<rect x="144" y="96" width="8" height="8" rx=""2.4"" ry=""2.4"" fill=""url(#qr-gradient)"/>
<rect x="168" y="96" width="8" height="8" rx=""2.4"" ry=""2.4"" fill=""url(#qr-gradient)"/>
<rect x="176" y="96" width="8" height="8" rx=""2.4"" ry=""2.4"" fill=""url(#qr-gradient)"/>
<rect x="184" y="96" width="8" height="8" rx=""2.4"" ry=""2.4"" fill=""url(#qr-gradient)"/>
<rect x="208" y="96" width="8" height="8" rx=""2.4"" ry=""2.4"" fill=""url(#qr-gradient)"/>
<rect x="24" y="104" width="8" height="8" rx=""2.4"" ry=""2.4"" fill=""url(#qr-gradient)"/>
<rect x="56" y="104" width="8" height="8" rx=""2.4"" ry=""2.4"" fill=""url(#qr-gradient)"/>
<rect x="72" y="104" width="8" height="8" rx=""2.4"" ry=""2.4"" fill=""url(#qr-gradient)"/>
<rect x="96" y="104" width="8" height="8" rx=""2.4"" ry=""2.4"" fill=""url(#qr-gradient)"/>
<rect x="152" y="104" width="8" height="8" rx=""2.4"" ry=""2.4"" fill=""url(#qr-gradient)"/>
<rect x="160" y="104" width="8" height="8" rx=""2.4"" ry=""2.4"" fill=""url(#qr-gradient)"/>
<rect x="168" y="104" width="8" height="8" rx=""2.4"" ry=""2.4"" fill=""url(#qr-gradient)"/>
<rect x="184" y="104" width="8" height="8" rx=""2.4"" ry=""2.4"" fill=""url(#qr-gradient)"/>
<rect x="192" y="104" width="8" height="8" rx=""2.4"" ry=""2.4"" fill=""url(#qr-gradient)"/>
<rect x="200" y="104" width="8" height="8" rx=""2.4"" ry=""2.4"" fill=""url(#qr-gradient)"/>
<rect x="208" y="104" width="8" height="8" rx=""2.4"" ry=""2.4"" fill=""url(#qr-gradient)"/>
<rect x="16" y="112" width="8" height="8" rx=""2.4"" ry=""2.4"" fill=""url(#qr-gradient)"/>
<rect x="24" y="112" width="8" height="8" rx=""2.4"" ry=""2.4"" fill=""url(#qr-gradient)"/>
<rect x="48" y="112" width="8" height="8" rx=""2.4"" ry=""2.4"" fill=""url(#qr-gradient)"/>
<rect x="64" y="112" width="8" height="8" rx=""2.4"" ry=""2.4"" fill=""url(#qr-gradient)"/>
<rect x="80" y="112" width="8" height="8" rx=""2.4"" ry=""2.4"" fill=""url(#qr-gradient)"/>
<rect x="88" y="112" width="8" height="8" rx=""2.4"" ry=""2.4"" fill=""url(#qr-gradient)"/>
<rect x="112" y="112" width="8" height="8" rx=""2.4"" ry=""2.4"" fill=""url(#qr-gradient)"/>
<rect x="144" y="112" width="8" height="8" rx=""2.4"" ry=""2.4"" fill=""url(#qr-gradient)"/>
<rect x="160" y="112" width="8" height="8" rx=""2.4"" ry=""2.4"" fill=""url(#qr-gradient)"/>
<rect x="168" y="112" width="8" height="8" rx=""2.4"" ry=""2.4"" fill=""url(#qr-gradient)"/>
<rect x="208" y="112" width="8" height="8" rx=""2.4"" ry=""2.4"" fill=""url(#qr-gradient)"/>
<rect x="16" y="120" width="8" height="8" rx=""2.4"" ry=""2.4"" fill=""url(#qr-gradient)"/>
<rect x="40" y="120" width="8" height="8" rx=""2.4"" ry=""2.4"" fill=""url(#qr-gradient)"/>
<rect x="48" y="120" width="8" height="8" rx=""2.4"" ry=""2.4"" fill=""url(#qr-gradient)"/>
<rect x="72" y="120" width="8" height="8" rx=""2.4"" ry=""2.4"" fill=""url(#qr-gradient)"/>
<rect x="80" y="120" width="8" height="8" rx=""2.4"" ry=""2.4"" fill=""url(#qr-gradient)"/>
<rect x="128" y="120" width="8" height="8" rx=""2.4"" ry=""2.4"" fill=""url(#qr-gradient)"/>
<rect x="136" y="120" width="8" height="8" rx=""2.4"" ry=""2.4"" fill=""url(#qr-gradient)"/>
<rect x="176" y="120" width="8" height="8" rx=""2.4"" ry=""2.4"" fill=""url(#qr-gradient)"/>
<rect x="200" y="120" width="8" height="8" rx=""2.4"" ry=""2.4"" fill=""url(#qr-gradient)"/>
<rect x="16" y="128" width="8" height="8" rx=""2.4"" ry=""2.4"" fill=""url(#qr-gradient)"/>
<rect x="24" y="128" width="8" height="8" rx=""2.4"" ry=""2.4"" fill=""url(#qr-gradient)"/>
<rect x="40" y="128" width="8" height="8" rx=""2.4"" ry=""2.4"" fill=""url(#qr-gradient)"/>
<rect x="48" y="128" width="8" height="8" rx=""2.4"" ry=""2.4"" fill=""url(#qr-gradient)"/>
<rect x="56" y="128" width="8" height="8" rx=""2.4"" ry=""2.4"" fill=""url(#qr-gradient)"/>
<rect x="64" y="128" width="8" height="8" rx=""2.4"" ry=""2.4"" fill=""url(#qr-gradient)"/>
<rect x="72" y="128" width="8" height="8" rx=""2.4"" ry=""2.4"" fill=""url(#qr-gradient)"/>
<rect x="88" y="128" width="8" height="8" rx=""2.4"" ry=""2.4"" fill=""url(#qr-gradient)"/>
<rect x="104" y="128" width="8" height="8" rx=""2.4"" ry=""2.4"" fill=""url(#qr-gradient)"/>
<rect x="112" y="128" width="8" height="8" rx=""2.4"" ry=""2.4"" fill=""url(#qr-gradient)"/>
<rect x="128" y="128" width="8" height="8" rx=""2.4"" ry=""2.4"" fill=""url(#qr-gradient)"/>
<rect x="136" y="128" width="8" height="8" rx=""2.4"" ry=""2.4"" fill=""url(#qr-gradient)"/>
<rect x="144" y="128" width="8" height="8" rx=""2.4"" ry=""2.4"" fill=""url(#qr-gradient)"/>
<rect x="176" y="128" width="8" height="8" rx=""2.4"" ry=""2.4"" fill=""url(#qr-gradient)"/>
<rect x="184" y="128" width="8" height="8" rx=""2.4"" ry=""2.4"" fill=""url(#qr-gradient)"/>
<rect x="192" y="128" width="8" height="8" rx=""2.4"" ry=""2.4"" fill=""url(#qr-gradient)"/>
<rect x="200" y="128" width="8" height="8" rx=""2.4"" ry=""2.4"" fill=""url(#qr-gradient)"/>
<rect x="208" y="128" width="8" height="8" rx=""2.4"" ry=""2.4"" fill=""url(#qr-gradient)"/>
<rect x="16" y="136" width="8" height="8" rx=""2.4"" ry=""2.4"" fill=""url(#qr-gradient)"/>
<rect x="32" y="136" width="8" height="8" rx=""2.4"" ry=""2.4"" fill=""url(#qr-gradient)"/>
<rect x="40" y="136" width="8" height="8" rx=""2.4"" ry=""2.4"" fill=""url(#qr-gradient)"/>
<rect x="48" y="136" width="8" height="8" rx=""2.4"" ry=""2.4"" fill=""url(#qr-gradient)"/>
<rect x="88" y="136" width="8" height="8" rx=""2.4"" ry=""2.4"" fill=""url(#qr-gradient)"/>
<rect x="96" y="136" width="8" height="8" rx=""2.4"" ry=""2.4"" fill=""url(#qr-gradient)"/>
<rect x="104" y="136" width="8" height="8" rx=""2.4"" ry=""2.4"" fill=""url(#qr-gradient)"/>
<rect x="136" y="136" width="8" height="8" rx=""2.4"" ry=""2.4"" fill=""url(#qr-gradient)"/>
<rect x="144" y="136" width="8" height="8" rx=""2.4"" ry=""2.4"" fill=""url(#qr-gradient)"/>
<rect x="152" y="136" width="8" height="8" rx=""2.4"" ry=""2.4"" fill=""url(#qr-gradient)"/>
<rect x="160" y="136" width="8" height="8" rx=""2.4"" ry=""2.4"" fill=""url(#qr-gradient)"/>
<rect x="168" y="136" width="8" height="8" rx=""2.4"" ry=""2.4"" fill=""url(#qr-gradient)"/>
<rect x="184" y="136" width="8" height="8" rx=""2.4"" ry=""2.4"" fill=""url(#qr-gradient)"/>
<rect x="192" y="136" width="8" height="8" rx=""2.4"" ry=""2.4"" fill=""url(#qr-gradient)"/>
<rect x="208" y="136" width="8" height="8" rx=""2.4"" ry=""2.4"" fill=""url(#qr-gradient)"/>
<rect x="16" y="144" width="8" height="8" rx=""2.4"" ry=""2.4"" fill=""url(#qr-gradient)"/>
<rect x="64" y="144" width="8" height="8" rx=""2.4"" ry=""2.4"" fill=""url(#qr-gradient)"/>
<rect x="80" y="144" width="8" height="8" rx=""2.4"" ry=""2.4"" fill=""url(#qr-gradient)"/>
<rect x="88" y="144" width="8" height="8" rx=""2.4"" ry=""2.4"" fill=""url(#qr-gradient)"/>
<rect x="96" y="144" width="8" height="8" rx=""2.4"" ry=""2.4"" fill=""url(#qr-gradient)"/>
<rect x="120" y="144" width="8" height="8" rx=""2.4"" ry=""2.4"" fill=""url(#qr-gradient)"/>
<rect x="136" y="144" width="8" height="8" rx=""2.4"" ry=""2.4"" fill=""url(#qr-gradient)"/>
<rect x="144" y="144" width="8" height="8" rx=""2.4"" ry=""2.4"" fill=""url(#qr-gradient)"/>
<rect x="152" y="144" width="8" height="8" rx=""2.4"" ry=""2.4"" fill=""url(#qr-gradient)"/>
<rect x="160" y="144" width="8" height="8" rx=""2.4"" ry=""2.4"" fill=""url(#qr-gradient)"/>
<rect x="168" y="144" width="8" height="8" rx=""2.4"" ry=""2.4"" fill=""url(#qr-gradient)"/>
<rect x="176" y="144" width="8" height="8" rx=""2.4"" ry=""2.4"" fill=""url(#qr-gradient)"/>
<rect x="192" y="144" width="8" height="8" rx=""2.4"" ry=""2.4"" fill=""url(#qr-gradient)"/>
<rect x="200" y="144" width="8" height="8" rx=""2.4"" ry=""2.4"" fill=""url(#qr-gradient)"/>
<rect x="80" y="152" width="8" height="8" rx=""2.4"" ry=""2.4"" fill=""url(#qr-gradient)"/>
<rect x="88" y="152" width="8" height="8" rx=""2.4"" ry=""2.4"" fill=""url(#qr-gradient)"/>
<rect x="104" y="152" width="8" height="8" rx=""2.4"" ry=""2.4"" fill=""url(#qr-gradient)"/>
<rect x="112" y="152" width="8" height="8" rx=""2.4"" ry=""2.4"" fill=""url(#qr-gradient)"/>
<rect x="128" y="152" width="8" height="8" rx=""2.4"" ry=""2.4"" fill=""url(#qr-gradient)"/>
<rect x="136" y="152" width="8" height="8" rx=""2.4"" ry=""2.4"" fill=""url(#qr-gradient)"/>
<rect x="144" y="152" width="8" height="8" rx=""2.4"" ry=""2.4"" fill=""url(#qr-gradient)"/>
<rect x="176" y="152" width="8" height="8" rx=""2.4"" ry=""2.4"" fill=""url(#qr-gradient)"/>
<rect x="192" y="152" width="8" height="8" rx=""2.4"" ry=""2.4"" fill=""url(#qr-gradient)"/>
<rect x="200" y="152" width="8" height="8" rx=""2.4"" ry=""2.4"" fill=""url(#qr-gradient)"/>
<rect x="80" y="160" width="8" height="8" rx=""2.4"" ry=""2.4"" fill=""url(#qr-gradient)"/>
<rect x="104" y="160" width="8" height="8" rx=""2.4"" ry=""2.4"" fill=""url(#qr-gradient)"/>
<rect x="128" y="160" width="8" height="8" rx=""2.4"" ry=""2.4"" fill=""url(#qr-gradient)"/>
<rect x="144" y="160" width="8" height="8" rx=""2.4"" ry=""2.4"" fill=""url(#qr-gradient)"/>
<rect x="160" y="160" width="8" height="8" rx=""2.4"" ry=""2.4"" fill=""url(#qr-gradient)"/>
<rect x="176" y="160" width="8" height="8" rx=""2.4"" ry=""2.4"" fill=""url(#qr-gradient)"/>
<rect x="208" y="160" width="8" height="8" rx=""2.4"" ry=""2.4"" fill=""url(#qr-gradient)"/>
<rect x="80" y="168" width="8" height="8" rx=""2.4"" ry=""2.4"" fill=""url(#qr-gradient)"/>
<rect x="88" y="168" width="8" height="8" rx=""2.4"" ry=""2.4"" fill=""url(#qr-gradient)"/>
<rect x="112" y="168" width="8" height="8" rx=""2.4"" ry=""2.4"" fill=""url(#qr-gradient)"/>
<rect x="120" y="168" width="8" height="8" rx=""2.4"" ry=""2.4"" fill=""url(#qr-gradient)"/>
<rect x="128" y="168" width="8" height="8" rx=""2.4"" ry=""2.4"" fill=""url(#qr-gradient)"/>
<rect x="136" y="168" width="8" height="8" rx=""2.4"" ry=""2.4"" fill=""url(#qr-gradient)"/>
<rect x="144" y="168" width="8" height="8" rx=""2.4"" ry=""2.4"" fill=""url(#qr-gradient)"/>
<rect x="176" y="168" width="8" height="8" rx=""2.4"" ry=""2.4"" fill=""url(#qr-gradient)"/>
<rect x="200" y="168" width="8" height="8" rx=""2.4"" ry=""2.4"" fill=""url(#qr-gradient)"/>
<rect x="80" y="176" width="8" height="8" rx=""2.4"" ry=""2.4"" fill=""url(#qr-gradient)"/>
<rect x="96" y="176" width="8" height="8" rx=""2.4"" ry=""2.4"" fill=""url(#qr-gradient)"/>
<rect x="112" y="176" width="8" height="8" rx=""2.4"" ry=""2.4"" fill=""url(#qr-gradient)"/>
<rect x="128" y="176" width="8" height="8" rx=""2.4"" ry=""2.4"" fill=""url(#qr-gradient)"/>
<rect x="136" y="176" width="8" height="8" rx=""2.4"" ry=""2.4"" fill=""url(#qr-gradient)"/>
<rect x="144" y="176" width="8" height="8" rx=""2.4"" ry=""2.4"" fill=""url(#qr-gradient)"/>
<rect x="152" y="176" width="8" height="8" rx=""2.4"" ry=""2.4"" fill=""url(#qr-gradient)"/>
<rect x="160" y="176" width="8" height="8" rx=""2.4"" ry=""2.4"" fill=""url(#qr-gradient)"/>
<rect x="168" y="176" width="8" height="8" rx=""2.4"" ry=""2.4"" fill=""url(#qr-gradient)"/>
<rect x="176" y="176" width="8" height="8" rx=""2.4"" ry=""2.4"" fill=""url(#qr-gradient)"/>
<rect x="200" y="176" width="8" height="8" rx=""2.4"" ry=""2.4"" fill=""url(#qr-gradient)"/>
<rect x="208" y="176" width="8" height="8" rx=""2.4"" ry=""2.4"" fill=""url(#qr-gradient)"/>
<rect x="80" y="184" width="8" height="8" rx=""2.4"" ry=""2.4"" fill=""url(#qr-gradient)"/>
<rect x="96" y="184" width="8" height="8" rx=""2.4"" ry=""2.4"" fill=""url(#qr-gradient)"/>
<rect x="128" y="184" width="8" height="8" rx=""2.4"" ry=""2.4"" fill=""url(#qr-gradient)"/>
<rect x="136" y="184" width="8" height="8" rx=""2.4"" ry=""2.4"" fill=""url(#qr-gradient)"/>
<rect x="144" y="184" width="8" height="8" rx=""2.4"" ry=""2.4"" fill=""url(#qr-gradient)"/>
<rect x="152" y="184" width="8" height="8" rx=""2.4"" ry=""2.4"" fill=""url(#qr-gradient)"/>
<rect x="160" y="184" width="8" height="8" rx=""2.4"" ry=""2.4"" fill=""url(#qr-gradient)"/>
<rect x="200" y="184" width="8" height="8" rx=""2.4"" ry=""2.4"" fill=""url(#qr-gradient)"/>
<rect x="208" y="184" width="8" height="8" rx=""2.4"" ry=""2.4"" fill=""url(#qr-gradient)"/>
<rect x="96" y="192" width="8" height="8" rx=""2.4"" ry=""2.4"" fill=""url(#qr-gradient)"/>
<rect x="112" y="192" width="8" height="8" rx=""2.4"" ry=""2.4"" fill=""url(#qr-gradient)"/>
<rect x="120" y="192" width="8" height="8" rx=""2.4"" ry=""2.4"" fill=""url(#qr-gradient)"/>
<rect x="136" y="192" width="8" height="8" rx=""2.4"" ry=""2.4"" fill=""url(#qr-gradient)"/>
<rect x="144" y="192" width="8" height="8" rx=""2.4"" ry=""2.4"" fill=""url(#qr-gradient)"/>
<rect x="176" y="192" width="8" height="8" rx=""2.4"" ry=""2.4"" fill=""url(#qr-gradient)"/>
<rect x="184" y="192" width="8" height="8" rx=""2.4"" ry=""2.4"" fill=""url(#qr-gradient)"/>
<rect x="192" y="192" width="8" height="8" rx=""2.4"" ry=""2.4"" fill=""url(#qr-gradient)"/>
<rect x="200" y="192" width="8" height="8" rx=""2.4"" ry=""2.4"" fill=""url(#qr-gradient)"/>
<rect x="208" y="192" width="8" height="8" rx=""2.4"" ry=""2.4"" fill=""url(#qr-gradient)"/>
<rect x="96" y="200" width="8" height="8" rx=""2.4"" ry=""2.4"" fill=""url(#qr-gradient)"/>
<rect x="128" y="200" width="8" height="8" rx=""2.4"" ry=""2.4"" fill=""url(#qr-gradient)"/>
<rect x="152" y="200" width="8" height="8" rx=""2.4"" ry=""2.4"" fill=""url(#qr-gradient)"/>
<rect x="168" y="200" width="8" height="8" rx=""2.4"" ry=""2.4"" fill=""url(#qr-gradient)"/>
<rect x="176" y="200" width="8" height="8" rx=""2.4"" ry=""2.4"" fill=""url(#qr-gradient)"/>
<rect x="192" y="200" width="8" height="8" rx=""2.4"" ry=""2.4"" fill=""url(#qr-gradient)"/>
<rect x="200" y="200" width="8" height="8" rx=""2.4"" ry=""2.4"" fill=""url(#qr-gradient)"/>
<rect x="208" y="200" width="8" height="8" rx=""2.4"" ry=""2.4"" fill=""url(#qr-gradient)"/>
<rect x="80" y="208" width="8" height="8" rx=""2.4"" ry=""2.4"" fill=""url(#qr-gradient)"/>
<rect x="96" y="208" width="8" height="8" rx=""2.4"" ry=""2.4"" fill=""url(#qr-gradient)"/>
<rect x="112" y="208" width="8" height="8" rx=""2.4"" ry=""2.4"" fill=""url(#qr-gradient)"/>
<rect x="120" y="208" width="8" height="8" rx=""2.4"" ry=""2.4"" fill=""url(#qr-gradient)"/>
<rect x="128" y="208" width="8" height="8" rx=""2.4"" ry=""2.4"" fill=""url(#qr-gradient)"/>
<rect x="144" y="208" width="8" height="8" rx=""2.4"" ry=""2.4"" fill=""url(#qr-gradient)"/>
<rect x="152" y="208" width="8" height="8" rx=""2.4"" ry=""2.4"" fill=""url(#qr-gradient)"/>
<rect x="160" y="208" width="8" height="8" rx=""2.4"" ry=""2.4"" fill=""url(#qr-gradient)"/>
<rect x="184" y="208" width="8" height="8" rx=""2.4"" ry=""2.4"" fill=""url(#qr-gradient)"/>
<rect x="208" y="208" width="8" height="8" rx=""2.4"" ry=""2.4"" fill=""url(#qr-gradient)"/>
<rect x="16" y="16" width="8" height="8" fill=""url(#qr-gradient)"/>
<rect x="24" y="16" width="8" height="8" fill=""url(#qr-gradient)"/>
<rect x="32" y="16" width="8" height="8" fill=""url(#qr-gradient)"/>
<rect x="40" y="16" width="8" height="8" fill=""url(#qr-gradient)"/>
<rect x="48" y="16" width="8" height="8" fill=""url(#qr-gradient)"/>
<rect x="56" y="16" width="8" height="8" fill=""url(#qr-gradient)"/>
<rect x="64" y="16" width="8" height="8" fill=""url(#qr-gradient)"/>
<rect x="160" y="16" width="8" height="8" fill=""url(#qr-gradient)"/>
<rect x="168" y="16" width="8" height="8" fill=""url(#qr-gradient)"/>
<rect x="176" y="16" width="8" height="8" fill=""url(#qr-gradient)"/>
<rect x="184" y="16" width="8" height="8" fill=""url(#qr-gradient)"/>
<rect x="192" y="16" width="8" height="8" fill=""url(#qr-gradient)"/>
<rect x="200" y="16" width="8" height="8" fill=""url(#qr-gradient)"/>
<rect x="208" y="16" width="8" height="8" fill=""url(#qr-gradient)"/>
<rect x="16" y="24" width="8" height="8" fill=""url(#qr-gradient)"/>
<rect x="64" y="24" width="8" height="8" fill=""url(#qr-gradient)"/>
<rect x="160" y="24" width="8" height="8" fill=""url(#qr-gradient)"/>
<rect x="208" y="24" width="8" height="8" fill=""url(#qr-gradient)"/>
<rect x="16" y="32" width="8" height="8" fill=""url(#qr-gradient)"/>
<rect x="32" y="32" width="8" height="8" fill=""url(#qr-gradient)"/>
<rect x="40" y="32" width="8" height="8" fill=""url(#qr-gradient)"/>
<rect x="48" y="32" width="8" height="8" fill=""url(#qr-gradient)"/>
<rect x="64" y="32" width="8" height="8" fill=""url(#qr-gradient)"/>
<rect x="160" y="32" width="8" height="8" fill=""url(#qr-gradient)"/>
<rect x="176" y="32" width="8" height="8" fill=""url(#qr-gradient)"/>
<rect x="184" y="32" width="8" height="8" fill=""url(#qr-gradient)"/>
<rect x="192" y="32" width="8" height="8" fill=""url(#qr-gradient)"/>
<rect x="208" y="32" width="8" height="8" fill=""url(#qr-gradient)"/>
<rect x="16" y="40" width="8" height="8" fill=""url(#qr-gradient)"/>
<rect x="32" y="40" width="8" height="8" fill=""url(#qr-gradient)"/>
<rect x="40" y="40" width="8" height="8" fill=""url(#qr-gradient)"/>
<rect x="48" y="40" width="8" height="8" fill=""url(#qr-gradient)"/>
<rect x="64" y="40" width="8" height="8" fill=""url(#qr-gradient)"/>
<rect x="160" y="40" width="8" height="8" fill=""url(#qr-gradient)"/>
<rect x="176" y="40" width="8" height="8" fill=""url(#qr-gradient)"/>
<rect x="184" y="40" width="8" height="8" fill=""url(#qr-gradient)"/>
<rect x="192" y="40" width="8" height="8" fill=""url(#qr-gradient)"/>
<rect x="208" y="40" width="8" height="8" fill=""url(#qr-gradient)"/>
<rect x="16" y="48" width="8" height="8" fill=""url(#qr-gradient)"/>
<rect x="32" y="48" width="8" height="8" fill=""url(#qr-gradient)"/>
<rect x="40" y="48" width="8" height="8" fill=""url(#qr-gradient)"/>
<rect x="48" y="48" width="8" height="8" fill=""url(#qr-gradient)"/>
<rect x="64" y="48" width="8" height="8" fill=""url(#qr-gradient)"/>
<rect x="160" y="48" width="8" height="8" fill=""url(#qr-gradient)"/>
<rect x="176" y="48" width="8" height="8" fill=""url(#qr-gradient)"/>
<rect x="184" y="48" width="8" height="8" fill=""url(#qr-gradient)"/>
<rect x="192" y="48" width="8" height="8" fill=""url(#qr-gradient)"/>
<rect x="208" y="48" width="8" height="8" fill=""url(#qr-gradient)"/>
<rect x="16" y="56" width="8" height="8" fill=""url(#qr-gradient)"/>
<rect x="64" y="56" width="8" height="8" fill=""url(#qr-gradient)"/>
<rect x="160" y="56" width="8" height="8" fill=""url(#qr-gradient)"/>
<rect x="208" y="56" width="8" height="8" fill=""url(#qr-gradient)"/>
<rect x="16" y="64" width="8" height="8" fill=""url(#qr-gradient)"/>
<rect x="24" y="64" width="8" height="8" fill=""url(#qr-gradient)"/>
<rect x="32" y="64" width="8" height="8" fill=""url(#qr-gradient)"/>
<rect x="40" y="64" width="8" height="8" fill=""url(#qr-gradient)"/>
<rect x="48" y="64" width="8" height="8" fill=""url(#qr-gradient)"/>
<rect x="56" y="64" width="8" height="8" fill=""url(#qr-gradient)"/>
<rect x="64" y="64" width="8" height="8" fill=""url(#qr-gradient)"/>
<rect x="160" y="64" width="8" height="8" fill=""url(#qr-gradient)"/>
<rect x="168" y="64" width="8" height="8" fill=""url(#qr-gradient)"/>
<rect x="176" y="64" width="8" height="8" fill=""url(#qr-gradient)"/>
<rect x="184" y="64" width="8" height="8" fill=""url(#qr-gradient)"/>
<rect x="192" y="64" width="8" height="8" fill=""url(#qr-gradient)"/>
<rect x="200" y="64" width="8" height="8" fill=""url(#qr-gradient)"/>
<rect x="208" y="64" width="8" height="8" fill=""url(#qr-gradient)"/>
<rect x="16" y="160" width="8" height="8" fill=""url(#qr-gradient)"/>
<rect x="24" y="160" width="8" height="8" fill=""url(#qr-gradient)"/>
<rect x="32" y="160" width="8" height="8" fill=""url(#qr-gradient)"/>
<rect x="40" y="160" width="8" height="8" fill=""url(#qr-gradient)"/>
<rect x="48" y="160" width="8" height="8" fill=""url(#qr-gradient)"/>
<rect x="56" y="160" width="8" height="8" fill=""url(#qr-gradient)"/>
<rect x="64" y="160" width="8" height="8" fill=""url(#qr-gradient)"/>
<rect x="16" y="168" width="8" height="8" fill=""url(#qr-gradient)"/>
<rect x="64" y="168" width="8" height="8" fill=""url(#qr-gradient)"/>
<rect x="16" y="176" width="8" height="8" fill=""url(#qr-gradient)"/>
<rect x="32" y="176" width="8" height="8" fill=""url(#qr-gradient)"/>
<rect x="40" y="176" width="8" height="8" fill=""url(#qr-gradient)"/>
<rect x="48" y="176" width="8" height="8" fill=""url(#qr-gradient)"/>
<rect x="64" y="176" width="8" height="8" fill=""url(#qr-gradient)"/>
<rect x="16" y="184" width="8" height="8" fill=""url(#qr-gradient)"/>
<rect x="32" y="184" width="8" height="8" fill=""url(#qr-gradient)"/>
<rect x="40" y="184" width="8" height="8" fill=""url(#qr-gradient)"/>
<rect x="48" y="184" width="8" height="8" fill=""url(#qr-gradient)"/>
<rect x="64" y="184" width="8" height="8" fill=""url(#qr-gradient)"/>
<rect x="16" y="192" width="8" height="8" fill=""url(#qr-gradient)"/>
<rect x="32" y="192" width="8" height="8" fill=""url(#qr-gradient)"/>
<rect x="40" y="192" width="8" height="8" fill=""url(#qr-gradient)"/>
<rect x="48" y="192" width="8" height="8" fill=""url(#qr-gradient)"/>
<rect x="64" y="192" width="8" height="8" fill=""url(#qr-gradient)"/>
<rect x="16" y="200" width="8" height="8" fill=""url(#qr-gradient)"/>
<rect x="64" y="200" width="8" height="8" fill=""url(#qr-gradient)"/>
<rect x="16" y="208" width="8" height="8" fill=""url(#qr-gradient)"/>
<rect x="24" y="208" width="8" height="8" fill=""url(#qr-gradient)"/>
<rect x="32" y="208" width="8" height="8" fill=""url(#qr-gradient)"/>
<rect x="40" y="208" width="8" height="8" fill=""url(#qr-gradient)"/>
<rect x="48" y="208" width="8" height="8" fill=""url(#qr-gradient)"/>
<rect x="56" y="208" width="8" height="8" fill=""url(#qr-gradient)"/>
<rect x="64" y="208" width="8" height="8" fill=""url(#qr-gradient)"/>
</svg>
