<?xml version="1.0" encoding="UTF-8"?>
<svg xmlns="http://www.w3.org/2000/svg" version="1.1" width="225" height="225" viewBox="0 0 225 225">
<defs>
<radialGradient id="qr-gradient" gradientUnits="userSpaceOnUse" cx="112.5" cy="112.5" r="112.5">
<stop offset="0%" stop-color="#F59E0B"/>
<stop offset="100%" stop-color="#1E3A8A"/>
</radialGradient>
</defs>
<rect width="100%" height="100%" fill="#F8FAFC"/>
<rect x="90" y="18" width="9" height="9" rx="3.15" ry="3.15" fill="url(#qr-gradient)"/>
<rect x="99" y="27" width="9" height="9" rx="3.15" ry="3.15" fill="url(#qr-gradient)"/>
<rect x="108" y="27" width="9" height="9" rx="3.15" ry="3.15" fill="url(#qr-gradient)"/>
<rect x="90" y="36" width="9" height="9" rx="3.15" ry="3.15" fill="url(#qr-gradient)"/>
<rect x="108" y="36" width="9" height="9" rx="3.15" ry="3.15" fill="url(#qr-gradient)"/>
<rect x="117" y="36" width="9" height="9" rx="3.15" ry="3.15" fill="url(#qr-gradient)"/>
<rect x="99" y="45" width="9" height="9" rx="3.15" ry="3.15" fill="url(#qr-gradient)"/>
<rect x="108" y="45" width="9" height="9" rx="3.15" ry="3.15" fill="url(#qr-gradient)"/>
<rect x="90" y="54" width="9" height="9" rx="3.15" ry="3.15" fill="url(#qr-gradient)"/>
<rect x="126" y="54" width="9" height="9" rx="3.15" ry="3.15" fill="url(#qr-gradient)"/>
<rect x="99" y="63" width="9" height="9" rx="3.15" ry="3.15" fill="url(#qr-gradient)"/>
<rect x="126" y="63" width="9" height="9" rx="3.15" ry="3.15" fill="url(#qr-gradient)"/>
<rect x="90" y="72" width="9" height="9" rx="3.15" ry="3.15" fill="url(#qr-gradient)"/>
<rect x="108" y="72" width="9" height="9" rx="3.15" ry="3.15" fill="url(#qr-gradient)"/>
<rect x="126" y="72" width="9" height="9" rx="3.15" ry="3.15" fill="url(#qr-gradient)"/>
<rect x="99" y="81" width="9" height="9" rx="3.15" ry="3.15" fill="url(#qr-gradient)"/>
<rect x="108" y="81" width="9" height="9" rx="3.15" ry="3.15" fill="url(#qr-gradient)"/>
<rect x="117" y="81" width="9" height="9" rx="3.15" ry="3.15" fill="url(#qr-gradient)"/>
<rect x="126" y="81" width="9" height="9" rx="3.15" ry="3.15" fill="url(#qr-gradient)"/>
<rect x="27" y="90" width="9" height="9" rx="3.15" ry="3.15" fill="url(#qr-gradient)"/>
<rect x="54" y="90" width="9" height="9" rx="3.15" ry="3.15" fill="url(#qr-gradient)"/>
<rect x="72" y="90" width="9" height="9" rx="3.15" ry="3.15" fill="url(#qr-gradient)"/>
<rect x="108" y="90" width="9" height="9" rx="3.15" ry="3.15" fill="url(#qr-gradient)"/>
<rect x="117" y="90" width="9" height="9" rx="3.15" ry="3.15" fill="url(#qr-gradient)"/>
<rect x="162" y="90" width="9" height="9" rx="3.15" ry="3.15" fill="url(#qr-gradient)"/>
<rect x="189" y="90" width="9" height="9" rx="3.15" ry="3.15" fill="url(#qr-gradient)"/>
<rect x="18" y="99" width="9" height="9" rx="3.15" ry="3.15" fill="url(#qr-gradient)"/>
<rect x="27" y="99" width="9" height="9" rx="3.15" ry="3.15" fill="url(#qr-gradient)"/>
<rect x="54" y="99" width="9" height="9" rx="3.15" ry="3.15" fill="url(#qr-gradient)"/>
<rect x="90" y="99" width="9" height="9" rx="3.15" ry="3.15" fill="url(#qr-gradient)"/>
<rect x="144" y="99" width="9" height="9" rx="3.15" ry="3.15" fill="url(#qr-gradient)"/>
<rect x="171" y="99" width="9" height="9" rx="3.15" ry="3.15" fill="url(#qr-gradient)"/>
<rect x="180" y="99" width="9" height="9" rx="3.15" ry="3.15" fill="url(#qr-gradient)"/>
<rect x="189" y="99" width="9" height="9" rx="3.15" ry="3.15" fill="url(#qr-gradient)"/>
<rect x="18" y="108" width="9" height="9" rx="3.15" ry="3.15" fill="url(#qr-gradient)"/>
<rect x="36" y="108" width="9" height="9" rx="3.15" ry="3.15" fill="url(#qr-gradient)"/>
<rect x="45" y="108" width="9" height="9" rx="3.15" ry="3.15" fill="url(#qr-gradient)"/>
<rect x="54" y="108" width="9" height="9" rx="3.15" ry="3.15" fill="url(#qr-gradient)"/>
<rect x="72" y="108" width="9" height="9" rx="3.15" ry="3.15" fill="url(#qr-gradient)"/>
<rect x="90" y="108" width="9" height="9" rx="3.15" ry="3.15" fill="url(#qr-gradient)"/>
<rect x="108" y="108" width="9" height="9" rx="3.15" ry="3.15" fill="url(#qr-gradient)"/>
<rect x="126" y="108" width="9" height="9" rx="3.15" ry="3.15" fill="url(#qr-gradient)"/>
<rect x="162" y="108" width="9" height="9" rx="3.15" ry="3.15" fill="url(#qr-gradient)"/>
<rect x="171" y="108" width="9" height="9" rx="3.15" ry="3.15" fill="url(#qr-gradient)"/>
<rect x="180" y="108" width="9" height="9" rx="3.15" ry="3.15" fill="url(#qr-gradient)"/>
<rect x="189" y="108" width="9" height="9" rx="3.15" ry="3.15" fill="url(#qr-gradient)"/>
<rect x="198" y="108" width="9" height="9" rx="3.15" ry="3.15" fill="url(#qr-gradient)"/>
<rect x="18" y="117" width="9" height="9" rx="3.15" ry="3.15" fill="url(#qr-gradient)"/>
<rect x="90" y="117" width="9" height="9" rx="3.15" ry="3.15" fill="url(#qr-gradient)"/>
<rect x="144" y="117" width="9" height="9" rx="3.15" ry="3.15" fill="url(#qr-gradient)"/>
<rect x="171" y="117" width="9" height="9" rx="3.15" ry="3.15" fill="url(#qr-gradient)"/>
<rect x="180" y="117" width="9" height="9" rx="3.15" ry="3.15" fill="url(#qr-gradient)"/>
<rect x="189" y="117" width="9" height="9" rx="3.15" ry="3.15" fill="url(#qr-gradient)"/>
<rect x="198" y="117" width="9" height="9" rx="3.15" ry="3.15" fill="url(#qr-gradient)"/>
<rect x="27" y="126" width="9" height="9" rx="3.15" ry="3.15" fill="url(#qr-gradient)"/>
<rect x="36" y="126" width="9" height="9" rx="3.15" ry="3.15" fill="url(#qr-gradient)"/>
<rect x="54" y="126" width="9" height="9" rx="3.15" ry="3.15" fill="url(#qr-gradient)"/>
<rect x="72" y="126" width="9" height="9" rx="3.15" ry="3.15" fill="url(#qr-gradient)"/>
<rect x="90" y="126" width="9" height="9" rx="3.15" ry="3.15" fill="url(#qr-gradient)"/>
<rect x="126" y="126" width="9" height="9" rx="3.15" ry="3.15" fill="url(#qr-gradient)"/>
<rect x="144" y="126" width="9" height="9" rx="3.15" ry="3.15" fill="url(#qr-gradient)"/>
<rect x="162" y="126" width="9" height="9" rx="3.15" ry="3.15" fill="url(#qr-gradient)"/>
<rect x="90" y="135" width="9" height="9" rx="3.15" ry="3.15" fill="url(#qr-gradient)"/>
<rect x="117" y="135" width="9" height="9" rx="3.15" ry="3.15" fill="url(#qr-gradient)"/>
<rect x="135" y="135" width="9" height="9" rx="3.15" ry="3.15" fill="url(#qr-gradient)"/>
<rect x="153" y="135" width="9" height="9" rx="3.15" ry="3.15" fill="url(#qr-gradient)"/>
<rect x="180" y="135" width="9" height="9" rx="3.15" ry="3.15" fill="url(#qr-gradient)"/>
<rect x="189" y="135" width="9" height="9" rx="3.15" ry="3.15" fill="url(#qr-gradient)"/>
<rect x="108" y="144" width="9" height="9" rx="3.15" ry="3.15" fill="url(#qr-gradient)"/>
<rect x="117" y="144" width="9" height="9" rx="3.15" ry="3.15" fill="url(#qr-gradient)"/>
<rect x="135" y="144" width="9" height="9" rx="3.15" ry="3.15" fill="url(#qr-gradient)"/>
<rect x="144" y="144" width="9" height="9" rx="3.15" ry="3.15" fill="url(#qr-gradient)"/>
<rect x="153" y="144" width="9" height="9" rx="3.15" ry="3.15" fill="url(#qr-gradient)"/>
<rect x="189" y="144" width="9" height="9" rx="3.15" ry="3.15" fill="url(#qr-gradient)"/>
<rect x="198" y="144" width="9" height="9" rx="3.15" ry="3.15" fill="url(#qr-gradient)"/>
<rect x="117" y="153" width="9" height="9" rx="3.15" ry="3.15" fill="url(#qr-gradient)"/>
<rect x="126" y="153" width="9" height="9" rx="3.15" ry="3.15" fill="url(#qr-gradient)"/>
<rect x="135" y="153" width="9" height="9" rx="3.15" ry="3.15" fill="url(#qr-gradient)"/>
<rect x="153" y="153" width="9" height="9" rx="3.15" ry="3.15" fill="url(#qr-gradient)"/>
<rect x="162" y="153" width="9" height="9" rx="3.15" ry="3.15" fill="url(#qr-gradient)"/>
<rect x="171" y="153" width="9" height="9" rx="3.15" ry="3.15" fill="url(#qr-gradient)"/>
<rect x="180" y="153" width="9" height="9" rx="3.15" ry="3.15" fill="url(#qr-gradient)"/>
<rect x="198" y="153" width="9" height="9" rx="3.15" ry="3.15" fill="url(#qr-gradient)"/>
<rect x="90" y="162" width="9" height="9" rx="3.15" ry="3.15" fill="url(#qr-gradient)"/>
<rect x="117" y="162" width="9" height="9" rx="3.15" ry="3.15" fill="url(#qr-gradient)"/>
<rect x="135" y="162" width="9" height="9" rx="3.15" ry="3.15" fill="url(#qr-gradient)"/>
<rect x="144" y="162" width="9" height="9" rx="3.15" ry="3.15" fill="url(#qr-gradient)"/>
<rect x="153" y="162" width="9" height="9" rx="3.15" ry="3.15" fill="url(#qr-gradient)"/>
<rect x="198" y="162" width="9" height="9" rx="3.15" ry="3.15" fill="url(#qr-gradient)"/>
<rect x="99" y="171" width="9" height="9" rx="3.15" ry="3.15" fill="url(#qr-gradient)"/>
<rect x="108" y="171" width="9" height="9" rx="3.15" ry="3.15" fill="url(#qr-gradient)"/>
<rect x="144" y="171" width="9" height="9" rx="3.15" ry="3.15" fill="url(#qr-gradient)"/>
<rect x="153" y="171" width="9" height="9" rx="3.15" ry="3.15" fill="url(#qr-gradient)"/>
<rect x="189" y="171" width="9" height="9" rx="3.15" ry="3.15" fill="url(#qr-gradient)"/>
<rect x="90" y="180" width="9" height="9" rx="3.15" ry="3.15" fill="url(#qr-gradient)"/>
<rect x="99" y="180" width="9" height="9" rx="3.15" ry="3.15" fill="url(#qr-gradient)"/>
<rect x="126" y="180" width="9" height="9" rx="3.15" ry="3.15" fill="url(#qr-gradient)"/>
<rect x="162" y="180" width="9" height="9" rx="3.15" ry="3.15" fill="url(#qr-gradient)"/>
<rect x="171" y="180" width="9" height="9" rx="3.15" ry="3.15" fill="url(#qr-gradient)"/>
<rect x="180" y="180" width="9" height="9" rx="3.15" ry="3.15" fill="url(#qr-gradient)"/>
<rect x="198" y="180" width="9" height="9" rx="3.15" ry="3.15" fill="url(#qr-gradient)"/>
<rect x="99" y="189" width="9" height="9" rx="3.15" ry="3.15" fill="url(#qr-gradient)"/>
<rect x="144" y="189" width="9" height="9" rx="3.15" ry="3.15" fill="url(#qr-gradient)"/>
<rect x="153" y="189" width="9" height="9" rx="3.15" ry="3.15" fill="url(#qr-gradient)"/>
<rect x="180" y="189" width="9" height="9" rx="3.15" ry="3.15" fill="url(#qr-gradient)"/>
<rect x="189" y="189" width="9" height="9" rx="3.15" ry="3.15" fill="url(#qr-gradient)"/>
<rect x="198" y="189" width="9" height="9" rx="3.15" ry="3.15" fill="url(#qr-gradient)"/>
<rect x="90" y="198" width="9" height="9" rx="3.15" ry="3.15" fill="url(#qr-gradient)"/>
<rect x="126" y="198" width="9" height="9" rx="3.15" ry="3.15" fill="url(#qr-gradient)"/>
<rect x="144" y="198" width="9" height="9" rx="3.15" ry="3.15" fill="url(#qr-gradient)"/>
<rect x="162" y="198" width="9" height="9" rx="3.15" ry="3.15" fill="url(#qr-gradient)"/>
<rect x="180" y="198" width="9" height="9" rx="3.15" ry="3.15" fill="url(#qr-gradient)"/>
<rect x="198" y="198" width="9" height="9" rx="3.15" ry="3.15" fill="url(#qr-gradient)"/>
<rect x="18" y="18" width="9" height="9" fill="#000000"/>
<rect x="27" y="18" width="9" height="9" fill="#000000"/>
<rect x="36" y="18" width="9" height="9" fill="#000000"/>
<rect x="45" y="18" width="9" height="9" fill="#000000"/>
<rect x="54" y="18" width="9" height="9" fill="#000000"/>
<rect x="63" y="18" width="9" height="9" fill="#000000"/>
<rect x="72" y="18" width="9" height="9" fill="#000000"/>
<rect x="144" y="18" width="9" height="9" fill="#000000"/>
<rect x="153" y="18" width="9" height="9" fill="#000000"/>
<rect x="162" y="18" width="9" height="9" fill="#000000"/>
<rect x="171" y="18" width="9" height="9" fill="#000000"/>
<rect x="180" y="18" width="9" height="9" fill="#000000"/>
<rect x="189" y="18" width="9" height="9" fill="#000000"/>
<rect x="198" y="18" width="9" height="9" fill="#000000"/>
<rect x="18" y="27" width="9" height="9" fill="#000000"/>
<rect x="27" y="27" width="9" height="9" fill="#F8FAFC"/>
<rect x="36" y="27" width="9" height="9" fill="#F8FAFC"/>
<rect x="45" y="27" width="9" height="9" fill="#F8FAFC"/>
<rect x="54" y="27" width="9" height="9" fill="#F8FAFC"/>
<rect x="63" y="27" width="9" height="9" fill="#F8FAFC"/>
<rect x="72" y="27" width="9" height="9" fill="#000000"/>
<rect x="144" y="27" width="9" height="9" fill="#000000"/>
<rect x="153" y="27" width="9" height="9" fill="#F8FAFC"/>
<rect x="162" y="27" width="9" height="9" fill="#F8FAFC"/>
<rect x="171" y="27" width="9" height="9" fill="#F8FAFC"/>
<rect x="180" y="27" width="9" height="9" fill="#F8FAFC"/>
<rect x="189" y="27" width="9" height="9" fill="#F8FAFC"/>
<rect x="198" y="27" width="9" height="9" fill="#000000"/>
<rect x="18" y="36" width="9" height="9" fill="#000000"/>
<rect x="27" y="36" width="9" height="9" fill="#F8FAFC"/>
<rect x="36" y="36" width="9" height="9" fill="#000000"/>
<rect x="45" y="36" width="9" height="9" fill="#000000"/>
<rect x="54" y="36" width="9" height="9" fill="#000000"/>
<rect x="63" y="36" width="9" height="9" fill="#F8FAFC"/>
<rect x="72" y="36" width="9" height="9" fill="#000000"/>
<rect x="144" y="36" width="9" height="9" fill="#000000"/>
<rect x="153" y="36" width="9" height="9" fill="#F8FAFC"/>
<rect x="162" y="36" width="9" height="9" fill="#000000"/>
<rect x="171" y="36" width="9" height="9" fill="#000000"/>
<rect x="180" y="36" width="9" height="9" fill="#000000"/>
<rect x="189" y="36" width="9" height="9" fill="#F8FAFC"/>
<rect x="198" y="36" width="9" height="9" fill="#000000"/>
<rect x="18" y="45" width="9" height="9" fill="#000000"/>
<rect x="27" y="45" width="9" height="9" fill="#F8FAFC"/>
<rect x="36" y="45" width="9" height="9" fill="#000000"/>
<rect x="45" y="45" width="9" height="9" fill="#000000"/>
<rect x="54" y="45" width="9" height="9" fill="#000000"/>
<rect x="63" y="45" width="9" height="9" fill="#F8FAFC"/>
<rect x="72" y="45" width="9" height="9" fill="#000000"/>
<rect x="144" y="45" width="9" height="9" fill="#000000"/>
<rect x="153" y="45" width="9" height="9" fill="#F8FAFC"/>
<rect x="162" y="45" width="9" height="9" fill="#000000"/>
<rect x="171" y="45" width="9" height="9" fill="#000000"/>
<rect x="180" y="45" width="9" height="9" fill="#000000"/>
<rect x="189" y="45" width="9" height="9" fill="#F8FAFC"/>
<rect x="198" y="45" width="9" height="9" fill="#000000"/>
<rect x="18" y="54" width="9" height="9" fill="#000000"/>
<rect x="27" y="54" width="9" height="9" fill="#F8FAFC"/>
<rect x="36" y="54" width="9" height="9" fill="#000000"/>
<rect x="45" y="54" width="9" height="9" fill="#000000"/>
<rect x="54" y="54" width="9" height="9" fill="#000000"/>
<rect x="63" y="54" width="9" height="9" fill="#F8FAFC"/>
<rect x="72" y="54" width="9" height="9" fill="#000000"/>
<rect x="144" y="54" width="9" height="9" fill="#000000"/>
<rect x="153" y="54" width="9" height="9" fill="#F8FAFC"/>
<rect x="162" y="54" width="9" height="9" fill="#000000"/>
<rect x="171" y="54" width="9" height="9" fill="#000000"/>
<rect x="180" y="54" width="9" height="9" fill="#000000"/>
<rect x="189" y="54" width="9" height="9" fill="#F8FAFC"/>
<rect x="198" y="54" width="9" height="9" fill="#000000"/>
<rect x="18" y="63" width="9" height="9" fill="#000000"/>
<rect x="27" y="63" width="9" height="9" fill="#F8FAFC"/>
<rect x="36" y="63" width="9" height="9" fill="#F8FAFC"/>
<rect x="45" y="63" width="9" height="9" fill="#F8FAFC"/>
<rect x="54" y="63" width="9" height="9" fill="#F8FAFC"/>
<rect x="63" y="63" width="9" height="9" fill="#F8FAFC"/>
<rect x="72" y="63" width="9" height="9" fill="#000000"/>
<rect x="144" y="63" width="9" height="9" fill="#000000"/>
<rect x="153" y="63" width="9" height="9" fill="#F8FAFC"/>
<rect x="162" y="63" width="9" height="9" fill="#F8FAFC"/>
<rect x="171" y="63" width="9" height="9" fill="#F8FAFC"/>
<rect x="180" y="63" width="9" height="9" fill="#F8FAFC"/>
<rect x="189" y="63" width="9" height="9" fill="#F8FAFC"/>
<rect x="198" y="63" width="9" height="9" fill="#000000"/>
<rect x="18" y="72" width="9" height="9" fill="#000000"/>
<rect x="27" y="72" width="9" height="9" fill="#000000"/>
<rect x="36" y="72" width="9" height="9" fill="#000000"/>
<rect x="45" y="72" width="9" height="9" fill="#000000"/>
<rect x="54" y="72" width="9" height="9" fill="#000000"/>
<rect x="63" y="72" width="9" height="9" fill="#000000"/>
<rect x="72" y="72" width="9" height="9" fill="#000000"/>
<rect x="144" y="72" width="9" height="9" fill="#000000"/>
<rect x="153" y="72" width="9" height="9" fill="#000000"/>
<rect x="162" y="72" width="9" height="9" fill="#000000"/>
<rect x="171" y="72" width="9" height="9" fill="#000000"/>
<rect x="180" y="72" width="9" height="9" fill="#000000"/>
<rect x="189" y="72" width="9" height="9" fill="#000000"/>
<rect x="198" y="72" width="9" height="9" fill="#000000"/>
<rect x="18" y="144" width="9" height="9" fill="#000000"/>
<rect x="27" y="144" width="9" height="9" fill="#000000"/>
<rect x="36" y="144" width="9" height="9" fill="#000000"/>
<rect x="45" y="144" width="9" height="9" fill="#000000"/>
<rect x="54" y="144" width="9" height="9" fill="#000000"/>
<rect x="63" y="144" width="9" height="9" fill="#000000"/>
<rect x="72" y="144" width="9" height="9" fill="#000000"/>
<rect x="18" y="153" width="9" height="9" fill="#000000"/>
<rect x="27" y="153" width="9" height="9" fill="#F8FAFC"/>
<rect x="36" y="153" width="9" height="9" fill="#F8FAFC"/>
<rect x="45" y="153" width="9" height="9" fill="#F8FAFC"/>
<rect x="54" y="153" width="9" height="9" fill="#F8FAFC"/>
<rect x="63" y="153" width="9" height="9" fill="#F8FAFC"/>
<rect x="72" y="153" width="9" height="9" fill="#000000"/>
<rect x="18" y="162" width="9" height="9" fill="#000000"/>
<rect x="27" y="162" width="9" height="9" fill="#F8FAFC"/>
<rect x="36" y="162" width="9" height="9" fill="#000000"/>
<rect x="45" y="162" width="9" height="9" fill="#000000"/>
<rect x="54" y="162" width="9" height="9" fill="#000000"/>
<rect x="63" y="162" width="9" height="9" fill="#F8FAFC"/>
<rect x="72" y="162" width="9" height="9" fill="#000000"/>
<rect x="18" y="171" width="9" height="9" fill="#000000"/>
<rect x="27" y="171" width="9" height="9" fill="#F8FAFC"/>
<rect x="36" y="171" width="9" height="9" fill="#000000"/>
<rect x="45" y="171" width="9" height="9" fill="#000000"/>
<rect x="54" y="171" width="9" height="9" fill="#000000"/>
<rect x="63" y="171" width="9" height="9" fill="#F8FAFC"/>
<rect x="72" y="171" width="9" height="9" fill="#000000"/>
<rect x="18" y="180" width="9" height="9" fill="#000000"/>
<rect x="27" y="180" width="9" height="9" fill="#F8FAFC"/>
<rect x="36" y="180" width="9" height="9" fill="#000000"/>
<rect x="45" y="180" width="9" height="9" fill="#000000"/>
<rect x="54" y="180" width="9" height="9" fill="#000000"/>
<rect x="63" y="180" width="9" height="9" fill="#F8FAFC"/>
<rect x="72" y="180" width="9" height="9" fill="#000000"/>
<rect x="18" y="189" width="9" height="9" fill="#000000"/>
<rect x="27" y="189" width="9" height="9" fill="#F8FAFC"/>
<rect x="36" y="189" width="9" height="9" fill="#F8FAFC"/>
<rect x="45" y="189" width="9" height="9" fill="#F8FAFC"/>
<rect x="54" y="189" width="9" height="9" fill="#F8FAFC"/>
<rect x="63" y="189" width="9" height="9" fill="#F8FAFC"/>
<rect x="72" y="189" width="9" height="9" fill="#000000"/>
<rect x="18" y="198" width="9" height="9" fill="#000000"/>
<rect x="27" y="198" width="9" height="9" fill="#000000"/>
<rect x="36" y="198" width="9" height="9" fill="#000000"/>
<rect x="45" y="198" width="9" height="9" fill="#000000"/>
<rect x="54" y="198" width="9" height="9" fill="#000000"/>
<rect x="63" y="198" width="9" height="9" fill="#000000"/>
<rect x="72" y="198" width="9" height="9" fill="#000000"/>
</svg>
