<?xml version="1.0" encoding="UTF-8"?>
<svg xmlns="http://www.w3.org/2000/svg" version="1.1" width="232" height="232" viewBox="0 0 232 232">
<rect width="100%" height="100%" fill="#ffffff"/>
<path d="M 80.0 16.0 L 88.0 16.0 L 88.0 20.4 C 88.0 22.2 85.2 24.0 84.0 24.0 C 82.8 24.0 80.0 22.2 80.0 20.4 Z" fill="#000000"/>
<path d="M 104.0 16.0 L 112.0 16.0 L 112.0 20.4 C 112.0 22.2 109.2 24.0 108.0 24.0 C 106.8 24.0 104.0 22.2 104.0 20.4 Z" fill="#000000"/>
<path d="M 112.0 16.0 L 120.0 16.0 L 120.0 20.4 C 120.0 22.2 117.2 24.0 116.0 24.0 C 114.8 24.0 112.0 22.2 112.0 20.4 Z" fill="#000000"/>
<path d="M 128.0 16.0 L 136.0 16.0 L 136.0 20.4 C 136.0 22.2 133.2 24.0 132.0 24.0 C 130.8 24.0 128.0 22.2 128.0 20.4 Z" fill="#000000"/>
<path d="M 104.0 24.0 L 112.0 24.0 L 112.0 28.4 C 112.0 30.2 109.2 32.0 108.0 32.0 C 106.8 32.0 104.0 30.2 104.0 28.4 Z" fill="#000000"/>
<path d="M 112.0 24.0 L 120.0 24.0 L 120.0 28.4 C 120.0 30.2 117.2 32.0 116.0 32.0 C 114.8 32.0 112.0 30.2 112.0 28.4 Z" fill="#000000"/>
<path d="M 144.0 24.0 L 152.0 24.0 L 152.0 28.4 C 152.0 30.2 149.2 32.0 148.0 32.0 C 146.8 32.0 144.0 30.2 144.0 28.4 Z" fill="#000000"/>
<path d="M 88.0 32.0 L 96.0 32.0 L 96.0 36.4 C 96.0 38.2 93.2 40.0 92.0 40.0 C 90.8 40.0 88.0 38.2 88.0 36.4 Z" fill="#000000"/>
<path d="M 104.0 32.0 L 112.0 32.0 L 112.0 36.4 C 112.0 38.2 109.2 40.0 108.0 40.0 C 106.8 40.0 104.0 38.2 104.0 36.4 Z" fill="#000000"/>
<path d="M 112.0 32.0 L 120.0 32.0 L 120.0 36.4 C 120.0 38.2 117.2 40.0 116.0 40.0 C 114.8 40.0 112.0 38.2 112.0 36.4 Z" fill="#000000"/>
<path d="M 120.0 32.0 L 128.0 32.0 L 128.0 36.4 C 128.0 38.2 125.2 40.0 124.0 40.0 C 122.8 40.0 120.0 38.2 120.0 36.4 Z" fill="#000000"/>
<path d="M 136.0 32.0 L 144.0 32.0 L 144.0 36.4 C 144.0 38.2 141.2 40.0 140.0 40.0 C 138.8 40.0 136.0 38.2 136.0 36.4 Z" fill="#000000"/>
<path d="M 144.0 32.0 L 152.0 32.0 L 152.0 36.4 C 152.0 38.2 149.2 40.0 148.0 40.0 C 146.8 40.0 144.0 38.2 144.0 36.4 Z" fill="#000000"/>
<path d="M 80.0 40.0 L 88.0 40.0 L 88.0 44.4 C 88.0 46.2 85.2 48.0 84.0 48.0 C 82.8 48.0 80.0 46.2 80.0 44.4 Z" fill="#000000"/>
<path d="M 120.0 40.0 L 128.0 40.0 L 128.0 44.4 C 128.0 46.2 125.2 48.0 124.0 48.0 C 122.8 48.0 120.0 46.2 120.0 44.4 Z" fill="#000000"/>
<path d="M 144.0 40.0 L 152.0 40.0 L 152.0 44.4 C 152.0 46.2 149.2 48.0 148.0 48.0 C 146.8 48.0 144.0 46.2 144.0 44.4 Z" fill="#000000"/>
<path d="M 80.0 48.0 L 88.0 48.0 L 88.0 52.4 C 88.0 54.2 85.2 56.0 84.0 56.0 C 82.8 56.0 80.0 54.2 80.0 52.4 Z" fill="#000000"/>
<path d="M 88.0 48.0 L 96.0 48.0 L 96.0 52.4 C 96.0 54.2 93.2 56.0 92.0 56.0 C 90.8 56.0 88.0 54.2 88.0 52.4 Z" fill="#000000"/>
<path d="M 104.0 48.0 L 112.0 48.0 L 112.0 52.4 C 112.0 54.2 109.2 56.0 108.0 56.0 C 106.8 56.0 104.0 54.2 104.0 52.4 Z" fill="#000000"/>
<path d="M 112.0 48.0 L 120.0 48.0 L 120.0 52.4 C 120.0 54.2 117.2 56.0 116.0 56.0 C 114.8 56.0 112.0 54.2 112.0 52.4 Z" fill="#000000"/>
<path d="M 128.0 48.0 L 136.0 48.0 L 136.0 52.4 C 136.0 54.2 133.2 56.0 132.0 56.0 C 130.8 56.0 128.0 54.2 128.0 52.4 Z" fill="#000000"/>
<path d="M 144.0 48.0 L 152.0 48.0 L 152.0 52.4 C 152.0 54.2 149.2 56.0 148.0 56.0 C 146.8 56.0 144.0 54.2 144.0 52.4 Z" fill="#000000"/>
<path d="M 80.0 56.0 L 88.0 56.0 L 88.0 60.4 C 88.0 62.2 85.2 64.0 84.0 64.0 C 82.8 64.0 80.0 62.2 80.0 60.4 Z" fill="#000000"/>
<path d="M 104.0 56.0 L 112.0 56.0 L 112.0 60.4 C 112.0 62.2 109.2 64.0 108.0 64.0 C 106.8 64.0 104.0 62.2 104.0 60.4 Z" fill="#000000"/>
<path d="M 112.0 56.0 L 120.0 56.0 L 120.0 60.4 C 120.0 62.2 117.2 64.0 116.0 64.0 C 114.8 64.0 112.0 62.2 112.0 60.4 Z" fill="#000000"/>
<path d="M 120.0 56.0 L 128.0 56.0 L 128.0 60.4 C 128.0 62.2 125.2 64.0 124.0 64.0 C 122.8 64.0 120.0 62.2 120.0 60.4 Z" fill="#000000"/>
<path d="M 128.0 56.0 L 136.0 56.0 L 136.0 60.4 C 136.0 62.2 133.2 64.0 132.0 64.0 C 130.8 64.0 128.0 62.2 128.0 60.4 Z" fill="#000000"/>
<path d="M 144.0 56.0 L 152.0 56.0 L 152.0 60.4 C 152.0 62.2 149.2 64.0 148.0 64.0 C 146.8 64.0 144.0 62.2 144.0 60.4 Z" fill="#000000"/>
<path d="M 80.0 64.0 L 88.0 64.0 L 88.0 68.4 C 88.0 70.2 85.2 72.0 84.0 72.0 C 82.8 72.0 80.0 70.2 80.0 68.4 Z" fill="#000000"/>
<path d="M 96.0 64.0 L 104.0 64.0 L 104.0 68.4 C 104.0 70.2 101.2 72.0 100.0 72.0 C 98.8 72.0 96.0 70.2 96.0 68.4 Z" fill="#000000"/>
<path d="M 112.0 64.0 L 120.0 64.0 L 120.0 68.4 C 120.0 70.2 117.2 72.0 116.0 72.0 C 114.8 72.0 112.0 70.2 112.0 68.4 Z" fill="#000000"/>
<path d="M 128.0 64.0 L 136.0 64.0 L 136.0 68.4 C 136.0 70.2 133.2 72.0 132.0 72.0 C 130.8 72.0 128.0 70.2 128.0 68.4 Z" fill="#000000"/>
<path d="M 144.0 64.0 L 152.0 64.0 L 152.0 68.4 C 152.0 70.2 149.2 72.0 148.0 72.0 C 146.8 72.0 144.0 70.2 144.0 68.4 Z" fill="#000000"/>
<path d="M 80.0 72.0 L 88.0 72.0 L 88.0 76.4 C 88.0 78.2 85.2 80.0 84.0 80.0 C 82.8 80.0 80.0 78.2 80.0 76.4 Z" fill="#000000"/>
<path d="M 104.0 72.0 L 112.0 72.0 L 112.0 76.4 C 112.0 78.2 109.2 80.0 108.0 80.0 C 106.8 80.0 104.0 78.2 104.0 76.4 Z" fill="#000000"/>
<path d="M 112.0 72.0 L 120.0 72.0 L 120.0 76.4 C 120.0 78.2 117.2 80.0 116.0 80.0 C 114.8 80.0 112.0 78.2 112.0 76.4 Z" fill="#000000"/>
<path d="M 120.0 72.0 L 128.0 72.0 L 128.0 76.4 C 128.0 78.2 125.2 80.0 124.0 80.0 C 122.8 80.0 120.0 78.2 120.0 76.4 Z" fill="#000000"/>
<path d="M 144.0 72.0 L 152.0 72.0 L 152.0 76.4 C 152.0 78.2 149.2 80.0 148.0 80.0 C 146.8 80.0 144.0 78.2 144.0 76.4 Z" fill="#000000"/>
<path d="M 16.0 80.0 L 24.0 80.0 L 24.0 84.4 C 24.0 86.2 21.2 88.0 20.0 88.0 C 18.8 88.0 16.0 86.2 16.0 84.4 Z" fill="#000000"/>
<path d="M 24.0 80.0 L 32.0 80.0 L 32.0 84.4 C 32.0 86.2 29.2 88.0 28.0 88.0 C 26.8 88.0 24.0 86.2 24.0 84.4 Z" fill="#000000"/>
<path d="M 32.0 80.0 L 40.0 80.0 L 40.0 84.4 C 40.0 86.2 37.2 88.0 36.0 88.0 C 34.8 88.0 32.0 86.2 32.0 84.4 Z" fill="#000000"/>
<path d="M 48.0 80.0 L 56.0 80.0 L 56.0 84.4 C 56.0 86.2 53.2 88.0 52.0 88.0 C 50.8 88.0 48.0 86.2 48.0 84.4 Z" fill="#000000"/>
<path d="M 64.0 80.0 L 72.0 80.0 L 72.0 84.4 C 72.0 86.2 69.2 88.0 68.0 88.0 C 66.8 88.0 64.0 86.2 64.0 84.4 Z" fill="#000000"/>
<path d="M 80.0 80.0 L 88.0 80.0 L 88.0 84.4 C 88.0 86.2 85.2 88.0 84.0 88.0 C 82.8 88.0 80.0 86.2 80.0 84.4 Z" fill="#000000"/>
<path d="M 96.0 80.0 L 104.0 80.0 L 104.0 84.4 C 104.0 86.2 101.2 88.0 100.0 88.0 C 98.8 88.0 96.0 86.2 96.0 84.4 Z" fill="#000000"/>
<path d="M 104.0 80.0 L 112.0 80.0 L 112.0 84.4 C 112.0 86.2 109.2 88.0 108.0 88.0 C 106.8 88.0 104.0 86.2 104.0 84.4 Z" fill="#000000"/>
<path d="M 112.0 80.0 L 120.0 80.0 L 120.0 84.4 C 120.0 86.2 117.2 88.0 116.0 88.0 C 114.8 88.0 112.0 86.2 112.0 84.4 Z" fill="#000000"/>
<path d="M 144.0 80.0 L 152.0 80.0 L 152.0 84.4 C 152.0 86.2 149.2 88.0 148.0 88.0 C 146.8 88.0 144.0 86.2 144.0 84.4 Z" fill="#000000"/>
<path d="M 152.0 80.0 L 160.0 80.0 L 160.0 84.4 C 160.0 86.2 157.2 88.0 156.0 88.0 C 154.8 88.0 152.0 86.2 152.0 84.4 Z" fill="#000000"/>
<path d="M 176.0 80.0 L 184.0 80.0 L 184.0 84.4 C 184.0 86.2 181.2 88.0 180.0 88.0 C 178.8 88.0 176.0 86.2 176.0 84.4 Z" fill="#000000"/>
<path d="M 192.0 80.0 L 200.0 80.0 L 200.0 84.4 C 200.0 86.2 197.2 88.0 196.0 88.0 C 194.8 88.0 192.0 86.2 192.0 84.4 Z" fill="#000000"/>
<path d="M 200.0 80.0 L 208.0 80.0 L 208.0 84.4 C 208.0 86.2 205.2 88.0 204.0 88.0 C 202.8 88.0 200.0 86.2 200.0 84.4 Z" fill="#000000"/>
<path d="M 208.0 80.0 L 216.0 80.0 L 216.0 84.4 C 216.0 86.2 213.2 88.0 212.0 88.0 C 210.8 88.0 208.0 86.2 208.0 84.4 Z" fill="#000000"/>
<path d="M 16.0 88.0 L 24.0 88.0 L 24.0 92.4 C 24.0 94.2 21.2 96.0 20.0 96.0 C 18.8 96.0 16.0 94.2 16.0 92.4 Z" fill="#000000"/>
<path d="M 40.0 88.0 L 48.0 88.0 L 48.0 92.4 C 48.0 94.2 45.2 96.0 44.0 96.0 C 42.8 96.0 40.0 94.2 40.0 92.4 Z" fill="#000000"/>
<path d="M 48.0 88.0 L 56.0 88.0 L 56.0 92.4 C 56.0 94.2 53.2 96.0 52.0 96.0 C 50.8 96.0 48.0 94.2 48.0 92.4 Z" fill="#000000"/>
<path d="M 56.0 88.0 L 64.0 88.0 L 64.0 92.4 C 64.0 94.2 61.2 96.0 60.0 96.0 C 58.8 96.0 56.0 94.2 56.0 92.4 Z" fill="#000000"/>
<path d="M 72.0 88.0 L 80.0 88.0 L 80.0 92.4 C 80.0 94.2 77.2 96.0 76.0 96.0 C 74.8 96.0 72.0 94.2 72.0 92.4 Z" fill="#000000"/>
<path d="M 88.0 88.0 L 96.0 88.0 L 96.0 92.4 C 96.0 94.2 93.2 96.0 92.0 96.0 C 90.8 96.0 88.0 94.2 88.0 92.4 Z" fill="#000000"/>
<path d="M 104.0 88.0 L 112.0 88.0 L 112.0 92.4 C 112.0 94.2 109.2 96.0 108.0 96.0 C 106.8 96.0 104.0 94.2 104.0 92.4 Z" fill="#000000"/>
<path d="M 112.0 88.0 L 120.0 88.0 L 120.0 92.4 C 120.0 94.2 117.2 96.0 116.0 96.0 C 114.8 96.0 112.0 94.2 112.0 92.4 Z" fill="#000000"/>
<path d="M 120.0 88.0 L 128.0 88.0 L 128.0 92.4 C 128.0 94.2 125.2 96.0 124.0 96.0 C 122.8 96.0 120.0 94.2 120.0 92.4 Z" fill="#000000"/>
<path d="M 128.0 88.0 L 136.0 88.0 L 136.0 92.4 C 136.0 94.2 133.2 96.0 132.0 96.0 C 130.8 96.0 128.0 94.2 128.0 92.4 Z" fill="#000000"/>
<path d="M 136.0 88.0 L 144.0 88.0 L 144.0 92.4 C 144.0 94.2 141.2 96.0 140.0 96.0 C 138.8 96.0 136.0 94.2 136.0 92.4 Z" fill="#000000"/>
<path d="M 168.0 88.0 L 176.0 88.0 L 176.0 92.4 C 176.0 94.2 173.2 96.0 172.0 96.0 C 170.8 96.0 168.0 94.2 168.0 92.4 Z" fill="#000000"/>
<path d="M 176.0 88.0 L 184.0 88.0 L 184.0 92.4 C 184.0 94.2 181.2 96.0 180.0 96.0 C 178.8 96.0 176.0 94.2 176.0 92.4 Z" fill="#000000"/>
<path d="M 184.0 88.0 L 192.0 88.0 L 192.0 92.4 C 192.0 94.2 189.2 96.0 188.0 96.0 C 186.8 96.0 184.0 94.2 184.0 92.4 Z" fill="#000000"/>
<path d="M 192.0 88.0 L 200.0 88.0 L 200.0 92.4 C 200.0 94.2 197.2 96.0 196.0 96.0 C 194.8 96.0 192.0 94.2 192.0 92.4 Z" fill="#000000"/>
<path d="M 200.0 88.0 L 208.0 88.0 L 208.0 92.4 C 208.0 94.2 205.2 96.0 204.0 96.0 C 202.8 96.0 200.0 94.2 200.0 92.4 Z" fill="#000000"/>
<path d="M 24.0 96.0 L 32.0 96.0 L 32.0 100.4 C 32.0 102.2 29.2 104.0 28.0 104.0 C 26.8 104.0 24.0 102.2 24.0 100.4 Z" fill="#000000"/>
<path d="M 32.0 96.0 L 40.0 96.0 L 40.0 100.4 C 40.0 102.2 37.2 104.0 36.0 104.0 C 34.8 104.0 32.0 102.2 32.0 100.4 Z" fill="#000000"/>
<path d="M 64.0 96.0 L 72.0 96.0 L 72.0 100.4 C 72.0 102.2 69.2 104.0 68.0 104.0 C 66.8 104.0 64.0 102.2 64.0 100.4 Z" fill="#000000"/>
<path d="M 80.0 96.0 L 88.0 96.0 L 88.0 100.4 C 88.0 102.2 85.2 104.0 84.0 104.0 C 82.8 104.0 80.0 102.2 80.0 100.4 Z" fill="#000000"/>
<path d="M 96.0 96.0 L 104.0 96.0 L 104.0 100.4 C 104.0 102.2 101.2 104.0 100.0 104.0 C 98.8 104.0 96.0 102.2 96.0 100.4 Z" fill="#000000"/>
<path d="M 112.0 96.0 L 120.0 96.0 L 120.0 100.4 C 120.0 102.2 117.2 104.0 116.0 104.0 C 114.8 104.0 112.0 102.2 112.0 100.4 Z" fill="#000000"/>
<path d="M 120.0 96.0 L 128.0 96.0 L 128.0 100.4 C 128.0 102.2 125.2 104.0 124.0 104.0 C 122.8 104.0 120.0 102.2 120.0 100.4 Z" fill="#000000"/>
<path d="M 136.0 96.0 L 144.0 96.0 L 144.0 100.4 C 144.0 102.2 141.2 104.0 140.0 104.0 C 138.8 104.0 136.0 102.2 136.0 100.4 Z" fill="#000000"/>
<path d="M 144.0 96.0 L 152.0 96.0 L 152.0 100.4 C 152.0 102.2 149.2 104.0 148.0 104.0 C 146.8 104.0 144.0 102.2 144.0 100.4 Z" fill="#000000"/>
<path d="M 168.0 96.0 L 176.0 96.0 L 176.0 100.4 C 176.0 102.2 173.2 104.0 172.0 104.0 C 170.8 104.0 168.0 102.2 168.0 100.4 Z" fill="#000000"/>
<path d="M 176.0 96.0 L 184.0 96.0 L 184.0 100.4 C 184.0 102.2 181.2 104.0 180.0 104.0 C 178.8 104.0 176.0 102.2 176.0 100.4 Z" fill="#000000"/>
<path d="M 184.0 96.0 L 192.0 96.0 L 192.0 100.4 C 192.0 102.2 189.2 104.0 188.0 104.0 C 186.8 104.0 184.0 102.2 184.0 100.4 Z" fill="#000000"/>
<path d="M 208.0 96.0 L 216.0 96.0 L 216.0 100.4 C 216.0 102.2 213.2 104.0 212.0 104.0 C 210.8 104.0 208.0 102.2 208.0 100.4 Z" fill="#000000"/>
<path d="M 24.0 104.0 L 32.0 104.0 L 32.0 108.4 C 32.0 110.2 29.2 112.0 28.0 112.0 C 26.8 112.0 24.0 110.2 24.0 108.4 Z" fill="#000000"/>
<path d="M 56.0 104.0 L 64.0 104.0 L 64.0 108.4 C 64.0 110.2 61.2 112.0 60.0 112.0 C 58.8 112.0 56.0 110.2 56.0 108.4 Z" fill="#000000"/>
<path d="M 72.0 104.0 L 80.0 104.0 L 80.0 108.4 C 80.0 110.2 77.2 112.0 76.0 112.0 C 74.8 112.0 72.0 110.2 72.0 108.4 Z" fill="#000000"/>
<path d="M 96.0 104.0 L 104.0 104.0 L 104.0 108.4 C 104.0 110.2 101.2 112.0 100.0 112.0 C 98.8 112.0 96.0 110.2 96.0 108.4 Z" fill="#000000"/>
<path d="M 152.0 104.0 L 160.0 104.0 L 160.0 108.4 C 160.0 110.2 157.2 112.0 156.0 112.0 C 154.8 112.0 152.0 110.2 152.0 108.4 Z" fill="#000000"/>
<path d="M 160.0 104.0 L 168.0 104.0 L 168.0 108.4 C 168.0 110.2 165.2 112.0 164.0 112.0 C 162.8 112.0 160.0 110.2 160.0 108.4 Z" fill="#000000"/>
<path d="M 168.0 104.0 L 176.0 104.0 L 176.0 108.4 C 176.0 110.2 173.2 112.0 172.0 112.0 C 170.8 112.0 168.0 110.2 168.0 108.4 Z" fill="#000000"/>
<path d="M 184.0 104.0 L 192.0 104.0 L 192.0 108.4 C 192.0 110.2 189.2 112.0 188.0 112.0 C 186.8 112.0 184.0 110.2 184.0 108.4 Z" fill="#000000"/>
<path d="M 192.0 104.0 L 200.0 104.0 L 200.0 108.4 C 200.0 110.2 197.2 112.0 196.0 112.0 C 194.8 112.0 192.0 110.2 192.0 108.4 Z" fill="#000000"/>
<path d="M 200.0 104.0 L 208.0 104.0 L 208.0 108.4 C 208.0 110.2 205.2 112.0 204.0 112.0 C 202.8 112.0 200.0 110.2 200.0 108.4 Z" fill="#000000"/>
<path d="M 208.0 104.0 L 216.0 104.0 L 216.0 108.4 C 216.0 110.2 213.2 112.0 212.0 112.0 C 210.8 112.0 208.0 110.2 208.0 108.4 Z" fill="#000000"/>
<path d="M 16.0 112.0 L 24.0 112.0 L 24.0 116.4 C 24.0 118.2 21.2 120.0 20.0 120.0 C 18.8 120.0 16.0 118.2 16.0 116.4 Z" fill="#000000"/>
<path d="M 24.0 112.0 L 32.0 112.0 L 32.0 116.4 C 32.0 118.2 29.2 120.0 28.0 120.0 C 26.8 120.0 24.0 118.2 24.0 116.4 Z" fill="#000000"/>
<path d="M 48.0 112.0 L 56.0 112.0 L 56.0 116.4 C 56.0 118.2 53.2 120.0 52.0 120.0 C 50.8 120.0 48.0 118.2 48.0 116.4 Z" fill="#000000"/>
<path d="M 64.0 112.0 L 72.0 112.0 L 72.0 116.4 C 72.0 118.2 69.2 120.0 68.0 120.0 C 66.8 120.0 64.0 118.2 64.0 116.4 Z" fill="#000000"/>
<path d="M 80.0 112.0 L 88.0 112.0 L 88.0 116.4 C 88.0 118.2 85.2 120.0 84.0 120.0 C 82.8 120.0 80.0 118.2 80.0 116.4 Z" fill="#000000"/>
<path d="M 88.0 112.0 L 96.0 112.0 L 96.0 116.4 C 96.0 118.2 93.2 120.0 92.0 120.0 C 90.8 120.0 88.0 118.2 88.0 116.4 Z" fill="#000000"/>
<path d="M 112.0 112.0 L 120.0 112.0 L 120.0 116.4 C 120.0 118.2 117.2 120.0 116.0 120.0 C 114.8 120.0 112.0 118.2 112.0 116.4 Z" fill="#000000"/>
<path d="M 144.0 112.0 L 152.0 112.0 L 152.0 116.4 C 152.0 118.2 149.2 120.0 148.0 120.0 C 146.8 120.0 144.0 118.2 144.0 116.4 Z" fill="#000000"/>
<path d="M 160.0 112.0 L 168.0 112.0 L 168.0 116.4 C 168.0 118.2 165.2 120.0 164.0 120.0 C 162.8 120.0 160.0 118.2 160.0 116.4 Z" fill="#000000"/>
<path d="M 168.0 112.0 L 176.0 112.0 L 176.0 116.4 C 176.0 118.2 173.2 120.0 172.0 120.0 C 170.8 120.0 168.0 118.2 168.0 116.4 Z" fill="#000000"/>
<path d="M 208.0 112.0 L 216.0 112.0 L 216.0 116.4 C 216.0 118.2 213.2 120.0 212.0 120.0 C 210.8 120.0 208.0 118.2 208.0 116.4 Z" fill="#000000"/>
<path d="M 16.0 120.0 L 24.0 120.0 L 24.0 124.4 C 24.0 126.2 21.2 128.0 20.0 128.0 C 18.8 128.0 16.0 126.2 16.0 124.4 Z" fill="#000000"/>
<path d="M 40.0 120.0 L 48.0 120.0 L 48.0 124.4 C 48.0 126.2 45.2 128.0 44.0 128.0 C 42.8 128.0 40.0 126.2 40.0 124.4 Z" fill="#000000"/>
<path d="M 48.0 120.0 L 56.0 120.0 L 56.0 124.4 C 56.0 126.2 53.2 128.0 52.0 128.0 C 50.8 128.0 48.0 126.2 48.0 124.4 Z" fill="#000000"/>
<path d="M 72.0 120.0 L 80.0 120.0 L 80.0 124.4 C 80.0 126.2 77.2 128.0 76.0 128.0 C 74.8 128.0 72.0 126.2 72.0 124.4 Z" fill="#000000"/>
<path d="M 80.0 120.0 L 88.0 120.0 L 88.0 124.4 C 88.0 126.2 85.2 128.0 84.0 128.0 C 82.8 128.0 80.0 126.2 80.0 124.4 Z" fill="#000000"/>
<path d="M 128.0 120.0 L 136.0 120.0 L 136.0 124.4 C 136.0 126.2 133.2 128.0 132.0 128.0 C 130.8 128.0 128.0 126.2 128.0 124.4 Z" fill="#000000"/>
<path d="M 136.0 120.0 L 144.0 120.0 L 144.0 124.4 C 144.0 126.2 141.2 128.0 140.0 128.0 C 138.8 128.0 136.0 126.2 136.0 124.4 Z" fill="#000000"/>
<path d="M 176.0 120.0 L 184.0 120.0 L 184.0 124.4 C 184.0 126.2 181.2 128.0 180.0 128.0 C 178.8 128.0 176.0 126.2 176.0 124.4 Z" fill="#000000"/>
<path d="M 200.0 120.0 L 208.0 120.0 L 208.0 124.4 C 208.0 126.2 205.2 128.0 204.0 128.0 C 202.8 128.0 200.0 126.2 200.0 124.4 Z" fill="#000000"/>
<path d="M 16.0 128.0 L 24.0 128.0 L 24.0 132.4 C 24.0 134.2 21.2 136.0 20.0 136.0 C 18.8 136.0 16.0 134.2 16.0 132.4 Z" fill="#000000"/>
<path d="M 24.0 128.0 L 32.0 128.0 L 32.0 132.4 C 32.0 134.2 29.2 136.0 28.0 136.0 C 26.8 136.0 24.0 134.2 24.0 132.4 Z" fill="#000000"/>
<path d="M 40.0 128.0 L 48.0 128.0 L 48.0 132.4 C 48.0 134.2 45.2 136.0 44.0 136.0 C 42.8 136.0 40.0 134.2 40.0 132.4 Z" fill="#000000"/>
<path d="M 48.0 128.0 L 56.0 128.0 L 56.0 132.4 C 56.0 134.2 53.2 136.0 52.0 136.0 C 50.8 136.0 48.0 134.2 48.0 132.4 Z" fill="#000000"/>
<path d="M 56.0 128.0 L 64.0 128.0 L 64.0 132.4 C 64.0 134.2 61.2 136.0 60.0 136.0 C 58.8 136.0 56.0 134.2 56.0 132.4 Z" fill="#000000"/>
<path d="M 64.0 128.0 L 72.0 128.0 L 72.0 132.4 C 72.0 134.2 69.2 136.0 68.0 136.0 C 66.8 136.0 64.0 134.2 64.0 132.4 Z" fill="#000000"/>
<path d="M 72.0 128.0 L 80.0 128.0 L 80.0 132.4 C 80.0 134.2 77.2 136.0 76.0 136.0 C 74.8 136.0 72.0 134.2 72.0 132.4 Z" fill="#000000"/>
<path d="M 88.0 128.0 L 96.0 128.0 L 96.0 132.4 C 96.0 134.2 93.2 136.0 92.0 136.0 C 90.8 136.0 88.0 134.2 88.0 132.4 Z" fill="#000000"/>
<path d="M 104.0 128.0 L 112.0 128.0 L 112.0 132.4 C 112.0 134.2 109.2 136.0 108.0 136.0 C 106.8 136.0 104.0 134.2 104.0 132.4 Z" fill="#000000"/>
<path d="M 112.0 128.0 L 120.0 128.0 L 120.0 132.4 C 120.0 134.2 117.2 136.0 116.0 136.0 C 114.8 136.0 112.0 134.2 112.0 132.4 Z" fill="#000000"/>
<path d="M 128.0 128.0 L 136.0 128.0 L 136.0 132.4 C 136.0 134.2 133.2 136.0 132.0 136.0 C 130.8 136.0 128.0 134.2 128.0 132.4 Z" fill="#000000"/>
<path d="M 136.0 128.0 L 144.0 128.0 L 144.0 132.4 C 144.0 134.2 141.2 136.0 140.0 136.0 C 138.8 136.0 136.0 134.2 136.0 132.4 Z" fill="#000000"/>
<path d="M 144.0 128.0 L 152.0 128.0 L 152.0 132.4 C 152.0 134.2 149.2 136.0 148.0 136.0 C 146.8 136.0 144.0 134.2 144.0 132.4 Z" fill="#000000"/>
<path d="M 176.0 128.0 L 184.0 128.0 L 184.0 132.4 C 184.0 134.2 181.2 136.0 180.0 136.0 C 178.8 136.0 176.0 134.2 176.0 132.4 Z" fill="#000000"/>
<path d="M 184.0 128.0 L 192.0 128.0 L 192.0 132.4 C 192.0 134.2 189.2 136.0 188.0 136.0 C 186.8 136.0 184.0 134.2 184.0 132.4 Z" fill="#000000"/>
<path d="M 192.0 128.0 L 200.0 128.0 L 200.0 132.4 C 200.0 134.2 197.2 136.0 196.0 136.0 C 194.8 136.0 192.0 134.2 192.0 132.4 Z" fill="#000000"/>
<path d="M 200.0 128.0 L 208.0 128.0 L 208.0 132.4 C 208.0 134.2 205.2 136.0 204.0 136.0 C 202.8 136.0 200.0 134.2 200.0 132.4 Z" fill="#000000"/>
<path d="M 208.0 128.0 L 216.0 128.0 L 216.0 132.4 C 216.0 134.2 213.2 136.0 212.0 136.0 C 210.8 136.0 208.0 134.2 208.0 132.4 Z" fill="#000000"/>
<path d="M 16.0 136.0 L 24.0 136.0 L 24.0 140.4 C 24.0 142.2 21.2 144.0 20.0 144.0 C 18.8 144.0 16.0 142.2 16.0 140.4 Z" fill="#000000"/>
<path d="M 32.0 136.0 L 40.0 136.0 L 40.0 140.4 C 40.0 142.2 37.2 144.0 36.0 144.0 C 34.8 144.0 32.0 142.2 32.0 140.4 Z" fill="#000000"/>
<path d="M 40.0 136.0 L 48.0 136.0 L 48.0 140.4 C 48.0 142.2 45.2 144.0 44.0 144.0 C 42.8 144.0 40.0 142.2 40.0 140.4 Z" fill="#000000"/>
<path d="M 48.0 136.0 L 56.0 136.0 L 56.0 140.4 C 56.0 142.2 53.2 144.0 52.0 144.0 C 50.8 144.0 48.0 142.2 48.0 140.4 Z" fill="#000000"/>
<path d="M 88.0 136.0 L 96.0 136.0 L 96.0 140.4 C 96.0 142.2 93.2 144.0 92.0 144.0 C 90.8 144.0 88.0 142.2 88.0 140.4 Z" fill="#000000"/>
<path d="M 96.0 136.0 L 104.0 136.0 L 104.0 140.4 C 104.0 142.2 101.2 144.0 100.0 144.0 C 98.8 144.0 96.0 142.2 96.0 140.4 Z" fill="#000000"/>
<path d="M 104.0 136.0 L 112.0 136.0 L 112.0 140.4 C 112.0 142.2 109.2 144.0 108.0 144.0 C 106.8 144.0 104.0 142.2 104.0 140.4 Z" fill="#000000"/>
<path d="M 136.0 136.0 L 144.0 136.0 L 144.0 140.4 C 144.0 142.2 141.2 144.0 140.0 144.0 C 138.8 144.0 136.0 142.2 136.0 140.4 Z" fill="#000000"/>
<path d="M 144.0 136.0 L 152.0 136.0 L 152.0 140.4 C 152.0 142.2 149.2 144.0 148.0 144.0 C 146.8 144.0 144.0 142.2 144.0 140.4 Z" fill="#000000"/>
<path d="M 152.0 136.0 L 160.0 136.0 L 160.0 140.4 C 160.0 142.2 157.2 144.0 156.0 144.0 C 154.8 144.0 152.0 142.2 152.0 140.4 Z" fill="#000000"/>
<path d="M 160.0 136.0 L 168.0 136.0 L 168.0 140.4 C 168.0 142.2 165.2 144.0 164.0 144.0 C 162.8 144.0 160.0 142.2 160.0 140.4 Z" fill="#000000"/>
<path d="M 168.0 136.0 L 176.0 136.0 L 176.0 140.4 C 176.0 142.2 173.2 144.0 172.0 144.0 C 170.8 144.0 168.0 142.2 168.0 140.4 Z" fill="#000000"/>
<path d="M 184.0 136.0 L 192.0 136.0 L 192.0 140.4 C 192.0 142.2 189.2 144.0 188.0 144.0 C 186.8 144.0 184.0 142.2 184.0 140.4 Z" fill="#000000"/>
<path d="M 192.0 136.0 L 200.0 136.0 L 200.0 140.4 C 200.0 142.2 197.2 144.0 196.0 144.0 C 194.8 144.0 192.0 142.2 192.0 140.4 Z" fill="#000000"/>
<path d="M 208.0 136.0 L 216.0 136.0 L 216.0 140.4 C 216.0 142.2 213.2 144.0 212.0 144.0 C 210.8 144.0 208.0 142.2 208.0 140.4 Z" fill="#000000"/>
<path d="M 16.0 144.0 L 24.0 144.0 L 24.0 148.4 C 24.0 150.2 21.2 152.0 20.0 152.0 C 18.8 152.0 16.0 150.2 16.0 148.4 Z" fill="#000000"/>
<path d="M 64.0 144.0 L 72.0 144.0 L 72.0 148.4 C 72.0 150.2 69.2 152.0 68.0 152.0 C 66.8 152.0 64.0 150.2 64.0 148.4 Z" fill="#000000"/>
<path d="M 80.0 144.0 L 88.0 144.0 L 88.0 148.4 C 88.0 150.2 85.2 152.0 84.0 152.0 C 82.8 152.0 80.0 150.2 80.0 148.4 Z" fill="#000000"/>
<path d="M 88.0 144.0 L 96.0 144.0 L 96.0 148.4 C 96.0 150.2 93.2 152.0 92.0 152.0 C 90.8 152.0 88.0 150.2 88.0 148.4 Z" fill="#000000"/>
<path d="M 96.0 144.0 L 104.0 144.0 L 104.0 148.4 C 104.0 150.2 101.2 152.0 100.0 152.0 C 98.8 152.0 96.0 150.2 96.0 148.4 Z" fill="#000000"/>
<path d="M 120.0 144.0 L 128.0 144.0 L 128.0 148.4 C 128.0 150.2 125.2 152.0 124.0 152.0 C 122.8 152.0 120.0 150.2 120.0 148.4 Z" fill="#000000"/>
<path d="M 136.0 144.0 L 144.0 144.0 L 144.0 148.4 C 144.0 150.2 141.2 152.0 140.0 152.0 C 138.8 152.0 136.0 150.2 136.0 148.4 Z" fill="#000000"/>
<path d="M 144.0 144.0 L 152.0 144.0 L 152.0 148.4 C 152.0 150.2 149.2 152.0 148.0 152.0 C 146.8 152.0 144.0 150.2 144.0 148.4 Z" fill="#000000"/>
<path d="M 152.0 144.0 L 160.0 144.0 L 160.0 148.4 C 160.0 150.2 157.2 152.0 156.0 152.0 C 154.8 152.0 152.0 150.2 152.0 148.4 Z" fill="#000000"/>
<path d="M 160.0 144.0 L 168.0 144.0 L 168.0 148.4 C 168.0 150.2 165.2 152.0 164.0 152.0 C 162.8 152.0 160.0 150.2 160.0 148.4 Z" fill="#000000"/>
<path d="M 168.0 144.0 L 176.0 144.0 L 176.0 148.4 C 176.0 150.2 173.2 152.0 172.0 152.0 C 170.8 152.0 168.0 150.2 168.0 148.4 Z" fill="#000000"/>
<path d="M 176.0 144.0 L 184.0 144.0 L 184.0 148.4 C 184.0 150.2 181.2 152.0 180.0 152.0 C 178.8 152.0 176.0 150.2 176.0 148.4 Z" fill="#000000"/>
<path d="M 192.0 144.0 L 200.0 144.0 L 200.0 148.4 C 200.0 150.2 197.2 152.0 196.0 152.0 C 194.8 152.0 192.0 150.2 192.0 148.4 Z" fill="#000000"/>
<path d="M 200.0 144.0 L 208.0 144.0 L 208.0 148.4 C 208.0 150.2 205.2 152.0 204.0 152.0 C 202.8 152.0 200.0 150.2 200.0 148.4 Z" fill="#000000"/>
<path d="M 80.0 152.0 L 88.0 152.0 L 88.0 156.4 C 88.0 158.2 85.2 160.0 84.0 160.0 C 82.8 160.0 80.0 158.2 80.0 156.4 Z" fill="#000000"/>
<path d="M 88.0 152.0 L 96.0 152.0 L 96.0 156.4 C 96.0 158.2 93.2 160.0 92.0 160.0 C 90.8 160.0 88.0 158.2 88.0 156.4 Z" fill="#000000"/>
<path d="M 104.0 152.0 L 112.0 152.0 L 112.0 156.4 C 112.0 158.2 109.2 160.0 108.0 160.0 C 106.8 160.0 104.0 158.2 104.0 156.4 Z" fill="#000000"/>
<path d="M 112.0 152.0 L 120.0 152.0 L 120.0 156.4 C 120.0 158.2 117.2 160.0 116.0 160.0 C 114.8 160.0 112.0 158.2 112.0 156.4 Z" fill="#000000"/>
<path d="M 128.0 152.0 L 136.0 152.0 L 136.0 156.4 C 136.0 158.2 133.2 160.0 132.0 160.0 C 130.8 160.0 128.0 158.2 128.0 156.4 Z" fill="#000000"/>
<path d="M 136.0 152.0 L 144.0 152.0 L 144.0 156.4 C 144.0 158.2 141.2 160.0 140.0 160.0 C 138.8 160.0 136.0 158.2 136.0 156.4 Z" fill="#000000"/>
<path d="M 144.0 152.0 L 152.0 152.0 L 152.0 156.4 C 152.0 158.2 149.2 160.0 148.0 160.0 C 146.8 160.0 144.0 158.2 144.0 156.4 Z" fill="#000000"/>
<path d="M 176.0 152.0 L 184.0 152.0 L 184.0 156.4 C 184.0 158.2 181.2 160.0 180.0 160.0 C 178.8 160.0 176.0 158.2 176.0 156.4 Z" fill="#000000"/>
<path d="M 192.0 152.0 L 200.0 152.0 L 200.0 156.4 C 200.0 158.2 197.2 160.0 196.0 160.0 C 194.8 160.0 192.0 158.2 192.0 156.4 Z" fill="#000000"/>
<path d="M 200.0 152.0 L 208.0 152.0 L 208.0 156.4 C 208.0 158.2 205.2 160.0 204.0 160.0 C 202.8 160.0 200.0 158.2 200.0 156.4 Z" fill="#000000"/>
<path d="M 80.0 160.0 L 88.0 160.0 L 88.0 164.4 C 88.0 166.2 85.2 168.0 84.0 168.0 C 82.8 168.0 80.0 166.2 80.0 164.4 Z" fill="#000000"/>
<path d="M 104.0 160.0 L 112.0 160.0 L 112.0 164.4 C 112.0 166.2 109.2 168.0 108.0 168.0 C 106.8 168.0 104.0 166.2 104.0 164.4 Z" fill="#000000"/>
<path d="M 128.0 160.0 L 136.0 160.0 L 136.0 164.4 C 136.0 166.2 133.2 168.0 132.0 168.0 C 130.8 168.0 128.0 166.2 128.0 164.4 Z" fill="#000000"/>
<path d="M 144.0 160.0 L 152.0 160.0 L 152.0 164.4 C 152.0 166.2 149.2 168.0 148.0 168.0 C 146.8 168.0 144.0 166.2 144.0 164.4 Z" fill="#000000"/>
<path d="M 160.0 160.0 L 168.0 160.0 L 168.0 164.4 C 168.0 166.2 165.2 168.0 164.0 168.0 C 162.8 168.0 160.0 166.2 160.0 164.4 Z" fill="#000000"/>
<path d="M 176.0 160.0 L 184.0 160.0 L 184.0 164.4 C 184.0 166.2 181.2 168.0 180.0 168.0 C 178.8 168.0 176.0 166.2 176.0 164.4 Z" fill="#000000"/>
<path d="M 208.0 160.0 L 216.0 160.0 L 216.0 164.4 C 216.0 166.2 213.2 168.0 212.0 168.0 C 210.8 168.0 208.0 166.2 208.0 164.4 Z" fill="#000000"/>
<path d="M 80.0 168.0 L 88.0 168.0 L 88.0 172.4 C 88.0 174.2 85.2 176.0 84.0 176.0 C 82.8 176.0 80.0 174.2 80.0 172.4 Z" fill="#000000"/>
<path d="M 88.0 168.0 L 96.0 168.0 L 96.0 172.4 C 96.0 174.2 93.2 176.0 92.0 176.0 C 90.8 176.0 88.0 174.2 88.0 172.4 Z" fill="#000000"/>
<path d="M 112.0 168.0 L 120.0 168.0 L 120.0 172.4 C 120.0 174.2 117.2 176.0 116.0 176.0 C 114.8 176.0 112.0 174.2 112.0 172.4 Z" fill="#000000"/>
<path d="M 120.0 168.0 L 128.0 168.0 L 128.0 172.4 C 128.0 174.2 125.2 176.0 124.0 176.0 C 122.8 176.0 120.0 174.2 120.0 172.4 Z" fill="#000000"/>
<path d="M 128.0 168.0 L 136.0 168.0 L 136.0 172.4 C 136.0 174.2 133.2 176.0 132.0 176.0 C 130.8 176.0 128.0 174.2 128.0 172.4 Z" fill="#000000"/>
<path d="M 136.0 168.0 L 144.0 168.0 L 144.0 172.4 C 144.0 174.2 141.2 176.0 140.0 176.0 C 138.8 176.0 136.0 174.2 136.0 172.4 Z" fill="#000000"/>
<path d="M 144.0 168.0 L 152.0 168.0 L 152.0 172.4 C 152.0 174.2 149.2 176.0 148.0 176.0 C 146.8 176.0 144.0 174.2 144.0 172.4 Z" fill="#000000"/>
<path d="M 176.0 168.0 L 184.0 168.0 L 184.0 172.4 C 184.0 174.2 181.2 176.0 180.0 176.0 C 178.8 176.0 176.0 174.2 176.0 172.4 Z" fill="#000000"/>
<path d="M 200.0 168.0 L 208.0 168.0 L 208.0 172.4 C 208.0 174.2 205.2 176.0 204.0 176.0 C 202.8 176.0 200.0 174.2 200.0 172.4 Z" fill="#000000"/>
<path d="M 80.0 176.0 L 88.0 176.0 L 88.0 180.4 C 88.0 182.2 85.2 184.0 84.0 184.0 C 82.8 184.0 80.0 182.2 80.0 180.4 Z" fill="#000000"/>
<path d="M 96.0 176.0 L 104.0 176.0 L 104.0 180.4 C 104.0 182.2 101.2 184.0 100.0 184.0 C 98.8 184.0 96.0 182.2 96.0 180.4 Z" fill="#000000"/>
<path d="M 112.0 176.0 L 120.0 176.0 L 120.0 180.4 C 120.0 182.2 117.2 184.0 116.0 184.0 C 114.8 184.0 112.0 182.2 112.0 180.4 Z" fill="#000000"/>
<path d="M 128.0 176.0 L 136.0 176.0 L 136.0 180.4 C 136.0 182.2 133.2 184.0 132.0 184.0 C 130.8 184.0 128.0 182.2 128.0 180.4 Z" fill="#000000"/>
<path d="M 136.0 176.0 L 144.0 176.0 L 144.0 180.4 C 144.0 182.2 141.2 184.0 140.0 184.0 C 138.8 184.0 136.0 182.2 136.0 180.4 Z" fill="#000000"/>
<path d="M 144.0 176.0 L 152.0 176.0 L 152.0 180.4 C 152.0 182.2 149.2 184.0 148.0 184.0 C 146.8 184.0 144.0 182.2 144.0 180.4 Z" fill="#000000"/>
<path d="M 152.0 176.0 L 160.0 176.0 L 160.0 180.4 C 160.0 182.2 157.2 184.0 156.0 184.0 C 154.8 184.0 152.0 182.2 152.0 180.4 Z" fill="#000000"/>
<path d="M 160.0 176.0 L 168.0 176.0 L 168.0 180.4 C 168.0 182.2 165.2 184.0 164.0 184.0 C 162.8 184.0 160.0 182.2 160.0 180.4 Z" fill="#000000"/>
<path d="M 168.0 176.0 L 176.0 176.0 L 176.0 180.4 C 176.0 182.2 173.2 184.0 172.0 184.0 C 170.8 184.0 168.0 182.2 168.0 180.4 Z" fill="#000000"/>
<path d="M 176.0 176.0 L 184.0 176.0 L 184.0 180.4 C 184.0 182.2 181.2 184.0 180.0 184.0 C 178.8 184.0 176.0 182.2 176.0 180.4 Z" fill="#000000"/>
<path d="M 200.0 176.0 L 208.0 176.0 L 208.0 180.4 C 208.0 182.2 205.2 184.0 204.0 184.0 C 202.8 184.0 200.0 182.2 200.0 180.4 Z" fill="#000000"/>
<path d="M 208.0 176.0 L 216.0 176.0 L 216.0 180.4 C 216.0 182.2 213.2 184.0 212.0 184.0 C 210.8 184.0 208.0 182.2 208.0 180.4 Z" fill="#000000"/>
<path d="M 80.0 184.0 L 88.0 184.0 L 88.0 188.4 C 88.0 190.2 85.2 192.0 84.0 192.0 C 82.8 192.0 80.0 190.2 80.0 188.4 Z" fill="#000000"/>
<path d="M 96.0 184.0 L 104.0 184.0 L 104.0 188.4 C 104.0 190.2 101.2 192.0 100.0 192.0 C 98.8 192.0 96.0 190.2 96.0 188.4 Z" fill="#000000"/>
<path d="M 128.0 184.0 L 136.0 184.0 L 136.0 188.4 C 136.0 190.2 133.2 192.0 132.0 192.0 C 130.8 192.0 128.0 190.2 128.0 188.4 Z" fill="#000000"/>
<path d="M 136.0 184.0 L 144.0 184.0 L 144.0 188.4 C 144.0 190.2 141.2 192.0 140.0 192.0 C 138.8 192.0 136.0 190.2 136.0 188.4 Z" fill="#000000"/>
<path d="M 144.0 184.0 L 152.0 184.0 L 152.0 188.4 C 152.0 190.2 149.2 192.0 148.0 192.0 C 146.8 192.0 144.0 190.2 144.0 188.4 Z" fill="#000000"/>
<path d="M 152.0 184.0 L 160.0 184.0 L 160.0 188.4 C 160.0 190.2 157.2 192.0 156.0 192.0 C 154.8 192.0 152.0 190.2 152.0 188.4 Z" fill="#000000"/>
<path d="M 160.0 184.0 L 168.0 184.0 L 168.0 188.4 C 168.0 190.2 165.2 192.0 164.0 192.0 C 162.8 192.0 160.0 190.2 160.0 188.4 Z" fill="#000000"/>
<path d="M 200.0 184.0 L 208.0 184.0 L 208.0 188.4 C 208.0 190.2 205.2 192.0 204.0 192.0 C 202.8 192.0 200.0 190.2 200.0 188.4 Z" fill="#000000"/>
<path d="M 208.0 184.0 L 216.0 184.0 L 216.0 188.4 C 216.0 190.2 213.2 192.0 212.0 192.0 C 210.8 192.0 208.0 190.2 208.0 188.4 Z" fill="#000000"/>
<path d="M 96.0 192.0 L 104.0 192.0 L 104.0 196.4 C 104.0 198.2 101.2 200.0 100.0 200.0 C 98.8 200.0 96.0 198.2 96.0 196.4 Z" fill="#000000"/>
<path d="M 112.0 192.0 L 120.0 192.0 L 120.0 196.4 C 120.0 198.2 117.2 200.0 116.0 200.0 C 114.8 200.0 112.0 198.2 112.0 196.4 Z" fill="#000000"/>
<path d="M 120.0 192.0 L 128.0 192.0 L 128.0 196.4 C 128.0 198.2 125.2 200.0 124.0 200.0 C 122.8 200.0 120.0 198.2 120.0 196.4 Z" fill="#000000"/>
<path d="M 136.0 192.0 L 144.0 192.0 L 144.0 196.4 C 144.0 198.2 141.2 200.0 140.0 200.0 C 138.8 200.0 136.0 198.2 136.0 196.4 Z" fill="#000000"/>
<path d="M 144.0 192.0 L 152.0 192.0 L 152.0 196.4 C 152.0 198.2 149.2 200.0 148.0 200.0 C 146.8 200.0 144.0 198.2 144.0 196.4 Z" fill="#000000"/>
<path d="M 176.0 192.0 L 184.0 192.0 L 184.0 196.4 C 184.0 198.2 181.2 200.0 180.0 200.0 C 178.8 200.0 176.0 198.2 176.0 196.4 Z" fill="#000000"/>
<path d="M 184.0 192.0 L 192.0 192.0 L 192.0 196.4 C 192.0 198.2 189.2 200.0 188.0 200.0 C 186.8 200.0 184.0 198.2 184.0 196.4 Z" fill="#000000"/>
<path d="M 192.0 192.0 L 200.0 192.0 L 200.0 196.4 C 200.0 198.2 197.2 200.0 196.0 200.0 C 194.8 200.0 192.0 198.2 192.0 196.4 Z" fill="#000000"/>
<path d="M 200.0 192.0 L 208.0 192.0 L 208.0 196.4 C 208.0 198.2 205.2 200.0 204.0 200.0 C 202.8 200.0 200.0 198.2 200.0 196.4 Z" fill="#000000"/>
<path d="M 208.0 192.0 L 216.0 192.0 L 216.0 196.4 C 216.0 198.2 213.2 200.0 212.0 200.0 C 210.8 200.0 208.0 198.2 208.0 196.4 Z" fill="#000000"/>
<path d="M 96.0 200.0 L 104.0 200.0 L 104.0 204.4 C 104.0 206.2 101.2 208.0 100.0 208.0 C 98.8 208.0 96.0 206.2 96.0 204.4 Z" fill="#000000"/>
<path d="M 128.0 200.0 L 136.0 200.0 L 136.0 204.4 C 136.0 206.2 133.2 208.0 132.0 208.0 C 130.8 208.0 128.0 206.2 128.0 204.4 Z" fill="#000000"/>
<path d="M 152.0 200.0 L 160.0 200.0 L 160.0 204.4 C 160.0 206.2 157.2 208.0 156.0 208.0 C 154.8 208.0 152.0 206.2 152.0 204.4 Z" fill="#000000"/>
<path d="M 168.0 200.0 L 176.0 200.0 L 176.0 204.4 C 176.0 206.2 173.2 208.0 172.0 208.0 C 170.8 208.0 168.0 206.2 168.0 204.4 Z" fill="#000000"/>
<path d="M 176.0 200.0 L 184.0 200.0 L 184.0 204.4 C 184.0 206.2 181.2 208.0 180.0 208.0 C 178.8 208.0 176.0 206.2 176.0 204.4 Z" fill="#000000"/>
<path d="M 192.0 200.0 L 200.0 200.0 L 200.0 204.4 C 200.0 206.2 197.2 208.0 196.0 208.0 C 194.8 208.0 192.0 206.2 192.0 204.4 Z" fill="#000000"/>
<path d="M 200.0 200.0 L 208.0 200.0 L 208.0 204.4 C 208.0 206.2 205.2 208.0 204.0 208.0 C 202.8 208.0 200.0 206.2 200.0 204.4 Z" fill="#000000"/>
<path d="M 208.0 200.0 L 216.0 200.0 L 216.0 204.4 C 216.0 206.2 213.2 208.0 212.0 208.0 C 210.8 208.0 208.0 206.2 208.0 204.4 Z" fill="#000000"/>
<path d="M 80.0 208.0 L 88.0 208.0 L 88.0 212.4 C 88.0 214.2 85.2 216.0 84.0 216.0 C 82.8 216.0 80.0 214.2 80.0 212.4 Z" fill="#000000"/>
<path d="M 96.0 208.0 L 104.0 208.0 L 104.0 212.4 C 104.0 214.2 101.2 216.0 100.0 216.0 C 98.8 216.0 96.0 214.2 96.0 212.4 Z" fill="#000000"/>
<path d="M 112.0 208.0 L 120.0 208.0 L 120.0 212.4 C 120.0 214.2 117.2 216.0 116.0 216.0 C 114.8 216.0 112.0 214.2 112.0 212.4 Z" fill="#000000"/>
<path d="M 120.0 208.0 L 128.0 208.0 L 128.0 212.4 C 128.0 214.2 125.2 216.0 124.0 216.0 C 122.8 216.0 120.0 214.2 120.0 212.4 Z" fill="#000000"/>
<path d="M 128.0 208.0 L 136.0 208.0 L 136.0 212.4 C 136.0 214.2 133.2 216.0 132.0 216.0 C 130.8 216.0 128.0 214.2 128.0 212.4 Z" fill="#000000"/>
<path d="M 144.0 208.0 L 152.0 208.0 L 152.0 212.4 C 152.0 214.2 149.2 216.0 148.0 216.0 C 146.8 216.0 144.0 214.2 144.0 212.4 Z" fill="#000000"/>
<path d="M 152.0 208.0 L 160.0 208.0 L 160.0 212.4 C 160.0 214.2 157.2 216.0 156.0 216.0 C 154.8 216.0 152.0 214.2 152.0 212.4 Z" fill="#000000"/>
<path d="M 160.0 208.0 L 168.0 208.0 L 168.0 212.4 C 168.0 214.2 165.2 216.0 164.0 216.0 C 162.8 216.0 160.0 214.2 160.0 212.4 Z" fill="#000000"/>
<path d="M 184.0 208.0 L 192.0 208.0 L 192.0 212.4 C 192.0 214.2 189.2 216.0 188.0 216.0 C 186.8 216.0 184.0 214.2 184.0 212.4 Z" fill="#000000"/>
<path d="M 208.0 208.0 L 216.0 208.0 L 216.0 212.4 C 216.0 214.2 213.2 216.0 212.0 216.0 C 210.8 216.0 208.0 214.2 208.0 212.4 Z" fill="#000000"/>
<rect x="16" y="16" width="8" height="8" fill="#000000"/>
<rect x="24" y="16" width="8" height="8" fill="#000000"/>
<rect x="32" y="16" width="8" height="8" fill="#000000"/>
<rect x="40" y="16" width="8" height="8" fill="#000000"/>
<rect x="48" y="16" width="8" height="8" fill="#000000"/>
<rect x="56" y="16" width="8" height="8" fill="#000000"/>
<rect x="64" y="16" width="8" height="8" fill="#000000"/>
<rect x="160" y="16" width="8" height="8" fill="#000000"/>
<rect x="168" y="16" width="8" height="8" fill="#000000"/>
<rect x="176" y="16" width="8" height="8" fill="#000000"/>
<rect x="184" y="16" width="8" height="8" fill="#000000"/>
<rect x="192" y="16" width="8" height="8" fill="#000000"/>
<rect x="200" y="16" width="8" height="8" fill="#000000"/>
<rect x="208" y="16" width="8" height="8" fill="#000000"/>
<rect x="16" y="24" width="8" height="8" fill="#000000"/>
<rect x="64" y="24" width="8" height="8" fill="#000000"/>
<rect x="160" y="24" width="8" height="8" fill="#000000"/>
<rect x="208" y="24" width="8" height="8" fill="#000000"/>
<rect x="16" y="32" width="8" height="8" fill="#000000"/>
<rect x="32" y="32" width="8" height="8" fill="#000000"/>
<rect x="40" y="32" width="8" height="8" fill="#000000"/>
<rect x="48" y="32" width="8" height="8" fill="#000000"/>
<rect x="64" y="32" width="8" height="8" fill="#000000"/>
<rect x="160" y="32" width="8" height="8" fill="#000000"/>
<rect x="176" y="32" width="8" height="8" fill="#000000"/>
<rect x="184" y="32" width="8" height="8" fill="#000000"/>
<rect x="192" y="32" width="8" height="8" fill="#000000"/>
<rect x="208" y="32" width="8" height="8" fill="#000000"/>
<rect x="16" y="40" width="8" height="8" fill="#000000"/>
<rect x="32" y="40" width="8" height="8" fill="#000000"/>
<rect x="40" y="40" width="8" height="8" fill="#000000"/>
<rect x="48" y="40" width="8" height="8" fill="#000000"/>
<rect x="64" y="40" width="8" height="8" fill="#000000"/>
<rect x="160" y="40" width="8" height="8" fill="#000000"/>
<rect x="176" y="40" width="8" height="8" fill="#000000"/>
<rect x="184" y="40" width="8" height="8" fill="#000000"/>
<rect x="192" y="40" width="8" height="8" fill="#000000"/>
<rect x="208" y="40" width="8" height="8" fill="#000000"/>
<rect x="16" y="48" width="8" height="8" fill="#000000"/>
<rect x="32" y="48" width="8" height="8" fill="#000000"/>
<rect x="40" y="48" width="8" height="8" fill="#000000"/>
<rect x="48" y="48" width="8" height="8" fill="#000000"/>
<rect x="64" y="48" width="8" height="8" fill="#000000"/>
<rect x="160" y="48" width="8" height="8" fill="#000000"/>
<rect x="176" y="48" width="8" height="8" fill="#000000"/>
<rect x="184" y="48" width="8" height="8" fill="#000000"/>
<rect x="192" y="48" width="8" height="8" fill="#000000"/>
<rect x="208" y="48" width="8" height="8" fill="#000000"/>
<rect x="16" y="56" width="8" height="8" fill="#000000"/>
<rect x="64" y="56" width="8" height="8" fill="#000000"/>
<rect x="160" y="56" width="8" height="8" fill="#000000"/>
<rect x="208" y="56" width="8" height="8" fill="#000000"/>
<rect x="16" y="64" width="8" height="8" fill="#000000"/>
<rect x="24" y="64" width="8" height="8" fill="#000000"/>
<rect x="32" y="64" width="8" height="8" fill="#000000"/>
<rect x="40" y="64" width="8" height="8" fill="#000000"/>
<rect x="48" y="64" width="8" height="8" fill="#000000"/>
<rect x="56" y="64" width="8" height="8" fill="#000000"/>
<rect x="64" y="64" width="8" height="8" fill="#000000"/>
<rect x="160" y="64" width="8" height="8" fill="#000000"/>
<rect x="168" y="64" width="8" height="8" fill="#000000"/>
<rect x="176" y="64" width="8" height="8" fill="#000000"/>
<rect x="184" y="64" width="8" height="8" fill="#000000"/>
<rect x="192" y="64" width="8" height="8" fill="#000000"/>
<rect x="200" y="64" width="8" height="8" fill="#000000"/>
<rect x="208" y="64" width="8" height="8" fill="#000000"/>
<rect x="16" y="160" width="8" height="8" fill="#000000"/>
<rect x="24" y="160" width="8" height="8" fill="#000000"/>
<rect x="32" y="160" width="8" height="8" fill="#000000"/>
<rect x="40" y="160" width="8" height="8" fill="#000000"/>
<rect x="48" y="160" width="8" height="8" fill="#000000"/>
<rect x="56" y="160" width="8" height="8" fill="#000000"/>
<rect x="64" y="160" width="8" height="8" fill="#000000"/>
<rect x="16" y="168" width="8" height="8" fill="#000000"/>
<rect x="64" y="168" width="8" height="8" fill="#000000"/>
<rect x="16" y="176" width="8" height="8" fill="#000000"/>
<rect x="32" y="176" width="8" height="8" fill="#000000"/>
<rect x="40" y="176" width="8" height="8" fill="#000000"/>
<rect x="48" y="176" width="8" height="8" fill="#000000"/>
<rect x="64" y="176" width="8" height="8" fill="#000000"/>
<rect x="16" y="184" width="8" height="8" fill="#000000"/>
<rect x="32" y="184" width="8" height="8" fill="#000000"/>
<rect x="40" y="184" width="8" height="8" fill="#000000"/>
<rect x="48" y="184" width="8" height="8" fill="#000000"/>
<rect x="64" y="184" width="8" height="8" fill="#000000"/>
<rect x="16" y="192" width="8" height="8" fill="#000000"/>
<rect x="32" y="192" width="8" height="8" fill="#000000"/>
<rect x="40" y="192" width="8" height="8" fill="#000000"/>
<rect x="48" y="192" width="8" height="8" fill="#000000"/>
<rect x="64" y="192" width="8" height="8" fill="#000000"/>
<rect x="16" y="200" width="8" height="8" fill="#000000"/>
<rect x="64" y="200" width="8" height="8" fill="#000000"/>
<rect x="16" y="208" width="8" height="8" fill="#000000"/>
<rect x="24" y="208" width="8" height="8" fill="#000000"/>
<rect x="32" y="208" width="8" height="8" fill="#000000"/>
<rect x="40" y="208" width="8" height="8" fill="#000000"/>
<rect x="48" y="208" width="8" height="8" fill="#000000"/>
<rect x="56" y="208" width="8" height="8" fill="#000000"/>
<rect x="64" y="208" width="8" height="8" fill="#000000"/>
</svg>
