<?xml version="1.0" encoding="UTF-8"?>
<svg xmlns="http://www.w3.org/2000/svg" version="1.1" width="232" height="232" viewBox="0 0 232 232">
<rect width="100%" height="100%" fill="#ffffff"/>
<path d="M16,16h8v8h-8ZM24,16h8v8h-8ZM32,16h8v8h-8ZM40,16h8v8h-8ZM48,16h8v8h-8ZM56,16h8v8h-8ZM64,16h8v8h-8ZM80,16h8v8h-8ZM104,16h8v8h-8ZM112,16h8v8h-8ZM128,16h8v8h-8ZM160,16h8v8h-8ZM168,16h8v8h-8ZM176,16h8v8h-8ZM184,16h8v8h-8ZM192,16h8v8h-8ZM200,16h8v8h-8ZM208,16h8v8h-8ZM16,24h8v8h-8ZM64,24h8v8h-8ZM104,24h8v8h-8ZM112,24h8v8h-8ZM144,24h8v8h-8ZM160,24h8v8h-8ZM208,24h8v8h-8ZM16,32h8v8h-8ZM32,32h8v8h-8ZM40,32h8v8h-8ZM48,32h8v8h-8ZM64,32h8v8h-8ZM88,32h8v8h-8ZM104,32h8v8h-8ZM112,32h8v8h-8ZM120,32h8v8h-8ZM136,32h8v8h-8ZM144,32h8v8h-8ZM160,32h8v8h-8ZM176,32h8v8h-8ZM184,32h8v8h-8ZM192,32h8v8h-8ZM208,32h8v8h-8ZM16,40h8v8h-8ZM32,40h8v8h-8ZM40,40h8v8h-8ZM48,40h8v8h-8ZM64,40h8v8h-8ZM80,40h8v8h-8ZM120,40h8v8h-8ZM144,40h8v8h-8ZM160,40h8v8h-8ZM176,40h8v8h-8ZM184,40h8v8h-8ZM192,40h8v8h-8ZM208,40h8v8h-8ZM16,48h8v8h-8ZM32,48h8v8h-8ZM40,48h8v8h-8ZM48,48h8v8h-8ZM64,48h8v8h-8ZM80,48h8v8h-8ZM88,48h8v8h-8ZM104,48h8v8h-8ZM112,48h8v8h-8ZM128,48h8v8h-8ZM144,48h8v8h-8ZM160,48h8v8h-8ZM176,48h8v8h-8ZM184,48h8v8h-8ZM192,48h8v8h-8ZM208,48h8v8h-8ZM16,56h8v8h-8ZM64,56h8v8h-8ZM80,56h8v8h-8ZM104,56h8v8h-8ZM112,56h8v8h-8ZM120,56h8v8h-8ZM128,56h8v8h-8ZM144,56h8v8h-8ZM160,56h8v8h-8ZM208,56h8v8h-8ZM16,64h8v8h-8ZM24,64h8v8h-8ZM32,64h8v8h-8ZM40,64h8v8h-8ZM48,64h8v8h-8ZM56,64h8v8h-8ZM64,64h8v8h-8ZM80,64h8v8h-8ZM96,64h8v8h-8ZM112,64h8v8h-8ZM128,64h8v8h-8ZM144,64h8v8h-8ZM160,64h8v8h-8ZM168,64h8v8h-8ZM176,64h8v8h-8ZM184,64h8v8h-8ZM192,64h8v8h-8ZM200,64h8v8h-8ZM208,64h8v8h-8ZM80,72h8v8h-8ZM104,72h8v8h-8ZM112,72h8v8h-8ZM120,72h8v8h-8ZM144,72h8v8h-8ZM16,80h8v8h-8ZM24,80h8v8h-8ZM32,80h8v8h-8ZM48,80h8v8h-8ZM64,80h8v8h-8ZM80,80h8v8h-8ZM96,80h8v8h-8ZM104,80h8v8h-8ZM112,80h8v8h-8ZM144,80h8v8h-8ZM152,80h8v8h-8ZM176,80h8v8h-8ZM192,80h8v8h-8ZM200,80h8v8h-8ZM208,80h8v8h-8ZM16,88h8v8h-8ZM40,88h8v8h-8ZM48,88h8v8h-8ZM56,88h8v8h-8ZM72,88h8v8h-8ZM88,88h8v8h-8ZM104,88h8v8h-8ZM112,88h8v8h-8ZM120,88h8v8h-8ZM128,88h8v8h-8ZM136,88h8v8h-8ZM168,88h8v8h-8ZM176,88h8v8h-8ZM184,88h8v8h-8ZM192,88h8v8h-8ZM200,88h8v8h-8ZM24,96h8v8h-8ZM32,96h8v8h-8ZM64,96h8v8h-8ZM80,96h8v8h-8ZM96,96h8v8h-8ZM112,96h8v8h-8ZM120,96h8v8h-8ZM136,96h8v8h-8ZM144,96h8v8h-8ZM168,96h8v8h-8ZM176,96h8v8h-8ZM184,96h8v8h-8ZM208,96h8v8h-8ZM24,104h8v8h-8ZM56,104h8v8h-8ZM72,104h8v8h-8ZM96,104h8v8h-8ZM152,104h8v8h-8ZM160,104h8v8h-8ZM168,104h8v8h-8ZM184,104h8v8h-8ZM192,104h8v8h-8ZM200,104h8v8h-8ZM208,104h8v8h-8ZM16,112h8v8h-8ZM24,112h8v8h-8ZM48,112h8v8h-8ZM64,112h8v8h-8ZM80,112h8v8h-8ZM88,112h8v8h-8ZM112,112h8v8h-8ZM144,112h8v8h-8ZM160,112h8v8h-8ZM168,112h8v8h-8ZM208,112h8v8h-8ZM16,120h8v8h-8ZM40,120h8v8h-8ZM48,120h8v8h-8ZM72,120h8v8h-8ZM80,120h8v8h-8ZM128,120h8v8h-8ZM136,120h8v8h-8ZM176,120h8v8h-8ZM200,120h8v8h-8ZM16,128h8v8h-8ZM24,128h8v8h-8ZM40,128h8v8h-8ZM48,128h8v8h-8ZM56,128h8v8h-8ZM64,128h8v8h-8ZM72,128h8v8h-8ZM88,128h8v8h-8ZM104,128h8v8h-8ZM112,128h8v8h-8ZM128,128h8v8h-8ZM136,128h8v8h-8ZM144,128h8v8h-8ZM176,128h8v8h-8ZM184,128h8v8h-8ZM192,128h8v8h-8ZM200,128h8v8h-8ZM208,128h8v8h-8ZM16,136h8v8h-8ZM32,136h8v8h-8ZM40,136h8v8h-8ZM48,136h8v8h-8ZM88,136h8v8h-8ZM96,136h8v8h-8ZM104,136h8v8h-8ZM136,136h8v8h-8ZM144,136h8v8h-8ZM152,136h8v8h-8ZM160,136h8v8h-8ZM168,136h8v8h-8ZM184,136h8v8h-8ZM192,136h8v8h-8ZM208,136h8v8h-8ZM16,144h8v8h-8ZM64,144h8v8h-8ZM80,144h8v8h-8ZM88,144h8v8h-8ZM96,144h8v8h-8ZM120,144h8v8h-8ZM136,144h8v8h-8ZM144,144h8v8h-8ZM152,144h8v8h-8ZM160,144h8v8h-8ZM168,144h8v8h-8ZM176,144h8v8h-8ZM192,144h8v8h-8ZM200,144h8v8h-8ZM80,152h8v8h-8ZM88,152h8v8h-8ZM104,152h8v8h-8ZM112,152h8v8h-8ZM128,152h8v8h-8ZM136,152h8v8h-8ZM144,152h8v8h-8ZM176,152h8v8h-8ZM192,152h8v8h-8ZM200,152h8v8h-8ZM16,160h8v8h-8ZM24,160h8v8h-8ZM32,160h8v8h-8ZM40,160h8v8h-8ZM48,160h8v8h-8ZM56,160h8v8h-8ZM64,160h8v8h-8ZM80,160h8v8h-8ZM104,160h8v8h-8ZM128,160h8v8h-8ZM144,160h8v8h-8ZM160,160h8v8h-8ZM176,160h8v8h-8ZM208,160h8v8h-8ZM16,168h8v8h-8ZM64,168h8v8h-8ZM80,168h8v8h-8ZM88,168h8v8h-8ZM112,168h8v8h-8ZM120,168h8v8h-8ZM128,168h8v8h-8ZM136,168h8v8h-8ZM144,168h8v8h-8ZM176,168h8v8h-8ZM200,168h8v8h-8ZM16,176h8v8h-8ZM32,176h8v8h-8ZM40,176h8v8h-8ZM48,176h8v8h-8ZM64,176h8v8h-8ZM80,176h8v8h-8ZM96,176h8v8h-8ZM112,176h8v8h-8ZM128,176h8v8h-8ZM136,176h8v8h-8ZM144,176h8v8h-8ZM152,176h8v8h-8ZM160,176h8v8h-8ZM168,176h8v8h-8ZM176,176h8v8h-8ZM200,176h8v8h-8ZM208,176h8v8h-8ZM16,184h8v8h-8ZM32,184h8v8h-8ZM40,184h8v8h-8ZM48,184h8v8h-8ZM64,184h8v8h-8ZM80,184h8v8h-8ZM96,184h8v8h-8ZM128,184h8v8h-8ZM136,184h8v8h-8ZM144,184h8v8h-8ZM152,184h8v8h-8ZM160,184h8v8h-8ZM200,184h8v8h-8ZM208,184h8v8h-8ZM16,192h8v8h-8ZM32,192h8v8h-8ZM40,192h8v8h-8ZM48,192h8v8h-8ZM64,192h8v8h-8ZM96,192h8v8h-8ZM112,192h8v8h-8ZM120,192h8v8h-8ZM136,192h8v8h-8ZM144,192h8v8h-8ZM176,192h8v8h-8ZM184,192h8v8h-8ZM192,192h8v8h-8ZM200,192h8v8h-8ZM208,192h8v8h-8ZM16,200h8v8h-8ZM64,200h8v8h-8ZM96,200h8v8h-8ZM128,200h8v8h-8ZM152,200h8v8h-8ZM168,200h8v8h-8ZM176,200h8v8h-8ZM192,200h8v8h-8ZM200,200h8v8h-8ZM208,200h8v8h-8ZM16,208h8v8h-8ZM24,208h8v8h-8ZM32,208h8v8h-8ZM40,208h8v8h-8ZM48,208h8v8h-8ZM56,208h8v8h-8ZM64,208h8v8h-8ZM80,208h8v8h-8ZM96,208h8v8h-8ZM112,208h8v8h-8ZM120,208h8v8h-8ZM128,208h8v8h-8ZM144,208h8v8h-8ZM152,208h8v8h-8ZM160,208h8v8h-8ZM184,208h8v8h-8ZM208,208h8v8h-8Z" fill="#2980B9"/>
</svg>
