<?xml version="1.0" encoding="UTF-8"?>
<svg xmlns="http://www.w3.org/2000/svg" version="1.1" width="318" height="318" viewBox="0 0 318 318">
<rect width="100%" height="100%" fill="#ffffff"/>
<path d="M12,12h6v6h-6ZM18,12h6v6h-6ZM24,12h6v6h-6ZM30,12h6v6h-6ZM36,12h6v6h-6ZM42,12h6v6h-6ZM48,12h6v6h-6ZM60,12h6v6h-6ZM78,12h6v6h-6ZM84,12h6v6h-6ZM90,12h6v6h-6ZM102,12h6v6h-6ZM108,12h6v6h-6ZM126,12h6v6h-6ZM132,12h6v6h-6ZM156,12h6v6h-6ZM192,12h6v6h-6ZM198,12h6v6h-6ZM210,12h6v6h-6ZM222,12h6v6h-6ZM228,12h6v6h-6ZM252,12h6v6h-6ZM264,12h6v6h-6ZM270,12h6v6h-6ZM276,12h6v6h-6ZM282,12h6v6h-6ZM288,12h6v6h-6ZM294,12h6v6h-6ZM300,12h6v6h-6ZM12,18h6v6h-6ZM48,18h6v6h-6ZM66,18h6v6h-6ZM84,18h6v6h-6ZM96,18h6v6h-6ZM102,18h6v6h-6ZM108,18h6v6h-6ZM132,18h6v6h-6ZM138,18h6v6h-6ZM144,18h6v6h-6ZM162,18h6v6h-6ZM168,18h6v6h-6ZM204,18h6v6h-6ZM210,18h6v6h-6ZM222,18h6v6h-6ZM234,18h6v6h-6ZM240,18h6v6h-6ZM246,18h6v6h-6ZM252,18h6v6h-6ZM264,18h6v6h-6ZM300,18h6v6h-6ZM12,24h6v6h-6ZM24,24h6v6h-6ZM30,24h6v6h-6ZM36,24h6v6h-6ZM48,24h6v6h-6ZM60,24h6v6h-6ZM90,24h6v6h-6ZM102,24h6v6h-6ZM114,24h6v6h-6ZM120,24h6v6h-6ZM144,24h6v6h-6ZM150,24h6v6h-6ZM162,24h6v6h-6ZM192,24h6v6h-6ZM198,24h6v6h-6ZM204,24h6v6h-6ZM210,24h6v6h-6ZM216,24h6v6h-6ZM234,24h6v6h-6ZM246,24h6v6h-6ZM252,24h6v6h-6ZM264,24h6v6h-6ZM276,24h6v6h-6ZM282,24h6v6h-6ZM288,24h6v6h-6ZM300,24h6v6h-6ZM12,30h6v6h-6ZM24,30h6v6h-6ZM30,30h6v6h-6ZM36,30h6v6h-6ZM48,30h6v6h-6ZM60,30h6v6h-6ZM66,30h6v6h-6ZM72,30h6v6h-6ZM84,30h6v6h-6ZM102,30h6v6h-6ZM108,30h6v6h-6ZM114,30h6v6h-6ZM120,30h6v6h-6ZM126,30h6v6h-6ZM138,30h6v6h-6ZM156,30h6v6h-6ZM162,30h6v6h-6ZM168,30h6v6h-6ZM198,30h6v6h-6ZM222,30h6v6h-6ZM228,30h6v6h-6ZM234,30h6v6h-6ZM246,30h6v6h-6ZM264,30h6v6h-6ZM276,30h6v6h-6ZM282,30h6v6h-6ZM288,30h6v6h-6ZM300,30h6v6h-6ZM12,36h6v6h-6ZM24,36h6v6h-6ZM30,36h6v6h-6ZM36,36h6v6h-6ZM48,36h6v6h-6ZM96,36h6v6h-6ZM108,36h6v6h-6ZM114,36h6v6h-6ZM120,36h6v6h-6ZM132,36h6v6h-6ZM144,36h6v6h-6ZM150,36h6v6h-6ZM156,36h6v6h-6ZM162,36h6v6h-6ZM168,36h6v6h-6ZM180,36h6v6h-6ZM198,36h6v6h-6ZM210,36h6v6h-6ZM222,36h6v6h-6ZM264,36h6v6h-6ZM276,36h6v6h-6ZM282,36h6v6h-6ZM288,36h6v6h-6ZM300,36h6v6h-6ZM12,42h6v6h-6ZM48,42h6v6h-6ZM60,42h6v6h-6ZM66,42h6v6h-6ZM72,42h6v6h-6ZM90,42h6v6h-6ZM96,42h6v6h-6ZM108,42h6v6h-6ZM114,42h6v6h-6ZM144,42h6v6h-6ZM168,42h6v6h-6ZM174,42h6v6h-6ZM186,42h6v6h-6ZM204,42h6v6h-6ZM216,42h6v6h-6ZM222,42h6v6h-6ZM234,42h6v6h-6ZM240,42h6v6h-6ZM264,42h6v6h-6ZM300,42h6v6h-6ZM12,48h6v6h-6ZM18,48h6v6h-6ZM24,48h6v6h-6ZM30,48h6v6h-6ZM36,48h6v6h-6ZM42,48h6v6h-6ZM48,48h6v6h-6ZM60,48h6v6h-6ZM72,48h6v6h-6ZM84,48h6v6h-6ZM96,48h6v6h-6ZM108,48h6v6h-6ZM120,48h6v6h-6ZM132,48h6v6h-6ZM144,48h6v6h-6ZM156,48h6v6h-6ZM168,48h6v6h-6ZM180,48h6v6h-6ZM192,48h6v6h-6ZM204,48h6v6h-6ZM216,48h6v6h-6ZM228,48h6v6h-6ZM240,48h6v6h-6ZM252,48h6v6h-6ZM264,48h6v6h-6ZM270,48h6v6h-6ZM276,48h6v6h-6ZM282,48h6v6h-6ZM288,48h6v6h-6ZM294,48h6v6h-6ZM300,48h6v6h-6ZM60,54h6v6h-6ZM66,54h6v6h-6ZM72,54h6v6h-6ZM78,54h6v6h-6ZM96,54h6v6h-6ZM120,54h6v6h-6ZM132,54h6v6h-6ZM138,54h6v6h-6ZM144,54h6v6h-6ZM168,54h6v6h-6ZM186,54h6v6h-6ZM192,54h6v6h-6ZM198,54h6v6h-6ZM204,54h6v6h-6ZM228,54h6v6h-6ZM234,54h6v6h-6ZM240,54h6v6h-6ZM246,54h6v6h-6ZM12,60h6v6h-6ZM18,60h6v6h-6ZM30,60h6v6h-6ZM48,60h6v6h-6ZM54,60h6v6h-6ZM72,60h6v6h-6ZM84,60h6v6h-6ZM114,60h6v6h-6ZM120,60h6v6h-6ZM126,60h6v6h-6ZM138,60h6v6h-6ZM144,60h6v6h-6ZM150,60h6v6h-6ZM156,60h6v6h-6ZM162,60h6v6h-6ZM168,60h6v6h-6ZM174,60h6v6h-6ZM180,60h6v6h-6ZM192,60h6v6h-6ZM216,60h6v6h-6ZM234,60h6v6h-6ZM240,60h6v6h-6ZM252,60h6v6h-6ZM264,60h6v6h-6ZM282,60h6v6h-6ZM294,60h6v6h-6ZM300,60h6v6h-6ZM12,66h6v6h-6ZM30,66h6v6h-6ZM54,66h6v6h-6ZM72,66h6v6h-6ZM90,66h6v6h-6ZM102,66h6v6h-6ZM108,66h6v6h-6ZM120,66h6v6h-6ZM144,66h6v6h-6ZM150,66h6v6h-6ZM156,66h6v6h-6ZM162,66h6v6h-6ZM192,66h6v6h-6ZM210,66h6v6h-6ZM228,66h6v6h-6ZM246,66h6v6h-6ZM258,66h6v6h-6ZM264,66h6v6h-6ZM270,66h6v6h-6ZM294,66h6v6h-6ZM300,66h6v6h-6ZM24,72h6v6h-6ZM36,72h6v6h-6ZM42,72h6v6h-6ZM48,72h6v6h-6ZM60,72h6v6h-6ZM78,72h6v6h-6ZM114,72h6v6h-6ZM120,72h6v6h-6ZM126,72h6v6h-6ZM132,72h6v6h-6ZM138,72h6v6h-6ZM144,72h6v6h-6ZM150,72h6v6h-6ZM162,72h6v6h-6ZM174,72h6v6h-6ZM186,72h6v6h-6ZM204,72h6v6h-6ZM210,72h6v6h-6ZM216,72h6v6h-6ZM234,72h6v6h-6ZM270,72h6v6h-6ZM276,72h6v6h-6ZM30,78h6v6h-6ZM66,78h6v6h-6ZM72,78h6v6h-6ZM108,78h6v6h-6ZM114,78h6v6h-6ZM132,78h6v6h-6ZM138,78h6v6h-6ZM144,78h6v6h-6ZM156,78h6v6h-6ZM168,78h6v6h-6ZM174,78h6v6h-6ZM180,78h6v6h-6ZM186,78h6v6h-6ZM192,78h6v6h-6ZM204,78h6v6h-6ZM222,78h6v6h-6ZM234,78h6v6h-6ZM240,78h6v6h-6ZM246,78h6v6h-6ZM252,78h6v6h-6ZM264,78h6v6h-6ZM276,78h6v6h-6ZM288,78h6v6h-6ZM294,78h6v6h-6ZM300,78h6v6h-6ZM18,84h6v6h-6ZM24,84h6v6h-6ZM30,84h6v6h-6ZM36,84h6v6h-6ZM48,84h6v6h-6ZM60,84h6v6h-6ZM66,84h6v6h-6ZM90,84h6v6h-6ZM96,84h6v6h-6ZM102,84h6v6h-6ZM114,84h6v6h-6ZM120,84h6v6h-6ZM138,84h6v6h-6ZM144,84h6v6h-6ZM150,84h6v6h-6ZM156,84h6v6h-6ZM168,84h6v6h-6ZM222,84h6v6h-6ZM228,84h6v6h-6ZM240,84h6v6h-6ZM246,84h6v6h-6ZM288,84h6v6h-6ZM300,84h6v6h-6ZM12,90h6v6h-6ZM36,90h6v6h-6ZM42,90h6v6h-6ZM66,90h6v6h-6ZM78,90h6v6h-6ZM84,90h6v6h-6ZM90,90h6v6h-6ZM96,90h6v6h-6ZM102,90h6v6h-6ZM108,90h6v6h-6ZM120,90h6v6h-6ZM126,90h6v6h-6ZM138,90h6v6h-6ZM144,90h6v6h-6ZM150,90h6v6h-6ZM156,90h6v6h-6ZM162,90h6v6h-6ZM168,90h6v6h-6ZM198,90h6v6h-6ZM204,90h6v6h-6ZM210,90h6v6h-6ZM228,90h6v6h-6ZM234,90h6v6h-6ZM240,90h6v6h-6ZM276,90h6v6h-6ZM282,90h6v6h-6ZM288,90h6v6h-6ZM294,90h6v6h-6ZM12,96h6v6h-6ZM18,96h6v6h-6ZM24,96h6v6h-6ZM36,96h6v6h-6ZM42,96h6v6h-6ZM48,96h6v6h-6ZM54,96h6v6h-6ZM60,96h6v6h-6ZM66,96h6v6h-6ZM78,96h6v6h-6ZM102,96h6v6h-6ZM108,96h6v6h-6ZM126,96h6v6h-6ZM132,96h6v6h-6ZM162,96h6v6h-6ZM180,96h6v6h-6ZM192,96h6v6h-6ZM198,96h6v6h-6ZM204,96h6v6h-6ZM216,96h6v6h-6ZM234,96h6v6h-6ZM246,96h6v6h-6ZM252,96h6v6h-6ZM258,96h6v6h-6ZM270,96h6v6h-6ZM294,96h6v6h-6ZM18,102h6v6h-6ZM24,102h6v6h-6ZM30,102h6v6h-6ZM54,102h6v6h-6ZM66,102h6v6h-6ZM72,102h6v6h-6ZM78,102h6v6h-6ZM90,102h6v6h-6ZM102,102h6v6h-6ZM108,102h6v6h-6ZM120,102h6v6h-6ZM126,102h6v6h-6ZM132,102h6v6h-6ZM144,102h6v6h-6ZM150,102h6v6h-6ZM174,102h6v6h-6ZM186,102h6v6h-6ZM216,102h6v6h-6ZM228,102h6v6h-6ZM234,102h6v6h-6ZM240,102h6v6h-6ZM252,102h6v6h-6ZM270,102h6v6h-6ZM276,102h6v6h-6ZM30,108h6v6h-6ZM36,108h6v6h-6ZM48,108h6v6h-6ZM54,108h6v6h-6ZM66,108h6v6h-6ZM84,108h6v6h-6ZM96,108h6v6h-6ZM132,108h6v6h-6ZM150,108h6v6h-6ZM162,108h6v6h-6ZM174,108h6v6h-6ZM180,108h6v6h-6ZM186,108h6v6h-6ZM192,108h6v6h-6ZM198,108h6v6h-6ZM216,108h6v6h-6ZM228,108h6v6h-6ZM246,108h6v6h-6ZM252,108h6v6h-6ZM258,108h6v6h-6ZM264,108h6v6h-6ZM276,108h6v6h-6ZM294,108h6v6h-6ZM12,114h6v6h-6ZM18,114h6v6h-6ZM54,114h6v6h-6ZM60,114h6v6h-6ZM66,114h6v6h-6ZM84,114h6v6h-6ZM90,114h6v6h-6ZM114,114h6v6h-6ZM126,114h6v6h-6ZM138,114h6v6h-6ZM144,114h6v6h-6ZM156,114h6v6h-6ZM186,114h6v6h-6ZM192,114h6v6h-6ZM198,114h6v6h-6ZM204,114h6v6h-6ZM210,114h6v6h-6ZM228,114h6v6h-6ZM240,114h6v6h-6ZM252,114h6v6h-6ZM270,114h6v6h-6ZM282,114h6v6h-6ZM288,114h6v6h-6ZM12,120h6v6h-6ZM18,120h6v6h-6ZM36,120h6v6h-6ZM48,120h6v6h-6ZM54,120h6v6h-6ZM72,120h6v6h-6ZM90,120h6v6h-6ZM120,120h6v6h-6ZM126,120h6v6h-6ZM156,120h6v6h-6ZM168,120h6v6h-6ZM180,120h6v6h-6ZM192,120h6v6h-6ZM198,120h6v6h-6ZM204,120h6v6h-6ZM210,120h6v6h-6ZM222,120h6v6h-6ZM246,120h6v6h-6ZM252,120h6v6h-6ZM258,120h6v6h-6ZM270,120h6v6h-6ZM294,120h6v6h-6ZM300,120h6v6h-6ZM36,126h6v6h-6ZM42,126h6v6h-6ZM54,126h6v6h-6ZM72,126h6v6h-6ZM120,126h6v6h-6ZM132,126h6v6h-6ZM138,126h6v6h-6ZM150,126h6v6h-6ZM156,126h6v6h-6ZM162,126h6v6h-6ZM180,126h6v6h-6ZM210,126h6v6h-6ZM216,126h6v6h-6ZM234,126h6v6h-6ZM258,126h6v6h-6ZM270,126h6v6h-6ZM282,126h6v6h-6ZM24,132h6v6h-6ZM42,132h6v6h-6ZM48,132h6v6h-6ZM72,132h6v6h-6ZM84,132h6v6h-6ZM90,132h6v6h-6ZM96,132h6v6h-6ZM102,132h6v6h-6ZM114,132h6v6h-6ZM120,132h6v6h-6ZM132,132h6v6h-6ZM138,132h6v6h-6ZM150,132h6v6h-6ZM162,132h6v6h-6ZM168,132h6v6h-6ZM174,132h6v6h-6ZM180,132h6v6h-6ZM210,132h6v6h-6ZM216,132h6v6h-6ZM222,132h6v6h-6ZM234,132h6v6h-6ZM240,132h6v6h-6ZM252,132h6v6h-6ZM270,132h6v6h-6ZM288,132h6v6h-6ZM294,132h6v6h-6ZM18,138h6v6h-6ZM78,138h6v6h-6ZM96,138h6v6h-6ZM102,138h6v6h-6ZM108,138h6v6h-6ZM120,138h6v6h-6ZM138,138h6v6h-6ZM162,138h6v6h-6ZM168,138h6v6h-6ZM186,138h6v6h-6ZM192,138h6v6h-6ZM198,138h6v6h-6ZM204,138h6v6h-6ZM222,138h6v6h-6ZM228,138h6v6h-6ZM234,138h6v6h-6ZM264,138h6v6h-6ZM276,138h6v6h-6ZM294,138h6v6h-6ZM300,138h6v6h-6ZM12,144h6v6h-6ZM24,144h6v6h-6ZM30,144h6v6h-6ZM36,144h6v6h-6ZM42,144h6v6h-6ZM48,144h6v6h-6ZM54,144h6v6h-6ZM60,144h6v6h-6ZM72,144h6v6h-6ZM78,144h6v6h-6ZM84,144h6v6h-6ZM90,144h6v6h-6ZM96,144h6v6h-6ZM102,144h6v6h-6ZM108,144h6v6h-6ZM126,144h6v6h-6ZM138,144h6v6h-6ZM144,144h6v6h-6ZM150,144h6v6h-6ZM156,144h6v6h-6ZM162,144h6v6h-6ZM168,144h6v6h-6ZM174,144h6v6h-6ZM186,144h6v6h-6ZM192,144h6v6h-6ZM204,144h6v6h-6ZM222,144h6v6h-6ZM234,144h6v6h-6ZM240,144h6v6h-6ZM252,144h6v6h-6ZM258,144h6v6h-6ZM264,144h6v6h-6ZM270,144h6v6h-6ZM276,144h6v6h-6ZM18,150h6v6h-6ZM24,150h6v6h-6ZM30,150h6v6h-6ZM36,150h6v6h-6ZM60,150h6v6h-6ZM66,150h6v6h-6ZM84,150h6v6h-6ZM90,150h6v6h-6ZM96,150h6v6h-6ZM102,150h6v6h-6ZM108,150h6v6h-6ZM120,150h6v6h-6ZM126,150h6v6h-6ZM144,150h6v6h-6ZM168,150h6v6h-6ZM180,150h6v6h-6ZM186,150h6v6h-6ZM192,150h6v6h-6ZM204,150h6v6h-6ZM222,150h6v6h-6ZM234,150h6v6h-6ZM246,150h6v6h-6ZM252,150h6v6h-6ZM276,150h6v6h-6ZM282,150h6v6h-6ZM288,150h6v6h-6ZM294,150h6v6h-6ZM18,156h6v6h-6ZM24,156h6v6h-6ZM30,156h6v6h-6ZM36,156h6v6h-6ZM48,156h6v6h-6ZM60,156h6v6h-6ZM72,156h6v6h-6ZM84,156h6v6h-6ZM96,156h6v6h-6ZM102,156h6v6h-6ZM108,156h6v6h-6ZM120,156h6v6h-6ZM138,156h6v6h-6ZM144,156h6v6h-6ZM156,156h6v6h-6ZM168,156h6v6h-6ZM186,156h6v6h-6ZM192,156h6v6h-6ZM222,156h6v6h-6ZM228,156h6v6h-6ZM252,156h6v6h-6ZM264,156h6v6h-6ZM276,156h6v6h-6ZM282,156h6v6h-6ZM300,156h6v6h-6ZM24,162h6v6h-6ZM30,162h6v6h-6ZM36,162h6v6h-6ZM60,162h6v6h-6ZM72,162h6v6h-6ZM84,162h6v6h-6ZM90,162h6v6h-6ZM108,162h6v6h-6ZM114,162h6v6h-6ZM126,162h6v6h-6ZM132,162h6v6h-6ZM144,162h6v6h-6ZM168,162h6v6h-6ZM186,162h6v6h-6ZM204,162h6v6h-6ZM240,162h6v6h-6ZM252,162h6v6h-6ZM276,162h6v6h-6ZM30,168h6v6h-6ZM36,168h6v6h-6ZM42,168h6v6h-6ZM48,168h6v6h-6ZM54,168h6v6h-6ZM60,168h6v6h-6ZM78,168h6v6h-6ZM84,168h6v6h-6ZM96,168h6v6h-6ZM126,168h6v6h-6ZM132,168h6v6h-6ZM138,168h6v6h-6ZM144,168h6v6h-6ZM150,168h6v6h-6ZM156,168h6v6h-6ZM162,168h6v6h-6ZM168,168h6v6h-6ZM174,168h6v6h-6ZM180,168h6v6h-6ZM198,168h6v6h-6ZM210,168h6v6h-6ZM240,168h6v6h-6ZM246,168h6v6h-6ZM252,168h6v6h-6ZM258,168h6v6h-6ZM264,168h6v6h-6ZM270,168h6v6h-6ZM276,168h6v6h-6ZM288,168h6v6h-6ZM294,168h6v6h-6ZM12,174h6v6h-6ZM18,174h6v6h-6ZM24,174h6v6h-6ZM36,174h6v6h-6ZM42,174h6v6h-6ZM60,174h6v6h-6ZM66,174h6v6h-6ZM72,174h6v6h-6ZM78,174h6v6h-6ZM102,174h6v6h-6ZM108,174h6v6h-6ZM120,174h6v6h-6ZM132,174h6v6h-6ZM144,174h6v6h-6ZM150,174h6v6h-6ZM174,174h6v6h-6ZM180,174h6v6h-6ZM186,174h6v6h-6ZM192,174h6v6h-6ZM198,174h6v6h-6ZM216,174h6v6h-6ZM222,174h6v6h-6ZM228,174h6v6h-6ZM234,174h6v6h-6ZM240,174h6v6h-6ZM246,174h6v6h-6ZM252,174h6v6h-6ZM258,174h6v6h-6ZM270,174h6v6h-6ZM276,174h6v6h-6ZM282,174h6v6h-6ZM300,174h6v6h-6ZM12,180h6v6h-6ZM30,180h6v6h-6ZM42,180h6v6h-6ZM48,180h6v6h-6ZM54,180h6v6h-6ZM60,180h6v6h-6ZM66,180h6v6h-6ZM84,180h6v6h-6ZM96,180h6v6h-6ZM108,180h6v6h-6ZM126,180h6v6h-6ZM132,180h6v6h-6ZM138,180h6v6h-6ZM144,180h6v6h-6ZM150,180h6v6h-6ZM162,180h6v6h-6ZM168,180h6v6h-6ZM186,180h6v6h-6ZM192,180h6v6h-6ZM198,180h6v6h-6ZM204,180h6v6h-6ZM210,180h6v6h-6ZM216,180h6v6h-6ZM240,180h6v6h-6ZM276,180h6v6h-6ZM282,180h6v6h-6ZM288,180h6v6h-6ZM18,186h6v6h-6ZM24,186h6v6h-6ZM54,186h6v6h-6ZM60,186h6v6h-6ZM66,186h6v6h-6ZM78,186h6v6h-6ZM84,186h6v6h-6ZM90,186h6v6h-6ZM102,186h6v6h-6ZM108,186h6v6h-6ZM120,186h6v6h-6ZM126,186h6v6h-6ZM150,186h6v6h-6ZM156,186h6v6h-6ZM162,186h6v6h-6ZM174,186h6v6h-6ZM180,186h6v6h-6ZM186,186h6v6h-6ZM198,186h6v6h-6ZM204,186h6v6h-6ZM210,186h6v6h-6ZM216,186h6v6h-6ZM228,186h6v6h-6ZM246,186h6v6h-6ZM264,186h6v6h-6ZM282,186h6v6h-6ZM288,186h6v6h-6ZM18,192h6v6h-6ZM30,192h6v6h-6ZM36,192h6v6h-6ZM48,192h6v6h-6ZM72,192h6v6h-6ZM78,192h6v6h-6ZM84,192h6v6h-6ZM96,192h6v6h-6ZM108,192h6v6h-6ZM120,192h6v6h-6ZM126,192h6v6h-6ZM144,192h6v6h-6ZM162,192h6v6h-6ZM180,192h6v6h-6ZM210,192h6v6h-6ZM258,192h6v6h-6ZM264,192h6v6h-6ZM276,192h6v6h-6ZM282,192h6v6h-6ZM294,192h6v6h-6ZM300,192h6v6h-6ZM24,198h6v6h-6ZM36,198h6v6h-6ZM54,198h6v6h-6ZM60,198h6v6h-6ZM66,198h6v6h-6ZM72,198h6v6h-6ZM84,198h6v6h-6ZM96,198h6v6h-6ZM102,198h6v6h-6ZM132,198h6v6h-6ZM156,198h6v6h-6ZM174,198h6v6h-6ZM186,198h6v6h-6ZM198,198h6v6h-6ZM204,198h6v6h-6ZM240,198h6v6h-6ZM258,198h6v6h-6ZM270,198h6v6h-6ZM276,198h6v6h-6ZM294,198h6v6h-6ZM24,204h6v6h-6ZM30,204h6v6h-6ZM36,204h6v6h-6ZM42,204h6v6h-6ZM48,204h6v6h-6ZM60,204h6v6h-6ZM66,204h6v6h-6ZM72,204h6v6h-6ZM78,204h6v6h-6ZM84,204h6v6h-6ZM114,204h6v6h-6ZM120,204h6v6h-6ZM126,204h6v6h-6ZM144,204h6v6h-6ZM150,204h6v6h-6ZM180,204h6v6h-6ZM186,204h6v6h-6ZM198,204h6v6h-6ZM210,204h6v6h-6ZM216,204h6v6h-6ZM252,204h6v6h-6ZM258,204h6v6h-6ZM276,204h6v6h-6ZM282,204h6v6h-6ZM294,204h6v6h-6ZM300,204h6v6h-6ZM12,210h6v6h-6ZM18,210h6v6h-6ZM30,210h6v6h-6ZM36,210h6v6h-6ZM42,210h6v6h-6ZM66,210h6v6h-6ZM78,210h6v6h-6ZM102,210h6v6h-6ZM126,210h6v6h-6ZM138,210h6v6h-6ZM144,210h6v6h-6ZM150,210h6v6h-6ZM156,210h6v6h-6ZM192,210h6v6h-6ZM198,210h6v6h-6ZM210,210h6v6h-6ZM222,210h6v6h-6ZM228,210h6v6h-6ZM300,210h6v6h-6ZM12,216h6v6h-6ZM18,216h6v6h-6ZM24,216h6v6h-6ZM30,216h6v6h-6ZM36,216h6v6h-6ZM42,216h6v6h-6ZM48,216h6v6h-6ZM66,216h6v6h-6ZM120,216h6v6h-6ZM132,216h6v6h-6ZM150,216h6v6h-6ZM168,216h6v6h-6ZM204,216h6v6h-6ZM210,216h6v6h-6ZM222,216h6v6h-6ZM234,216h6v6h-6ZM240,216h6v6h-6ZM246,216h6v6h-6ZM252,216h6v6h-6ZM270,216h6v6h-6ZM282,216h6v6h-6ZM288,216h6v6h-6ZM12,222h6v6h-6ZM18,222h6v6h-6ZM24,222h6v6h-6ZM30,222h6v6h-6ZM42,222h6v6h-6ZM54,222h6v6h-6ZM66,222h6v6h-6ZM78,222h6v6h-6ZM84,222h6v6h-6ZM102,222h6v6h-6ZM126,222h6v6h-6ZM168,222h6v6h-6ZM186,222h6v6h-6ZM198,222h6v6h-6ZM210,222h6v6h-6ZM246,222h6v6h-6ZM252,222h6v6h-6ZM270,222h6v6h-6ZM282,222h6v6h-6ZM288,222h6v6h-6ZM300,222h6v6h-6ZM12,228h6v6h-6ZM30,228h6v6h-6ZM36,228h6v6h-6ZM48,228h6v6h-6ZM54,228h6v6h-6ZM72,228h6v6h-6ZM78,228h6v6h-6ZM84,228h6v6h-6ZM90,228h6v6h-6ZM96,228h6v6h-6ZM102,228h6v6h-6ZM114,228h6v6h-6ZM126,228h6v6h-6ZM132,228h6v6h-6ZM138,228h6v6h-6ZM150,228h6v6h-6ZM162,228h6v6h-6ZM186,228h6v6h-6ZM192,228h6v6h-6ZM198,228h6v6h-6ZM222,228h6v6h-6ZM228,228h6v6h-6ZM246,228h6v6h-6ZM264,228h6v6h-6ZM270,228h6v6h-6ZM282,228h6v6h-6ZM12,234h6v6h-6ZM18,234h6v6h-6ZM36,234h6v6h-6ZM54,234h6v6h-6ZM60,234h6v6h-6ZM72,234h6v6h-6ZM78,234h6v6h-6ZM90,234h6v6h-6ZM96,234h6v6h-6ZM102,234h6v6h-6ZM108,234h6v6h-6ZM114,234h6v6h-6ZM120,234h6v6h-6ZM132,234h6v6h-6ZM150,234h6v6h-6ZM162,234h6v6h-6ZM168,234h6v6h-6ZM180,234h6v6h-6ZM210,234h6v6h-6ZM228,234h6v6h-6ZM240,234h6v6h-6ZM258,234h6v6h-6ZM264,234h6v6h-6ZM270,234h6v6h-6ZM276,234h6v6h-6ZM300,234h6v6h-6ZM18,240h6v6h-6ZM42,240h6v6h-6ZM48,240h6v6h-6ZM60,240h6v6h-6ZM66,240h6v6h-6ZM84,240h6v6h-6ZM114,240h6v6h-6ZM126,240h6v6h-6ZM144,240h6v6h-6ZM156,240h6v6h-6ZM162,240h6v6h-6ZM180,240h6v6h-6ZM192,240h6v6h-6ZM198,240h6v6h-6ZM204,240h6v6h-6ZM216,240h6v6h-6ZM234,240h6v6h-6ZM270,240h6v6h-6ZM276,240h6v6h-6ZM282,240h6v6h-6ZM288,240h6v6h-6ZM18,246h6v6h-6ZM24,246h6v6h-6ZM30,246h6v6h-6ZM54,246h6v6h-6ZM72,246h6v6h-6ZM78,246h6v6h-6ZM84,246h6v6h-6ZM90,246h6v6h-6ZM96,246h6v6h-6ZM138,246h6v6h-6ZM168,246h6v6h-6ZM198,246h6v6h-6ZM204,246h6v6h-6ZM210,246h6v6h-6ZM222,246h6v6h-6ZM246,246h6v6h-6ZM252,246h6v6h-6ZM258,246h6v6h-6ZM300,246h6v6h-6ZM12,252h6v6h-6ZM18,252h6v6h-6ZM24,252h6v6h-6ZM48,252h6v6h-6ZM54,252h6v6h-6ZM66,252h6v6h-6ZM72,252h6v6h-6ZM84,252h6v6h-6ZM108,252h6v6h-6ZM114,252h6v6h-6ZM120,252h6v6h-6ZM132,252h6v6h-6ZM138,252h6v6h-6ZM144,252h6v6h-6ZM150,252h6v6h-6ZM156,252h6v6h-6ZM162,252h6v6h-6ZM168,252h6v6h-6ZM174,252h6v6h-6ZM186,252h6v6h-6ZM192,252h6v6h-6ZM204,252h6v6h-6ZM222,252h6v6h-6ZM234,252h6v6h-6ZM252,252h6v6h-6ZM258,252h6v6h-6ZM264,252h6v6h-6ZM270,252h6v6h-6ZM276,252h6v6h-6ZM282,252h6v6h-6ZM294,252h6v6h-6ZM60,258h6v6h-6ZM72,258h6v6h-6ZM78,258h6v6h-6ZM84,258h6v6h-6ZM90,258h6v6h-6ZM102,258h6v6h-6ZM114,258h6v6h-6ZM120,258h6v6h-6ZM126,258h6v6h-6ZM138,258h6v6h-6ZM144,258h6v6h-6ZM168,258h6v6h-6ZM180,258h6v6h-6ZM186,258h6v6h-6ZM198,258h6v6h-6ZM216,258h6v6h-6ZM234,258h6v6h-6ZM246,258h6v6h-6ZM252,258h6v6h-6ZM276,258h6v6h-6ZM294,258h6v6h-6ZM12,264h6v6h-6ZM18,264h6v6h-6ZM24,264h6v6h-6ZM30,264h6v6h-6ZM36,264h6v6h-6ZM42,264h6v6h-6ZM48,264h6v6h-6ZM60,264h6v6h-6ZM66,264h6v6h-6ZM84,264h6v6h-6ZM96,264h6v6h-6ZM102,264h6v6h-6ZM120,264h6v6h-6ZM126,264h6v6h-6ZM138,264h6v6h-6ZM144,264h6v6h-6ZM156,264h6v6h-6ZM168,264h6v6h-6ZM192,264h6v6h-6ZM216,264h6v6h-6ZM228,264h6v6h-6ZM234,264h6v6h-6ZM240,264h6v6h-6ZM246,264h6v6h-6ZM252,264h6v6h-6ZM264,264h6v6h-6ZM276,264h6v6h-6ZM294,264h6v6h-6ZM300,264h6v6h-6ZM12,270h6v6h-6ZM48,270h6v6h-6ZM60,270h6v6h-6ZM72,270h6v6h-6ZM78,270h6v6h-6ZM84,270h6v6h-6ZM102,270h6v6h-6ZM120,270h6v6h-6ZM126,270h6v6h-6ZM144,270h6v6h-6ZM168,270h6v6h-6ZM180,270h6v6h-6ZM198,270h6v6h-6ZM204,270h6v6h-6ZM210,270h6v6h-6ZM216,270h6v6h-6ZM222,270h6v6h-6ZM234,270h6v6h-6ZM246,270h6v6h-6ZM252,270h6v6h-6ZM276,270h6v6h-6ZM294,270h6v6h-6ZM12,276h6v6h-6ZM24,276h6v6h-6ZM30,276h6v6h-6ZM36,276h6v6h-6ZM48,276h6v6h-6ZM66,276h6v6h-6ZM78,276h6v6h-6ZM108,276h6v6h-6ZM114,276h6v6h-6ZM126,276h6v6h-6ZM144,276h6v6h-6ZM150,276h6v6h-6ZM156,276h6v6h-6ZM162,276h6v6h-6ZM168,276h6v6h-6ZM174,276h6v6h-6ZM180,276h6v6h-6ZM186,276h6v6h-6ZM240,276h6v6h-6ZM252,276h6v6h-6ZM258,276h6v6h-6ZM264,276h6v6h-6ZM270,276h6v6h-6ZM276,276h6v6h-6ZM282,276h6v6h-6ZM294,276h6v6h-6ZM12,282h6v6h-6ZM24,282h6v6h-6ZM30,282h6v6h-6ZM36,282h6v6h-6ZM48,282h6v6h-6ZM60,282h6v6h-6ZM66,282h6v6h-6ZM78,282h6v6h-6ZM84,282h6v6h-6ZM96,282h6v6h-6ZM102,282h6v6h-6ZM114,282h6v6h-6ZM120,282h6v6h-6ZM126,282h6v6h-6ZM132,282h6v6h-6ZM144,282h6v6h-6ZM186,282h6v6h-6ZM192,282h6v6h-6ZM198,282h6v6h-6ZM210,282h6v6h-6ZM222,282h6v6h-6ZM228,282h6v6h-6ZM234,282h6v6h-6ZM246,282h6v6h-6ZM264,282h6v6h-6ZM282,282h6v6h-6ZM288,282h6v6h-6ZM294,282h6v6h-6ZM12,288h6v6h-6ZM24,288h6v6h-6ZM30,288h6v6h-6ZM36,288h6v6h-6ZM48,288h6v6h-6ZM60,288h6v6h-6ZM66,288h6v6h-6ZM84,288h6v6h-6ZM138,288h6v6h-6ZM144,288h6v6h-6ZM162,288h6v6h-6ZM168,288h6v6h-6ZM192,288h6v6h-6ZM204,288h6v6h-6ZM210,288h6v6h-6ZM216,288h6v6h-6ZM228,288h6v6h-6ZM240,288h6v6h-6ZM246,288h6v6h-6ZM258,288h6v6h-6ZM270,288h6v6h-6ZM276,288h6v6h-6ZM288,288h6v6h-6ZM12,294h6v6h-6ZM48,294h6v6h-6ZM72,294h6v6h-6ZM78,294h6v6h-6ZM84,294h6v6h-6ZM90,294h6v6h-6ZM102,294h6v6h-6ZM108,294h6v6h-6ZM120,294h6v6h-6ZM132,294h6v6h-6ZM138,294h6v6h-6ZM144,294h6v6h-6ZM150,294h6v6h-6ZM162,294h6v6h-6ZM180,294h6v6h-6ZM186,294h6v6h-6ZM192,294h6v6h-6ZM198,294h6v6h-6ZM210,294h6v6h-6ZM240,294h6v6h-6ZM246,294h6v6h-6ZM252,294h6v6h-6ZM258,294h6v6h-6ZM282,294h6v6h-6ZM288,294h6v6h-6ZM12,300h6v6h-6ZM18,300h6v6h-6ZM24,300h6v6h-6ZM30,300h6v6h-6ZM36,300h6v6h-6ZM42,300h6v6h-6ZM48,300h6v6h-6ZM60,300h6v6h-6ZM84,300h6v6h-6ZM108,300h6v6h-6ZM120,300h6v6h-6ZM132,300h6v6h-6ZM138,300h6v6h-6ZM156,300h6v6h-6ZM162,300h6v6h-6ZM180,300h6v6h-6ZM198,300h6v6h-6ZM204,300h6v6h-6ZM210,300h6v6h-6ZM216,300h6v6h-6ZM222,300h6v6h-6ZM240,300h6v6h-6ZM258,300h6v6h-6ZM264,300h6v6h-6ZM276,300h6v6h-6ZM294,300h6v6h-6ZM300,300h6v6h-6Z" fill="#E67E22"/>
</svg>
