<?xml version="1.0" encoding="UTF-8"?>
<svg xmlns="http://www.w3.org/2000/svg" version="1.1" width="296" height="296" viewBox="0 0 296 296">
<rect width="100%" height="100%" fill="#ffffff"/>
<rect x="80" y="16" width="8" height="8" rx="2.4" ry="2.4" fill="#25D366"/>
<rect x="112" y="16" width="8" height="8" rx="2.4" ry="2.4" fill="#25D366"/>
<rect x="144" y="16" width="8" height="8" rx="2.4" ry="2.4" fill="#25D366"/>
<rect x="176" y="16" width="8" height="8" rx="2.4" ry="2.4" fill="#25D366"/>
<rect x="184" y="16" width="8" height="8" rx="2.4" ry="2.4" fill="#25D366"/>
<rect x="192" y="16" width="8" height="8" rx="2.4" ry="2.4" fill="#25D366"/>
<rect x="208" y="16" width="8" height="8" rx="2.4" ry="2.4" fill="#25D366"/>
<rect x="80" y="24" width="8" height="8" rx="2.4" ry="2.4" fill="#25D366"/>
<rect x="152" y="24" width="8" height="8" rx="2.4" ry="2.4" fill="#25D366"/>
<rect x="168" y="24" width="8" height="8" rx="2.4" ry="2.4" fill="#25D366"/>
<rect x="80" y="32" width="8" height="8" rx="2.4" ry="2.4" fill="#25D366"/>
<rect x="88" y="32" width="8" height="8" rx="2.4" ry="2.4" fill="#25D366"/>
<rect x="96" y="32" width="8" height="8" rx="2.4" ry="2.4" fill="#25D366"/>
<rect x="104" y="32" width="8" height="8" rx="2.4" ry="2.4" fill="#25D366"/>
<rect x="112" y="32" width="8" height="8" rx="2.4" ry="2.4" fill="#25D366"/>
<rect x="136" y="32" width="8" height="8" rx="2.4" ry="2.4" fill="#25D366"/>
<rect x="152" y="32" width="8" height="8" rx="2.4" ry="2.4" fill="#25D366"/>
<rect x="160" y="32" width="8" height="8" rx="2.4" ry="2.4" fill="#25D366"/>
<rect x="176" y="32" width="8" height="8" rx="2.4" ry="2.4" fill="#25D366"/>
<rect x="184" y="32" width="8" height="8" rx="2.4" ry="2.4" fill="#25D366"/>
<rect x="192" y="32" width="8" height="8" rx="2.4" ry="2.4" fill="#25D366"/>
<rect x="88" y="40" width="8" height="8" rx="2.4" ry="2.4" fill="#25D366"/>
<rect x="96" y="40" width="8" height="8" rx="2.4" ry="2.4" fill="#25D366"/>
<rect x="104" y="40" width="8" height="8" rx="2.4" ry="2.4" fill="#25D366"/>
<rect x="112" y="40" width="8" height="8" rx="2.4" ry="2.4" fill="#25D366"/>
<rect x="176" y="40" width="8" height="8" rx="2.4" ry="2.4" fill="#25D366"/>
<rect x="80" y="48" width="8" height="8" rx="2.4" ry="2.4" fill="#25D366"/>
<rect x="88" y="48" width="8" height="8" rx="2.4" ry="2.4" fill="#25D366"/>
<rect x="96" y="48" width="8" height="8" rx="2.4" ry="2.4" fill="#25D366"/>
<rect x="104" y="48" width="8" height="8" rx="2.4" ry="2.4" fill="#25D366"/>
<rect x="112" y="48" width="8" height="8" rx="2.4" ry="2.4" fill="#25D366"/>
<rect x="120" y="48" width="8" height="8" rx="2.4" ry="2.4" fill="#25D366"/>
<rect x="128" y="48" width="8" height="8" rx="2.4" ry="2.4" fill="#25D366"/>
<rect x="136" y="48" width="8" height="8" rx="2.4" ry="2.4" fill="#25D366"/>
<rect x="160" y="48" width="8" height="8" rx="2.4" ry="2.4" fill="#25D366"/>
<rect x="176" y="48" width="8" height="8" rx="2.4" ry="2.4" fill="#25D366"/>
<rect x="192" y="48" width="8" height="8" rx="2.4" ry="2.4" fill="#25D366"/>
<rect x="208" y="48" width="8" height="8" rx="2.4" ry="2.4" fill="#25D366"/>
<rect x="112" y="56" width="8" height="8" rx="2.4" ry="2.4" fill="#25D366"/>
<rect x="128" y="56" width="8" height="8" rx="2.4" ry="2.4" fill="#25D366"/>
<rect x="152" y="56" width="8" height="8" rx="2.4" ry="2.4" fill="#25D366"/>
<rect x="160" y="56" width="8" height="8" rx="2.4" ry="2.4" fill="#25D366"/>
<rect x="176" y="56" width="8" height="8" rx="2.4" ry="2.4" fill="#25D366"/>
<rect x="184" y="56" width="8" height="8" rx="2.4" ry="2.4" fill="#25D366"/>
<rect x="200" y="56" width="8" height="8" rx="2.4" ry="2.4" fill="#25D366"/>
<rect x="208" y="56" width="8" height="8" rx="2.4" ry="2.4" fill="#25D366"/>
<rect x="80" y="64" width="8" height="8" rx="2.4" ry="2.4" fill="#25D366"/>
<rect x="96" y="64" width="8" height="8" rx="2.4" ry="2.4" fill="#25D366"/>
<rect x="112" y="64" width="8" height="8" rx="2.4" ry="2.4" fill="#25D366"/>
<rect x="128" y="64" width="8" height="8" rx="2.4" ry="2.4" fill="#25D366"/>
<rect x="144" y="64" width="8" height="8" rx="2.4" ry="2.4" fill="#25D366"/>
<rect x="160" y="64" width="8" height="8" rx="2.4" ry="2.4" fill="#25D366"/>
<rect x="176" y="64" width="8" height="8" rx="2.4" ry="2.4" fill="#25D366"/>
<rect x="192" y="64" width="8" height="8" rx="2.4" ry="2.4" fill="#25D366"/>
<rect x="208" y="64" width="8" height="8" rx="2.4" ry="2.4" fill="#25D366"/>
<rect x="88" y="72" width="8" height="8" rx="2.4" ry="2.4" fill="#25D366"/>
<rect x="104" y="72" width="8" height="8" rx="2.4" ry="2.4" fill="#25D366"/>
<rect x="120" y="72" width="8" height="8" rx="2.4" ry="2.4" fill="#25D366"/>
<rect x="160" y="72" width="8" height="8" rx="2.4" ry="2.4" fill="#25D366"/>
<rect x="168" y="72" width="8" height="8" rx="2.4" ry="2.4" fill="#25D366"/>
<rect x="176" y="72" width="8" height="8" rx="2.4" ry="2.4" fill="#25D366"/>
<rect x="192" y="72" width="8" height="8" rx="2.4" ry="2.4" fill="#25D366"/>
<rect x="200" y="72" width="8" height="8" rx="2.4" ry="2.4" fill="#25D366"/>
<rect x="208" y="72" width="8" height="8" rx="2.4" ry="2.4" fill="#25D366"/>
<rect x="16" y="80" width="8" height="8" rx="2.4" ry="2.4" fill="#25D366"/>
<rect x="40" y="80" width="8" height="8" rx="2.4" ry="2.4" fill="#25D366"/>
<rect x="48" y="80" width="8" height="8" rx="2.4" ry="2.4" fill="#25D366"/>
<rect x="56" y="80" width="8" height="8" rx="2.4" ry="2.4" fill="#25D366"/>
<rect x="64" y="80" width="8" height="8" rx="2.4" ry="2.4" fill="#25D366"/>
<rect x="72" y="80" width="8" height="8" rx="2.4" ry="2.4" fill="#25D366"/>
<rect x="80" y="80" width="8" height="8" rx="2.4" ry="2.4" fill="#25D366"/>
<rect x="88" y="80" width="8" height="8" rx="2.4" ry="2.4" fill="#25D366"/>
<rect x="96" y="80" width="8" height="8" rx="2.4" ry="2.4" fill="#25D366"/>
<rect x="120" y="80" width="8" height="8" rx="2.4" ry="2.4" fill="#25D366"/>
<rect x="128" y="80" width="8" height="8" rx="2.4" ry="2.4" fill="#25D366"/>
<rect x="136" y="80" width="8" height="8" rx="2.4" ry="2.4" fill="#25D366"/>
<rect x="152" y="80" width="8" height="8" rx="2.4" ry="2.4" fill="#25D366"/>
<rect x="160" y="80" width="8" height="8" rx="2.4" ry="2.4" fill="#25D366"/>
<rect x="168" y="80" width="8" height="8" rx="2.4" ry="2.4" fill="#25D366"/>
<rect x="176" y="80" width="8" height="8" rx="2.4" ry="2.4" fill="#25D366"/>
<rect x="192" y="80" width="8" height="8" rx="2.4" ry="2.4" fill="#25D366"/>
<rect x="208" y="80" width="8" height="8" rx="2.4" ry="2.4" fill="#25D366"/>
<rect x="216" y="80" width="8" height="8" rx="2.4" ry="2.4" fill="#25D366"/>
<rect x="240" y="80" width="8" height="8" rx="2.4" ry="2.4" fill="#25D366"/>
<rect x="256" y="80" width="8" height="8" rx="2.4" ry="2.4" fill="#25D366"/>
<rect x="264" y="80" width="8" height="8" rx="2.4" ry="2.4" fill="#25D366"/>
<rect x="272" y="80" width="8" height="8" rx="2.4" ry="2.4" fill="#25D366"/>
<rect x="16" y="88" width="8" height="8" rx="2.4" ry="2.4" fill="#25D366"/>
<rect x="24" y="88" width="8" height="8" rx="2.4" ry="2.4" fill="#25D366"/>
<rect x="32" y="88" width="8" height="8" rx="2.4" ry="2.4" fill="#25D366"/>
<rect x="48" y="88" width="8" height="8" rx="2.4" ry="2.4" fill="#25D366"/>
<rect x="80" y="88" width="8" height="8" rx="2.4" ry="2.4" fill="#25D366"/>
<rect x="88" y="88" width="8" height="8" rx="2.4" ry="2.4" fill="#25D366"/>
<rect x="112" y="88" width="8" height="8" rx="2.4" ry="2.4" fill="#25D366"/>
<rect x="128" y="88" width="8" height="8" rx="2.4" ry="2.4" fill="#25D366"/>
<rect x="136" y="88" width="8" height="8" rx="2.4" ry="2.4" fill="#25D366"/>
<rect x="168" y="88" width="8" height="8" rx="2.4" ry="2.4" fill="#25D366"/>
<rect x="176" y="88" width="8" height="8" rx="2.4" ry="2.4" fill="#25D366"/>
<rect x="200" y="88" width="8" height="8" rx="2.4" ry="2.4" fill="#25D366"/>
<rect x="240" y="88" width="8" height="8" rx="2.4" ry="2.4" fill="#25D366"/>
<rect x="248" y="88" width="8" height="8" rx="2.4" ry="2.4" fill="#25D366"/>
<rect x="256" y="88" width="8" height="8" rx="2.4" ry="2.4" fill="#25D366"/>
<rect x="16" y="96" width="8" height="8" rx="2.4" ry="2.4" fill="#25D366"/>
<rect x="32" y="96" width="8" height="8" rx="2.4" ry="2.4" fill="#25D366"/>
<rect x="40" y="96" width="8" height="8" rx="2.4" ry="2.4" fill="#25D366"/>
<rect x="48" y="96" width="8" height="8" rx="2.4" ry="2.4" fill="#25D366"/>
<rect x="56" y="96" width="8" height="8" rx="2.4" ry="2.4" fill="#25D366"/>
<rect x="64" y="96" width="8" height="8" rx="2.4" ry="2.4" fill="#25D366"/>
<rect x="72" y="96" width="8" height="8" rx="2.4" ry="2.4" fill="#25D366"/>
<rect x="80" y="96" width="8" height="8" rx="2.4" ry="2.4" fill="#25D366"/>
<rect x="96" y="96" width="8" height="8" rx="2.4" ry="2.4" fill="#25D366"/>
<rect x="128" y="96" width="8" height="8" rx="2.4" ry="2.4" fill="#25D366"/>
<rect x="136" y="96" width="8" height="8" rx="2.4" ry="2.4" fill="#25D366"/>
<rect x="152" y="96" width="8" height="8" rx="2.4" ry="2.4" fill="#25D366"/>
<rect x="160" y="96" width="8" height="8" rx="2.4" ry="2.4" fill="#25D366"/>
<rect x="176" y="96" width="8" height="8" rx="2.4" ry="2.4" fill="#25D366"/>
<rect x="184" y="96" width="8" height="8" rx="2.4" ry="2.4" fill="#25D366"/>
<rect x="200" y="96" width="8" height="8" rx="2.4" ry="2.4" fill="#25D366"/>
<rect x="216" y="96" width="8" height="8" rx="2.4" ry="2.4" fill="#25D366"/>
<rect x="224" y="96" width="8" height="8" rx="2.4" ry="2.4" fill="#25D366"/>
<rect x="240" y="96" width="8" height="8" rx="2.4" ry="2.4" fill="#25D366"/>
<rect x="248" y="96" width="8" height="8" rx="2.4" ry="2.4" fill="#25D366"/>
<rect x="256" y="96" width="8" height="8" rx="2.4" ry="2.4" fill="#25D366"/>
<rect x="264" y="96" width="8" height="8" rx="2.4" ry="2.4" fill="#25D366"/>
<rect x="272" y="96" width="8" height="8" rx="2.4" ry="2.4" fill="#25D366"/>
<rect x="16" y="104" width="8" height="8" rx="2.4" ry="2.4" fill="#25D366"/>
<rect x="24" y="104" width="8" height="8" rx="2.4" ry="2.4" fill="#25D366"/>
<rect x="32" y="104" width="8" height="8" rx="2.4" ry="2.4" fill="#25D366"/>
<rect x="48" y="104" width="8" height="8" rx="2.4" ry="2.4" fill="#25D366"/>
<rect x="56" y="104" width="8" height="8" rx="2.4" ry="2.4" fill="#25D366"/>
<rect x="80" y="104" width="8" height="8" rx="2.4" ry="2.4" fill="#25D366"/>
<rect x="96" y="104" width="8" height="8" rx="2.4" ry="2.4" fill="#25D366"/>
<rect x="104" y="104" width="8" height="8" rx="2.4" ry="2.4" fill="#25D366"/>
<rect x="128" y="104" width="8" height="8" rx="2.4" ry="2.4" fill="#25D366"/>
<rect x="144" y="104" width="8" height="8" rx="2.4" ry="2.4" fill="#25D366"/>
<rect x="152" y="104" width="8" height="8" rx="2.4" ry="2.4" fill="#25D366"/>
<rect x="168" y="104" width="8" height="8" rx="2.4" ry="2.4" fill="#25D366"/>
<rect x="176" y="104" width="8" height="8" rx="2.4" ry="2.4" fill="#25D366"/>
<rect x="200" y="104" width="8" height="8" rx="2.4" ry="2.4" fill="#25D366"/>
<rect x="224" y="104" width="8" height="8" rx="2.4" ry="2.4" fill="#25D366"/>
<rect x="232" y="104" width="8" height="8" rx="2.4" ry="2.4" fill="#25D366"/>
<rect x="256" y="104" width="8" height="8" rx="2.4" ry="2.4" fill="#25D366"/>
<rect x="32" y="112" width="8" height="8" rx="2.4" ry="2.4" fill="#25D366"/>
<rect x="56" y="112" width="8" height="8" rx="2.4" ry="2.4" fill="#25D366"/>
<rect x="64" y="112" width="8" height="8" rx="2.4" ry="2.4" fill="#25D366"/>
<rect x="88" y="112" width="8" height="8" rx="2.4" ry="2.4" fill="#25D366"/>
<rect x="112" y="112" width="8" height="8" rx="2.4" ry="2.4" fill="#25D366"/>
<rect x="120" y="112" width="8" height="8" rx="2.4" ry="2.4" fill="#25D366"/>
<rect x="128" y="112" width="8" height="8" rx="2.4" ry="2.4" fill="#25D366"/>
<rect x="144" y="112" width="8" height="8" rx="2.4" ry="2.4" fill="#25D366"/>
<rect x="152" y="112" width="8" height="8" rx="2.4" ry="2.4" fill="#25D366"/>
<rect x="160" y="112" width="8" height="8" rx="2.4" ry="2.4" fill="#25D366"/>
<rect x="168" y="112" width="8" height="8" rx="2.4" ry="2.4" fill="#25D366"/>
<rect x="176" y="112" width="8" height="8" rx="2.4" ry="2.4" fill="#25D366"/>
<rect x="224" y="112" width="8" height="8" rx="2.4" ry="2.4" fill="#25D366"/>
<rect x="232" y="112" width="8" height="8" rx="2.4" ry="2.4" fill="#25D366"/>
<rect x="16" y="120" width="8" height="8" rx="2.4" ry="2.4" fill="#25D366"/>
<rect x="24" y="120" width="8" height="8" rx="2.4" ry="2.4" fill="#25D366"/>
<rect x="32" y="120" width="8" height="8" rx="2.4" ry="2.4" fill="#25D366"/>
<rect x="40" y="120" width="8" height="8" rx="2.4" ry="2.4" fill="#25D366"/>
<rect x="48" y="120" width="8" height="8" rx="2.4" ry="2.4" fill="#25D366"/>
<rect x="80" y="120" width="8" height="8" rx="2.4" ry="2.4" fill="#25D366"/>
<rect x="96" y="120" width="8" height="8" rx="2.4" ry="2.4" fill="#25D366"/>
<rect x="104" y="120" width="8" height="8" rx="2.4" ry="2.4" fill="#25D366"/>
<rect x="144" y="120" width="8" height="8" rx="2.4" ry="2.4" fill="#25D366"/>
<rect x="152" y="120" width="8" height="8" rx="2.4" ry="2.4" fill="#25D366"/>
<rect x="176" y="120" width="8" height="8" rx="2.4" ry="2.4" fill="#25D366"/>
<rect x="200" y="120" width="8" height="8" rx="2.4" ry="2.4" fill="#25D366"/>
<rect x="208" y="120" width="8" height="8" rx="2.4" ry="2.4" fill="#25D366"/>
<rect x="232" y="120" width="8" height="8" rx="2.4" ry="2.4" fill="#25D366"/>
<rect x="248" y="120" width="8" height="8" rx="2.4" ry="2.4" fill="#25D366"/>
<rect x="16" y="128" width="8" height="8" rx="2.4" ry="2.4" fill="#25D366"/>
<rect x="32" y="128" width="8" height="8" rx="2.4" ry="2.4" fill="#25D366"/>
<rect x="48" y="128" width="8" height="8" rx="2.4" ry="2.4" fill="#25D366"/>
<rect x="64" y="128" width="8" height="8" rx="2.4" ry="2.4" fill="#25D366"/>
<rect x="112" y="128" width="8" height="8" rx="2.4" ry="2.4" fill="#25D366"/>
<rect x="144" y="128" width="8" height="8" rx="2.4" ry="2.4" fill="#25D366"/>
<rect x="160" y="128" width="8" height="8" rx="2.4" ry="2.4" fill="#25D366"/>
<rect x="168" y="128" width="8" height="8" rx="2.4" ry="2.4" fill="#25D366"/>
<rect x="184" y="128" width="8" height="8" rx="2.4" ry="2.4" fill="#25D366"/>
<rect x="192" y="128" width="8" height="8" rx="2.4" ry="2.4" fill="#25D366"/>
<rect x="224" y="128" width="8" height="8" rx="2.4" ry="2.4" fill="#25D366"/>
<rect x="232" y="128" width="8" height="8" rx="2.4" ry="2.4" fill="#25D366"/>
<rect x="240" y="128" width="8" height="8" rx="2.4" ry="2.4" fill="#25D366"/>
<rect x="256" y="128" width="8" height="8" rx="2.4" ry="2.4" fill="#25D366"/>
<rect x="16" y="136" width="8" height="8" rx="2.4" ry="2.4" fill="#25D366"/>
<rect x="32" y="136" width="8" height="8" rx="2.4" ry="2.4" fill="#25D366"/>
<rect x="40" y="136" width="8" height="8" rx="2.4" ry="2.4" fill="#25D366"/>
<rect x="48" y="136" width="8" height="8" rx="2.4" ry="2.4" fill="#25D366"/>
<rect x="56" y="136" width="8" height="8" rx="2.4" ry="2.4" fill="#25D366"/>
<rect x="72" y="136" width="8" height="8" rx="2.4" ry="2.4" fill="#25D366"/>
<rect x="96" y="136" width="8" height="8" rx="2.4" ry="2.4" fill="#25D366"/>
<rect x="104" y="136" width="8" height="8" rx="2.4" ry="2.4" fill="#25D366"/>
<rect x="120" y="136" width="8" height="8" rx="2.4" ry="2.4" fill="#25D366"/>
<rect x="136" y="136" width="8" height="8" rx="2.4" ry="2.4" fill="#25D366"/>
<rect x="176" y="136" width="8" height="8" rx="2.4" ry="2.4" fill="#25D366"/>
<rect x="216" y="136" width="8" height="8" rx="2.4" ry="2.4" fill="#25D366"/>
<rect x="240" y="136" width="8" height="8" rx="2.4" ry="2.4" fill="#25D366"/>
<rect x="248" y="136" width="8" height="8" rx="2.4" ry="2.4" fill="#25D366"/>
<rect x="256" y="136" width="8" height="8" rx="2.4" ry="2.4" fill="#25D366"/>
<rect x="272" y="136" width="8" height="8" rx="2.4" ry="2.4" fill="#25D366"/>
<rect x="32" y="144" width="8" height="8" rx="2.4" ry="2.4" fill="#25D366"/>
<rect x="40" y="144" width="8" height="8" rx="2.4" ry="2.4" fill="#25D366"/>
<rect x="56" y="144" width="8" height="8" rx="2.4" ry="2.4" fill="#25D366"/>
<rect x="64" y="144" width="8" height="8" rx="2.4" ry="2.4" fill="#25D366"/>
<rect x="72" y="144" width="8" height="8" rx="2.4" ry="2.4" fill="#25D366"/>
<rect x="88" y="144" width="8" height="8" rx="2.4" ry="2.4" fill="#25D366"/>
<rect x="96" y="144" width="8" height="8" rx="2.4" ry="2.4" fill="#25D366"/>
<rect x="112" y="144" width="8" height="8" rx="2.4" ry="2.4" fill="#25D366"/>
<rect x="120" y="144" width="8" height="8" rx="2.4" ry="2.4" fill="#25D366"/>
<rect x="144" y="144" width="8" height="8" rx="2.4" ry="2.4" fill="#25D366"/>
<rect x="160" y="144" width="8" height="8" rx="2.4" ry="2.4" fill="#25D366"/>
<rect x="168" y="144" width="8" height="8" rx="2.4" ry="2.4" fill="#25D366"/>
<rect x="200" y="144" width="8" height="8" rx="2.4" ry="2.4" fill="#25D366"/>
<rect x="208" y="144" width="8" height="8" rx="2.4" ry="2.4" fill="#25D366"/>
<rect x="216" y="144" width="8" height="8" rx="2.4" ry="2.4" fill="#25D366"/>
<rect x="224" y="144" width="8" height="8" rx="2.4" ry="2.4" fill="#25D366"/>
<rect x="232" y="144" width="8" height="8" rx="2.4" ry="2.4" fill="#25D366"/>
<rect x="240" y="144" width="8" height="8" rx="2.4" ry="2.4" fill="#25D366"/>
<rect x="248" y="144" width="8" height="8" rx="2.4" ry="2.4" fill="#25D366"/>
<rect x="16" y="152" width="8" height="8" rx="2.4" ry="2.4" fill="#25D366"/>
<rect x="24" y="152" width="8" height="8" rx="2.4" ry="2.4" fill="#25D366"/>
<rect x="48" y="152" width="8" height="8" rx="2.4" ry="2.4" fill="#25D366"/>
<rect x="72" y="152" width="8" height="8" rx="2.4" ry="2.4" fill="#25D366"/>
<rect x="112" y="152" width="8" height="8" rx="2.4" ry="2.4" fill="#25D366"/>
<rect x="128" y="152" width="8" height="8" rx="2.4" ry="2.4" fill="#25D366"/>
<rect x="136" y="152" width="8" height="8" rx="2.4" ry="2.4" fill="#25D366"/>
<rect x="168" y="152" width="8" height="8" rx="2.4" ry="2.4" fill="#25D366"/>
<rect x="184" y="152" width="8" height="8" rx="2.4" ry="2.4" fill="#25D366"/>
<rect x="216" y="152" width="8" height="8" rx="2.4" ry="2.4" fill="#25D366"/>
<rect x="224" y="152" width="8" height="8" rx="2.4" ry="2.4" fill="#25D366"/>
<rect x="240" y="152" width="8" height="8" rx="2.4" ry="2.4" fill="#25D366"/>
<rect x="256" y="152" width="8" height="8" rx="2.4" ry="2.4" fill="#25D366"/>
<rect x="272" y="152" width="8" height="8" rx="2.4" ry="2.4" fill="#25D366"/>
<rect x="32" y="160" width="8" height="8" rx="2.4" ry="2.4" fill="#25D366"/>
<rect x="64" y="160" width="8" height="8" rx="2.4" ry="2.4" fill="#25D366"/>
<rect x="80" y="160" width="8" height="8" rx="2.4" ry="2.4" fill="#25D366"/>
<rect x="88" y="160" width="8" height="8" rx="2.4" ry="2.4" fill="#25D366"/>
<rect x="96" y="160" width="8" height="8" rx="2.4" ry="2.4" fill="#25D366"/>
<rect x="120" y="160" width="8" height="8" rx="2.4" ry="2.4" fill="#25D366"/>
<rect x="136" y="160" width="8" height="8" rx="2.4" ry="2.4" fill="#25D366"/>
<rect x="168" y="160" width="8" height="8" rx="2.4" ry="2.4" fill="#25D366"/>
<rect x="184" y="160" width="8" height="8" rx="2.4" ry="2.4" fill="#25D366"/>
<rect x="192" y="160" width="8" height="8" rx="2.4" ry="2.4" fill="#25D366"/>
<rect x="200" y="160" width="8" height="8" rx="2.4" ry="2.4" fill="#25D366"/>
<rect x="208" y="160" width="8" height="8" rx="2.4" ry="2.4" fill="#25D366"/>
<rect x="216" y="160" width="8" height="8" rx="2.4" ry="2.4" fill="#25D366"/>
<rect x="224" y="160" width="8" height="8" rx="2.4" ry="2.4" fill="#25D366"/>
<rect x="232" y="160" width="8" height="8" rx="2.4" ry="2.4" fill="#25D366"/>
<rect x="248" y="160" width="8" height="8" rx="2.4" ry="2.4" fill="#25D366"/>
<rect x="256" y="160" width="8" height="8" rx="2.4" ry="2.4" fill="#25D366"/>
<rect x="272" y="160" width="8" height="8" rx="2.4" ry="2.4" fill="#25D366"/>
<rect x="16" y="168" width="8" height="8" rx="2.4" ry="2.4" fill="#25D366"/>
<rect x="40" y="168" width="8" height="8" rx="2.4" ry="2.4" fill="#25D366"/>
<rect x="56" y="168" width="8" height="8" rx="2.4" ry="2.4" fill="#25D366"/>
<rect x="80" y="168" width="8" height="8" rx="2.4" ry="2.4" fill="#25D366"/>
<rect x="96" y="168" width="8" height="8" rx="2.4" ry="2.4" fill="#25D366"/>
<rect x="112" y="168" width="8" height="8" rx="2.4" ry="2.4" fill="#25D366"/>
<rect x="128" y="168" width="8" height="8" rx="2.4" ry="2.4" fill="#25D366"/>
<rect x="144" y="168" width="8" height="8" rx="2.4" ry="2.4" fill="#25D366"/>
<rect x="152" y="168" width="8" height="8" rx="2.4" ry="2.4" fill="#25D366"/>
<rect x="160" y="168" width="8" height="8" rx="2.4" ry="2.4" fill="#25D366"/>
<rect x="168" y="168" width="8" height="8" rx="2.4" ry="2.4" fill="#25D366"/>
<rect x="192" y="168" width="8" height="8" rx="2.4" ry="2.4" fill="#25D366"/>
<rect x="200" y="168" width="8" height="8" rx="2.4" ry="2.4" fill="#25D366"/>
<rect x="216" y="168" width="8" height="8" rx="2.4" ry="2.4" fill="#25D366"/>
<rect x="240" y="168" width="8" height="8" rx="2.4" ry="2.4" fill="#25D366"/>
<rect x="248" y="168" width="8" height="8" rx="2.4" ry="2.4" fill="#25D366"/>
<rect x="256" y="168" width="8" height="8" rx="2.4" ry="2.4" fill="#25D366"/>
<rect x="272" y="168" width="8" height="8" rx="2.4" ry="2.4" fill="#25D366"/>
<rect x="16" y="176" width="8" height="8" rx="2.4" ry="2.4" fill="#25D366"/>
<rect x="24" y="176" width="8" height="8" rx="2.4" ry="2.4" fill="#25D366"/>
<rect x="48" y="176" width="8" height="8" rx="2.4" ry="2.4" fill="#25D366"/>
<rect x="64" y="176" width="8" height="8" rx="2.4" ry="2.4" fill="#25D366"/>
<rect x="80" y="176" width="8" height="8" rx="2.4" ry="2.4" fill="#25D366"/>
<rect x="104" y="176" width="8" height="8" rx="2.4" ry="2.4" fill="#25D366"/>
<rect x="112" y="176" width="8" height="8" rx="2.4" ry="2.4" fill="#25D366"/>
<rect x="120" y="176" width="8" height="8" rx="2.4" ry="2.4" fill="#25D366"/>
<rect x="136" y="176" width="8" height="8" rx="2.4" ry="2.4" fill="#25D366"/>
<rect x="168" y="176" width="8" height="8" rx="2.4" ry="2.4" fill="#25D366"/>
<rect x="176" y="176" width="8" height="8" rx="2.4" ry="2.4" fill="#25D366"/>
<rect x="200" y="176" width="8" height="8" rx="2.4" ry="2.4" fill="#25D366"/>
<rect x="208" y="176" width="8" height="8" rx="2.4" ry="2.4" fill="#25D366"/>
<rect x="248" y="176" width="8" height="8" rx="2.4" ry="2.4" fill="#25D366"/>
<rect x="16" y="184" width="8" height="8" rx="2.4" ry="2.4" fill="#25D366"/>
<rect x="24" y="184" width="8" height="8" rx="2.4" ry="2.4" fill="#25D366"/>
<rect x="40" y="184" width="8" height="8" rx="2.4" ry="2.4" fill="#25D366"/>
<rect x="48" y="184" width="8" height="8" rx="2.4" ry="2.4" fill="#25D366"/>
<rect x="104" y="184" width="8" height="8" rx="2.4" ry="2.4" fill="#25D366"/>
<rect x="112" y="184" width="8" height="8" rx="2.4" ry="2.4" fill="#25D366"/>
<rect x="120" y="184" width="8" height="8" rx="2.4" ry="2.4" fill="#25D366"/>
<rect x="144" y="184" width="8" height="8" rx="2.4" ry="2.4" fill="#25D366"/>
<rect x="160" y="184" width="8" height="8" rx="2.4" ry="2.4" fill="#25D366"/>
<rect x="168" y="184" width="8" height="8" rx="2.4" ry="2.4" fill="#25D366"/>
<rect x="200" y="184" width="8" height="8" rx="2.4" ry="2.4" fill="#25D366"/>
<rect x="208" y="184" width="8" height="8" rx="2.4" ry="2.4" fill="#25D366"/>
<rect x="240" y="184" width="8" height="8" rx="2.4" ry="2.4" fill="#25D366"/>
<rect x="248" y="184" width="8" height="8" rx="2.4" ry="2.4" fill="#25D366"/>
<rect x="16" y="192" width="8" height="8" rx="2.4" ry="2.4" fill="#25D366"/>
<rect x="40" y="192" width="8" height="8" rx="2.4" ry="2.4" fill="#25D366"/>
<rect x="48" y="192" width="8" height="8" rx="2.4" ry="2.4" fill="#25D366"/>
<rect x="64" y="192" width="8" height="8" rx="2.4" ry="2.4" fill="#25D366"/>
<rect x="72" y="192" width="8" height="8" rx="2.4" ry="2.4" fill="#25D366"/>
<rect x="88" y="192" width="8" height="8" rx="2.4" ry="2.4" fill="#25D366"/>
<rect x="96" y="192" width="8" height="8" rx="2.4" ry="2.4" fill="#25D366"/>
<rect x="104" y="192" width="8" height="8" rx="2.4" ry="2.4" fill="#25D366"/>
<rect x="112" y="192" width="8" height="8" rx="2.4" ry="2.4" fill="#25D366"/>
<rect x="136" y="192" width="8" height="8" rx="2.4" ry="2.4" fill="#25D366"/>
<rect x="144" y="192" width="8" height="8" rx="2.4" ry="2.4" fill="#25D366"/>
<rect x="152" y="192" width="8" height="8" rx="2.4" ry="2.4" fill="#25D366"/>
<rect x="160" y="192" width="8" height="8" rx="2.4" ry="2.4" fill="#25D366"/>
<rect x="200" y="192" width="8" height="8" rx="2.4" ry="2.4" fill="#25D366"/>
<rect x="216" y="192" width="8" height="8" rx="2.4" ry="2.4" fill="#25D366"/>
<rect x="224" y="192" width="8" height="8" rx="2.4" ry="2.4" fill="#25D366"/>
<rect x="232" y="192" width="8" height="8" rx="2.4" ry="2.4" fill="#25D366"/>
<rect x="240" y="192" width="8" height="8" rx="2.4" ry="2.4" fill="#25D366"/>
<rect x="264" y="192" width="8" height="8" rx="2.4" ry="2.4" fill="#25D366"/>
<rect x="272" y="192" width="8" height="8" rx="2.4" ry="2.4" fill="#25D366"/>
<rect x="16" y="200" width="8" height="8" rx="2.4" ry="2.4" fill="#25D366"/>
<rect x="40" y="200" width="8" height="8" rx="2.4" ry="2.4" fill="#25D366"/>
<rect x="48" y="200" width="8" height="8" rx="2.4" ry="2.4" fill="#25D366"/>
<rect x="72" y="200" width="8" height="8" rx="2.4" ry="2.4" fill="#25D366"/>
<rect x="80" y="200" width="8" height="8" rx="2.4" ry="2.4" fill="#25D366"/>
<rect x="88" y="200" width="8" height="8" rx="2.4" ry="2.4" fill="#25D366"/>
<rect x="96" y="200" width="8" height="8" rx="2.4" ry="2.4" fill="#25D366"/>
<rect x="112" y="200" width="8" height="8" rx="2.4" ry="2.4" fill="#25D366"/>
<rect x="144" y="200" width="8" height="8" rx="2.4" ry="2.4" fill="#25D366"/>
<rect x="152" y="200" width="8" height="8" rx="2.4" ry="2.4" fill="#25D366"/>
<rect x="160" y="200" width="8" height="8" rx="2.4" ry="2.4" fill="#25D366"/>
<rect x="176" y="200" width="8" height="8" rx="2.4" ry="2.4" fill="#25D366"/>
<rect x="192" y="200" width="8" height="8" rx="2.4" ry="2.4" fill="#25D366"/>
<rect x="200" y="200" width="8" height="8" rx="2.4" ry="2.4" fill="#25D366"/>
<rect x="216" y="200" width="8" height="8" rx="2.4" ry="2.4" fill="#25D366"/>
<rect x="224" y="200" width="8" height="8" rx="2.4" ry="2.4" fill="#25D366"/>
<rect x="240" y="200" width="8" height="8" rx="2.4" ry="2.4" fill="#25D366"/>
<rect x="248" y="200" width="8" height="8" rx="2.4" ry="2.4" fill="#25D366"/>
<rect x="256" y="200" width="8" height="8" rx="2.4" ry="2.4" fill="#25D366"/>
<rect x="16" y="208" width="8" height="8" rx="2.4" ry="2.4" fill="#25D366"/>
<rect x="24" y="208" width="8" height="8" rx="2.4" ry="2.4" fill="#25D366"/>
<rect x="32" y="208" width="8" height="8" rx="2.4" ry="2.4" fill="#25D366"/>
<rect x="64" y="208" width="8" height="8" rx="2.4" ry="2.4" fill="#25D366"/>
<rect x="80" y="208" width="8" height="8" rx="2.4" ry="2.4" fill="#25D366"/>
<rect x="96" y="208" width="8" height="8" rx="2.4" ry="2.4" fill="#25D366"/>
<rect x="104" y="208" width="8" height="8" rx="2.4" ry="2.4" fill="#25D366"/>
<rect x="120" y="208" width="8" height="8" rx="2.4" ry="2.4" fill="#25D366"/>
<rect x="136" y="208" width="8" height="8" rx="2.4" ry="2.4" fill="#25D366"/>
<rect x="144" y="208" width="8" height="8" rx="2.4" ry="2.4" fill="#25D366"/>
<rect x="160" y="208" width="8" height="8" rx="2.4" ry="2.4" fill="#25D366"/>
<rect x="168" y="208" width="8" height="8" rx="2.4" ry="2.4" fill="#25D366"/>
<rect x="192" y="208" width="8" height="8" rx="2.4" ry="2.4" fill="#25D366"/>
<rect x="208" y="208" width="8" height="8" rx="2.4" ry="2.4" fill="#25D366"/>
<rect x="216" y="208" width="8" height="8" rx="2.4" ry="2.4" fill="#25D366"/>
<rect x="224" y="208" width="8" height="8" rx="2.4" ry="2.4" fill="#25D366"/>
<rect x="232" y="208" width="8" height="8" rx="2.4" ry="2.4" fill="#25D366"/>
<rect x="240" y="208" width="8" height="8" rx="2.4" ry="2.4" fill="#25D366"/>
<rect x="248" y="208" width="8" height="8" rx="2.4" ry="2.4" fill="#25D366"/>
<rect x="272" y="208" width="8" height="8" rx="2.4" ry="2.4" fill="#25D366"/>
<rect x="80" y="216" width="8" height="8" rx="2.4" ry="2.4" fill="#25D366"/>
<rect x="88" y="216" width="8" height="8" rx="2.4" ry="2.4" fill="#25D366"/>
<rect x="112" y="216" width="8" height="8" rx="2.4" ry="2.4" fill="#25D366"/>
<rect x="136" y="216" width="8" height="8" rx="2.4" ry="2.4" fill="#25D366"/>
<rect x="144" y="216" width="8" height="8" rx="2.4" ry="2.4" fill="#25D366"/>
<rect x="176" y="216" width="8" height="8" rx="2.4" ry="2.4" fill="#25D366"/>
<rect x="192" y="216" width="8" height="8" rx="2.4" ry="2.4" fill="#25D366"/>
<rect x="208" y="216" width="8" height="8" rx="2.4" ry="2.4" fill="#25D366"/>
<rect x="240" y="216" width="8" height="8" rx="2.4" ry="2.4" fill="#25D366"/>
<rect x="256" y="216" width="8" height="8" rx="2.4" ry="2.4" fill="#25D366"/>
<rect x="264" y="216" width="8" height="8" rx="2.4" ry="2.4" fill="#25D366"/>
<rect x="80" y="224" width="8" height="8" rx="2.4" ry="2.4" fill="#25D366"/>
<rect x="96" y="224" width="8" height="8" rx="2.4" ry="2.4" fill="#25D366"/>
<rect x="128" y="224" width="8" height="8" rx="2.4" ry="2.4" fill="#25D366"/>
<rect x="136" y="224" width="8" height="8" rx="2.4" ry="2.4" fill="#25D366"/>
<rect x="144" y="224" width="8" height="8" rx="2.4" ry="2.4" fill="#25D366"/>
<rect x="160" y="224" width="8" height="8" rx="2.4" ry="2.4" fill="#25D366"/>
<rect x="168" y="224" width="8" height="8" rx="2.4" ry="2.4" fill="#25D366"/>
<rect x="192" y="224" width="8" height="8" rx="2.4" ry="2.4" fill="#25D366"/>
<rect x="200" y="224" width="8" height="8" rx="2.4" ry="2.4" fill="#25D366"/>
<rect x="208" y="224" width="8" height="8" rx="2.4" ry="2.4" fill="#25D366"/>
<rect x="224" y="224" width="8" height="8" rx="2.4" ry="2.4" fill="#25D366"/>
<rect x="240" y="224" width="8" height="8" rx="2.4" ry="2.4" fill="#25D366"/>
<rect x="256" y="224" width="8" height="8" rx="2.4" ry="2.4" fill="#25D366"/>
<rect x="80" y="232" width="8" height="8" rx="2.4" ry="2.4" fill="#25D366"/>
<rect x="88" y="232" width="8" height="8" rx="2.4" ry="2.4" fill="#25D366"/>
<rect x="96" y="232" width="8" height="8" rx="2.4" ry="2.4" fill="#25D366"/>
<rect x="104" y="232" width="8" height="8" rx="2.4" ry="2.4" fill="#25D366"/>
<rect x="112" y="232" width="8" height="8" rx="2.4" ry="2.4" fill="#25D366"/>
<rect x="128" y="232" width="8" height="8" rx="2.4" ry="2.4" fill="#25D366"/>
<rect x="192" y="232" width="8" height="8" rx="2.4" ry="2.4" fill="#25D366"/>
<rect x="208" y="232" width="8" height="8" rx="2.4" ry="2.4" fill="#25D366"/>
<rect x="240" y="232" width="8" height="8" rx="2.4" ry="2.4" fill="#25D366"/>
<rect x="248" y="232" width="8" height="8" rx="2.4" ry="2.4" fill="#25D366"/>
<rect x="256" y="232" width="8" height="8" rx="2.4" ry="2.4" fill="#25D366"/>
<rect x="272" y="232" width="8" height="8" rx="2.4" ry="2.4" fill="#25D366"/>
<rect x="80" y="240" width="8" height="8" rx="2.4" ry="2.4" fill="#25D366"/>
<rect x="88" y="240" width="8" height="8" rx="2.4" ry="2.4" fill="#25D366"/>
<rect x="104" y="240" width="8" height="8" rx="2.4" ry="2.4" fill="#25D366"/>
<rect x="120" y="240" width="8" height="8" rx="2.4" ry="2.4" fill="#25D366"/>
<rect x="136" y="240" width="8" height="8" rx="2.4" ry="2.4" fill="#25D366"/>
<rect x="152" y="240" width="8" height="8" rx="2.4" ry="2.4" fill="#25D366"/>
<rect x="160" y="240" width="8" height="8" rx="2.4" ry="2.4" fill="#25D366"/>
<rect x="176" y="240" width="8" height="8" rx="2.4" ry="2.4" fill="#25D366"/>
<rect x="192" y="240" width="8" height="8" rx="2.4" ry="2.4" fill="#25D366"/>
<rect x="200" y="240" width="8" height="8" rx="2.4" ry="2.4" fill="#25D366"/>
<rect x="208" y="240" width="8" height="8" rx="2.4" ry="2.4" fill="#25D366"/>
<rect x="216" y="240" width="8" height="8" rx="2.4" ry="2.4" fill="#25D366"/>
<rect x="224" y="240" width="8" height="8" rx="2.4" ry="2.4" fill="#25D366"/>
<rect x="232" y="240" width="8" height="8" rx="2.4" ry="2.4" fill="#25D366"/>
<rect x="240" y="240" width="8" height="8" rx="2.4" ry="2.4" fill="#25D366"/>
<rect x="80" y="248" width="8" height="8" rx="2.4" ry="2.4" fill="#25D366"/>
<rect x="88" y="248" width="8" height="8" rx="2.4" ry="2.4" fill="#25D366"/>
<rect x="120" y="248" width="8" height="8" rx="2.4" ry="2.4" fill="#25D366"/>
<rect x="168" y="248" width="8" height="8" rx="2.4" ry="2.4" fill="#25D366"/>
<rect x="176" y="248" width="8" height="8" rx="2.4" ry="2.4" fill="#25D366"/>
<rect x="192" y="248" width="8" height="8" rx="2.4" ry="2.4" fill="#25D366"/>
<rect x="208" y="248" width="8" height="8" rx="2.4" ry="2.4" fill="#25D366"/>
<rect x="216" y="248" width="8" height="8" rx="2.4" ry="2.4" fill="#25D366"/>
<rect x="232" y="248" width="8" height="8" rx="2.4" ry="2.4" fill="#25D366"/>
<rect x="256" y="248" width="8" height="8" rx="2.4" ry="2.4" fill="#25D366"/>
<rect x="264" y="248" width="8" height="8" rx="2.4" ry="2.4" fill="#25D366"/>
<rect x="272" y="248" width="8" height="8" rx="2.4" ry="2.4" fill="#25D366"/>
<rect x="96" y="256" width="8" height="8" rx="2.4" ry="2.4" fill="#25D366"/>
<rect x="104" y="256" width="8" height="8" rx="2.4" ry="2.4" fill="#25D366"/>
<rect x="112" y="256" width="8" height="8" rx="2.4" ry="2.4" fill="#25D366"/>
<rect x="144" y="256" width="8" height="8" rx="2.4" ry="2.4" fill="#25D366"/>
<rect x="168" y="256" width="8" height="8" rx="2.4" ry="2.4" fill="#25D366"/>
<rect x="192" y="256" width="8" height="8" rx="2.4" ry="2.4" fill="#25D366"/>
<rect x="200" y="256" width="8" height="8" rx="2.4" ry="2.4" fill="#25D366"/>
<rect x="208" y="256" width="8" height="8" rx="2.4" ry="2.4" fill="#25D366"/>
<rect x="216" y="256" width="8" height="8" rx="2.4" ry="2.4" fill="#25D366"/>
<rect x="232" y="256" width="8" height="8" rx="2.4" ry="2.4" fill="#25D366"/>
<rect x="240" y="256" width="8" height="8" rx="2.4" ry="2.4" fill="#25D366"/>
<rect x="256" y="256" width="8" height="8" rx="2.4" ry="2.4" fill="#25D366"/>
<rect x="264" y="256" width="8" height="8" rx="2.4" ry="2.4" fill="#25D366"/>
<rect x="272" y="256" width="8" height="8" rx="2.4" ry="2.4" fill="#25D366"/>
<rect x="96" y="264" width="8" height="8" rx="2.4" ry="2.4" fill="#25D366"/>
<rect x="136" y="264" width="8" height="8" rx="2.4" ry="2.4" fill="#25D366"/>
<rect x="144" y="264" width="8" height="8" rx="2.4" ry="2.4" fill="#25D366"/>
<rect x="192" y="264" width="8" height="8" rx="2.4" ry="2.4" fill="#25D366"/>
<rect x="232" y="264" width="8" height="8" rx="2.4" ry="2.4" fill="#25D366"/>
<rect x="240" y="264" width="8" height="8" rx="2.4" ry="2.4" fill="#25D366"/>
<rect x="256" y="264" width="8" height="8" rx="2.4" ry="2.4" fill="#25D366"/>
<rect x="264" y="264" width="8" height="8" rx="2.4" ry="2.4" fill="#25D366"/>
<rect x="272" y="264" width="8" height="8" rx="2.4" ry="2.4" fill="#25D366"/>
<rect x="80" y="272" width="8" height="8" rx="2.4" ry="2.4" fill="#25D366"/>
<rect x="104" y="272" width="8" height="8" rx="2.4" ry="2.4" fill="#25D366"/>
<rect x="112" y="272" width="8" height="8" rx="2.4" ry="2.4" fill="#25D366"/>
<rect x="128" y="272" width="8" height="8" rx="2.4" ry="2.4" fill="#25D366"/>
<rect x="152" y="272" width="8" height="8" rx="2.4" ry="2.4" fill="#25D366"/>
<rect x="176" y="272" width="8" height="8" rx="2.4" ry="2.4" fill="#25D366"/>
<rect x="192" y="272" width="8" height="8" rx="2.4" ry="2.4" fill="#25D366"/>
<rect x="200" y="272" width="8" height="8" rx="2.4" ry="2.4" fill="#25D366"/>
<rect x="208" y="272" width="8" height="8" rx="2.4" ry="2.4" fill="#25D366"/>
<rect x="224" y="272" width="8" height="8" rx="2.4" ry="2.4" fill="#25D366"/>
<rect x="232" y="272" width="8" height="8" rx="2.4" ry="2.4" fill="#25D366"/>
<rect x="240" y="272" width="8" height="8" rx="2.4" ry="2.4" fill="#25D366"/>
<rect x="248" y="272" width="8" height="8" rx="2.4" ry="2.4" fill="#25D366"/>
<rect x="16" y="16" width="8" height="8" fill="#25D366"/>
<rect x="24" y="16" width="8" height="8" fill="#25D366"/>
<rect x="32" y="16" width="8" height="8" fill="#25D366"/>
<rect x="40" y="16" width="8" height="8" fill="#25D366"/>
<rect x="48" y="16" width="8" height="8" fill="#25D366"/>
<rect x="56" y="16" width="8" height="8" fill="#25D366"/>
<rect x="64" y="16" width="8" height="8" fill="#25D366"/>
<rect x="224" y="16" width="8" height="8" fill="#25D366"/>
<rect x="232" y="16" width="8" height="8" fill="#25D366"/>
<rect x="240" y="16" width="8" height="8" fill="#25D366"/>
<rect x="248" y="16" width="8" height="8" fill="#25D366"/>
<rect x="256" y="16" width="8" height="8" fill="#25D366"/>
<rect x="264" y="16" width="8" height="8" fill="#25D366"/>
<rect x="272" y="16" width="8" height="8" fill="#25D366"/>
<rect x="16" y="24" width="8" height="8" fill="#25D366"/>
<rect x="64" y="24" width="8" height="8" fill="#25D366"/>
<rect x="224" y="24" width="8" height="8" fill="#25D366"/>
<rect x="272" y="24" width="8" height="8" fill="#25D366"/>
<rect x="16" y="32" width="8" height="8" fill="#25D366"/>
<rect x="32" y="32" width="8" height="8" fill="#25D366"/>
<rect x="40" y="32" width="8" height="8" fill="#25D366"/>
<rect x="48" y="32" width="8" height="8" fill="#25D366"/>
<rect x="64" y="32" width="8" height="8" fill="#25D366"/>
<rect x="224" y="32" width="8" height="8" fill="#25D366"/>
<rect x="240" y="32" width="8" height="8" fill="#25D366"/>
<rect x="248" y="32" width="8" height="8" fill="#25D366"/>
<rect x="256" y="32" width="8" height="8" fill="#25D366"/>
<rect x="272" y="32" width="8" height="8" fill="#25D366"/>
<rect x="16" y="40" width="8" height="8" fill="#25D366"/>
<rect x="32" y="40" width="8" height="8" fill="#25D366"/>
<rect x="40" y="40" width="8" height="8" fill="#25D366"/>
<rect x="48" y="40" width="8" height="8" fill="#25D366"/>
<rect x="64" y="40" width="8" height="8" fill="#25D366"/>
<rect x="224" y="40" width="8" height="8" fill="#25D366"/>
<rect x="240" y="40" width="8" height="8" fill="#25D366"/>
<rect x="248" y="40" width="8" height="8" fill="#25D366"/>
<rect x="256" y="40" width="8" height="8" fill="#25D366"/>
<rect x="272" y="40" width="8" height="8" fill="#25D366"/>
<rect x="16" y="48" width="8" height="8" fill="#25D366"/>
<rect x="32" y="48" width="8" height="8" fill="#25D366"/>
<rect x="40" y="48" width="8" height="8" fill="#25D366"/>
<rect x="48" y="48" width="8" height="8" fill="#25D366"/>
<rect x="64" y="48" width="8" height="8" fill="#25D366"/>
<rect x="224" y="48" width="8" height="8" fill="#25D366"/>
<rect x="240" y="48" width="8" height="8" fill="#25D366"/>
<rect x="248" y="48" width="8" height="8" fill="#25D366"/>
<rect x="256" y="48" width="8" height="8" fill="#25D366"/>
<rect x="272" y="48" width="8" height="8" fill="#25D366"/>
<rect x="16" y="56" width="8" height="8" fill="#25D366"/>
<rect x="64" y="56" width="8" height="8" fill="#25D366"/>
<rect x="224" y="56" width="8" height="8" fill="#25D366"/>
<rect x="272" y="56" width="8" height="8" fill="#25D366"/>
<rect x="16" y="64" width="8" height="8" fill="#25D366"/>
<rect x="24" y="64" width="8" height="8" fill="#25D366"/>
<rect x="32" y="64" width="8" height="8" fill="#25D366"/>
<rect x="40" y="64" width="8" height="8" fill="#25D366"/>
<rect x="48" y="64" width="8" height="8" fill="#25D366"/>
<rect x="56" y="64" width="8" height="8" fill="#25D366"/>
<rect x="64" y="64" width="8" height="8" fill="#25D366"/>
<rect x="224" y="64" width="8" height="8" fill="#25D366"/>
<rect x="232" y="64" width="8" height="8" fill="#25D366"/>
<rect x="240" y="64" width="8" height="8" fill="#25D366"/>
<rect x="248" y="64" width="8" height="8" fill="#25D366"/>
<rect x="256" y="64" width="8" height="8" fill="#25D366"/>
<rect x="264" y="64" width="8" height="8" fill="#25D366"/>
<rect x="272" y="64" width="8" height="8" fill="#25D366"/>
<rect x="16" y="224" width="8" height="8" fill="#25D366"/>
<rect x="24" y="224" width="8" height="8" fill="#25D366"/>
<rect x="32" y="224" width="8" height="8" fill="#25D366"/>
<rect x="40" y="224" width="8" height="8" fill="#25D366"/>
<rect x="48" y="224" width="8" height="8" fill="#25D366"/>
<rect x="56" y="224" width="8" height="8" fill="#25D366"/>
<rect x="64" y="224" width="8" height="8" fill="#25D366"/>
<rect x="16" y="232" width="8" height="8" fill="#25D366"/>
<rect x="64" y="232" width="8" height="8" fill="#25D366"/>
<rect x="16" y="240" width="8" height="8" fill="#25D366"/>
<rect x="32" y="240" width="8" height="8" fill="#25D366"/>
<rect x="40" y="240" width="8" height="8" fill="#25D366"/>
<rect x="48" y="240" width="8" height="8" fill="#25D366"/>
<rect x="64" y="240" width="8" height="8" fill="#25D366"/>
<rect x="16" y="248" width="8" height="8" fill="#25D366"/>
<rect x="32" y="248" width="8" height="8" fill="#25D366"/>
<rect x="40" y="248" width="8" height="8" fill="#25D366"/>
<rect x="48" y="248" width="8" height="8" fill="#25D366"/>
<rect x="64" y="248" width="8" height="8" fill="#25D366"/>
<rect x="16" y="256" width="8" height="8" fill="#25D366"/>
<rect x="32" y="256" width="8" height="8" fill="#25D366"/>
<rect x="40" y="256" width="8" height="8" fill="#25D366"/>
<rect x="48" y="256" width="8" height="8" fill="#25D366"/>
<rect x="64" y="256" width="8" height="8" fill="#25D366"/>
<rect x="16" y="264" width="8" height="8" fill="#25D366"/>
<rect x="64" y="264" width="8" height="8" fill="#25D366"/>
<rect x="16" y="272" width="8" height="8" fill="#25D366"/>
<rect x="24" y="272" width="8" height="8" fill="#25D366"/>
<rect x="32" y="272" width="8" height="8" fill="#25D366"/>
<rect x="40" y="272" width="8" height="8" fill="#25D366"/>
<rect x="48" y="272" width="8" height="8" fill="#25D366"/>
<rect x="56" y="272" width="8" height="8" fill="#25D366"/>
<rect x="64" y="272" width="8" height="8" fill="#25D366"/>
</svg>
