<?xml version="1.0" encoding="UTF-8"?>
<svg xmlns="http://www.w3.org/2000/svg" version="1.1" width="264" height="264" viewBox="0 0 264 264">
<rect width="100%" height="100%" fill="#ffffff"/>
<path d="M16,16h8v8h-8ZM24,16h8v8h-8ZM32,16h8v8h-8ZM40,16h8v8h-8ZM48,16h8v8h-8ZM56,16h8v8h-8ZM64,16h8v8h-8ZM80,16h8v8h-8ZM88,16h8v8h-8ZM120,16h8v8h-8ZM128,16h8v8h-8ZM168,16h8v8h-8ZM176,16h8v8h-8ZM192,16h8v8h-8ZM200,16h8v8h-8ZM208,16h8v8h-8ZM216,16h8v8h-8ZM224,16h8v8h-8ZM232,16h8v8h-8ZM240,16h8v8h-8ZM16,24h8v8h-8ZM64,24h8v8h-8ZM88,24h8v8h-8ZM120,24h8v8h-8ZM136,24h8v8h-8ZM144,24h8v8h-8ZM160,24h8v8h-8ZM176,24h8v8h-8ZM192,24h8v8h-8ZM240,24h8v8h-8ZM16,32h8v8h-8ZM32,32h8v8h-8ZM40,32h8v8h-8ZM48,32h8v8h-8ZM64,32h8v8h-8ZM80,32h8v8h-8ZM88,32h8v8h-8ZM96,32h8v8h-8ZM104,32h8v8h-8ZM112,32h8v8h-8ZM128,32h8v8h-8ZM160,32h8v8h-8ZM168,32h8v8h-8ZM176,32h8v8h-8ZM192,32h8v8h-8ZM208,32h8v8h-8ZM216,32h8v8h-8ZM224,32h8v8h-8ZM240,32h8v8h-8ZM16,40h8v8h-8ZM32,40h8v8h-8ZM40,40h8v8h-8ZM48,40h8v8h-8ZM64,40h8v8h-8ZM80,40h8v8h-8ZM88,40h8v8h-8ZM112,40h8v8h-8ZM144,40h8v8h-8ZM152,40h8v8h-8ZM160,40h8v8h-8ZM168,40h8v8h-8ZM192,40h8v8h-8ZM208,40h8v8h-8ZM216,40h8v8h-8ZM224,40h8v8h-8ZM240,40h8v8h-8ZM16,48h8v8h-8ZM32,48h8v8h-8ZM40,48h8v8h-8ZM48,48h8v8h-8ZM64,48h8v8h-8ZM80,48h8v8h-8ZM96,48h8v8h-8ZM104,48h8v8h-8ZM112,48h8v8h-8ZM120,48h8v8h-8ZM152,48h8v8h-8ZM168,48h8v8h-8ZM176,48h8v8h-8ZM192,48h8v8h-8ZM208,48h8v8h-8ZM216,48h8v8h-8ZM224,48h8v8h-8ZM240,48h8v8h-8ZM16,56h8v8h-8ZM64,56h8v8h-8ZM80,56h8v8h-8ZM88,56h8v8h-8ZM104,56h8v8h-8ZM112,56h8v8h-8ZM120,56h8v8h-8ZM128,56h8v8h-8ZM136,56h8v8h-8ZM152,56h8v8h-8ZM160,56h8v8h-8ZM192,56h8v8h-8ZM240,56h8v8h-8ZM16,64h8v8h-8ZM24,64h8v8h-8ZM32,64h8v8h-8ZM40,64h8v8h-8ZM48,64h8v8h-8ZM56,64h8v8h-8ZM64,64h8v8h-8ZM80,64h8v8h-8ZM96,64h8v8h-8ZM112,64h8v8h-8ZM128,64h8v8h-8ZM144,64h8v8h-8ZM160,64h8v8h-8ZM176,64h8v8h-8ZM192,64h8v8h-8ZM200,64h8v8h-8ZM208,64h8v8h-8ZM216,64h8v8h-8ZM224,64h8v8h-8ZM232,64h8v8h-8ZM240,64h8v8h-8ZM88,72h8v8h-8ZM96,72h8v8h-8ZM120,72h8v8h-8ZM136,72h8v8h-8ZM144,72h8v8h-8ZM32,80h8v8h-8ZM40,80h8v8h-8ZM48,80h8v8h-8ZM56,80h8v8h-8ZM64,80h8v8h-8ZM72,80h8v8h-8ZM104,80h8v8h-8ZM128,80h8v8h-8ZM136,80h8v8h-8ZM144,80h8v8h-8ZM168,80h8v8h-8ZM192,80h8v8h-8ZM200,80h8v8h-8ZM208,80h8v8h-8ZM216,80h8v8h-8ZM224,80h8v8h-8ZM16,88h8v8h-8ZM40,88h8v8h-8ZM48,88h8v8h-8ZM88,88h8v8h-8ZM96,88h8v8h-8ZM104,88h8v8h-8ZM168,88h8v8h-8ZM176,88h8v8h-8ZM192,88h8v8h-8ZM208,88h8v8h-8ZM224,88h8v8h-8ZM232,88h8v8h-8ZM16,96h8v8h-8ZM24,96h8v8h-8ZM32,96h8v8h-8ZM48,96h8v8h-8ZM64,96h8v8h-8ZM72,96h8v8h-8ZM80,96h8v8h-8ZM96,96h8v8h-8ZM104,96h8v8h-8ZM136,96h8v8h-8ZM160,96h8v8h-8ZM176,96h8v8h-8ZM184,96h8v8h-8ZM192,96h8v8h-8ZM200,96h8v8h-8ZM216,96h8v8h-8ZM40,104h8v8h-8ZM48,104h8v8h-8ZM56,104h8v8h-8ZM96,104h8v8h-8ZM128,104h8v8h-8ZM160,104h8v8h-8ZM168,104h8v8h-8ZM184,104h8v8h-8ZM192,104h8v8h-8ZM208,104h8v8h-8ZM232,104h8v8h-8ZM240,104h8v8h-8ZM24,112h8v8h-8ZM32,112h8v8h-8ZM48,112h8v8h-8ZM64,112h8v8h-8ZM96,112h8v8h-8ZM112,112h8v8h-8ZM136,112h8v8h-8ZM144,112h8v8h-8ZM152,112h8v8h-8ZM160,112h8v8h-8ZM176,112h8v8h-8ZM200,112h8v8h-8ZM208,112h8v8h-8ZM216,112h8v8h-8ZM224,112h8v8h-8ZM16,120h8v8h-8ZM40,120h8v8h-8ZM56,120h8v8h-8ZM88,120h8v8h-8ZM96,120h8v8h-8ZM104,120h8v8h-8ZM112,120h8v8h-8ZM120,120h8v8h-8ZM128,120h8v8h-8ZM152,120h8v8h-8ZM176,120h8v8h-8ZM184,120h8v8h-8ZM200,120h8v8h-8ZM208,120h8v8h-8ZM224,120h8v8h-8ZM232,120h8v8h-8ZM16,128h8v8h-8ZM24,128h8v8h-8ZM40,128h8v8h-8ZM56,128h8v8h-8ZM64,128h8v8h-8ZM72,128h8v8h-8ZM96,128h8v8h-8ZM112,128h8v8h-8ZM120,128h8v8h-8ZM128,128h8v8h-8ZM136,128h8v8h-8ZM152,128h8v8h-8ZM160,128h8v8h-8ZM176,128h8v8h-8ZM184,128h8v8h-8ZM200,128h8v8h-8ZM224,128h8v8h-8ZM16,136h8v8h-8ZM32,136h8v8h-8ZM40,136h8v8h-8ZM48,136h8v8h-8ZM80,136h8v8h-8ZM88,136h8v8h-8ZM96,136h8v8h-8ZM112,136h8v8h-8ZM120,136h8v8h-8ZM136,136h8v8h-8ZM160,136h8v8h-8ZM176,136h8v8h-8ZM192,136h8v8h-8ZM216,136h8v8h-8ZM24,144h8v8h-8ZM40,144h8v8h-8ZM48,144h8v8h-8ZM56,144h8v8h-8ZM64,144h8v8h-8ZM72,144h8v8h-8ZM128,144h8v8h-8ZM136,144h8v8h-8ZM144,144h8v8h-8ZM152,144h8v8h-8ZM200,144h8v8h-8ZM216,144h8v8h-8ZM232,144h8v8h-8ZM240,144h8v8h-8ZM16,152h8v8h-8ZM32,152h8v8h-8ZM40,152h8v8h-8ZM48,152h8v8h-8ZM56,152h8v8h-8ZM80,152h8v8h-8ZM96,152h8v8h-8ZM104,152h8v8h-8ZM112,152h8v8h-8ZM152,152h8v8h-8ZM160,152h8v8h-8ZM168,152h8v8h-8ZM176,152h8v8h-8ZM184,152h8v8h-8ZM192,152h8v8h-8ZM208,152h8v8h-8ZM216,152h8v8h-8ZM232,152h8v8h-8ZM16,160h8v8h-8ZM32,160h8v8h-8ZM40,160h8v8h-8ZM48,160h8v8h-8ZM56,160h8v8h-8ZM64,160h8v8h-8ZM80,160h8v8h-8ZM96,160h8v8h-8ZM136,160h8v8h-8ZM176,160h8v8h-8ZM192,160h8v8h-8ZM200,160h8v8h-8ZM208,160h8v8h-8ZM16,168h8v8h-8ZM48,168h8v8h-8ZM56,168h8v8h-8ZM72,168h8v8h-8ZM80,168h8v8h-8ZM88,168h8v8h-8ZM128,168h8v8h-8ZM160,168h8v8h-8ZM176,168h8v8h-8ZM192,168h8v8h-8ZM208,168h8v8h-8ZM240,168h8v8h-8ZM16,176h8v8h-8ZM40,176h8v8h-8ZM56,176h8v8h-8ZM64,176h8v8h-8ZM88,176h8v8h-8ZM104,176h8v8h-8ZM112,176h8v8h-8ZM136,176h8v8h-8ZM144,176h8v8h-8ZM152,176h8v8h-8ZM176,176h8v8h-8ZM184,176h8v8h-8ZM192,176h8v8h-8ZM200,176h8v8h-8ZM208,176h8v8h-8ZM216,176h8v8h-8ZM224,176h8v8h-8ZM80,184h8v8h-8ZM96,184h8v8h-8ZM112,184h8v8h-8ZM120,184h8v8h-8ZM128,184h8v8h-8ZM160,184h8v8h-8ZM176,184h8v8h-8ZM208,184h8v8h-8ZM224,184h8v8h-8ZM16,192h8v8h-8ZM24,192h8v8h-8ZM32,192h8v8h-8ZM40,192h8v8h-8ZM48,192h8v8h-8ZM56,192h8v8h-8ZM64,192h8v8h-8ZM88,192h8v8h-8ZM96,192h8v8h-8ZM120,192h8v8h-8ZM128,192h8v8h-8ZM136,192h8v8h-8ZM144,192h8v8h-8ZM160,192h8v8h-8ZM168,192h8v8h-8ZM176,192h8v8h-8ZM192,192h8v8h-8ZM208,192h8v8h-8ZM224,192h8v8h-8ZM16,200h8v8h-8ZM64,200h8v8h-8ZM80,200h8v8h-8ZM88,200h8v8h-8ZM104,200h8v8h-8ZM112,200h8v8h-8ZM120,200h8v8h-8ZM136,200h8v8h-8ZM144,200h8v8h-8ZM168,200h8v8h-8ZM176,200h8v8h-8ZM208,200h8v8h-8ZM216,200h8v8h-8ZM16,208h8v8h-8ZM32,208h8v8h-8ZM40,208h8v8h-8ZM48,208h8v8h-8ZM64,208h8v8h-8ZM80,208h8v8h-8ZM112,208h8v8h-8ZM128,208h8v8h-8ZM136,208h8v8h-8ZM152,208h8v8h-8ZM176,208h8v8h-8ZM184,208h8v8h-8ZM192,208h8v8h-8ZM200,208h8v8h-8ZM208,208h8v8h-8ZM216,208h8v8h-8ZM16,216h8v8h-8ZM32,216h8v8h-8ZM40,216h8v8h-8ZM48,216h8v8h-8ZM64,216h8v8h-8ZM80,216h8v8h-8ZM104,216h8v8h-8ZM144,216h8v8h-8ZM176,216h8v8h-8ZM208,216h8v8h-8ZM216,216h8v8h-8ZM232,216h8v8h-8ZM240,216h8v8h-8ZM16,224h8v8h-8ZM32,224h8v8h-8ZM40,224h8v8h-8ZM48,224h8v8h-8ZM64,224h8v8h-8ZM80,224h8v8h-8ZM88,224h8v8h-8ZM112,224h8v8h-8ZM120,224h8v8h-8ZM136,224h8v8h-8ZM168,224h8v8h-8ZM184,224h8v8h-8ZM192,224h8v8h-8ZM200,224h8v8h-8ZM208,224h8v8h-8ZM216,224h8v8h-8ZM224,224h8v8h-8ZM232,224h8v8h-8ZM16,232h8v8h-8ZM64,232h8v8h-8ZM88,232h8v8h-8ZM96,232h8v8h-8ZM104,232h8v8h-8ZM112,232h8v8h-8ZM128,232h8v8h-8ZM136,232h8v8h-8ZM144,232h8v8h-8ZM160,232h8v8h-8ZM176,232h8v8h-8ZM208,232h8v8h-8ZM216,232h8v8h-8ZM232,232h8v8h-8ZM16,240h8v8h-8ZM24,240h8v8h-8ZM32,240h8v8h-8ZM40,240h8v8h-8ZM48,240h8v8h-8ZM56,240h8v8h-8ZM64,240h8v8h-8ZM80,240h8v8h-8ZM88,240h8v8h-8ZM104,240h8v8h-8ZM112,240h8v8h-8ZM128,240h8v8h-8ZM136,240h8v8h-8ZM144,240h8v8h-8ZM152,240h8v8h-8ZM168,240h8v8h-8ZM184,240h8v8h-8ZM192,240h8v8h-8ZM208,240h8v8h-8ZM216,240h8v8h-8Z" fill="#2C3E50"/>
</svg>
